<svg width="936" height="117" viewBox="0 0 936 117" fill="none" xmlns="http://www.w3.org/2000/svg">
<path d="M1.972 36V16.858H6.868L12.24 34.742H12.308L17.578 16.858H22.474V36H19.584L19.754 18.184H19.686L14.314 36H10.132L4.794 18.184H4.726L4.862 36H1.972ZM24.3695 42.324V40.114H26.3755C26.8515 40.114 27.2482 40.0007 27.5655 39.774C27.8828 39.57 28.2682 39.0033 28.7215 38.074L29.9115 35.456L24.4715 22.094H27.3955L31.3055 32.532L35.4875 22.094H38.4455L31.3055 38.38C30.8068 39.536 30.3535 40.3973 29.9455 40.964C29.5375 41.5307 29.0842 41.8933 28.5855 42.052C28.0868 42.2333 27.4635 42.324 26.7155 42.324H24.3695ZM48.114 36V22.094H50.732L50.97 25.868C51.106 25.256 51.3667 24.6667 51.752 24.1C52.16 23.5107 52.7153 23.0347 53.418 22.672C54.1433 22.2867 55.0613 22.094 56.172 22.094H56.75V25.222H56.138C54.7553 25.222 53.69 25.4033 52.942 25.766C52.194 26.106 51.6727 26.616 51.378 27.296C51.0833 27.9533 50.936 28.7693 50.936 29.744V36H48.114ZM65.0266 36.34C62.7146 36.34 60.9919 35.6713 59.8586 34.334C58.7253 32.9967 58.1586 31.2967 58.1586 29.234C58.1359 27.1487 58.7026 25.4373 59.8586 24.1C61.0146 22.7627 62.7373 22.0827 65.0266 22.06C67.2479 22.06 68.9366 22.7173 70.0926 24.032C71.2486 25.3467 71.8266 27.0807 71.8266 29.234C71.8266 30.5713 71.5773 31.784 71.0786 32.872C70.6026 33.9373 69.8546 34.7873 68.8346 35.422C67.8373 36.034 66.5679 36.34 65.0266 36.34ZM65.0266 33.926C66.1146 33.926 66.9419 33.688 67.5086 33.212C68.0979 32.736 68.5059 32.1353 68.7326 31.41C68.9593 30.662 69.0726 29.9027 69.0726 29.132C69.0726 28.3613 68.9593 27.6133 68.7326 26.888C68.5059 26.14 68.0979 25.528 67.5086 25.052C66.9419 24.5533 66.1146 24.304 65.0266 24.304C63.9159 24.304 63.0659 24.5533 62.4766 25.052C61.8873 25.528 61.4793 26.14 61.2526 26.888C61.0259 27.6133 60.9126 28.3613 60.9126 29.132C60.9126 29.9027 61.0259 30.662 61.2526 31.41C61.4793 32.1353 61.8873 32.736 62.4766 33.212C63.0659 33.688 63.9159 33.926 65.0266 33.926ZM74.8133 36V16.858H77.6013V36H74.8133ZM86.9731 36.34C85.4091 36.34 84.1284 36 83.1311 35.32C82.1337 34.6173 81.3971 33.722 80.9211 32.634C80.4451 31.546 80.2071 30.4013 80.2071 29.2C80.1844 27.8627 80.4337 26.65 80.9551 25.562C81.4991 24.474 82.2697 23.6127 83.2671 22.978C84.2871 22.3433 85.4997 22.026 86.9051 22.026C88.1064 22.026 89.1831 22.298 90.1351 22.842C91.1097 23.3633 91.8804 24.1113 92.4471 25.086C93.0137 26.038 93.3197 27.1713 93.3651 28.486C93.3651 28.554 93.3651 28.69 93.3651 28.894C93.3877 29.0753 93.3991 29.234 93.3991 29.37H82.8931C82.8931 30.8207 83.2444 31.954 83.9471 32.77C84.6724 33.5633 85.6697 33.96 86.9391 33.96C87.8911 33.96 88.6957 33.722 89.3531 33.246C90.0331 32.7473 90.4524 32.09 90.6111 31.274H93.3651C93.1611 32.7247 92.5037 33.9373 91.3931 34.912C90.2824 35.864 88.8091 36.34 86.9731 36.34ZM82.9951 27.976H90.5431C90.5204 27.7267 90.4524 27.398 90.3391 26.99C90.2257 26.582 90.0331 26.1853 89.7611 25.8C89.5117 25.392 89.1491 25.052 88.6731 24.78C88.1971 24.508 87.5851 24.372 86.8371 24.372C85.9077 24.372 85.1711 24.576 84.6271 24.984C84.1057 25.3693 83.7091 25.8453 83.4371 26.412C83.1877 26.956 83.0404 27.4773 82.9951 27.976Z" fill="#131313"/>
<path d="M6.72 77.336C4.96 77.336 3.6 76.808 2.64 75.752C1.696 74.68 1.224 73.176 1.224 71.24V63.488H2.328V71.24C2.328 72.936 2.72 74.208 3.504 75.056C4.304 75.888 5.376 76.304 6.72 76.304C8.144 76.304 9.232 75.888 9.984 75.056C10.752 74.224 11.136 72.952 11.136 71.24V63.488H12.216V71.24C12.216 73.208 11.744 74.72 10.8 75.776C9.872 76.816 8.512 77.336 6.72 77.336ZM14.2892 77L19.3292 69.824L14.7932 63.488H16.1612L20.0012 69.056L23.8652 63.488H25.2092L20.7212 69.824L25.7852 77H24.4652L20.0012 70.592L15.5612 77H14.2892ZM45.5889 70.232C45.5889 72.008 45.2529 73.392 44.5809 74.384C43.9249 75.36 42.9969 76.04 41.7969 76.424C40.5969 76.808 39.1969 77 37.5969 77H34.0929V63.488H37.5969C39.1969 63.488 40.5969 63.744 41.7969 64.256C42.9969 64.752 43.9249 65.496 44.5809 66.488C45.2529 67.48 45.5889 68.728 45.5889 70.232ZM35.1969 76.04H37.7889C39.1169 76.04 40.2769 75.888 41.2689 75.584C42.2769 75.28 43.0529 74.712 43.5969 73.88C44.1569 73.048 44.4369 71.832 44.4369 70.232C44.4369 68.92 44.1569 67.84 43.5969 66.992C43.0529 66.128 42.2769 65.496 41.2689 65.096C40.2769 64.68 39.1169 64.472 37.7889 64.472H35.1969V76.04ZM51.6159 77.24C50.5759 77.24 49.7119 76.992 49.0239 76.496C48.3519 76 47.8479 75.368 47.5119 74.6C47.1759 73.816 47.0159 73.008 47.0319 72.176C47.0319 71.312 47.2079 70.504 47.5599 69.752C47.9119 69 48.4239 68.4 49.0959 67.952C49.7839 67.488 50.6159 67.256 51.5919 67.256C52.8079 67.256 53.8079 67.656 54.5919 68.456C55.3919 69.24 55.8399 70.296 55.9359 71.624C55.9519 71.704 55.9599 71.8 55.9599 71.912C55.9599 72.024 55.9599 72.128 55.9599 72.224H48.0879C48.0879 73.456 48.3919 74.44 48.9999 75.176C49.6079 75.912 50.4799 76.28 51.6159 76.28C52.4319 76.28 53.1359 76.064 53.7279 75.632C54.3359 75.2 54.7119 74.616 54.8559 73.88H55.9359C55.7439 74.872 55.2559 75.68 54.4719 76.304C53.7039 76.928 52.7519 77.24 51.6159 77.24ZM48.1599 71.504H54.8319C54.8159 71.088 54.6959 70.624 54.4719 70.112C54.2639 69.6 53.9199 69.152 53.4399 68.768C52.9759 68.384 52.3599 68.192 51.5919 68.192C50.5359 68.192 49.7279 68.52 49.1679 69.176C48.6079 69.832 48.2719 70.608 48.1599 71.504ZM61.6794 77.24C60.8634 77.24 60.1994 77.104 59.6874 76.832C59.1754 76.544 58.7834 76.208 58.5114 75.824C58.2394 75.44 58.0474 75.072 57.9354 74.72C57.8394 74.368 57.7914 74.112 57.7914 73.952H58.8714C58.8714 73.968 58.8794 74.104 58.8954 74.36C58.9274 74.6 59.0234 74.88 59.1834 75.2C59.3434 75.52 59.6154 75.8 59.9994 76.04C60.3994 76.264 60.9674 76.376 61.7034 76.376C62.2154 76.376 62.6954 76.32 63.1434 76.208C63.6074 76.08 63.9754 75.888 64.2474 75.632C64.5354 75.36 64.6794 75.008 64.6794 74.576C64.6634 74.064 64.4954 73.672 64.1754 73.4C63.8554 73.112 63.4394 72.896 62.9274 72.752C62.4154 72.608 61.8794 72.48 61.3194 72.368C60.7594 72.256 60.2234 72.104 59.7114 71.912C59.2154 71.72 58.8074 71.44 58.4874 71.072C58.1834 70.704 58.0394 70.2 58.0554 69.56C58.0554 68.808 58.4074 68.192 59.1114 67.712C59.8154 67.232 60.7194 66.992 61.8234 66.992C62.2394 66.992 62.6714 67.04 63.1194 67.136C63.5834 67.232 64.0154 67.4 64.4154 67.64C64.8154 67.88 65.1354 68.216 65.3754 68.648C65.6154 69.064 65.7194 69.6 65.6874 70.256H64.6314C64.6634 69.76 64.5834 69.36 64.3914 69.056C64.1994 68.736 63.9434 68.496 63.6234 68.336C63.3194 68.176 62.9994 68.072 62.6634 68.024C62.3274 67.96 62.0234 67.928 61.7514 67.928C60.9994 67.928 60.3594 68.072 59.8314 68.36C59.3194 68.632 59.0634 69.04 59.0634 69.584C59.0634 70.08 59.2234 70.456 59.5434 70.712C59.8634 70.952 60.2794 71.144 60.7914 71.288C61.3034 71.416 61.8394 71.544 62.3994 71.672C62.9594 71.784 63.4874 71.944 63.9834 72.152C64.4954 72.344 64.9114 72.632 65.2314 73.016C65.5674 73.4 65.7354 73.936 65.7354 74.624C65.7354 75.232 65.5514 75.736 65.1834 76.136C64.8154 76.52 64.3194 76.8 63.6954 76.976C63.0874 77.152 62.4154 77.24 61.6794 77.24ZM68.5071 66.224C68.2351 66.24 68.0511 66.168 67.9551 66.008C67.8591 65.848 67.8111 65.656 67.8111 65.432C67.8111 65.224 67.8591 65.048 67.9551 64.904C68.0511 64.76 68.2351 64.688 68.5071 64.688C68.7631 64.688 68.9391 64.76 69.0351 64.904C69.1311 65.048 69.1791 65.224 69.1791 65.432C69.1791 65.672 69.1311 65.864 69.0351 66.008C68.9391 66.152 68.7631 66.224 68.5071 66.224ZM67.9311 77V67.256H69.0111V77H67.9311ZM73.5742 80.84V79.808H78.7103V74.624H78.6623C78.6303 74.736 78.5343 74.928 78.3743 75.2C78.2303 75.472 78.0143 75.768 77.7263 76.088C77.4383 76.408 77.0623 76.68 76.5983 76.904C76.1503 77.128 75.6063 77.24 74.9663 77.24C74.0383 77.24 73.2463 77.016 72.5903 76.568C71.9503 76.12 71.4623 75.52 71.1263 74.768C70.7903 74.016 70.6223 73.176 70.6223 72.248C70.6223 71.304 70.7903 70.456 71.1263 69.704C71.4783 68.952 71.9743 68.36 72.6143 67.928C73.2703 67.48 74.0623 67.256 74.9903 67.256C75.6463 67.256 76.1983 67.376 76.6463 67.616C77.1103 67.84 77.4783 68.112 77.7503 68.432C78.0383 68.736 78.2463 69.032 78.3743 69.32C78.5183 69.592 78.6063 69.784 78.6383 69.896H78.6863L78.7103 67.256H79.8383V79.088C79.8383 79.6 79.7423 80.016 79.5503 80.336C79.3743 80.672 78.9983 80.84 78.4223 80.84H73.5742ZM75.1103 76.208C76.0863 76.208 76.9183 75.864 77.6063 75.176C78.3103 74.488 78.6623 73.512 78.6623 72.248C78.6623 71.016 78.3343 70.056 77.6783 69.368C77.0223 68.664 76.2143 68.312 75.2543 68.312C74.4543 68.312 73.7903 68.504 73.2623 68.888C72.7343 69.256 72.3423 69.744 72.0863 70.352C71.8303 70.944 71.7023 71.576 71.7023 72.248C71.7023 72.92 71.8143 73.56 72.0383 74.168C72.2783 74.776 72.6463 75.272 73.1423 75.656C73.6543 76.024 74.3103 76.208 75.1103 76.208ZM82.0063 77V67.28H82.9183L83.1103 69.848H83.1583C83.1903 69.736 83.2703 69.544 83.3983 69.272C83.5263 69 83.7263 68.712 83.9983 68.408C84.2703 68.088 84.6303 67.816 85.0783 67.592C85.5263 67.368 86.0863 67.256 86.7583 67.256C87.5903 67.256 88.2543 67.408 88.7503 67.712C89.2463 68 89.6223 68.384 89.8783 68.864C90.1343 69.344 90.3023 69.872 90.3823 70.448C90.4623 71.024 90.5023 71.6 90.5023 72.176V77H89.4223V72.152C89.4223 70.968 89.2143 70.024 88.7983 69.32C88.3983 68.616 87.6463 68.264 86.5423 68.264C85.7583 68.264 85.1103 68.456 84.5983 68.84C84.1023 69.208 83.7263 69.712 83.4703 70.352C83.2303 70.976 83.1103 71.656 83.1103 72.392V77H82.0063ZM6.72 110.336C4.96 110.336 3.6 109.808 2.64 108.752C1.696 107.68 1.224 106.176 1.224 104.24V96.488H2.328V104.24C2.328 105.936 2.72 107.208 3.504 108.056C4.304 108.888 5.376 109.304 6.72 109.304C8.144 109.304 9.232 108.888 9.984 108.056C10.752 107.224 11.136 105.952 11.136 104.24V96.488H12.216V104.24C12.216 106.208 11.744 107.72 10.8 108.776C9.872 109.816 8.512 110.336 6.72 110.336ZM14.2892 110L19.3292 102.824L14.7932 96.488H16.1612L20.0012 102.056L23.8652 96.488H25.2092L20.7212 102.824L25.7852 110H24.4652L20.0012 103.592L15.5612 110H14.2892ZM41.8449 96.488H42.9969L47.0529 109.448L51.1329 96.488H52.3329L47.9649 110H46.1649L42.4209 98L38.5089 110H36.6849L32.5329 96.488H33.7089L37.6209 109.448L41.8449 96.488ZM54.0527 110V100.256H54.9887L55.1327 102.752C55.2927 102.064 55.6687 101.472 56.2607 100.976C56.8527 100.48 57.6847 100.24 58.7567 100.256H59.2847V101.48H58.7567C57.6687 101.48 56.8687 101.656 56.3567 102.008C55.8447 102.344 55.5087 102.8 55.3487 103.376C55.2047 103.952 55.1327 104.592 55.1327 105.296V110H54.0527ZM61.593 99.224C61.321 99.24 61.137 99.168 61.041 99.008C60.945 98.848 60.897 98.656 60.897 98.432C60.897 98.224 60.945 98.048 61.041 97.904C61.137 97.76 61.321 97.688 61.593 97.688C61.849 97.688 62.025 97.76 62.121 97.904C62.217 98.048 62.265 98.224 62.265 98.432C62.265 98.672 62.217 98.864 62.121 99.008C62.025 99.152 61.849 99.224 61.593 99.224ZM61.017 110V100.256H62.097V110H61.017ZM66.7969 110C66.2849 110 65.9569 109.856 65.8129 109.568C65.6689 109.28 65.5969 108.936 65.5969 108.536V101.144H63.9889V100.256C64.5649 100.256 64.9649 100.224 65.1889 100.16C65.4129 100.08 65.5489 99.864 65.5969 99.512C65.6449 99.16 65.6689 98.568 65.6689 97.736H66.6529V100.256H68.9329V101.144H66.6529V109.064H68.9329V110H66.7969ZM72.0461 99.224C71.7741 99.24 71.5901 99.168 71.4941 99.008C71.3981 98.848 71.3501 98.656 71.3501 98.432C71.3501 98.224 71.3981 98.048 71.4941 97.904C71.5901 97.76 71.7741 97.688 72.0461 97.688C72.3021 97.688 72.4781 97.76 72.5741 97.904C72.6701 98.048 72.7181 98.224 72.7181 98.432C72.7181 98.672 72.6701 98.864 72.5741 99.008C72.4781 99.152 72.3021 99.224 72.0461 99.224ZM71.4701 110V100.256H72.5501V110H71.4701ZM74.8813 110V100.28H75.7933L75.9853 102.848H76.0333C76.0653 102.736 76.1453 102.544 76.2733 102.272C76.4013 102 76.6013 101.712 76.8733 101.408C77.1453 101.088 77.5053 100.816 77.9533 100.592C78.4013 100.368 78.9613 100.256 79.6333 100.256C80.4653 100.256 81.1293 100.408 81.6253 100.712C82.1213 101 82.4973 101.384 82.7533 101.864C83.0093 102.344 83.1773 102.872 83.2573 103.448C83.3373 104.024 83.3773 104.6 83.3773 105.176V110H82.2973V105.152C82.2973 103.968 82.0893 103.024 81.6733 102.32C81.2733 101.616 80.5213 101.264 79.4173 101.264C78.6333 101.264 77.9853 101.456 77.4733 101.84C76.9773 102.208 76.6013 102.712 76.3453 103.352C76.1053 103.976 75.9853 104.656 75.9853 105.392V110H74.8813ZM87.5664 113.84V112.808H92.7024V107.624H92.6544C92.6224 107.736 92.5264 107.928 92.3664 108.2C92.2224 108.472 92.0064 108.768 91.7184 109.088C91.4304 109.408 91.0544 109.68 90.5904 109.904C90.1424 110.128 89.5984 110.24 88.9584 110.24C88.0304 110.24 87.2384 110.016 86.5824 109.568C85.9424 109.12 85.4544 108.52 85.1184 107.768C84.7824 107.016 84.6144 106.176 84.6144 105.248C84.6144 104.304 84.7824 103.456 85.1184 102.704C85.4704 101.952 85.9664 101.36 86.6064 100.928C87.2624 100.48 88.0544 100.256 88.9824 100.256C89.6384 100.256 90.1904 100.376 90.6384 100.616C91.1024 100.84 91.4704 101.112 91.7424 101.432C92.0304 101.736 92.2384 102.032 92.3664 102.32C92.5104 102.592 92.5984 102.784 92.6304 102.896H92.6784L92.7024 100.256H93.8304V112.088C93.8304 112.6 93.7344 113.016 93.5424 113.336C93.3664 113.672 92.9904 113.84 92.4144 113.84H87.5664ZM89.1024 109.208C90.0784 109.208 90.9104 108.864 91.5984 108.176C92.3024 107.488 92.6544 106.512 92.6544 105.248C92.6544 104.016 92.3264 103.056 91.6704 102.368C91.0144 101.664 90.2064 101.312 89.2464 101.312C88.4464 101.312 87.7824 101.504 87.2544 101.888C86.7264 102.256 86.3344 102.744 86.0784 103.352C85.8224 103.944 85.6944 104.576 85.6944 105.248C85.6944 105.92 85.8064 106.56 86.0304 107.168C86.2704 107.776 86.6384 108.272 87.1344 108.656C87.6464 109.024 88.3024 109.208 89.1024 109.208Z" fill="black"/>
<path d="M312.34 19.85V16.858H327.13V19.85H321.452V36H317.984V19.85H312.34ZM333.168 36.34C331.582 36.34 330.267 36.034 329.224 35.422C328.182 34.81 327.4 33.9713 326.878 32.906C326.357 31.818 326.096 30.5827 326.096 29.2C326.074 27.1147 326.652 25.4033 327.83 24.066C329.032 22.706 330.811 22.026 333.168 22.026C335.458 22.026 337.192 22.6833 338.37 23.998C339.572 25.3127 340.172 27.0467 340.172 29.2C340.172 30.5373 339.923 31.75 339.424 32.838C338.926 33.926 338.155 34.7873 337.112 35.422C336.07 36.034 334.755 36.34 333.168 36.34ZM333.168 33.416C334.166 33.416 334.925 33.2007 335.446 32.77C335.99 32.3393 336.353 31.7953 336.534 31.138C336.716 30.458 336.806 29.778 336.806 29.098C336.806 28.3953 336.716 27.704 336.534 27.024C336.353 26.344 335.99 25.7887 335.446 25.358C334.925 24.9273 334.166 24.712 333.168 24.712C332.148 24.712 331.366 24.9387 330.822 25.392C330.301 25.8227 329.938 26.378 329.734 27.058C329.553 27.7153 329.462 28.3953 329.462 29.098C329.462 29.778 329.553 30.458 329.734 31.138C329.938 31.7953 330.301 32.3393 330.822 32.77C331.366 33.2007 332.148 33.416 333.168 33.416ZM349.206 36.34C347.619 36.34 346.304 36.034 345.262 35.422C344.219 34.81 343.437 33.9713 342.916 32.906C342.394 31.818 342.134 30.5827 342.134 29.2C342.111 27.1147 342.689 25.4033 343.868 24.066C345.069 22.706 346.848 22.026 349.206 22.026C351.495 22.026 353.229 22.6833 354.408 23.998C355.609 25.3127 356.21 27.0467 356.21 29.2C356.21 30.5373 355.96 31.75 355.462 32.838C354.963 33.926 354.192 34.7873 353.15 35.422C352.107 36.034 350.792 36.34 349.206 36.34ZM349.206 33.416C350.203 33.416 350.962 33.2007 351.484 32.77C352.028 32.3393 352.39 31.7953 352.572 31.138C352.753 30.458 352.844 29.778 352.844 29.098C352.844 28.3953 352.753 27.704 352.572 27.024C352.39 26.344 352.028 25.7887 351.484 25.358C350.962 24.9273 350.203 24.712 349.206 24.712C348.186 24.712 347.404 24.9387 346.86 25.392C346.338 25.8227 345.976 26.378 345.772 27.058C345.59 27.7153 345.5 28.3953 345.5 29.098C345.5 29.778 345.59 30.458 345.772 31.138C345.976 31.7953 346.338 32.3393 346.86 32.77C347.404 33.2007 348.186 33.416 349.206 33.416ZM359.021 36V16.858H362.421V36H359.021ZM371.203 36.34C370.613 36.34 369.956 36.238 369.231 36.034C368.528 35.83 367.848 35.524 367.191 35.116C366.556 34.708 366.023 34.1867 365.593 33.552C365.185 32.8947 364.981 32.124 364.981 31.24H368.177C368.177 31.2853 368.188 31.444 368.211 31.716C368.233 31.9653 368.324 32.26 368.483 32.6C368.664 32.9173 368.959 33.2007 369.367 33.45C369.775 33.6993 370.364 33.824 371.135 33.824C372.041 33.824 372.721 33.6653 373.175 33.348C373.628 33.008 373.855 32.6227 373.855 32.192C373.855 31.6933 373.639 31.308 373.209 31.036C372.801 30.7413 372.268 30.5033 371.611 30.322C370.953 30.1407 370.251 29.9593 369.503 29.778C368.777 29.574 368.086 29.3133 367.429 28.996C366.794 28.6787 366.273 28.248 365.865 27.704C365.457 27.1373 365.253 26.412 365.253 25.528C365.253 24.236 365.774 23.2613 366.817 22.604C367.859 21.924 369.185 21.584 370.795 21.584C371.928 21.584 372.982 21.7653 373.957 22.128C374.931 22.468 375.713 23.0233 376.303 23.794C376.892 24.542 377.187 25.528 377.187 26.752H373.991C374.013 26.0493 373.855 25.528 373.515 25.188C373.197 24.8253 372.789 24.576 372.291 24.44C371.815 24.304 371.35 24.236 370.897 24.236C370.081 24.236 369.457 24.3833 369.027 24.678C368.619 24.95 368.415 25.3127 368.415 25.766C368.415 26.2873 368.619 26.6953 369.027 26.99C369.457 27.262 370.001 27.4887 370.659 27.67C371.339 27.8513 372.041 28.044 372.767 28.248C373.515 28.4293 374.217 28.6787 374.875 28.996C375.555 29.3133 376.099 29.744 376.507 30.288C376.937 30.8093 377.153 31.512 377.153 32.396C377.153 33.7333 376.597 34.7307 375.487 35.388C374.399 36.0227 372.971 36.34 371.203 36.34Z" fill="#131313"/>
<path d="M314.832 77H313.752V63.488H322.944V64.472H314.832V69.296H321.312V70.256H314.832V77ZM325.124 66.224C324.852 66.24 324.668 66.168 324.572 66.008C324.476 65.848 324.428 65.656 324.428 65.432C324.428 65.224 324.476 65.048 324.572 64.904C324.668 64.76 324.852 64.688 325.124 64.688C325.38 64.688 325.556 64.76 325.652 64.904C325.748 65.048 325.796 65.224 325.796 65.432C325.796 65.672 325.748 65.864 325.652 66.008C325.556 66.152 325.38 66.224 325.124 66.224ZM324.548 77V67.256H325.628V77H324.548ZM330.191 80.84V79.808H335.327V74.624H335.279C335.247 74.736 335.151 74.928 334.991 75.2C334.847 75.472 334.631 75.768 334.343 76.088C334.055 76.408 333.679 76.68 333.215 76.904C332.767 77.128 332.223 77.24 331.583 77.24C330.655 77.24 329.863 77.016 329.207 76.568C328.567 76.12 328.079 75.52 327.743 74.768C327.407 74.016 327.239 73.176 327.239 72.248C327.239 71.304 327.407 70.456 327.743 69.704C328.095 68.952 328.591 68.36 329.231 67.928C329.887 67.48 330.679 67.256 331.607 67.256C332.263 67.256 332.815 67.376 333.263 67.616C333.727 67.84 334.095 68.112 334.367 68.432C334.655 68.736 334.863 69.032 334.991 69.32C335.135 69.592 335.223 69.784 335.255 69.896H335.303L335.327 67.256H336.455V79.088C336.455 79.6 336.359 80.016 336.167 80.336C335.991 80.672 335.615 80.84 335.039 80.84H330.191ZM331.727 76.208C332.703 76.208 333.535 75.864 334.223 75.176C334.927 74.488 335.279 73.512 335.279 72.248C335.279 71.016 334.951 70.056 334.295 69.368C333.639 68.664 332.831 68.312 331.871 68.312C331.071 68.312 330.407 68.504 329.879 68.888C329.351 69.256 328.959 69.744 328.703 70.352C328.447 70.944 328.319 71.576 328.319 72.248C328.319 72.92 328.431 73.56 328.655 74.168C328.895 74.776 329.263 75.272 329.759 75.656C330.271 76.024 330.927 76.208 331.727 76.208ZM338.624 77V67.256H339.536L339.632 69.848H339.68C339.728 69.704 339.808 69.496 339.92 69.224C340.048 68.936 340.232 68.648 340.472 68.36C340.712 68.056 341.032 67.8 341.432 67.592C341.832 67.368 342.328 67.256 342.92 67.256C343.56 67.256 344.072 67.384 344.456 67.64C344.856 67.88 345.168 68.2 345.392 68.6C345.616 69 345.776 69.416 345.872 69.848H345.92C345.968 69.704 346.056 69.496 346.184 69.224C346.328 68.936 346.528 68.648 346.784 68.36C347.056 68.056 347.4 67.8 347.816 67.592C348.232 67.368 348.736 67.256 349.328 67.256C349.968 67.256 350.488 67.384 350.888 67.64C351.288 67.896 351.6 68.224 351.824 68.624C352.048 69.008 352.208 69.424 352.304 69.872C352.4 70.32 352.456 70.752 352.472 71.168C352.488 71.568 352.496 71.904 352.496 72.176V77H351.512V72.152C351.512 71.88 351.496 71.536 351.464 71.12C351.448 70.688 351.36 70.256 351.2 69.824C351.056 69.376 350.816 69.008 350.48 68.72C350.144 68.416 349.664 68.264 349.04 68.264C348.352 68.264 347.792 68.456 347.36 68.84C346.928 69.224 346.6 69.728 346.376 70.352C346.168 70.976 346.064 71.656 346.064 72.392V77H345.08V72.152C345.08 71.88 345.064 71.536 345.032 71.12C345.016 70.688 344.928 70.256 344.768 69.824C344.624 69.376 344.384 69.008 344.048 68.72C343.712 68.416 343.232 68.264 342.608 68.264C341.92 68.264 341.36 68.456 340.928 68.84C340.496 69.224 340.168 69.728 339.944 70.352C339.736 70.976 339.632 71.656 339.632 72.392V77H338.624ZM357.947 77.216C357.051 77.216 356.307 76.992 355.715 76.544C355.123 76.096 354.683 75.496 354.395 74.744C354.107 73.976 353.963 73.128 353.963 72.2C353.963 71.24 354.107 70.384 354.395 69.632C354.699 68.864 355.147 68.264 355.739 67.832C356.331 67.384 357.067 67.16 357.947 67.16C358.891 67.16 359.643 67.392 360.203 67.856C360.763 68.304 361.163 68.824 361.403 69.416H361.451V67.256H362.555V77H361.643L361.451 74.984H361.403C361.147 75.576 360.739 76.096 360.179 76.544C359.619 76.992 358.875 77.216 357.947 77.216ZM358.355 76.208C359.379 76.208 360.147 75.856 360.659 75.152C361.171 74.448 361.427 73.472 361.427 72.224C361.427 70.896 361.155 69.896 360.611 69.224C360.083 68.552 359.331 68.216 358.355 68.216C357.219 68.216 356.387 68.6 355.859 69.368C355.331 70.12 355.067 71.064 355.067 72.2C355.067 73.384 355.339 74.352 355.883 75.104C356.427 75.84 357.251 76.208 358.355 76.208ZM313.344 110V96.488H315.24L320.208 109.472H320.256L325.176 96.488H327.072V110H325.968L326.016 97.112H325.968L321.024 110H319.368L314.448 97.112H314.4L314.448 110H313.344ZM330.445 99.224C330.173 99.24 329.989 99.168 329.893 99.008C329.797 98.848 329.749 98.656 329.749 98.432C329.749 98.224 329.797 98.048 329.893 97.904C329.989 97.76 330.173 97.688 330.445 97.688C330.701 97.688 330.877 97.76 330.973 97.904C331.069 98.048 331.117 98.224 331.117 98.432C331.117 98.672 331.069 98.864 330.973 99.008C330.877 99.152 330.701 99.224 330.445 99.224ZM329.869 110V100.256H330.949V110H329.869ZM333.592 110V100.256H334.528L334.672 102.752C334.832 102.064 335.208 101.472 335.8 100.976C336.392 100.48 337.224 100.24 338.296 100.256H338.824V101.48H338.296C337.208 101.48 336.408 101.656 335.896 102.008C335.384 102.344 335.048 102.8 334.888 103.376C334.744 103.952 334.672 104.592 334.672 105.296V110H333.592ZM344.209 110.24C342.689 110.24 341.545 109.776 340.777 108.848C340.025 107.904 339.649 106.712 339.649 105.272C339.649 103.8 340.033 102.6 340.801 101.672C341.569 100.728 342.705 100.256 344.209 100.256C345.681 100.256 346.801 100.72 347.569 101.648C348.353 102.56 348.745 103.768 348.745 105.272C348.745 106.216 348.577 107.064 348.241 107.816C347.921 108.552 347.425 109.144 346.753 109.592C346.097 110.024 345.249 110.24 344.209 110.24ZM344.209 109.256C345.105 109.256 345.801 109.056 346.297 108.656C346.793 108.256 347.137 107.752 347.329 107.144C347.537 106.52 347.641 105.888 347.641 105.248C347.641 104.592 347.537 103.96 347.329 103.352C347.137 102.728 346.793 102.216 346.297 101.816C345.801 101.4 345.105 101.192 344.209 101.192C343.313 101.192 342.617 101.4 342.121 101.816C341.625 102.216 341.273 102.728 341.065 103.352C340.857 103.96 340.753 104.592 340.753 105.248C340.753 105.888 340.857 106.52 341.065 107.144C341.273 107.752 341.625 108.256 342.121 108.656C342.617 109.056 343.313 109.256 344.209 109.256Z" fill="black"/>
<path d="M624.34 19.306V16.858H638.96V19.306H633.078V36H630.256V19.306H624.34ZM641.974 20.564C641.362 20.5867 640.954 20.4393 640.75 20.122C640.546 19.8047 640.444 19.408 640.444 18.932C640.444 18.524 640.546 18.1613 640.75 17.844C640.954 17.5267 641.362 17.368 641.974 17.368C642.563 17.368 642.96 17.5267 643.164 17.844C643.39 18.1613 643.504 18.524 643.504 18.932C643.504 19.408 643.39 19.8047 643.164 20.122C642.96 20.4167 642.563 20.564 641.974 20.564ZM640.546 36V22.094H643.368V36H640.546ZM646.509 36V22.094H648.957L649.025 25.324H649.093C649.138 25.2107 649.229 24.984 649.365 24.644C649.523 24.304 649.761 23.9413 650.079 23.556C650.419 23.148 650.861 22.808 651.405 22.536C651.949 22.2413 652.617 22.094 653.411 22.094C654.612 22.094 655.496 22.4227 656.063 23.08C656.652 23.7147 657.071 24.4627 657.321 25.324H657.389C657.411 25.2107 657.513 24.984 657.695 24.644C657.876 24.304 658.137 23.9413 658.477 23.556C658.839 23.148 659.304 22.808 659.871 22.536C660.437 22.2413 661.129 22.094 661.945 22.094C662.829 22.094 663.543 22.2753 664.087 22.638C664.653 23.0007 665.084 23.4767 665.379 24.066C665.696 24.6327 665.911 25.2447 666.025 25.902C666.161 26.5367 666.24 27.1487 666.263 27.738C666.285 28.3273 666.297 28.8147 666.297 29.2V36H663.883V29.166C663.883 28.826 663.86 28.4067 663.815 27.908C663.792 27.3867 663.69 26.8767 663.509 26.378C663.35 25.8567 663.067 25.4373 662.659 25.12C662.273 24.78 661.718 24.61 660.993 24.61C660.131 24.61 659.463 24.8367 658.987 25.29C658.511 25.7433 658.171 26.344 657.967 27.092C657.763 27.8173 657.661 28.5767 657.661 29.37V36H655.247V29.166C655.247 28.826 655.224 28.4067 655.179 27.908C655.156 27.3867 655.054 26.8767 654.873 26.378C654.714 25.8567 654.431 25.4373 654.023 25.12C653.637 24.78 653.082 24.61 652.357 24.61C651.495 24.61 650.827 24.8367 650.351 25.29C649.875 25.7433 649.535 26.344 649.331 27.092C649.127 27.8173 649.025 28.5767 649.025 29.37V36H646.509ZM675.346 36.34C673.782 36.34 672.501 36 671.504 35.32C670.507 34.6173 669.77 33.722 669.294 32.634C668.818 31.546 668.58 30.4013 668.58 29.2C668.557 27.8627 668.807 26.65 669.328 25.562C669.872 24.474 670.643 23.6127 671.64 22.978C672.66 22.3433 673.873 22.026 675.278 22.026C676.479 22.026 677.556 22.298 678.508 22.842C679.483 23.3633 680.253 24.1113 680.82 25.086C681.387 26.038 681.693 27.1713 681.738 28.486C681.738 28.554 681.738 28.69 681.738 28.894C681.761 29.0753 681.772 29.234 681.772 29.37H671.266C671.266 30.8207 671.617 31.954 672.32 32.77C673.045 33.5633 674.043 33.96 675.312 33.96C676.264 33.96 677.069 33.722 677.726 33.246C678.406 32.7473 678.825 32.09 678.984 31.274H681.738C681.534 32.7247 680.877 33.9373 679.766 34.912C678.655 35.864 677.182 36.34 675.346 36.34ZM671.368 27.976H678.916C678.893 27.7267 678.825 27.398 678.712 26.99C678.599 26.582 678.406 26.1853 678.134 25.8C677.885 25.392 677.522 25.052 677.046 24.78C676.57 24.508 675.958 24.372 675.21 24.372C674.281 24.372 673.544 24.576 673 24.984C672.479 25.3693 672.082 25.8453 671.81 26.412C671.561 26.956 671.413 27.4773 671.368 27.976ZM684.901 36V16.858H687.689V36H684.901ZM692.675 20.564C692.063 20.5867 691.655 20.4393 691.451 20.122C691.247 19.8047 691.145 19.408 691.145 18.932C691.145 18.524 691.247 18.1613 691.451 17.844C691.655 17.5267 692.063 17.368 692.675 17.368C693.264 17.368 693.661 17.5267 693.865 17.844C694.092 18.1613 694.205 18.524 694.205 18.932C694.205 19.408 694.092 19.8047 693.865 20.122C693.661 20.4167 693.264 20.564 692.675 20.564ZM691.247 36V22.094H694.069V36H691.247ZM697.21 36V22.128H699.624L700.1 25.324H700.168C700.191 25.2333 700.281 25.018 700.44 24.678C700.599 24.338 700.859 23.9753 701.222 23.59C701.585 23.182 702.072 22.8307 702.684 22.536C703.296 22.2413 704.067 22.094 704.996 22.094C706.22 22.094 707.172 22.332 707.852 22.808C708.532 23.2613 709.031 23.862 709.348 24.61C709.665 25.3353 709.858 26.106 709.926 26.922C710.017 27.738 710.062 28.4973 710.062 29.2V36H707.308V29.166C707.308 28.3047 707.217 27.534 707.036 26.854C706.855 26.1513 706.515 25.6073 706.016 25.222C705.54 24.814 704.837 24.61 703.908 24.61C702.956 24.61 702.197 24.8367 701.63 25.29C701.063 25.7433 700.667 26.3327 700.44 27.058C700.213 27.7833 700.1 28.554 700.1 29.37V36H697.21ZM719.108 36.34C717.544 36.34 716.263 36 715.266 35.32C714.268 34.6173 713.532 33.722 713.056 32.634C712.58 31.546 712.342 30.4013 712.342 29.2C712.319 27.8627 712.568 26.65 713.09 25.562C713.634 24.474 714.404 23.6127 715.402 22.978C716.422 22.3433 717.634 22.026 719.04 22.026C720.241 22.026 721.318 22.298 722.27 22.842C723.244 23.3633 724.015 24.1113 724.582 25.086C725.148 26.038 725.454 27.1713 725.5 28.486C725.5 28.554 725.5 28.69 725.5 28.894C725.522 29.0753 725.534 29.234 725.534 29.37H715.028C715.028 30.8207 715.379 31.954 716.082 32.77C716.807 33.5633 717.804 33.96 719.074 33.96C720.026 33.96 720.83 33.722 721.488 33.246C722.168 32.7473 722.587 32.09 722.746 31.274H725.5C725.296 32.7247 724.638 33.9373 723.528 34.912C722.417 35.864 720.944 36.34 719.108 36.34ZM715.13 27.976H722.678C722.655 27.7267 722.587 27.398 722.474 26.99C722.36 26.582 722.168 26.1853 721.896 25.8C721.646 25.392 721.284 25.052 720.808 24.78C720.332 24.508 719.72 24.372 718.972 24.372C718.042 24.372 717.306 24.576 716.762 24.984C716.24 25.3693 715.844 25.8453 715.572 26.412C715.322 26.956 715.175 27.4773 715.13 27.976ZM754.861 36.068C754.023 35.728 753.229 35.3653 752.481 34.98C751.756 34.572 750.985 34.096 750.169 33.552C749.24 34.4587 748.175 35.1387 746.973 35.592C745.772 36.0453 744.548 36.2833 743.301 36.306C742.077 36.3287 740.944 36.136 739.901 35.728C738.859 35.2973 738.009 34.6627 737.351 33.824C736.717 32.9627 736.399 31.8973 736.399 30.628C736.399 29.744 736.569 28.996 736.909 28.384C737.249 27.772 737.669 27.2733 738.167 26.888C738.666 26.48 739.165 26.1513 739.663 25.902C740.162 25.63 740.559 25.4147 740.853 25.256C740.672 25.0067 740.411 24.6667 740.071 24.236C739.754 23.8053 739.459 23.3067 739.187 22.74C738.938 22.1507 738.813 21.4933 738.813 20.768C738.813 19.8613 739.051 19.102 739.527 18.49C740.003 17.8553 740.627 17.3793 741.397 17.062C742.168 16.7447 742.984 16.586 743.845 16.586C744.707 16.5633 745.523 16.6993 746.293 16.994C747.064 17.2887 747.687 17.742 748.163 18.354C748.662 18.9433 748.911 19.6913 748.911 20.598C748.911 21.3687 748.707 22.06 748.299 22.672C747.914 23.2613 747.438 23.7713 746.871 24.202C746.327 24.6327 745.817 24.9727 745.341 25.222C744.888 25.4713 744.593 25.63 744.457 25.698C744.707 26.0153 745.069 26.4347 745.545 26.956C746.044 27.4547 746.611 27.9873 747.245 28.554C747.903 29.098 748.571 29.6193 749.251 30.118C749.501 29.7327 749.739 29.2227 749.965 28.588C750.192 27.9533 750.294 27.3073 750.271 26.65C750.271 25.9927 750.045 25.426 749.591 24.95L751.971 23.352C752.153 23.624 752.345 24.0547 752.549 24.644C752.776 25.2333 752.923 25.9247 752.991 26.718C753.082 27.5113 753.037 28.3387 752.855 29.2C752.674 30.0613 752.3 30.8887 751.733 31.682C752.391 32.1353 753.025 32.5433 753.637 32.906C754.272 33.246 755.031 33.586 755.915 33.926L754.861 36.068ZM742.893 24.372C743.052 24.304 743.324 24.168 743.709 23.964C744.095 23.76 744.491 23.5107 744.899 23.216C745.307 22.9213 745.659 22.5927 745.953 22.23C746.271 21.8447 746.441 21.4367 746.463 21.006C746.509 20.4167 746.361 19.952 746.021 19.612C745.681 19.2493 745.251 19.0113 744.729 18.898C744.231 18.762 743.721 18.762 743.199 18.898C742.678 19.0113 742.236 19.2493 741.873 19.612C741.533 19.952 741.363 20.428 741.363 21.04C741.386 22.0147 741.896 23.1253 742.893 24.372ZM747.959 31.954C746.939 31.1833 745.931 30.322 744.933 29.37C743.936 28.418 743.086 27.5 742.383 26.616C741.545 27.024 740.808 27.5 740.173 28.044C739.539 28.588 739.221 29.336 739.221 30.288C739.221 31.2853 739.527 32.0787 740.139 32.668C740.774 33.2347 741.567 33.5973 742.519 33.756C743.471 33.9147 744.435 33.8467 745.409 33.552C746.407 33.2573 747.257 32.7247 747.959 31.954ZM764.557 19.306V16.858H779.177V19.306H773.295V36H770.473V19.306H764.557ZM784.883 36.34C783.319 36.34 782.039 36 781.041 35.32C780.044 34.6173 779.307 33.722 778.831 32.634C778.355 31.546 778.117 30.4013 778.117 29.2C778.095 27.8627 778.344 26.65 778.865 25.562C779.409 24.474 780.18 23.6127 781.177 22.978C782.197 22.3433 783.41 22.026 784.815 22.026C786.017 22.026 787.093 22.298 788.045 22.842C789.02 23.3633 789.791 24.1113 790.357 25.086C790.924 26.038 791.23 27.1713 791.275 28.486C791.275 28.554 791.275 28.69 791.275 28.894C791.298 29.0753 791.309 29.234 791.309 29.37H780.803C780.803 30.8207 781.155 31.954 781.857 32.77C782.583 33.5633 783.58 33.96 784.849 33.96C785.801 33.96 786.606 33.722 787.263 33.246C787.943 32.7473 788.363 32.09 788.521 31.274H791.275C791.071 32.7247 790.414 33.9373 789.303 34.912C788.193 35.864 786.719 36.34 784.883 36.34ZM780.905 27.976H788.453C788.431 27.7267 788.363 27.398 788.249 26.99C788.136 26.582 787.943 26.1853 787.671 25.8C787.422 25.392 787.059 25.052 786.583 24.78C786.107 24.508 785.495 24.372 784.747 24.372C783.818 24.372 783.081 24.576 782.537 24.984C782.016 25.3693 781.619 25.8453 781.347 26.412C781.098 26.956 780.951 27.4773 780.905 27.976ZM798.858 36.306C797.566 36.306 796.524 36.0113 795.73 35.422C794.937 34.81 794.348 33.9713 793.962 32.906C793.6 31.818 793.418 30.5827 793.418 29.2C793.418 27.092 793.849 25.3693 794.71 24.032C795.572 22.672 796.954 21.992 798.858 21.992C799.878 21.992 800.706 22.1733 801.34 22.536C801.975 22.8987 802.462 23.3067 802.802 23.76C803.165 24.2133 803.414 24.61 803.55 24.95H803.618V22.094H806.508V36H804.094L803.618 33.518H803.55C803.414 33.858 803.165 34.2547 802.802 34.708C802.44 35.1387 801.941 35.5127 801.306 35.83C800.672 36.1473 799.856 36.306 798.858 36.306ZM799.98 33.892C801.318 33.892 802.247 33.4613 802.768 32.6C803.312 31.7387 803.584 30.6167 803.584 29.234C803.584 27.7833 803.301 26.6387 802.734 25.8C802.19 24.9613 801.272 24.542 799.98 24.542C799.028 24.542 798.28 24.7573 797.736 25.188C797.192 25.596 796.796 26.1513 796.546 26.854C796.32 27.5567 796.206 28.3387 796.206 29.2C796.206 30.5373 796.49 31.6593 797.056 32.566C797.623 33.45 798.598 33.892 799.98 33.892ZM809.005 36V22.094H811.453L811.521 25.324H811.589C811.634 25.2107 811.725 24.984 811.861 24.644C812.02 24.304 812.258 23.9413 812.575 23.556C812.915 23.148 813.357 22.808 813.901 22.536C814.445 22.2413 815.114 22.094 815.907 22.094C817.108 22.094 817.992 22.4227 818.559 23.08C819.148 23.7147 819.568 24.4627 819.817 25.324H819.885C819.908 25.2107 820.01 24.984 820.191 24.644C820.372 24.304 820.633 23.9413 820.973 23.556C821.336 23.148 821.8 22.808 822.367 22.536C822.934 22.2413 823.625 22.094 824.441 22.094C825.325 22.094 826.039 22.2753 826.583 22.638C827.15 23.0007 827.58 23.4767 827.875 24.066C828.192 24.6327 828.408 25.2447 828.521 25.902C828.657 26.5367 828.736 27.1487 828.759 27.738C828.782 28.3273 828.793 28.8147 828.793 29.2V36H826.379V29.166C826.379 28.826 826.356 28.4067 826.311 27.908C826.288 27.3867 826.186 26.8767 826.005 26.378C825.846 25.8567 825.563 25.4373 825.155 25.12C824.77 24.78 824.214 24.61 823.489 24.61C822.628 24.61 821.959 24.8367 821.483 25.29C821.007 25.7433 820.667 26.344 820.463 27.092C820.259 27.8173 820.157 28.5767 820.157 29.37V36H817.743V29.166C817.743 28.826 817.72 28.4067 817.675 27.908C817.652 27.3867 817.55 26.8767 817.369 26.378C817.21 25.8567 816.927 25.4373 816.519 25.12C816.134 24.78 815.578 24.61 814.853 24.61C813.992 24.61 813.323 24.8367 812.847 25.29C812.371 25.7433 812.031 26.344 811.827 27.092C811.623 27.8173 811.521 28.5767 811.521 29.37V36H809.005Z" fill="#131313"/>
<path d="M630.48 76.016V77H625.392V76.016H627.48V65.48C627.256 66.088 626.928 66.536 626.496 66.824C626.08 67.096 625.68 67.28 625.296 67.376C624.928 67.456 624.688 67.496 624.576 67.496V66.392C624.672 66.392 624.872 66.36 625.176 66.296C625.48 66.216 625.816 66.072 626.184 65.864C626.552 65.656 626.864 65.36 627.12 64.976C627.392 64.592 627.536 64.096 627.552 63.488H628.512V76.016H630.48ZM638.202 77V67.256H639.114L639.21 69.848H639.258C639.306 69.704 639.386 69.496 639.498 69.224C639.626 68.936 639.81 68.648 640.05 68.36C640.29 68.056 640.61 67.8 641.01 67.592C641.41 67.368 641.906 67.256 642.498 67.256C643.138 67.256 643.65 67.384 644.034 67.64C644.434 67.88 644.746 68.2 644.97 68.6C645.194 69 645.354 69.416 645.45 69.848H645.498C645.546 69.704 645.634 69.496 645.762 69.224C645.906 68.936 646.106 68.648 646.362 68.36C646.634 68.056 646.978 67.8 647.394 67.592C647.81 67.368 648.314 67.256 648.906 67.256C649.546 67.256 650.066 67.384 650.466 67.64C650.866 67.896 651.178 68.224 651.402 68.624C651.626 69.008 651.786 69.424 651.882 69.872C651.978 70.32 652.034 70.752 652.05 71.168C652.066 71.568 652.074 71.904 652.074 72.176V77H651.09V72.152C651.09 71.88 651.074 71.536 651.042 71.12C651.026 70.688 650.938 70.256 650.778 69.824C650.634 69.376 650.394 69.008 650.058 68.72C649.722 68.416 649.242 68.264 648.618 68.264C647.93 68.264 647.37 68.456 646.938 68.84C646.506 69.224 646.178 69.728 645.954 70.352C645.746 70.976 645.642 71.656 645.642 72.392V77H644.658V72.152C644.658 71.88 644.642 71.536 644.61 71.12C644.594 70.688 644.506 70.256 644.346 69.824C644.202 69.376 643.962 69.008 643.626 68.72C643.29 68.416 642.81 68.264 642.186 68.264C641.498 68.264 640.938 68.456 640.506 68.84C640.074 69.224 639.746 69.728 639.522 70.352C639.314 70.976 639.21 71.656 639.21 72.392V77H638.202ZM658.365 77.24C656.845 77.24 655.701 76.776 654.933 75.848C654.181 74.904 653.805 73.712 653.805 72.272C653.805 70.8 654.189 69.6 654.957 68.672C655.725 67.728 656.861 67.256 658.365 67.256C659.837 67.256 660.957 67.72 661.725 68.648C662.509 69.56 662.901 70.768 662.901 72.272C662.901 73.216 662.733 74.064 662.397 74.816C662.077 75.552 661.581 76.144 660.909 76.592C660.253 77.024 659.405 77.24 658.365 77.24ZM658.365 76.256C659.261 76.256 659.957 76.056 660.453 75.656C660.949 75.256 661.293 74.752 661.485 74.144C661.693 73.52 661.797 72.888 661.797 72.248C661.797 71.592 661.693 70.96 661.485 70.352C661.293 69.728 660.949 69.216 660.453 68.816C659.957 68.4 659.261 68.192 658.365 68.192C657.469 68.192 656.773 68.4 656.277 68.816C655.781 69.216 655.429 69.728 655.221 70.352C655.013 70.96 654.909 71.592 654.909 72.248C654.909 72.888 655.013 73.52 655.221 74.144C655.429 74.752 655.781 75.256 656.277 75.656C656.773 76.056 657.469 76.256 658.365 76.256ZM664.874 77V67.28H665.786L665.978 69.848H666.026C666.058 69.736 666.138 69.544 666.266 69.272C666.394 69 666.594 68.712 666.866 68.408C667.138 68.088 667.498 67.816 667.946 67.592C668.394 67.368 668.954 67.256 669.626 67.256C670.458 67.256 671.122 67.408 671.618 67.712C672.114 68 672.49 68.384 672.746 68.864C673.002 69.344 673.17 69.872 673.25 70.448C673.33 71.024 673.37 71.6 673.37 72.176V77H672.29V72.152C672.29 70.968 672.082 70.024 671.666 69.32C671.266 68.616 670.514 68.264 669.41 68.264C668.626 68.264 667.978 68.456 667.465 68.84C666.97 69.208 666.594 69.712 666.338 70.352C666.098 70.976 665.978 71.656 665.978 72.392V77H664.874ZM677.391 77C676.879 77 676.551 76.856 676.407 76.568C676.263 76.28 676.191 75.936 676.191 75.536V68.144H674.583V67.256C675.159 67.256 675.559 67.224 675.783 67.16C676.007 67.08 676.143 66.864 676.191 66.512C676.239 66.16 676.263 65.568 676.263 64.736H677.247V67.256H679.527V68.144H677.247V76.064H679.527V77H677.391ZM681.656 77V63.488H682.76V69.848H682.808C682.84 69.736 682.92 69.544 683.048 69.272C683.176 69 683.376 68.712 683.648 68.408C683.92 68.088 684.272 67.816 684.704 67.592C685.152 67.368 685.704 67.256 686.36 67.256C687.192 67.256 687.856 67.408 688.352 67.712C688.864 68 689.248 68.384 689.504 68.864C689.76 69.344 689.928 69.872 690.008 70.448C690.088 71.024 690.128 71.6 690.128 72.176V77H689.072V72.152C689.072 70.968 688.864 70.024 688.448 69.32C688.032 68.616 687.272 68.264 686.168 68.264C685.4 68.264 684.76 68.456 684.248 68.84C683.736 69.208 683.36 69.712 683.12 70.352C682.88 70.976 682.76 71.656 682.76 72.392V77H681.656ZM700.125 77C699.613 77 699.285 76.856 699.141 76.568C698.997 76.28 698.925 75.936 698.925 75.536V68.144H697.317V67.256C697.893 67.256 698.293 67.224 698.517 67.16C698.741 67.08 698.877 66.864 698.925 66.512C698.973 66.16 698.997 65.568 698.997 64.736H699.981V67.256H702.261V68.144H699.981V76.064H702.261V77H700.125ZM708.24 77.24C706.72 77.24 705.576 76.776 704.808 75.848C704.056 74.904 703.68 73.712 703.68 72.272C703.68 70.8 704.064 69.6 704.832 68.672C705.6 67.728 706.736 67.256 708.24 67.256C709.712 67.256 710.832 67.72 711.6 68.648C712.384 69.56 712.776 70.768 712.776 72.272C712.776 73.216 712.608 74.064 712.272 74.816C711.952 75.552 711.456 76.144 710.784 76.592C710.128 77.024 709.28 77.24 708.24 77.24ZM708.24 76.256C709.136 76.256 709.832 76.056 710.328 75.656C710.824 75.256 711.168 74.752 711.36 74.144C711.568 73.52 711.672 72.888 711.672 72.248C711.672 71.592 711.568 70.96 711.36 70.352C711.168 69.728 710.824 69.216 710.328 68.816C709.832 68.4 709.136 68.192 708.24 68.192C707.344 68.192 706.648 68.4 706.152 68.816C705.656 69.216 705.304 69.728 705.096 70.352C704.888 70.96 704.784 71.592 704.784 72.248C704.784 72.888 704.888 73.52 705.096 74.144C705.304 74.752 705.656 75.256 706.152 75.656C706.648 76.056 707.344 76.256 708.24 76.256ZM725.215 77.24C724.287 77.24 723.495 77.024 722.839 76.592C722.199 76.144 721.711 75.544 721.375 74.792C721.039 74.024 720.871 73.176 720.871 72.248C720.871 71.304 721.039 70.456 721.375 69.704C721.727 68.952 722.223 68.36 722.863 67.928C723.519 67.48 724.311 67.256 725.239 67.256C725.911 67.256 726.471 67.376 726.919 67.616C727.367 67.84 727.727 68.112 727.999 68.432C728.287 68.736 728.503 69.032 728.647 69.32C728.791 69.592 728.879 69.784 728.911 69.896H728.959L728.983 63.488H730.087V77H729.175L728.983 74.624H728.935C728.887 74.736 728.783 74.928 728.623 75.2C728.479 75.472 728.263 75.768 727.975 76.088C727.687 76.408 727.311 76.68 726.847 76.904C726.399 77.128 725.855 77.24 725.215 77.24ZM725.359 76.208C726.351 76.208 727.191 75.864 727.879 75.176C728.567 74.488 728.911 73.512 728.911 72.248C728.911 71.016 728.583 70.056 727.927 69.368C727.287 68.664 726.487 68.312 725.527 68.312C724.727 68.312 724.063 68.504 723.535 68.888C723.007 69.256 722.607 69.744 722.335 70.352C722.079 70.944 721.951 71.576 721.951 72.248C721.951 72.92 722.071 73.56 722.311 74.168C722.551 74.776 722.919 75.272 723.415 75.656C723.911 76.024 724.559 76.208 725.359 76.208ZM736.46 77.24C735.42 77.24 734.556 76.992 733.868 76.496C733.196 76 732.692 75.368 732.356 74.6C732.02 73.816 731.86 73.008 731.876 72.176C731.876 71.312 732.052 70.504 732.404 69.752C732.756 69 733.268 68.4 733.94 67.952C734.628 67.488 735.46 67.256 736.436 67.256C737.652 67.256 738.652 67.656 739.436 68.456C740.236 69.24 740.684 70.296 740.78 71.624C740.796 71.704 740.804 71.8 740.804 71.912C740.804 72.024 740.804 72.128 740.804 72.224H732.932C732.932 73.456 733.236 74.44 733.844 75.176C734.452 75.912 735.324 76.28 736.46 76.28C737.276 76.28 737.98 76.064 738.572 75.632C739.18 75.2 739.556 74.616 739.7 73.88H740.78C740.588 74.872 740.1 75.68 739.316 76.304C738.548 76.928 737.596 77.24 736.46 77.24ZM733.004 71.504H739.676C739.66 71.088 739.54 70.624 739.316 70.112C739.108 69.6 738.764 69.152 738.284 68.768C737.82 68.384 737.204 68.192 736.436 68.192C735.38 68.192 734.572 68.52 734.012 69.176C733.452 69.832 733.116 70.608 733.004 71.504ZM746.523 77.24C745.707 77.24 745.043 77.104 744.531 76.832C744.019 76.544 743.627 76.208 743.355 75.824C743.083 75.44 742.891 75.072 742.779 74.72C742.683 74.368 742.635 74.112 742.635 73.952H743.715C743.715 73.968 743.723 74.104 743.739 74.36C743.771 74.6 743.867 74.88 744.027 75.2C744.187 75.52 744.459 75.8 744.843 76.04C745.243 76.264 745.811 76.376 746.547 76.376C747.059 76.376 747.539 76.32 747.987 76.208C748.451 76.08 748.819 75.888 749.091 75.632C749.379 75.36 749.523 75.008 749.523 74.576C749.507 74.064 749.339 73.672 749.019 73.4C748.699 73.112 748.283 72.896 747.771 72.752C747.259 72.608 746.723 72.48 746.163 72.368C745.603 72.256 745.067 72.104 744.555 71.912C744.059 71.72 743.651 71.44 743.331 71.072C743.027 70.704 742.883 70.2 742.899 69.56C742.899 68.808 743.251 68.192 743.955 67.712C744.659 67.232 745.563 66.992 746.667 66.992C747.083 66.992 747.515 67.04 747.963 67.136C748.427 67.232 748.859 67.4 749.259 67.64C749.659 67.88 749.979 68.216 750.219 68.648C750.459 69.064 750.563 69.6 750.531 70.256H749.475C749.507 69.76 749.427 69.36 749.235 69.056C749.043 68.736 748.787 68.496 748.467 68.336C748.163 68.176 747.843 68.072 747.507 68.024C747.171 67.96 746.867 67.928 746.595 67.928C745.843 67.928 745.203 68.072 744.675 68.36C744.163 68.632 743.907 69.04 743.907 69.584C743.907 70.08 744.067 70.456 744.387 70.712C744.707 70.952 745.123 71.144 745.635 71.288C746.147 71.416 746.683 71.544 747.243 71.672C747.803 71.784 748.331 71.944 748.827 72.152C749.339 72.344 749.755 72.632 750.075 73.016C750.411 73.4 750.579 73.936 750.579 74.624C750.579 75.232 750.395 75.736 750.027 76.136C749.659 76.52 749.163 76.8 748.539 76.976C747.931 77.152 747.259 77.24 746.523 77.24ZM753.351 66.224C753.079 66.24 752.895 66.168 752.799 66.008C752.703 65.848 752.655 65.656 752.655 65.432C752.655 65.224 752.703 65.048 752.799 64.904C752.895 64.76 753.079 64.688 753.351 64.688C753.607 64.688 753.783 64.76 753.879 64.904C753.975 65.048 754.023 65.224 754.023 65.432C754.023 65.672 753.975 65.864 753.879 66.008C753.783 66.152 753.607 66.224 753.351 66.224ZM752.775 77V67.256H753.855V77H752.775ZM758.418 80.84V79.808H763.554V74.624H763.506C763.474 74.736 763.378 74.928 763.218 75.2C763.074 75.472 762.858 75.768 762.57 76.088C762.282 76.408 761.906 76.68 761.442 76.904C760.994 77.128 760.45 77.24 759.81 77.24C758.882 77.24 758.09 77.016 757.434 76.568C756.794 76.12 756.306 75.52 755.97 74.768C755.634 74.016 755.466 73.176 755.466 72.248C755.466 71.304 755.634 70.456 755.97 69.704C756.322 68.952 756.818 68.36 757.458 67.928C758.114 67.48 758.906 67.256 759.834 67.256C760.49 67.256 761.042 67.376 761.49 67.616C761.954 67.84 762.322 68.112 762.594 68.432C762.882 68.736 763.09 69.032 763.218 69.32C763.362 69.592 763.45 69.784 763.482 69.896H763.53L763.554 67.256H764.682V79.088C764.682 79.6 764.586 80.016 764.394 80.336C764.218 80.672 763.842 80.84 763.266 80.84H758.418ZM759.954 76.208C760.93 76.208 761.762 75.864 762.45 75.176C763.154 74.488 763.506 73.512 763.506 72.248C763.506 71.016 763.178 70.056 762.522 69.368C761.866 68.664 761.058 68.312 760.098 68.312C759.298 68.312 758.634 68.504 758.106 68.888C757.578 69.256 757.186 69.744 756.93 70.352C756.674 70.944 756.546 71.576 756.546 72.248C756.546 72.92 756.658 73.56 756.882 74.168C757.122 74.776 757.49 75.272 757.986 75.656C758.498 76.024 759.154 76.208 759.954 76.208ZM766.85 77V67.28H767.762L767.954 69.848H768.002C768.034 69.736 768.114 69.544 768.242 69.272C768.37 69 768.57 68.712 768.842 68.408C769.114 68.088 769.474 67.816 769.922 67.592C770.37 67.368 770.93 67.256 771.602 67.256C772.434 67.256 773.098 67.408 773.594 67.712C774.09 68 774.466 68.384 774.722 68.864C774.978 69.344 775.146 69.872 775.226 70.448C775.306 71.024 775.346 71.6 775.346 72.176V77H774.266V72.152C774.266 70.968 774.058 70.024 773.642 69.32C773.242 68.616 772.49 68.264 771.386 68.264C770.602 68.264 769.954 68.456 769.442 68.84C768.946 69.208 768.57 69.712 768.314 70.352C768.074 70.976 767.954 71.656 767.954 72.392V77H766.85ZM630.48 109.016V110H625.392V109.016H627.48V98.48C627.256 99.088 626.928 99.536 626.496 99.824C626.08 100.096 625.68 100.28 625.296 100.376C624.928 100.456 624.688 100.496 624.576 100.496V99.392C624.672 99.392 624.872 99.36 625.176 99.296C625.48 99.216 625.816 99.072 626.184 98.864C626.552 98.656 626.864 98.36 627.12 97.976C627.392 97.592 627.536 97.096 627.552 96.488H628.512V109.016H630.48ZM643.986 110.336C642.226 110.336 640.866 109.808 639.906 108.752C638.962 107.68 638.49 106.176 638.49 104.24V96.488H639.594V104.24C639.594 105.936 639.986 107.208 640.77 108.056C641.57 108.888 642.642 109.304 643.986 109.304C645.41 109.304 646.498 108.888 647.25 108.056C648.018 107.224 648.402 105.952 648.402 104.24V96.488H649.482V104.24C649.482 106.208 649.01 107.72 648.066 108.776C647.138 109.816 645.778 110.336 643.986 110.336ZM651.555 110L656.595 102.824L652.059 96.488H653.427L657.267 102.056L661.131 96.488H662.475L657.987 102.824L663.051 110H661.731L657.267 103.592L652.827 110H651.555ZM664.972 111.944V111.008H665.308C665.692 111.008 665.924 110.904 666.004 110.696C666.084 110.504 666.124 110.28 666.124 110.024C665.436 110.12 665.092 109.824 665.092 109.136C665.092 108.912 665.148 108.72 665.26 108.56C665.372 108.384 665.588 108.296 665.908 108.296C666.196 108.296 666.396 108.384 666.508 108.56C666.636 108.736 666.7 109.032 666.7 109.448C666.7 110.248 666.604 110.864 666.412 111.296C666.22 111.728 665.868 111.944 665.356 111.944H664.972ZM680.214 109.016V110H675.126V109.016H677.214V98.48C676.99 99.088 676.662 99.536 676.23 99.824C675.814 100.096 675.414 100.28 675.03 100.376C674.662 100.456 674.422 100.496 674.31 100.496V99.392C674.406 99.392 674.606 99.36 674.91 99.296C675.214 99.216 675.55 99.072 675.918 98.864C676.286 98.656 676.598 98.36 676.854 97.976C677.126 97.592 677.27 97.096 677.286 96.488H678.246V109.016H680.214ZM689.688 110H688.608V96.488H693.6C696.576 96.488 698.064 97.888 698.064 100.688C698.064 102 697.672 103.016 696.888 103.736C696.104 104.44 695.008 104.792 693.6 104.792H689.688V110ZM693.504 97.448H689.688V103.856H693.504C694.656 103.856 695.536 103.592 696.144 103.064C696.752 102.536 697.056 101.736 697.056 100.664C697.056 99.56 696.76 98.752 696.168 98.24C695.576 97.712 694.688 97.448 693.504 97.448ZM699.873 110V100.256H700.809L700.953 102.752C701.113 102.064 701.489 101.472 702.081 100.976C702.673 100.48 703.505 100.24 704.577 100.256H705.105V101.48H704.577C703.489 101.48 702.689 101.656 702.177 102.008C701.665 102.344 701.329 102.8 701.169 103.376C701.025 103.952 700.953 104.592 700.953 105.296V110H699.873ZM710.49 110.24C708.97 110.24 707.826 109.776 707.058 108.848C706.306 107.904 705.93 106.712 705.93 105.272C705.93 103.8 706.314 102.6 707.082 101.672C707.85 100.728 708.986 100.256 710.49 100.256C711.962 100.256 713.082 100.72 713.85 101.648C714.634 102.56 715.026 103.768 715.026 105.272C715.026 106.216 714.858 107.064 714.522 107.816C714.202 108.552 713.706 109.144 713.034 109.592C712.378 110.024 711.53 110.24 710.49 110.24ZM710.49 109.256C711.386 109.256 712.082 109.056 712.578 108.656C713.074 108.256 713.418 107.752 713.61 107.144C713.818 106.52 713.922 105.888 713.922 105.248C713.922 104.592 713.818 103.96 713.61 103.352C713.418 102.728 713.074 102.216 712.578 101.816C712.082 101.4 711.386 101.192 710.49 101.192C709.594 101.192 708.898 101.4 708.402 101.816C707.906 102.216 707.554 102.728 707.346 103.352C707.138 103.96 707.034 104.592 707.034 105.248C707.034 105.888 707.138 106.52 707.346 107.144C707.554 107.752 707.906 108.256 708.402 108.656C708.898 109.056 709.594 109.256 710.49 109.256ZM721.559 110.24C720.631 110.24 719.839 110.024 719.183 109.592C718.543 109.144 718.055 108.544 717.719 107.792C717.383 107.024 717.215 106.176 717.215 105.248C717.215 104.304 717.383 103.456 717.719 102.704C718.071 101.952 718.567 101.36 719.207 100.928C719.863 100.48 720.655 100.256 721.583 100.256C722.255 100.256 722.815 100.376 723.263 100.616C723.711 100.84 724.071 101.112 724.343 101.432C724.631 101.736 724.847 102.032 724.991 102.32C725.135 102.592 725.223 102.784 725.255 102.896H725.303L725.327 96.488H726.431V110H725.519L725.327 107.624H725.279C725.231 107.736 725.127 107.928 724.967 108.2C724.823 108.472 724.607 108.768 724.319 109.088C724.031 109.408 723.655 109.68 723.191 109.904C722.743 110.128 722.199 110.24 721.559 110.24ZM721.703 109.208C722.695 109.208 723.535 108.864 724.223 108.176C724.911 107.488 725.255 106.512 725.255 105.248C725.255 104.016 724.927 103.056 724.271 102.368C723.631 101.664 722.831 101.312 721.871 101.312C721.071 101.312 720.407 101.504 719.879 101.888C719.351 102.256 718.951 102.744 718.679 103.352C718.423 103.944 718.295 104.576 718.295 105.248C718.295 105.92 718.415 106.56 718.655 107.168C718.895 107.776 719.263 108.272 719.759 108.656C720.255 109.024 720.903 109.208 721.703 109.208ZM732.179 110.24C731.155 110.24 730.371 110.008 729.827 109.544C729.283 109.08 728.907 108.48 728.699 107.744C728.507 106.992 728.411 106.192 728.411 105.344V100.256H729.491V105.344C729.491 106.08 729.563 106.744 729.707 107.336C729.867 107.912 730.155 108.376 730.571 108.728C731.003 109.064 731.627 109.232 732.443 109.232C733.211 109.232 733.819 109.056 734.267 108.704C734.731 108.336 735.075 107.872 735.299 107.312C735.523 106.736 735.651 106.128 735.683 105.488L735.707 100.256H736.811V110H735.899L735.707 107.672H735.659C735.563 108.008 735.371 108.376 735.083 108.776C734.795 109.176 734.411 109.52 733.931 109.808C733.467 110.096 732.883 110.24 732.179 110.24ZM743.327 110.24C741.951 110.24 740.831 109.808 739.967 108.944C739.103 108.08 738.671 106.888 738.671 105.368C738.687 104.36 738.895 103.472 739.295 102.704C739.695 101.936 740.247 101.336 740.951 100.904C741.655 100.472 742.471 100.256 743.399 100.256C744.583 100.256 745.559 100.584 746.327 101.24C747.111 101.88 747.591 102.688 747.767 103.664H746.735C746.575 102.912 746.191 102.328 745.583 101.912C744.991 101.48 744.271 101.264 743.423 101.264C742.319 101.264 741.431 101.64 740.759 102.392C740.087 103.144 739.751 104.12 739.751 105.32C739.751 106.52 740.071 107.472 740.711 108.176C741.367 108.88 742.247 109.232 743.351 109.232C744.215 109.232 744.951 109.016 745.559 108.584C746.183 108.152 746.575 107.56 746.735 106.808H747.767C747.591 107.8 747.103 108.624 746.303 109.28C745.503 109.92 744.511 110.24 743.327 110.24ZM751.711 110C751.199 110 750.871 109.856 750.727 109.568C750.583 109.28 750.511 108.936 750.511 108.536V101.144H748.903V100.256C749.479 100.256 749.879 100.224 750.103 100.16C750.327 100.08 750.463 99.864 750.511 99.512C750.559 99.16 750.583 98.568 750.583 97.736H751.567V100.256H753.847V101.144H751.567V109.064H753.847V110H751.711ZM762.242 110V96.488H764.138L769.106 109.472H769.154L774.074 96.488H775.97V110H774.866L774.914 97.112H774.866L769.922 110H768.266L763.346 97.112H763.298L763.346 110H762.242ZM781.767 110.216C780.871 110.216 780.127 109.992 779.535 109.544C778.943 109.096 778.503 108.496 778.215 107.744C777.927 106.976 777.783 106.128 777.783 105.2C777.783 104.24 777.927 103.384 778.215 102.632C778.519 101.864 778.967 101.264 779.559 100.832C780.151 100.384 780.887 100.16 781.767 100.16C782.711 100.16 783.463 100.392 784.023 100.856C784.583 101.304 784.983 101.824 785.223 102.416H785.271V100.256H786.375V110H785.463L785.271 107.984H785.223C784.967 108.576 784.559 109.096 783.999 109.544C783.439 109.992 782.695 110.216 781.767 110.216ZM782.175 109.208C783.199 109.208 783.967 108.856 784.479 108.152C784.991 107.448 785.247 106.472 785.247 105.224C785.247 103.896 784.975 102.896 784.431 102.224C783.903 101.552 783.151 101.216 782.175 101.216C781.039 101.216 780.207 101.6 779.679 102.368C779.151 103.12 778.887 104.064 778.887 105.2C778.887 106.384 779.159 107.352 779.703 108.104C780.247 108.84 781.071 109.208 782.175 109.208ZM788.225 110V100.28H789.137L789.329 102.848H789.377C789.409 102.736 789.489 102.544 789.617 102.272C789.745 102 789.945 101.712 790.217 101.408C790.489 101.088 790.849 100.816 791.297 100.592C791.745 100.368 792.305 100.256 792.977 100.256C793.809 100.256 794.473 100.408 794.969 100.712C795.465 101 795.841 101.384 796.097 101.864C796.353 102.344 796.521 102.872 796.601 103.448C796.681 104.024 796.721 104.6 796.721 105.176V110H795.641V105.152C795.641 103.968 795.433 103.024 795.017 102.32C794.617 101.616 793.865 101.264 792.761 101.264C791.977 101.264 791.329 101.456 790.817 101.84C790.321 102.208 789.945 102.712 789.689 103.352C789.449 103.976 789.329 104.656 789.329 105.392V110H788.225ZM802.134 110.216C801.238 110.216 800.494 109.992 799.902 109.544C799.31 109.096 798.87 108.496 798.582 107.744C798.294 106.976 798.15 106.128 798.15 105.2C798.15 104.24 798.294 103.384 798.582 102.632C798.886 101.864 799.334 101.264 799.926 100.832C800.518 100.384 801.254 100.16 802.134 100.16C803.078 100.16 803.83 100.392 804.39 100.856C804.95 101.304 805.35 101.824 805.59 102.416H805.638V100.256H806.742V110H805.83L805.638 107.984H805.59C805.334 108.576 804.926 109.096 804.366 109.544C803.806 109.992 803.062 110.216 802.134 110.216ZM802.542 109.208C803.566 109.208 804.334 108.856 804.846 108.152C805.358 107.448 805.614 106.472 805.614 105.224C805.614 103.896 805.342 102.896 804.798 102.224C804.27 101.552 803.518 101.216 802.542 101.216C801.406 101.216 800.574 101.6 800.046 102.368C799.518 103.12 799.254 104.064 799.254 105.2C799.254 106.384 799.526 107.352 800.07 108.104C800.614 108.84 801.438 109.208 802.542 109.208ZM810.824 113.84V112.808H815.96V107.624H815.912C815.88 107.736 815.784 107.928 815.624 108.2C815.48 108.472 815.264 108.768 814.976 109.088C814.688 109.408 814.312 109.68 813.848 109.904C813.4 110.128 812.856 110.24 812.216 110.24C811.288 110.24 810.496 110.016 809.84 109.568C809.2 109.12 808.712 108.52 808.376 107.768C808.04 107.016 807.872 106.176 807.872 105.248C807.872 104.304 808.04 103.456 808.376 102.704C808.728 101.952 809.224 101.36 809.864 100.928C810.52 100.48 811.312 100.256 812.24 100.256C812.896 100.256 813.448 100.376 813.896 100.616C814.36 100.84 814.728 101.112 815 101.432C815.288 101.736 815.496 102.032 815.624 102.32C815.768 102.592 815.856 102.784 815.888 102.896H815.936L815.96 100.256H817.088V112.088C817.088 112.6 816.992 113.016 816.8 113.336C816.624 113.672 816.248 113.84 815.672 113.84H810.824ZM812.36 109.208C813.336 109.208 814.168 108.864 814.856 108.176C815.56 107.488 815.912 106.512 815.912 105.248C815.912 104.016 815.584 103.056 814.928 102.368C814.272 101.664 813.464 101.312 812.504 101.312C811.704 101.312 811.04 101.504 810.512 101.888C809.984 102.256 809.592 102.744 809.336 103.352C809.08 103.944 808.952 104.576 808.952 105.248C808.952 105.92 809.064 106.56 809.288 107.168C809.528 107.776 809.896 108.272 810.392 108.656C810.904 109.024 811.56 109.208 812.36 109.208ZM823.6 110.24C822.56 110.24 821.696 109.992 821.008 109.496C820.336 109 819.832 108.368 819.496 107.6C819.16 106.816 819 106.008 819.016 105.176C819.016 104.312 819.192 103.504 819.544 102.752C819.896 102 820.408 101.4 821.08 100.952C821.768 100.488 822.6 100.256 823.576 100.256C824.792 100.256 825.792 100.656 826.576 101.456C827.376 102.24 827.824 103.296 827.92 104.624C827.936 104.704 827.944 104.8 827.944 104.912C827.944 105.024 827.944 105.128 827.944 105.224H820.072C820.072 106.456 820.376 107.44 820.984 108.176C821.592 108.912 822.464 109.28 823.6 109.28C824.416 109.28 825.12 109.064 825.712 108.632C826.32 108.2 826.696 107.616 826.84 106.88H827.92C827.728 107.872 827.24 108.68 826.456 109.304C825.688 109.928 824.736 110.24 823.6 110.24ZM820.144 104.504H826.816C826.8 104.088 826.68 103.624 826.456 103.112C826.248 102.6 825.904 102.152 825.424 101.768C824.96 101.384 824.344 101.192 823.576 101.192C822.52 101.192 821.712 101.52 821.152 102.176C820.592 102.832 820.256 103.608 820.144 104.504ZM830.256 110V100.256H831.192L831.336 102.752C831.496 102.064 831.872 101.472 832.464 100.976C833.056 100.48 833.888 100.24 834.96 100.256H835.488V101.48H834.96C833.872 101.48 833.072 101.656 832.56 102.008C832.048 102.344 831.712 102.8 831.552 103.376C831.408 103.952 831.336 104.592 831.336 105.296V110H830.256ZM836.98 111.944V111.008H837.316C837.7 111.008 837.932 110.904 838.012 110.696C838.092 110.504 838.132 110.28 838.132 110.024C837.444 110.12 837.1 109.824 837.1 109.136C837.1 108.912 837.156 108.72 837.268 108.56C837.38 108.384 837.596 108.296 837.916 108.296C838.204 108.296 838.404 108.384 838.516 108.56C838.644 108.736 838.708 109.032 838.708 109.448C838.708 110.248 838.612 110.864 838.42 111.296C838.228 111.728 837.876 111.944 837.364 111.944H836.98ZM851.55 110.24C850.734 110.24 849.942 110.08 849.174 109.76C848.406 109.424 847.766 108.92 847.254 108.248C846.758 107.576 846.502 106.736 846.486 105.728L847.518 105.656C847.566 106.488 847.79 107.176 848.19 107.72C848.59 108.248 849.094 108.64 849.702 108.896C850.31 109.136 850.934 109.256 851.574 109.256C852.262 109.256 852.902 109.136 853.494 108.896C854.086 108.656 854.558 108.312 854.91 107.864C855.262 107.4 855.438 106.856 855.438 106.232C855.438 105.656 855.326 105.184 855.102 104.816C854.878 104.448 854.598 104.16 854.262 103.952C853.926 103.744 853.59 103.6 853.254 103.52C852.918 103.424 852.63 103.376 852.39 103.376H850.302V102.704H852.414C853.278 102.704 853.934 102.48 854.382 102.032C854.846 101.584 855.078 101.008 855.078 100.304C855.078 99.328 854.75 98.568 854.094 98.024C853.438 97.464 852.566 97.184 851.478 97.184C850.806 97.184 850.238 97.296 849.774 97.52C849.31 97.744 848.934 98.024 848.646 98.36C848.358 98.696 848.142 99.04 847.998 99.392C847.87 99.744 847.79 100.056 847.758 100.328L846.774 100.232C846.79 99.976 846.878 99.632 847.038 99.2C847.198 98.752 847.454 98.304 847.806 97.856C848.158 97.408 848.63 97.032 849.222 96.728C849.83 96.408 850.582 96.248 851.478 96.248C852.87 96.248 853.99 96.6 854.838 97.304C855.686 97.992 856.11 98.944 856.11 100.16C856.11 100.96 855.902 101.592 855.486 102.056C855.07 102.504 854.526 102.832 853.854 103.04C854.558 103.248 855.166 103.64 855.678 104.216C856.206 104.776 856.47 105.488 856.47 106.352C856.47 107.136 856.254 107.824 855.822 108.416C855.39 108.992 854.806 109.44 854.07 109.76C853.334 110.08 852.494 110.24 851.55 110.24ZM868.629 110.24C867.701 110.24 866.909 110.024 866.253 109.592C865.613 109.144 865.125 108.544 864.789 107.792C864.453 107.024 864.285 106.176 864.285 105.248C864.285 104.304 864.453 103.456 864.789 102.704C865.141 101.952 865.637 101.36 866.277 100.928C866.933 100.48 867.725 100.256 868.653 100.256C869.325 100.256 869.885 100.376 870.333 100.616C870.781 100.84 871.141 101.112 871.413 101.432C871.701 101.736 871.917 102.032 872.061 102.32C872.205 102.592 872.293 102.784 872.325 102.896H872.373L872.397 96.488H873.501V110H872.589L872.397 107.624H872.349C872.301 107.736 872.197 107.928 872.037 108.2C871.893 108.472 871.677 108.768 871.389 109.088C871.101 109.408 870.725 109.68 870.261 109.904C869.813 110.128 869.269 110.24 868.629 110.24ZM868.773 109.208C869.765 109.208 870.605 108.864 871.293 108.176C871.981 107.488 872.325 106.512 872.325 105.248C872.325 104.016 871.997 103.056 871.341 102.368C870.701 101.664 869.901 101.312 868.941 101.312C868.141 101.312 867.477 101.504 866.949 101.888C866.421 102.256 866.021 102.744 865.749 103.352C865.493 103.944 865.365 104.576 865.365 105.248C865.365 105.92 865.485 106.56 865.725 107.168C865.965 107.776 866.333 108.272 866.829 108.656C867.325 109.024 867.973 109.208 868.773 109.208ZM879.874 110.24C878.834 110.24 877.97 109.992 877.282 109.496C876.61 109 876.106 108.368 875.77 107.6C875.434 106.816 875.274 106.008 875.29 105.176C875.29 104.312 875.466 103.504 875.818 102.752C876.17 102 876.682 101.4 877.354 100.952C878.042 100.488 878.874 100.256 879.85 100.256C881.066 100.256 882.066 100.656 882.85 101.456C883.65 102.24 884.098 103.296 884.194 104.624C884.21 104.704 884.218 104.8 884.218 104.912C884.218 105.024 884.218 105.128 884.218 105.224H876.346C876.346 106.456 876.65 107.44 877.258 108.176C877.866 108.912 878.738 109.28 879.874 109.28C880.69 109.28 881.394 109.064 881.986 108.632C882.594 108.2 882.97 107.616 883.114 106.88H884.194C884.002 107.872 883.514 108.68 882.73 109.304C881.962 109.928 881.01 110.24 879.874 110.24ZM876.418 104.504H883.09C883.074 104.088 882.954 103.624 882.73 103.112C882.522 102.6 882.178 102.152 881.698 101.768C881.234 101.384 880.618 101.192 879.85 101.192C878.794 101.192 877.986 101.52 877.426 102.176C876.866 102.832 876.53 103.608 876.418 104.504ZM893.249 100.256H894.353V100.568L890.513 110H888.929L885.089 100.592V100.256H886.169L889.721 109.112H889.769L893.249 100.256ZM899.406 110.24C898.59 110.24 897.926 110.104 897.414 109.832C896.902 109.544 896.51 109.208 896.238 108.824C895.966 108.44 895.774 108.072 895.662 107.72C895.566 107.368 895.518 107.112 895.518 106.952H896.598C896.598 106.968 896.606 107.104 896.622 107.36C896.654 107.6 896.75 107.88 896.91 108.2C897.07 108.52 897.342 108.8 897.726 109.04C898.126 109.264 898.694 109.376 899.43 109.376C899.942 109.376 900.422 109.32 900.87 109.208C901.334 109.08 901.702 108.888 901.974 108.632C902.262 108.36 902.406 108.008 902.406 107.576C902.39 107.064 902.222 106.672 901.902 106.4C901.582 106.112 901.166 105.896 900.654 105.752C900.142 105.608 899.606 105.48 899.046 105.368C898.486 105.256 897.95 105.104 897.438 104.912C896.942 104.72 896.534 104.44 896.214 104.072C895.91 103.704 895.766 103.2 895.782 102.56C895.782 101.808 896.134 101.192 896.838 100.712C897.542 100.232 898.446 99.992 899.55 99.992C899.966 99.992 900.398 100.04 900.846 100.136C901.31 100.232 901.742 100.4 902.142 100.64C902.542 100.88 902.862 101.216 903.102 101.648C903.342 102.064 903.446 102.6 903.414 103.256H902.358C902.39 102.76 902.31 102.36 902.118 102.056C901.926 101.736 901.67 101.496 901.35 101.336C901.046 101.176 900.726 101.072 900.39 101.024C900.054 100.96 899.75 100.928 899.478 100.928C898.726 100.928 898.086 101.072 897.558 101.36C897.046 101.632 896.79 102.04 896.79 102.584C896.79 103.08 896.95 103.456 897.27 103.712C897.59 103.952 898.006 104.144 898.518 104.288C899.03 104.416 899.566 104.544 900.126 104.672C900.686 104.784 901.214 104.944 901.71 105.152C902.222 105.344 902.638 105.632 902.958 106.016C903.294 106.4 903.462 106.936 903.462 107.624C903.462 108.232 903.278 108.736 902.91 109.136C902.542 109.52 902.046 109.8 901.422 109.976C900.814 110.152 900.142 110.24 899.406 110.24Z" fill="black"/>
</svg>
