<svg width="27" height="26" viewBox="0 0 27 26" fill="none" xmlns="http://www.w3.org/2000/svg">
<path d="M18.1898 2.16666H9.52315C7.13982 2.16666 5.18982 4.11666 5.18982 6.49999V19.5C5.18982 21.8833 7.13982 23.8333 9.52315 23.8333H13.8565C13.9648 23.8333 14.1815 23.8333 14.2898 23.725C14.3982 23.6167 14.5065 23.6167 14.6148 23.5083L22.1982 15.925C22.3065 15.8167 22.3065 15.7083 22.4148 15.6V15.4917C22.4148 15.3833 22.4148 15.275 22.5232 15.1667C22.5232 15.1667 22.5232 15.1667 22.5232 15.0583V6.49999C22.5232 4.11666 20.5732 2.16666 18.1898 2.16666ZM14.9398 20.15V18.4167C14.9398 17.225 15.9148 16.25 17.1065 16.25H18.8398L14.9398 20.15ZM20.3565 14.0833H17.1065C14.7232 14.0833 12.7732 16.0333 12.7732 18.4167V21.6667H9.52315C8.33149 21.6667 7.35649 20.6917 7.35649 19.5V6.49999C7.35649 5.30832 8.33149 4.33332 9.52315 4.33332H18.1898C19.3815 4.33332 20.3565 5.30832 20.3565 6.49999V14.0833Z" fill="#BEBABA"/>
<path d="M10.6065 8.66667H13.8565C14.5065 8.66667 14.9399 8.23333 14.9399 7.58333C14.9399 6.93333 14.5065 6.5 13.8565 6.5H10.6065C9.95653 6.5 9.52319 6.93333 9.52319 7.58333C9.52319 8.23333 9.95653 8.66667 10.6065 8.66667Z" fill="#BEBABA"/>
<path d="M17.1065 10.8333H10.6065C9.95653 10.8333 9.52319 11.2666 9.52319 11.9166C9.52319 12.5666 9.95653 13 10.6065 13H17.1065C17.7565 13 18.1899 12.5666 18.1899 11.9166C18.1899 11.2666 17.7565 10.8333 17.1065 10.8333Z" fill="#BEBABA"/>
</svg>
