<svg width="23" height="24" viewBox="0 0 23 24" fill="none" xmlns="http://www.w3.org/2000/svg">
<path d="M15.5979 22.6133C15.6022 21.9315 15.6065 19.565 15.6065 18.628C15.6065 17.274 15.144 16.388 14.6253 15.9395C17.8455 15.5796 21.2262 14.3531 21.2262 8.77392C21.2262 7.1887 20.6678 5.8919 19.7403 4.87724C19.8888 4.50981 20.3848 3.0328 19.5962 1.03357C19.5962 1.03357 18.3847 0.64336 15.6237 2.52372C14.4683 2.20054 13.233 2.04063 12.0044 2.03421C10.7756 2.04063 9.54044 2.20069 8.38485 2.52372C5.62389 0.64336 4.41252 1.03357 4.41252 1.03357C3.62393 3.0328 4.11987 4.50981 4.26838 4.87724C3.34091 5.8919 2.78247 7.1887 2.78247 8.77392C2.78247 14.3531 6.16306 15.5796 9.3833 15.9395C8.86473 16.388 8.40208 17.274 8.40208 18.628C8.40208 19.565 8.40647 21.9315 8.4107 22.6133M1.90625 16.7719C3.3577 16.8745 4.19464 18.1935 4.19464 18.1935C5.48472 20.4132 7.57946 19.7712 8.40267 19.4005" stroke="#BEBABA" stroke-width="2" stroke-linecap="round" stroke-linejoin="round"/>
</svg>
