<svg width="23" height="21" viewBox="0 0 23 21" fill="none" xmlns="http://www.w3.org/2000/svg">
<path fill-rule="evenodd" clip-rule="evenodd" d="M5.95623 20.9876V6.82662H1.2499V20.9876H5.95623V20.9876ZM3.60356 4.89388C5.24423 4.89388 6.26625 3.80557 6.26625 2.44668C6.23522 1.05759 5.24423 0 3.63432 0C2.02416 4.29687e-05 0.97168 1.05763 0.97168 2.44673C0.97168 3.80561 1.99313 4.89393 3.57258 4.89393L3.60356 4.89388ZM8.56099 20.9876C8.56099 20.9876 8.62274 8.1553 8.56099 6.82666H13.268V8.88031H13.2368C13.8557 7.91394 14.9708 6.49412 17.5096 6.49412C20.607 6.49412 22.9287 8.51808 22.9287 12.8678V20.9877H18.2224V13.4119C18.2224 11.5084 17.5414 10.2094 15.8377 10.2094C14.5378 10.2094 13.763 11.0851 13.4228 11.9316C13.2983 12.2329 13.268 12.6561 13.268 13.0793V20.9876H8.56099Z" fill="#BEBABA"/>
</svg>
