<svg width="21" height="21" viewBox="0 0 21 21" fill="none" xmlns="http://www.w3.org/2000/svg">
<path fill-rule="evenodd" clip-rule="evenodd" d="M17.8552 3.052C15.89 1.085 13.2772 0.000875 10.4939 0C4.75825 0 0.090125 4.66725 0.0875 10.4055C0.086625 12.2395 0.566125 14.0297 1.477 15.6082L0 21L5.516 19.5527C7.03587 20.3822 8.74737 20.8189 10.4886 20.8197H10.493C16.2277 20.8197 20.8967 16.1516 20.8994 10.4134C20.9011 7.6335 19.8196 5.01813 17.8552 3.052ZM10.4939 19.0619H10.4904C8.93812 19.0619 7.4165 18.6445 6.08825 17.8561L5.77237 17.6689L2.499 18.5273L3.37312 15.3352L3.1675 15.008C2.30125 13.6308 1.8445 12.0391 1.84537 10.4055C1.84712 5.63675 5.72775 1.757 10.4982 1.757C12.8082 1.757 14.98 2.65825 16.6127 4.29275C18.2455 5.92812 19.1441 8.10075 19.1432 10.4116C19.1406 15.1821 15.2609 19.0619 10.4939 19.0619ZM15.2381 12.5842C14.9782 12.4539 13.6999 11.8247 13.461 11.7381C13.223 11.6515 13.0497 11.6077 12.8756 11.8676C12.7015 12.1275 12.2045 12.7137 12.0522 12.8879C11.9009 13.0611 11.7486 13.083 11.4887 12.9526C11.2289 12.8223 10.3906 12.5484 9.3975 11.662C8.62487 10.9725 8.1025 10.1211 7.95112 9.86038C7.79975 9.59962 7.93537 9.45963 8.06487 9.33012C8.18212 9.21375 8.32475 9.0265 8.45512 8.87425C8.58637 8.72375 8.62925 8.61525 8.71675 8.44112C8.80337 8.26788 8.7605 8.11563 8.69487 7.98525C8.62925 7.85575 8.1095 6.57562 7.89337 6.055C7.6825 5.5475 7.46812 5.61662 7.308 5.60875C7.15662 5.60087 6.98337 5.6 6.80925 5.6C6.636 5.6 6.35425 5.66475 6.11625 5.9255C5.87825 6.18625 5.20625 6.81538 5.20625 8.09463C5.20625 9.37475 6.13812 10.6111 6.26762 10.7844C6.39712 10.9576 8.10075 13.5844 10.7091 14.7105C11.3295 14.9783 11.8142 15.1384 12.1914 15.2582C12.8144 15.456 13.3814 15.428 13.8294 15.3615C14.329 15.2871 15.3676 14.7324 15.5846 14.1251C15.8016 13.5179 15.8016 12.9964 15.736 12.8888C15.6713 12.7794 15.498 12.7146 15.2381 12.5842Z" fill="#BEBABA"/>
</svg>
