<svg width="27" height="26" viewBox="0 0 27 26" fill="none" xmlns="http://www.w3.org/2000/svg">
<path d="M13.5 22.75C11.5717 22.75 9.68657 22.1782 8.08319 21.1068C6.47981 20.0355 5.23014 18.5128 4.49218 16.7312C3.75422 14.9496 3.56114 12.9892 3.93735 11.0979C4.31355 9.20655 5.24215 7.46928 6.60571 6.10571C7.96928 4.74215 9.70655 3.81355 11.5979 3.43735C13.4892 3.06114 15.4496 3.25422 17.2312 3.99218C19.0128 4.73014 20.5355 5.97981 21.6068 7.58319C22.6782 9.18657 23.25 11.0717 23.25 13C23.25 15.5859 22.2228 18.0658 20.3943 19.8943C18.5658 21.7228 16.0859 22.75 13.5 22.75ZM13.5 4.875C11.893 4.875 10.3221 5.35152 8.986 6.24431C7.64985 7.1371 6.60844 8.40605 5.99348 9.8907C5.37852 11.3753 5.21762 13.009 5.53112 14.5851C5.84462 16.1612 6.61846 17.6089 7.75476 18.7452C8.89107 19.8815 10.3388 20.6554 11.9149 20.9689C13.491 21.2824 15.1247 21.1215 16.6093 20.5065C18.094 19.8915 19.3629 18.8501 20.2557 17.514C21.1484 16.1778 21.625 14.607 21.625 13C21.625 10.8451 20.769 8.7785 19.2452 7.25476C17.7215 5.73103 15.6549 4.875 13.5 4.875Z" fill="white" fill-opacity="0.733333"/>
<path d="M13.5 18.1458C13.3933 18.1464 13.2874 18.1256 13.1889 18.0846C13.0903 18.0437 13.0009 17.9834 12.9258 17.9075L8.59252 13.5741C8.449 13.4202 8.37087 13.2164 8.37458 13.0059C8.37829 12.7954 8.46356 12.5946 8.61243 12.4457C8.76129 12.2969 8.96213 12.2116 9.17263 12.208C9.38312 12.2042 9.58683 12.2824 9.74086 12.4258L13.5 16.185L17.2592 12.4258C17.4132 12.2824 17.617 12.2042 17.8275 12.208C18.038 12.2116 18.2387 12.2969 18.3877 12.4457C18.5365 12.5946 18.6218 12.7954 18.6255 13.0059C18.6291 13.2164 18.551 13.4202 18.4075 13.5741L14.0742 17.9075C13.9992 17.9834 13.9097 18.0437 13.8111 18.0846C13.7125 18.1256 13.6068 18.1464 13.5 18.1458Z" fill="white" fill-opacity="0.733333"/>
<path d="M13.5 18.1459C13.2854 18.143 13.0803 18.0566 12.9285 17.9048C12.7768 17.753 12.6903 17.548 12.6875 17.3334V8.66669C12.6875 8.4512 12.7731 8.24453 12.9255 8.09216C13.0778 7.93979 13.2845 7.85419 13.5 7.85419C13.7155 7.85419 13.9222 7.93979 14.0745 8.09216C14.2269 8.24453 14.3125 8.4512 14.3125 8.66669V17.3334C14.3097 17.548 14.2232 17.753 14.0715 17.9048C13.9197 18.0566 13.7146 18.143 13.5 18.1459Z" fill="white" fill-opacity="0.733333"/>
</svg>
