<svg width="16" height="16" viewBox="0 0 16 16" fill="none" xmlns="http://www.w3.org/2000/svg">
<path d="M14.4 3.29684H10.9714V2.15398C10.9386 1.7003 10.7281 1.27787 10.3858 0.978329C10.0435 0.678799 9.59689 0.526324 9.14286 0.553981H6.85714C6.40311 0.526324 5.95649 0.678799 5.61416 0.978329C5.27184 1.27787 5.06142 1.7003 5.02857 2.15398V3.29684H1.6C1.17639 3.29924 0.770825 3.46858 0.471278 3.76813C0.171739 4.06766 0.00240457 4.47323 0 4.89684V14.0397C0.00240457 14.4633 0.171739 14.8688 0.471278 15.1685C0.770825 15.468 1.17639 15.6373 1.6 15.6397H14.4C14.8236 15.6373 15.2292 15.468 15.5287 15.1685C15.8283 14.8688 15.9976 14.4633 16 14.0397V4.89684C15.9976 4.47323 15.8283 4.06766 15.5287 3.76813C15.2292 3.46858 14.8236 3.29924 14.4 3.29684ZM6.4 2.15398C6.4 2.08084 6.57371 1.92541 6.85714 1.92541H9.14286C9.42629 1.92541 9.6 2.08084 9.6 2.15398V3.29684H6.4V2.15398ZM1.6 4.66827H14.4C14.4606 4.66827 14.5188 4.69235 14.5616 4.73522C14.6045 4.77808 14.6286 4.83622 14.6286 4.89684V7.86825H1.37143V4.89684C1.37143 4.83622 1.39551 4.77808 1.43837 4.73522C1.48124 4.69235 1.53938 4.66827 1.6 4.66827ZM5.02857 9.23968H10.9714V10.6111H5.02857V9.23968ZM14.4 14.2682H1.6C1.53938 14.2682 1.48124 14.2442 1.43837 14.2013C1.39551 14.1584 1.37143 14.1003 1.37143 14.0397V9.23968H3.65714V11.2968C3.65951 11.4779 3.73252 11.651 3.8606 11.7791C3.98869 11.9072 4.16173 11.9802 4.34286 11.9825H11.6571C11.8383 11.9802 12.0113 11.9072 12.1394 11.7791C12.2675 11.651 12.3405 11.4779 12.3429 11.2968V9.23968H14.6286V14.0397C14.6286 14.1003 14.6045 14.1584 14.5616 14.2013C14.5188 14.2442 14.4606 14.2682 14.4 14.2682Z" fill="white"/>
</svg>
