<svg width="26" height="26" viewBox="0 0 26 26" fill="none" xmlns="http://www.w3.org/2000/svg">
<path d="M13 20.3125C6.68421 20.3125 3.71587 13.6067 3.58587 13.325C3.54296 13.222 3.52087 13.1116 3.52087 13C3.52087 12.8884 3.54296 12.778 3.58587 12.675C3.71587 12.3933 6.68421 5.6875 13 5.6875C19.3159 5.6875 22.2842 12.3933 22.4142 12.675C22.4571 12.778 22.4792 12.8884 22.4792 13C22.4792 13.1116 22.4571 13.222 22.4142 13.325C22.2842 13.6067 19.3159 20.3125 13 20.3125ZM5.23254 13C5.87171 14.2458 8.48254 18.6875 13 18.6875C17.5175 18.6875 20.1284 14.2458 20.7675 13C20.1284 11.7542 17.5175 7.3125 13 7.3125C8.48254 7.3125 5.87171 11.7542 5.23254 13Z" fill="white"/>
<path d="M13 16.5208C12.3036 16.5208 11.6229 16.3144 11.0439 15.9275C10.4649 15.5406 10.0136 14.9907 9.74713 14.3473C9.48065 13.7041 9.41093 12.9961 9.54678 12.3132C9.68263 11.6301 10.018 11.0028 10.5103 10.5104C11.0027 10.018 11.6301 9.68267 12.3131 9.54682C12.9961 9.41097 13.704 9.4807 14.3473 9.74718C14.9907 10.0137 15.5406 10.4649 15.9274 11.0439C16.3143 11.623 16.5208 12.3036 16.5208 13C16.518 13.9329 16.1461 14.8268 15.4864 15.4865C14.8268 16.1461 13.9328 16.518 13 16.5208ZM13 11.1042C12.625 11.1042 12.2584 11.2153 11.9467 11.4236C11.635 11.632 11.392 11.928 11.2484 12.2745C11.105 12.6209 11.0674 13.0021 11.1405 13.3699C11.2138 13.7376 11.3942 14.0754 11.6594 14.3405C11.9245 14.6057 12.2623 14.7863 12.6301 14.8594C12.9979 14.9326 13.379 14.895 13.7255 14.7515C14.0719 14.608 14.368 14.365 14.5763 14.0532C14.7846 13.7415 14.8958 13.3749 14.8958 13C14.893 12.4981 14.6923 12.0175 14.3373 11.6626C13.9824 11.3076 13.5019 11.107 13 11.1042Z" fill="white"/>
</svg>
