<svg width="20" height="20" viewBox="0 0 20 20" fill="none" xmlns="http://www.w3.org/2000/svg">
<path d="M19.5259 14.895C19.5259 14.895 19.5259 14.8192 19.5259 14.7758V5.22082C19.5256 5.09651 19.4958 4.97403 19.4393 4.86332C19.3596 4.69129 19.2213 4.55311 19.0493 4.47332L10.3826 0.594987C10.2771 0.547115 10.1626 0.522339 10.0468 0.522339C9.93097 0.522339 9.81647 0.547115 9.71095 0.594987L1.04429 4.47332C0.904912 4.54347 0.787045 4.64995 0.703152 4.78152C0.619248 4.91308 0.572426 5.06486 0.567627 5.22082V14.7758C0.57573 14.931 0.623895 15.0814 0.707431 15.2124C0.790967 15.3434 0.907035 15.4505 1.04429 15.5233L9.71095 19.4017C9.81582 19.4517 9.93054 19.4776 10.0468 19.4776C10.163 19.4776 10.2778 19.4517 10.3826 19.4017L19.0493 15.5233C19.1744 15.466 19.2834 15.3787 19.3666 15.2691C19.4498 15.1594 19.5045 15.031 19.5259 14.895ZM2.19263 6.46665L9.23428 9.63V17.4083L2.19263 14.2558V6.46665ZM10.8593 9.63L17.9009 6.46665V14.2558L10.8593 17.4083V9.63ZM10.0684 2.21999L16.7526 5.22082L10.0684 8.21083L3.38429 5.22082L10.0684 2.21999Z" fill="white"/>
</svg>
