<svg width="936" height="117" viewBox="0 0 936 117" fill="none" xmlns="http://www.w3.org/2000/svg">
<path d="M1.972 36V16.858H6.868L12.24 34.742H12.308L17.578 16.858H22.474V36H19.584L19.754 18.184H19.686L14.314 36H10.132L4.794 18.184H4.726L4.862 36H1.972ZM24.3695 42.324V40.114H26.3755C26.8515 40.114 27.2482 40.0007 27.5655 39.774C27.8828 39.57 28.2682 39.0033 28.7215 38.074L29.9115 35.456L24.4715 22.094H27.3955L31.3055 32.532L35.4875 22.094H38.4455L31.3055 38.38C30.8068 39.536 30.3535 40.3973 29.9455 40.964C29.5375 41.5307 29.0842 41.8933 28.5855 42.052C28.0868 42.2333 27.4635 42.324 26.7155 42.324H24.3695ZM48.114 36V22.094H50.732L50.97 25.868C51.106 25.256 51.3667 24.6667 51.752 24.1C52.16 23.5107 52.7153 23.0347 53.418 22.672C54.1433 22.2867 55.0613 22.094 56.172 22.094H56.75V25.222H56.138C54.7553 25.222 53.69 25.4033 52.942 25.766C52.194 26.106 51.6727 26.616 51.378 27.296C51.0833 27.9533 50.936 28.7693 50.936 29.744V36H48.114ZM65.0266 36.34C62.7146 36.34 60.9919 35.6713 59.8586 34.334C58.7253 32.9967 58.1586 31.2967 58.1586 29.234C58.1359 27.1487 58.7026 25.4373 59.8586 24.1C61.0146 22.7627 62.7373 22.0827 65.0266 22.06C67.2479 22.06 68.9366 22.7173 70.0926 24.032C71.2486 25.3467 71.8266 27.0807 71.8266 29.234C71.8266 30.5713 71.5773 31.784 71.0786 32.872C70.6026 33.9373 69.8546 34.7873 68.8346 35.422C67.8373 36.034 66.5679 36.34 65.0266 36.34ZM65.0266 33.926C66.1146 33.926 66.9419 33.688 67.5086 33.212C68.0979 32.736 68.5059 32.1353 68.7326 31.41C68.9593 30.662 69.0726 29.9027 69.0726 29.132C69.0726 28.3613 68.9593 27.6133 68.7326 26.888C68.5059 26.14 68.0979 25.528 67.5086 25.052C66.9419 24.5533 66.1146 24.304 65.0266 24.304C63.9159 24.304 63.0659 24.5533 62.4766 25.052C61.8873 25.528 61.4793 26.14 61.2526 26.888C61.0259 27.6133 60.9126 28.3613 60.9126 29.132C60.9126 29.9027 61.0259 30.662 61.2526 31.41C61.4793 32.1353 61.8873 32.736 62.4766 33.212C63.0659 33.688 63.9159 33.926 65.0266 33.926ZM74.8133 36V16.858H77.6013V36H74.8133ZM86.9731 36.34C85.4091 36.34 84.1284 36 83.1311 35.32C82.1337 34.6173 81.3971 33.722 80.9211 32.634C80.4451 31.546 80.2071 30.4013 80.2071 29.2C80.1844 27.8627 80.4337 26.65 80.9551 25.562C81.4991 24.474 82.2697 23.6127 83.2671 22.978C84.2871 22.3433 85.4997 22.026 86.9051 22.026C88.1064 22.026 89.1831 22.298 90.1351 22.842C91.1097 23.3633 91.8804 24.1113 92.4471 25.086C93.0137 26.038 93.3197 27.1713 93.3651 28.486C93.3651 28.554 93.3651 28.69 93.3651 28.894C93.3877 29.0753 93.3991 29.234 93.3991 29.37H82.8931C82.8931 30.8207 83.2444 31.954 83.9471 32.77C84.6724 33.5633 85.6697 33.96 86.9391 33.96C87.8911 33.96 88.6957 33.722 89.3531 33.246C90.0331 32.7473 90.4524 32.09 90.6111 31.274H93.3651C93.1611 32.7247 92.5037 33.9373 91.3931 34.912C90.2824 35.864 88.8091 36.34 86.9731 36.34ZM82.9951 27.976H90.5431C90.5204 27.7267 90.4524 27.398 90.3391 26.99C90.2257 26.582 90.0331 26.1853 89.7611 25.8C89.5117 25.392 89.1491 25.052 88.6731 24.78C88.1971 24.508 87.5851 24.372 86.8371 24.372C85.9077 24.372 85.1711 24.576 84.6271 24.984C84.1057 25.3693 83.7091 25.8453 83.4371 26.412C83.1877 26.956 83.0404 27.4773 82.9951 27.976Z" fill="#131313"/>
<path d="M6.72 77.336C4.96 77.336 3.6 76.808 2.64 75.752C1.696 74.68 1.224 73.176 1.224 71.24V63.488H2.328V71.24C2.328 72.936 2.72 74.208 3.504 75.056C4.304 75.888 5.376 76.304 6.72 76.304C8.144 76.304 9.232 75.888 9.984 75.056C10.752 74.224 11.136 72.952 11.136 71.24V63.488H12.216V71.24C12.216 73.208 11.744 74.72 10.8 75.776C9.872 76.816 8.512 77.336 6.72 77.336ZM14.2892 77L19.3292 69.824L14.7932 63.488H16.1612L20.0012 69.056L23.8652 63.488H25.2092L20.7212 69.824L25.7852 77H24.4652L20.0012 70.592L15.5612 77H14.2892ZM45.5889 70.232C45.5889 72.008 45.2529 73.392 44.5809 74.384C43.9249 75.36 42.9969 76.04 41.7969 76.424C40.5969 76.808 39.1969 77 37.5969 77H34.0929V63.488H37.5969C39.1969 63.488 40.5969 63.744 41.7969 64.256C42.9969 64.752 43.9249 65.496 44.5809 66.488C45.2529 67.48 45.5889 68.728 45.5889 70.232ZM35.1969 76.04H37.7889C39.1169 76.04 40.2769 75.888 41.2689 75.584C42.2769 75.28 43.0529 74.712 43.5969 73.88C44.1569 73.048 44.4369 71.832 44.4369 70.232C44.4369 68.92 44.1569 67.84 43.5969 66.992C43.0529 66.128 42.2769 65.496 41.2689 65.096C40.2769 64.68 39.1169 64.472 37.7889 64.472H35.1969V76.04ZM51.6159 77.24C50.5759 77.24 49.7119 76.992 49.0239 76.496C48.3519 76 47.8479 75.368 47.5119 74.6C47.1759 73.816 47.0159 73.008 47.0319 72.176C47.0319 71.312 47.2079 70.504 47.5599 69.752C47.9119 69 48.4239 68.4 49.0959 67.952C49.7839 67.488 50.6159 67.256 51.5919 67.256C52.8079 67.256 53.8079 67.656 54.5919 68.456C55.3919 69.24 55.8399 70.296 55.9359 71.624C55.9519 71.704 55.9599 71.8 55.9599 71.912C55.9599 72.024 55.9599 72.128 55.9599 72.224H48.0879C48.0879 73.456 48.3919 74.44 48.9999 75.176C49.6079 75.912 50.4799 76.28 51.6159 76.28C52.4319 76.28 53.1359 76.064 53.7279 75.632C54.3359 75.2 54.7119 74.616 54.8559 73.88H55.9359C55.7439 74.872 55.2559 75.68 54.4719 76.304C53.7039 76.928 52.7519 77.24 51.6159 77.24ZM48.1599 71.504H54.8319C54.8159 71.088 54.6959 70.624 54.4719 70.112C54.2639 69.6 53.9199 69.152 53.4399 68.768C52.9759 68.384 52.3599 68.192 51.5919 68.192C50.5359 68.192 49.7279 68.52 49.1679 69.176C48.6079 69.832 48.2719 70.608 48.1599 71.504ZM61.6794 77.24C60.8634 77.24 60.1994 77.104 59.6874 76.832C59.1754 76.544 58.7834 76.208 58.5114 75.824C58.2394 75.44 58.0474 75.072 57.9354 74.72C57.8394 74.368 57.7914 74.112 57.7914 73.952H58.8714C58.8714 73.968 58.8794 74.104 58.8954 74.36C58.9274 74.6 59.0234 74.88 59.1834 75.2C59.3434 75.52 59.6154 75.8 59.9994 76.04C60.3994 76.264 60.9674 76.376 61.7034 76.376C62.2154 76.376 62.6954 76.32 63.1434 76.208C63.6074 76.08 63.9754 75.888 64.2474 75.632C64.5354 75.36 64.6794 75.008 64.6794 74.576C64.6634 74.064 64.4954 73.672 64.1754 73.4C63.8554 73.112 63.4394 72.896 62.9274 72.752C62.4154 72.608 61.8794 72.48 61.3194 72.368C60.7594 72.256 60.2234 72.104 59.7114 71.912C59.2154 71.72 58.8074 71.44 58.4874 71.072C58.1834 70.704 58.0394 70.2 58.0554 69.56C58.0554 68.808 58.4074 68.192 59.1114 67.712C59.8154 67.232 60.7194 66.992 61.8234 66.992C62.2394 66.992 62.6714 67.04 63.1194 67.136C63.5834 67.232 64.0154 67.4 64.4154 67.64C64.8154 67.88 65.1354 68.216 65.3754 68.648C65.6154 69.064 65.7194 69.6 65.6874 70.256H64.6314C64.6634 69.76 64.5834 69.36 64.3914 69.056C64.1994 68.736 63.9434 68.496 63.6234 68.336C63.3194 68.176 62.9994 68.072 62.6634 68.024C62.3274 67.96 62.0234 67.928 61.7514 67.928C60.9994 67.928 60.3594 68.072 59.8314 68.36C59.3194 68.632 59.0634 69.04 59.0634 69.584C59.0634 70.08 59.2234 70.456 59.5434 70.712C59.8634 70.952 60.2794 71.144 60.7914 71.288C61.3034 71.416 61.8394 71.544 62.3994 71.672C62.9594 71.784 63.4874 71.944 63.9834 72.152C64.4954 72.344 64.9114 72.632 65.2314 73.016C65.5674 73.4 65.7354 73.936 65.7354 74.624C65.7354 75.232 65.5514 75.736 65.1834 76.136C64.8154 76.52 64.3194 76.8 63.6954 76.976C63.0874 77.152 62.4154 77.24 61.6794 77.24ZM68.5071 66.224C68.2351 66.24 68.0511 66.168 67.9551 66.008C67.8591 65.848 67.8111 65.656 67.8111 65.432C67.8111 65.224 67.8591 65.048 67.9551 64.904C68.0511 64.76 68.2351 64.688 68.5071 64.688C68.7631 64.688 68.9391 64.76 69.0351 64.904C69.1311 65.048 69.1791 65.224 69.1791 65.432C69.1791 65.672 69.1311 65.864 69.0351 66.008C68.9391 66.152 68.7631 66.224 68.5071 66.224ZM67.9311 77V67.256H69.0111V77H67.9311ZM73.5742 80.84V79.808H78.7103V74.624H78.6623C78.6303 74.736 78.5343 74.928 78.3743 75.2C78.2303 75.472 78.0143 75.768 77.7263 76.088C77.4383 76.408 77.0623 76.68 76.5983 76.904C76.1503 77.128 75.6063 77.24 74.9663 77.24C74.0383 77.24 73.2463 77.016 72.5903 76.568C71.9503 76.12 71.4623 75.52 71.1263 74.768C70.7903 74.016 70.6223 73.176 70.6223 72.248C70.6223 71.304 70.7903 70.456 71.1263 69.704C71.4783 68.952 71.9743 68.36 72.6143 67.928C73.2703 67.48 74.0623 67.256 74.9903 67.256C75.6463 67.256 76.1983 67.376 76.6463 67.616C77.1103 67.84 77.4783 68.112 77.7503 68.432C78.0383 68.736 78.2463 69.032 78.3743 69.32C78.5183 69.592 78.6063 69.784 78.6383 69.896H78.6863L78.7103 67.256H79.8383V79.088C79.8383 79.6 79.7423 80.016 79.5503 80.336C79.3743 80.672 78.9983 80.84 78.4223 80.84H73.5742ZM75.1103 76.208C76.0863 76.208 76.9183 75.864 77.6063 75.176C78.3103 74.488 78.6623 73.512 78.6623 72.248C78.6623 71.016 78.3343 70.056 77.6783 69.368C77.0223 68.664 76.2143 68.312 75.2543 68.312C74.4543 68.312 73.7903 68.504 73.2623 68.888C72.7343 69.256 72.3423 69.744 72.0863 70.352C71.8303 70.944 71.7023 71.576 71.7023 72.248C71.7023 72.92 71.8143 73.56 72.0383 74.168C72.2783 74.776 72.6463 75.272 73.1423 75.656C73.6543 76.024 74.3103 76.208 75.1103 76.208ZM82.0063 77V67.28H82.9183L83.1103 69.848H83.1583C83.1903 69.736 83.2703 69.544 83.3983 69.272C83.5263 69 83.7263 68.712 83.9983 68.408C84.2703 68.088 84.6303 67.816 85.0783 67.592C85.5263 67.368 86.0863 67.256 86.7583 67.256C87.5903 67.256 88.2543 67.408 88.7503 67.712C89.2463 68 89.6223 68.384 89.8783 68.864C90.1343 69.344 90.3023 69.872 90.3823 70.448C90.4623 71.024 90.5023 71.6 90.5023 72.176V77H89.4223V72.152C89.4223 70.968 89.2143 70.024 88.7983 69.32C88.3983 68.616 87.6463 68.264 86.5423 68.264C85.7583 68.264 85.1103 68.456 84.5983 68.84C84.1023 69.208 83.7263 69.712 83.4703 70.352C83.2303 70.976 83.1103 71.656 83.1103 72.392V77H82.0063ZM6.72 110.336C4.96 110.336 3.6 109.808 2.64 108.752C1.696 107.68 1.224 106.176 1.224 104.24V96.488H2.328V104.24C2.328 105.936 2.72 107.208 3.504 108.056C4.304 108.888 5.376 109.304 6.72 109.304C8.144 109.304 9.232 108.888 9.984 108.056C10.752 107.224 11.136 105.952 11.136 104.24V96.488H12.216V104.24C12.216 106.208 11.744 107.72 10.8 108.776C9.872 109.816 8.512 110.336 6.72 110.336ZM14.2892 110L19.3292 102.824L14.7932 96.488H16.1612L20.0012 102.056L23.8652 96.488H25.2092L20.7212 102.824L25.7852 110H24.4652L20.0012 103.592L15.5612 110H14.2892ZM34.0209 110V96.488H38.2209C39.3569 96.488 40.3169 96.6 41.1009 96.824C41.8849 97.048 42.4769 97.44 42.8769 98C43.2929 98.544 43.5009 99.304 43.5009 100.28C43.5009 100.888 43.3889 101.456 43.1649 101.984C42.9409 102.512 42.5889 102.936 42.1089 103.256C41.6449 103.576 41.0369 103.736 40.2849 103.736C41.0209 103.736 41.5649 103.896 41.9169 104.216C42.2849 104.52 42.5249 104.912 42.6369 105.392C42.7649 105.856 42.8289 106.344 42.8289 106.856C42.8449 107.368 42.8609 107.84 42.8769 108.272C42.9089 108.688 43.0049 109 43.1649 109.208C43.3409 109.4 43.6529 109.416 44.1009 109.256V110.048C44.0209 110.112 43.8609 110.168 43.6209 110.216C43.3969 110.264 43.1489 110.248 42.8769 110.168C42.6049 110.088 42.3729 109.904 42.1809 109.616C41.9889 109.328 41.8929 108.888 41.8929 108.296C41.8929 107.368 41.8529 106.624 41.7729 106.064C41.7089 105.504 41.5569 105.08 41.3169 104.792C41.0929 104.488 40.7329 104.288 40.2369 104.192C39.7569 104.08 39.1009 104.024 38.2689 104.024C37.4369 104.024 36.3889 104.032 35.1249 104.048V110H34.0209ZM35.1249 103.16H38.6529C39.9489 103.16 40.9169 102.968 41.5569 102.584C42.1969 102.184 42.5169 101.432 42.5169 100.328C42.5169 99.48 42.3409 98.856 41.9889 98.456C41.6529 98.04 41.1489 97.768 40.4769 97.64C39.8209 97.512 39.0209 97.448 38.0769 97.448H35.1249V103.16ZM50.2097 110.24C49.1697 110.24 48.3057 109.992 47.6177 109.496C46.9457 109 46.4417 108.368 46.1057 107.6C45.7697 106.816 45.6097 106.008 45.6257 105.176C45.6257 104.312 45.8017 103.504 46.1537 102.752C46.5057 102 47.0177 101.4 47.6897 100.952C48.3777 100.488 49.2097 100.256 50.1857 100.256C51.4017 100.256 52.4017 100.656 53.1857 101.456C53.9857 102.24 54.4337 103.296 54.5297 104.624C54.5457 104.704 54.5537 104.8 54.5537 104.912C54.5537 105.024 54.5537 105.128 54.5537 105.224H46.6817C46.6817 106.456 46.9857 107.44 47.5937 108.176C48.2017 108.912 49.0737 109.28 50.2097 109.28C51.0257 109.28 51.7297 109.064 52.3217 108.632C52.9297 108.2 53.3057 107.616 53.4497 106.88H54.5297C54.3377 107.872 53.8497 108.68 53.0657 109.304C52.2977 109.928 51.3457 110.24 50.2097 110.24ZM46.7537 104.504H53.4257C53.4097 104.088 53.2897 103.624 53.0657 103.112C52.8577 102.6 52.5137 102.152 52.0337 101.768C51.5697 101.384 50.9537 101.192 50.1857 101.192C49.1297 101.192 48.3217 101.52 47.7617 102.176C47.2017 102.832 46.8657 103.608 46.7537 104.504ZM60.2732 110.24C59.4572 110.24 58.7932 110.104 58.2812 109.832C57.7692 109.544 57.3772 109.208 57.1052 108.824C56.8332 108.44 56.6412 108.072 56.5292 107.72C56.4332 107.368 56.3852 107.112 56.3852 106.952H57.4652C57.4652 106.968 57.4732 107.104 57.4892 107.36C57.5212 107.6 57.6172 107.88 57.7772 108.2C57.9372 108.52 58.2092 108.8 58.5932 109.04C58.9932 109.264 59.5612 109.376 60.2972 109.376C60.8092 109.376 61.2892 109.32 61.7372 109.208C62.2012 109.08 62.5692 108.888 62.8412 108.632C63.1292 108.36 63.2732 108.008 63.2732 107.576C63.2572 107.064 63.0892 106.672 62.7692 106.4C62.4492 106.112 62.0332 105.896 61.5212 105.752C61.0092 105.608 60.4732 105.48 59.9132 105.368C59.3532 105.256 58.8172 105.104 58.3052 104.912C57.8092 104.72 57.4012 104.44 57.0812 104.072C56.7772 103.704 56.6332 103.2 56.6492 102.56C56.6492 101.808 57.0012 101.192 57.7052 100.712C58.4092 100.232 59.3132 99.992 60.4172 99.992C60.8332 99.992 61.2652 100.04 61.7132 100.136C62.1772 100.232 62.6092 100.4 63.0092 100.64C63.4092 100.88 63.7292 101.216 63.9692 101.648C64.2092 102.064 64.3132 102.6 64.2812 103.256H63.2252C63.2572 102.76 63.1772 102.36 62.9852 102.056C62.7932 101.736 62.5372 101.496 62.2172 101.336C61.9132 101.176 61.5932 101.072 61.2572 101.024C60.9212 100.96 60.6172 100.928 60.3452 100.928C59.5932 100.928 58.9532 101.072 58.4252 101.36C57.9132 101.632 57.6572 102.04 57.6572 102.584C57.6572 103.08 57.8172 103.456 58.1372 103.712C58.4572 103.952 58.8732 104.144 59.3852 104.288C59.8972 104.416 60.4332 104.544 60.9932 104.672C61.5532 104.784 62.0812 104.944 62.5772 105.152C63.0892 105.344 63.5052 105.632 63.8252 106.016C64.1612 106.4 64.3292 106.936 64.3292 107.624C64.3292 108.232 64.1452 108.736 63.7772 109.136C63.4092 109.52 62.9132 109.8 62.2892 109.976C61.6812 110.152 61.0092 110.24 60.2732 110.24ZM70.4128 110.24C69.3728 110.24 68.5088 109.992 67.8208 109.496C67.1488 109 66.6448 108.368 66.3088 107.6C65.9728 106.816 65.8128 106.008 65.8288 105.176C65.8288 104.312 66.0048 103.504 66.3568 102.752C66.7088 102 67.2208 101.4 67.8928 100.952C68.5808 100.488 69.4128 100.256 70.3888 100.256C71.6048 100.256 72.6048 100.656 73.3888 101.456C74.1888 102.24 74.6368 103.296 74.7328 104.624C74.7488 104.704 74.7568 104.8 74.7568 104.912C74.7568 105.024 74.7568 105.128 74.7568 105.224H66.8848C66.8848 106.456 67.1888 107.44 67.7968 108.176C68.4048 108.912 69.2768 109.28 70.4128 109.28C71.2288 109.28 71.9328 109.064 72.5248 108.632C73.1328 108.2 73.5088 107.616 73.6528 106.88H74.7328C74.5408 107.872 74.0528 108.68 73.2688 109.304C72.5008 109.928 71.5488 110.24 70.4128 110.24ZM66.9568 104.504H73.6288C73.6128 104.088 73.4928 103.624 73.2688 103.112C73.0608 102.6 72.7168 102.152 72.2368 101.768C71.7728 101.384 71.1568 101.192 70.3888 101.192C69.3328 101.192 68.5248 101.52 67.9648 102.176C67.4048 102.832 67.0688 103.608 66.9568 104.504ZM80.2123 110.216C79.3163 110.216 78.5723 109.992 77.9803 109.544C77.3883 109.096 76.9483 108.496 76.6603 107.744C76.3723 106.976 76.2283 106.128 76.2283 105.2C76.2283 104.24 76.3723 103.384 76.6603 102.632C76.9643 101.864 77.4123 101.264 78.0043 100.832C78.5963 100.384 79.3323 100.16 80.2123 100.16C81.1563 100.16 81.9083 100.392 82.4683 100.856C83.0283 101.304 83.4283 101.824 83.6683 102.416H83.7163V100.256H84.8203V110H83.9083L83.7163 107.984H83.6683C83.4123 108.576 83.0043 109.096 82.4443 109.544C81.8843 109.992 81.1403 110.216 80.2123 110.216ZM80.6203 109.208C81.6443 109.208 82.4123 108.856 82.9243 108.152C83.4363 107.448 83.6923 106.472 83.6923 105.224C83.6923 103.896 83.4203 102.896 82.8763 102.224C82.3483 101.552 81.5963 101.216 80.6203 101.216C79.4843 101.216 78.6523 101.6 78.1243 102.368C77.5963 103.12 77.3323 104.064 77.3323 105.2C77.3323 106.384 77.6043 107.352 78.1483 108.104C78.6923 108.84 79.5163 109.208 80.6203 109.208ZM86.9824 110V100.256H87.9184L88.0624 102.752C88.2224 102.064 88.5984 101.472 89.1904 100.976C89.7824 100.48 90.6144 100.24 91.6864 100.256H92.2144V101.48H91.6864C90.5984 101.48 89.7984 101.656 89.2864 102.008C88.7744 102.344 88.4384 102.8 88.2784 103.376C88.1344 103.952 88.0624 104.592 88.0624 105.296V110H86.9824ZM97.6472 110.24C96.2712 110.24 95.1512 109.808 94.2872 108.944C93.4232 108.08 92.9912 106.888 92.9912 105.368C93.0072 104.36 93.2152 103.472 93.6152 102.704C94.0152 101.936 94.5672 101.336 95.2712 100.904C95.9752 100.472 96.7912 100.256 97.7192 100.256C98.9032 100.256 99.8792 100.584 100.647 101.24C101.431 101.88 101.911 102.688 102.087 103.664H101.055C100.895 102.912 100.511 102.328 99.9032 101.912C99.3112 101.48 98.5912 101.264 97.7432 101.264C96.6392 101.264 95.7512 101.64 95.0792 102.392C94.4072 103.144 94.0712 104.12 94.0712 105.32C94.0712 106.52 94.3912 107.472 95.0312 108.176C95.6872 108.88 96.5672 109.232 97.6712 109.232C98.5352 109.232 99.2712 109.016 99.8792 108.584C100.503 108.152 100.895 107.56 101.055 106.808H102.087C101.911 107.8 101.423 108.624 100.623 109.28C99.8232 109.92 98.8312 110.24 97.6472 110.24ZM104.015 110V96.488H105.119V102.848H105.167C105.199 102.736 105.279 102.544 105.407 102.272C105.535 102 105.735 101.712 106.007 101.408C106.279 101.088 106.631 100.816 107.063 100.592C107.511 100.368 108.063 100.256 108.719 100.256C109.551 100.256 110.215 100.408 110.711 100.712C111.223 101 111.607 101.384 111.863 101.864C112.119 102.344 112.287 102.872 112.367 103.448C112.447 104.024 112.487 104.6 112.487 105.176V110H111.431V105.152C111.431 103.968 111.223 103.024 110.807 102.32C110.391 101.616 109.631 101.264 108.527 101.264C107.759 101.264 107.119 101.456 106.607 101.84C106.095 102.208 105.719 102.712 105.479 103.352C105.239 103.976 105.119 104.656 105.119 105.392V110H104.015Z" fill="black"/>
<path d="M312.34 19.85V16.858H327.13V19.85H321.452V36H317.984V19.85H312.34ZM333.168 36.34C331.582 36.34 330.267 36.034 329.224 35.422C328.182 34.81 327.4 33.9713 326.878 32.906C326.357 31.818 326.096 30.5827 326.096 29.2C326.074 27.1147 326.652 25.4033 327.83 24.066C329.032 22.706 330.811 22.026 333.168 22.026C335.458 22.026 337.192 22.6833 338.37 23.998C339.572 25.3127 340.172 27.0467 340.172 29.2C340.172 30.5373 339.923 31.75 339.424 32.838C338.926 33.926 338.155 34.7873 337.112 35.422C336.07 36.034 334.755 36.34 333.168 36.34ZM333.168 33.416C334.166 33.416 334.925 33.2007 335.446 32.77C335.99 32.3393 336.353 31.7953 336.534 31.138C336.716 30.458 336.806 29.778 336.806 29.098C336.806 28.3953 336.716 27.704 336.534 27.024C336.353 26.344 335.99 25.7887 335.446 25.358C334.925 24.9273 334.166 24.712 333.168 24.712C332.148 24.712 331.366 24.9387 330.822 25.392C330.301 25.8227 329.938 26.378 329.734 27.058C329.553 27.7153 329.462 28.3953 329.462 29.098C329.462 29.778 329.553 30.458 329.734 31.138C329.938 31.7953 330.301 32.3393 330.822 32.77C331.366 33.2007 332.148 33.416 333.168 33.416ZM349.206 36.34C347.619 36.34 346.304 36.034 345.262 35.422C344.219 34.81 343.437 33.9713 342.916 32.906C342.394 31.818 342.134 30.5827 342.134 29.2C342.111 27.1147 342.689 25.4033 343.868 24.066C345.069 22.706 346.848 22.026 349.206 22.026C351.495 22.026 353.229 22.6833 354.408 23.998C355.609 25.3127 356.21 27.0467 356.21 29.2C356.21 30.5373 355.96 31.75 355.462 32.838C354.963 33.926 354.192 34.7873 353.15 35.422C352.107 36.034 350.792 36.34 349.206 36.34ZM349.206 33.416C350.203 33.416 350.962 33.2007 351.484 32.77C352.028 32.3393 352.39 31.7953 352.572 31.138C352.753 30.458 352.844 29.778 352.844 29.098C352.844 28.3953 352.753 27.704 352.572 27.024C352.39 26.344 352.028 25.7887 351.484 25.358C350.962 24.9273 350.203 24.712 349.206 24.712C348.186 24.712 347.404 24.9387 346.86 25.392C346.338 25.8227 345.976 26.378 345.772 27.058C345.59 27.7153 345.5 28.3953 345.5 29.098C345.5 29.778 345.59 30.458 345.772 31.138C345.976 31.7953 346.338 32.3393 346.86 32.77C347.404 33.2007 348.186 33.416 349.206 33.416ZM359.021 36V16.858H362.421V36H359.021ZM371.203 36.34C370.613 36.34 369.956 36.238 369.231 36.034C368.528 35.83 367.848 35.524 367.191 35.116C366.556 34.708 366.023 34.1867 365.593 33.552C365.185 32.8947 364.981 32.124 364.981 31.24H368.177C368.177 31.2853 368.188 31.444 368.211 31.716C368.233 31.9653 368.324 32.26 368.483 32.6C368.664 32.9173 368.959 33.2007 369.367 33.45C369.775 33.6993 370.364 33.824 371.135 33.824C372.041 33.824 372.721 33.6653 373.175 33.348C373.628 33.008 373.855 32.6227 373.855 32.192C373.855 31.6933 373.639 31.308 373.209 31.036C372.801 30.7413 372.268 30.5033 371.611 30.322C370.953 30.1407 370.251 29.9593 369.503 29.778C368.777 29.574 368.086 29.3133 367.429 28.996C366.794 28.6787 366.273 28.248 365.865 27.704C365.457 27.1373 365.253 26.412 365.253 25.528C365.253 24.236 365.774 23.2613 366.817 22.604C367.859 21.924 369.185 21.584 370.795 21.584C371.928 21.584 372.982 21.7653 373.957 22.128C374.931 22.468 375.713 23.0233 376.303 23.794C376.892 24.542 377.187 25.528 377.187 26.752H373.991C374.013 26.0493 373.855 25.528 373.515 25.188C373.197 24.8253 372.789 24.576 372.291 24.44C371.815 24.304 371.35 24.236 370.897 24.236C370.081 24.236 369.457 24.3833 369.027 24.678C368.619 24.95 368.415 25.3127 368.415 25.766C368.415 26.2873 368.619 26.6953 369.027 26.99C369.457 27.262 370.001 27.4887 370.659 27.67C371.339 27.8513 372.041 28.044 372.767 28.248C373.515 28.4293 374.217 28.6787 374.875 28.996C375.555 29.3133 376.099 29.744 376.507 30.288C376.937 30.8093 377.153 31.512 377.153 32.396C377.153 33.7333 376.597 34.7307 375.487 35.388C374.399 36.0227 372.971 36.34 371.203 36.34Z" fill="#131313"/>
<path d="M314.832 77H313.752V63.488H322.944V64.472H314.832V69.296H321.312V70.256H314.832V77ZM325.124 66.224C324.852 66.24 324.668 66.168 324.572 66.008C324.476 65.848 324.428 65.656 324.428 65.432C324.428 65.224 324.476 65.048 324.572 64.904C324.668 64.76 324.852 64.688 325.124 64.688C325.38 64.688 325.556 64.76 325.652 64.904C325.748 65.048 325.796 65.224 325.796 65.432C325.796 65.672 325.748 65.864 325.652 66.008C325.556 66.152 325.38 66.224 325.124 66.224ZM324.548 77V67.256H325.628V77H324.548ZM330.191 80.84V79.808H335.327V74.624H335.279C335.247 74.736 335.151 74.928 334.991 75.2C334.847 75.472 334.631 75.768 334.343 76.088C334.055 76.408 333.679 76.68 333.215 76.904C332.767 77.128 332.223 77.24 331.583 77.24C330.655 77.24 329.863 77.016 329.207 76.568C328.567 76.12 328.079 75.52 327.743 74.768C327.407 74.016 327.239 73.176 327.239 72.248C327.239 71.304 327.407 70.456 327.743 69.704C328.095 68.952 328.591 68.36 329.231 67.928C329.887 67.48 330.679 67.256 331.607 67.256C332.263 67.256 332.815 67.376 333.263 67.616C333.727 67.84 334.095 68.112 334.367 68.432C334.655 68.736 334.863 69.032 334.991 69.32C335.135 69.592 335.223 69.784 335.255 69.896H335.303L335.327 67.256H336.455V79.088C336.455 79.6 336.359 80.016 336.167 80.336C335.991 80.672 335.615 80.84 335.039 80.84H330.191ZM331.727 76.208C332.703 76.208 333.535 75.864 334.223 75.176C334.927 74.488 335.279 73.512 335.279 72.248C335.279 71.016 334.951 70.056 334.295 69.368C333.639 68.664 332.831 68.312 331.871 68.312C331.071 68.312 330.407 68.504 329.879 68.888C329.351 69.256 328.959 69.744 328.703 70.352C328.447 70.944 328.319 71.576 328.319 72.248C328.319 72.92 328.431 73.56 328.655 74.168C328.895 74.776 329.263 75.272 329.759 75.656C330.271 76.024 330.927 76.208 331.727 76.208ZM338.624 77V67.256H339.536L339.632 69.848H339.68C339.728 69.704 339.808 69.496 339.92 69.224C340.048 68.936 340.232 68.648 340.472 68.36C340.712 68.056 341.032 67.8 341.432 67.592C341.832 67.368 342.328 67.256 342.92 67.256C343.56 67.256 344.072 67.384 344.456 67.64C344.856 67.88 345.168 68.2 345.392 68.6C345.616 69 345.776 69.416 345.872 69.848H345.92C345.968 69.704 346.056 69.496 346.184 69.224C346.328 68.936 346.528 68.648 346.784 68.36C347.056 68.056 347.4 67.8 347.816 67.592C348.232 67.368 348.736 67.256 349.328 67.256C349.968 67.256 350.488 67.384 350.888 67.64C351.288 67.896 351.6 68.224 351.824 68.624C352.048 69.008 352.208 69.424 352.304 69.872C352.4 70.32 352.456 70.752 352.472 71.168C352.488 71.568 352.496 71.904 352.496 72.176V77H351.512V72.152C351.512 71.88 351.496 71.536 351.464 71.12C351.448 70.688 351.36 70.256 351.2 69.824C351.056 69.376 350.816 69.008 350.48 68.72C350.144 68.416 349.664 68.264 349.04 68.264C348.352 68.264 347.792 68.456 347.36 68.84C346.928 69.224 346.6 69.728 346.376 70.352C346.168 70.976 346.064 71.656 346.064 72.392V77H345.08V72.152C345.08 71.88 345.064 71.536 345.032 71.12C345.016 70.688 344.928 70.256 344.768 69.824C344.624 69.376 344.384 69.008 344.048 68.72C343.712 68.416 343.232 68.264 342.608 68.264C341.92 68.264 341.36 68.456 340.928 68.84C340.496 69.224 340.168 69.728 339.944 70.352C339.736 70.976 339.632 71.656 339.632 72.392V77H338.624ZM357.947 77.216C357.051 77.216 356.307 76.992 355.715 76.544C355.123 76.096 354.683 75.496 354.395 74.744C354.107 73.976 353.963 73.128 353.963 72.2C353.963 71.24 354.107 70.384 354.395 69.632C354.699 68.864 355.147 68.264 355.739 67.832C356.331 67.384 357.067 67.16 357.947 67.16C358.891 67.16 359.643 67.392 360.203 67.856C360.763 68.304 361.163 68.824 361.403 69.416H361.451V67.256H362.555V77H361.643L361.451 74.984H361.403C361.147 75.576 360.739 76.096 360.179 76.544C359.619 76.992 358.875 77.216 357.947 77.216ZM358.355 76.208C359.379 76.208 360.147 75.856 360.659 75.152C361.171 74.448 361.427 73.472 361.427 72.224C361.427 70.896 361.155 69.896 360.611 69.224C360.083 68.552 359.331 68.216 358.355 68.216C357.219 68.216 356.387 68.6 355.859 69.368C355.331 70.12 355.067 71.064 355.067 72.2C355.067 73.384 355.339 74.352 355.883 75.104C356.427 75.84 357.251 76.208 358.355 76.208ZM314.496 109.064H322.392V110H313.392V96.488H322.176V97.472H314.496V102.68H320.64V103.64H314.496V109.064ZM323.587 110L327.163 104.984L323.755 100.256H325.027L327.835 104.216L330.667 100.256H331.963L328.531 104.984L332.179 110H330.859L327.835 105.752L324.859 110H323.587ZM338.21 110.24C336.834 110.24 335.714 109.808 334.85 108.944C333.986 108.08 333.554 106.888 333.554 105.368C333.57 104.36 333.778 103.472 334.178 102.704C334.578 101.936 335.13 101.336 335.834 100.904C336.538 100.472 337.354 100.256 338.282 100.256C339.466 100.256 340.442 100.584 341.21 101.24C341.994 101.88 342.474 102.688 342.65 103.664H341.618C341.458 102.912 341.074 102.328 340.466 101.912C339.874 101.48 339.154 101.264 338.306 101.264C337.202 101.264 336.314 101.64 335.642 102.392C334.97 103.144 334.634 104.12 334.634 105.32C334.634 106.52 334.954 107.472 335.594 108.176C336.25 108.88 337.13 109.232 338.234 109.232C339.098 109.232 339.834 109.016 340.442 108.584C341.066 108.152 341.458 107.56 341.618 106.808H342.65C342.474 107.8 341.986 108.624 341.186 109.28C340.386 109.92 339.394 110.24 338.21 110.24ZM348.874 110.24C347.834 110.24 346.97 109.992 346.282 109.496C345.61 109 345.106 108.368 344.77 107.6C344.434 106.816 344.274 106.008 344.29 105.176C344.29 104.312 344.466 103.504 344.818 102.752C345.17 102 345.682 101.4 346.354 100.952C347.042 100.488 347.874 100.256 348.85 100.256C350.066 100.256 351.066 100.656 351.85 101.456C352.65 102.24 353.098 103.296 353.194 104.624C353.21 104.704 353.218 104.8 353.218 104.912C353.218 105.024 353.218 105.128 353.218 105.224H345.346C345.346 106.456 345.65 107.44 346.258 108.176C346.866 108.912 347.738 109.28 348.874 109.28C349.69 109.28 350.394 109.064 350.986 108.632C351.594 108.2 351.97 107.616 352.114 106.88H353.194C353.002 107.872 352.514 108.68 351.73 109.304C350.962 109.928 350.01 110.24 348.874 110.24ZM345.418 104.504H352.09C352.074 104.088 351.954 103.624 351.73 103.112C351.522 102.6 351.178 102.152 350.698 101.768C350.234 101.384 349.618 101.192 348.85 101.192C347.794 101.192 346.986 101.52 346.426 102.176C345.866 102.832 345.53 103.608 345.418 104.504ZM355.553 110V96.488H356.657V110H355.553Z" fill="black"/>
<path d="M624.34 19.306V16.858H638.96V19.306H633.078V36H630.256V19.306H624.34ZM641.974 20.564C641.362 20.5867 640.954 20.4393 640.75 20.122C640.546 19.8047 640.444 19.408 640.444 18.932C640.444 18.524 640.546 18.1613 640.75 17.844C640.954 17.5267 641.362 17.368 641.974 17.368C642.563 17.368 642.96 17.5267 643.164 17.844C643.39 18.1613 643.504 18.524 643.504 18.932C643.504 19.408 643.39 19.8047 643.164 20.122C642.96 20.4167 642.563 20.564 641.974 20.564ZM640.546 36V22.094H643.368V36H640.546ZM646.509 36V22.094H648.957L649.025 25.324H649.093C649.138 25.2107 649.229 24.984 649.365 24.644C649.523 24.304 649.761 23.9413 650.079 23.556C650.419 23.148 650.861 22.808 651.405 22.536C651.949 22.2413 652.617 22.094 653.411 22.094C654.612 22.094 655.496 22.4227 656.063 23.08C656.652 23.7147 657.071 24.4627 657.321 25.324H657.389C657.411 25.2107 657.513 24.984 657.695 24.644C657.876 24.304 658.137 23.9413 658.477 23.556C658.839 23.148 659.304 22.808 659.871 22.536C660.437 22.2413 661.129 22.094 661.945 22.094C662.829 22.094 663.543 22.2753 664.087 22.638C664.653 23.0007 665.084 23.4767 665.379 24.066C665.696 24.6327 665.911 25.2447 666.025 25.902C666.161 26.5367 666.24 27.1487 666.263 27.738C666.285 28.3273 666.297 28.8147 666.297 29.2V36H663.883V29.166C663.883 28.826 663.86 28.4067 663.815 27.908C663.792 27.3867 663.69 26.8767 663.509 26.378C663.35 25.8567 663.067 25.4373 662.659 25.12C662.273 24.78 661.718 24.61 660.993 24.61C660.131 24.61 659.463 24.8367 658.987 25.29C658.511 25.7433 658.171 26.344 657.967 27.092C657.763 27.8173 657.661 28.5767 657.661 29.37V36H655.247V29.166C655.247 28.826 655.224 28.4067 655.179 27.908C655.156 27.3867 655.054 26.8767 654.873 26.378C654.714 25.8567 654.431 25.4373 654.023 25.12C653.637 24.78 653.082 24.61 652.357 24.61C651.495 24.61 650.827 24.8367 650.351 25.29C649.875 25.7433 649.535 26.344 649.331 27.092C649.127 27.8173 649.025 28.5767 649.025 29.37V36H646.509ZM675.346 36.34C673.782 36.34 672.501 36 671.504 35.32C670.507 34.6173 669.77 33.722 669.294 32.634C668.818 31.546 668.58 30.4013 668.58 29.2C668.557 27.8627 668.807 26.65 669.328 25.562C669.872 24.474 670.643 23.6127 671.64 22.978C672.66 22.3433 673.873 22.026 675.278 22.026C676.479 22.026 677.556 22.298 678.508 22.842C679.483 23.3633 680.253 24.1113 680.82 25.086C681.387 26.038 681.693 27.1713 681.738 28.486C681.738 28.554 681.738 28.69 681.738 28.894C681.761 29.0753 681.772 29.234 681.772 29.37H671.266C671.266 30.8207 671.617 31.954 672.32 32.77C673.045 33.5633 674.043 33.96 675.312 33.96C676.264 33.96 677.069 33.722 677.726 33.246C678.406 32.7473 678.825 32.09 678.984 31.274H681.738C681.534 32.7247 680.877 33.9373 679.766 34.912C678.655 35.864 677.182 36.34 675.346 36.34ZM671.368 27.976H678.916C678.893 27.7267 678.825 27.398 678.712 26.99C678.599 26.582 678.406 26.1853 678.134 25.8C677.885 25.392 677.522 25.052 677.046 24.78C676.57 24.508 675.958 24.372 675.21 24.372C674.281 24.372 673.544 24.576 673 24.984C672.479 25.3693 672.082 25.8453 671.81 26.412C671.561 26.956 671.413 27.4773 671.368 27.976ZM684.901 36V16.858H687.689V36H684.901ZM692.675 20.564C692.063 20.5867 691.655 20.4393 691.451 20.122C691.247 19.8047 691.145 19.408 691.145 18.932C691.145 18.524 691.247 18.1613 691.451 17.844C691.655 17.5267 692.063 17.368 692.675 17.368C693.264 17.368 693.661 17.5267 693.865 17.844C694.092 18.1613 694.205 18.524 694.205 18.932C694.205 19.408 694.092 19.8047 693.865 20.122C693.661 20.4167 693.264 20.564 692.675 20.564ZM691.247 36V22.094H694.069V36H691.247ZM697.21 36V22.128H699.624L700.1 25.324H700.168C700.191 25.2333 700.281 25.018 700.44 24.678C700.599 24.338 700.859 23.9753 701.222 23.59C701.585 23.182 702.072 22.8307 702.684 22.536C703.296 22.2413 704.067 22.094 704.996 22.094C706.22 22.094 707.172 22.332 707.852 22.808C708.532 23.2613 709.031 23.862 709.348 24.61C709.665 25.3353 709.858 26.106 709.926 26.922C710.017 27.738 710.062 28.4973 710.062 29.2V36H707.308V29.166C707.308 28.3047 707.217 27.534 707.036 26.854C706.855 26.1513 706.515 25.6073 706.016 25.222C705.54 24.814 704.837 24.61 703.908 24.61C702.956 24.61 702.197 24.8367 701.63 25.29C701.063 25.7433 700.667 26.3327 700.44 27.058C700.213 27.7833 700.1 28.554 700.1 29.37V36H697.21ZM719.108 36.34C717.544 36.34 716.263 36 715.266 35.32C714.268 34.6173 713.532 33.722 713.056 32.634C712.58 31.546 712.342 30.4013 712.342 29.2C712.319 27.8627 712.568 26.65 713.09 25.562C713.634 24.474 714.404 23.6127 715.402 22.978C716.422 22.3433 717.634 22.026 719.04 22.026C720.241 22.026 721.318 22.298 722.27 22.842C723.244 23.3633 724.015 24.1113 724.582 25.086C725.148 26.038 725.454 27.1713 725.5 28.486C725.5 28.554 725.5 28.69 725.5 28.894C725.522 29.0753 725.534 29.234 725.534 29.37H715.028C715.028 30.8207 715.379 31.954 716.082 32.77C716.807 33.5633 717.804 33.96 719.074 33.96C720.026 33.96 720.83 33.722 721.488 33.246C722.168 32.7473 722.587 32.09 722.746 31.274H725.5C725.296 32.7247 724.638 33.9373 723.528 34.912C722.417 35.864 720.944 36.34 719.108 36.34ZM715.13 27.976H722.678C722.655 27.7267 722.587 27.398 722.474 26.99C722.36 26.582 722.168 26.1853 721.896 25.8C721.646 25.392 721.284 25.052 720.808 24.78C720.332 24.508 719.72 24.372 718.972 24.372C718.042 24.372 717.306 24.576 716.762 24.984C716.24 25.3693 715.844 25.8453 715.572 26.412C715.322 26.956 715.175 27.4773 715.13 27.976ZM754.861 36.068C754.023 35.728 753.229 35.3653 752.481 34.98C751.756 34.572 750.985 34.096 750.169 33.552C749.24 34.4587 748.175 35.1387 746.973 35.592C745.772 36.0453 744.548 36.2833 743.301 36.306C742.077 36.3287 740.944 36.136 739.901 35.728C738.859 35.2973 738.009 34.6627 737.351 33.824C736.717 32.9627 736.399 31.8973 736.399 30.628C736.399 29.744 736.569 28.996 736.909 28.384C737.249 27.772 737.669 27.2733 738.167 26.888C738.666 26.48 739.165 26.1513 739.663 25.902C740.162 25.63 740.559 25.4147 740.853 25.256C740.672 25.0067 740.411 24.6667 740.071 24.236C739.754 23.8053 739.459 23.3067 739.187 22.74C738.938 22.1507 738.813 21.4933 738.813 20.768C738.813 19.8613 739.051 19.102 739.527 18.49C740.003 17.8553 740.627 17.3793 741.397 17.062C742.168 16.7447 742.984 16.586 743.845 16.586C744.707 16.5633 745.523 16.6993 746.293 16.994C747.064 17.2887 747.687 17.742 748.163 18.354C748.662 18.9433 748.911 19.6913 748.911 20.598C748.911 21.3687 748.707 22.06 748.299 22.672C747.914 23.2613 747.438 23.7713 746.871 24.202C746.327 24.6327 745.817 24.9727 745.341 25.222C744.888 25.4713 744.593 25.63 744.457 25.698C744.707 26.0153 745.069 26.4347 745.545 26.956C746.044 27.4547 746.611 27.9873 747.245 28.554C747.903 29.098 748.571 29.6193 749.251 30.118C749.501 29.7327 749.739 29.2227 749.965 28.588C750.192 27.9533 750.294 27.3073 750.271 26.65C750.271 25.9927 750.045 25.426 749.591 24.95L751.971 23.352C752.153 23.624 752.345 24.0547 752.549 24.644C752.776 25.2333 752.923 25.9247 752.991 26.718C753.082 27.5113 753.037 28.3387 752.855 29.2C752.674 30.0613 752.3 30.8887 751.733 31.682C752.391 32.1353 753.025 32.5433 753.637 32.906C754.272 33.246 755.031 33.586 755.915 33.926L754.861 36.068ZM742.893 24.372C743.052 24.304 743.324 24.168 743.709 23.964C744.095 23.76 744.491 23.5107 744.899 23.216C745.307 22.9213 745.659 22.5927 745.953 22.23C746.271 21.8447 746.441 21.4367 746.463 21.006C746.509 20.4167 746.361 19.952 746.021 19.612C745.681 19.2493 745.251 19.0113 744.729 18.898C744.231 18.762 743.721 18.762 743.199 18.898C742.678 19.0113 742.236 19.2493 741.873 19.612C741.533 19.952 741.363 20.428 741.363 21.04C741.386 22.0147 741.896 23.1253 742.893 24.372ZM747.959 31.954C746.939 31.1833 745.931 30.322 744.933 29.37C743.936 28.418 743.086 27.5 742.383 26.616C741.545 27.024 740.808 27.5 740.173 28.044C739.539 28.588 739.221 29.336 739.221 30.288C739.221 31.2853 739.527 32.0787 740.139 32.668C740.774 33.2347 741.567 33.5973 742.519 33.756C743.471 33.9147 744.435 33.8467 745.409 33.552C746.407 33.2573 747.257 32.7247 747.959 31.954ZM764.557 19.306V16.858H779.177V19.306H773.295V36H770.473V19.306H764.557ZM784.883 36.34C783.319 36.34 782.039 36 781.041 35.32C780.044 34.6173 779.307 33.722 778.831 32.634C778.355 31.546 778.117 30.4013 778.117 29.2C778.095 27.8627 778.344 26.65 778.865 25.562C779.409 24.474 780.18 23.6127 781.177 22.978C782.197 22.3433 783.41 22.026 784.815 22.026C786.017 22.026 787.093 22.298 788.045 22.842C789.02 23.3633 789.791 24.1113 790.357 25.086C790.924 26.038 791.23 27.1713 791.275 28.486C791.275 28.554 791.275 28.69 791.275 28.894C791.298 29.0753 791.309 29.234 791.309 29.37H780.803C780.803 30.8207 781.155 31.954 781.857 32.77C782.583 33.5633 783.58 33.96 784.849 33.96C785.801 33.96 786.606 33.722 787.263 33.246C787.943 32.7473 788.363 32.09 788.521 31.274H791.275C791.071 32.7247 790.414 33.9373 789.303 34.912C788.193 35.864 786.719 36.34 784.883 36.34ZM780.905 27.976H788.453C788.431 27.7267 788.363 27.398 788.249 26.99C788.136 26.582 787.943 26.1853 787.671 25.8C787.422 25.392 787.059 25.052 786.583 24.78C786.107 24.508 785.495 24.372 784.747 24.372C783.818 24.372 783.081 24.576 782.537 24.984C782.016 25.3693 781.619 25.8453 781.347 26.412C781.098 26.956 780.951 27.4773 780.905 27.976ZM798.858 36.306C797.566 36.306 796.524 36.0113 795.73 35.422C794.937 34.81 794.348 33.9713 793.962 32.906C793.6 31.818 793.418 30.5827 793.418 29.2C793.418 27.092 793.849 25.3693 794.71 24.032C795.572 22.672 796.954 21.992 798.858 21.992C799.878 21.992 800.706 22.1733 801.34 22.536C801.975 22.8987 802.462 23.3067 802.802 23.76C803.165 24.2133 803.414 24.61 803.55 24.95H803.618V22.094H806.508V36H804.094L803.618 33.518H803.55C803.414 33.858 803.165 34.2547 802.802 34.708C802.44 35.1387 801.941 35.5127 801.306 35.83C800.672 36.1473 799.856 36.306 798.858 36.306ZM799.98 33.892C801.318 33.892 802.247 33.4613 802.768 32.6C803.312 31.7387 803.584 30.6167 803.584 29.234C803.584 27.7833 803.301 26.6387 802.734 25.8C802.19 24.9613 801.272 24.542 799.98 24.542C799.028 24.542 798.28 24.7573 797.736 25.188C797.192 25.596 796.796 26.1513 796.546 26.854C796.32 27.5567 796.206 28.3387 796.206 29.2C796.206 30.5373 796.49 31.6593 797.056 32.566C797.623 33.45 798.598 33.892 799.98 33.892ZM809.005 36V22.094H811.453L811.521 25.324H811.589C811.634 25.2107 811.725 24.984 811.861 24.644C812.02 24.304 812.258 23.9413 812.575 23.556C812.915 23.148 813.357 22.808 813.901 22.536C814.445 22.2413 815.114 22.094 815.907 22.094C817.108 22.094 817.992 22.4227 818.559 23.08C819.148 23.7147 819.568 24.4627 819.817 25.324H819.885C819.908 25.2107 820.01 24.984 820.191 24.644C820.372 24.304 820.633 23.9413 820.973 23.556C821.336 23.148 821.8 22.808 822.367 22.536C822.934 22.2413 823.625 22.094 824.441 22.094C825.325 22.094 826.039 22.2753 826.583 22.638C827.15 23.0007 827.58 23.4767 827.875 24.066C828.192 24.6327 828.408 25.2447 828.521 25.902C828.657 26.5367 828.736 27.1487 828.759 27.738C828.782 28.3273 828.793 28.8147 828.793 29.2V36H826.379V29.166C826.379 28.826 826.356 28.4067 826.311 27.908C826.288 27.3867 826.186 26.8767 826.005 26.378C825.846 25.8567 825.563 25.4373 825.155 25.12C824.77 24.78 824.214 24.61 823.489 24.61C822.628 24.61 821.959 24.8367 821.483 25.29C821.007 25.7433 820.667 26.344 820.463 27.092C820.259 27.8173 820.157 28.5767 820.157 29.37V36H817.743V29.166C817.743 28.826 817.72 28.4067 817.675 27.908C817.652 27.3867 817.55 26.8767 817.369 26.378C817.21 25.8567 816.927 25.4373 816.519 25.12C816.134 24.78 815.578 24.61 814.853 24.61C813.992 24.61 813.323 24.8367 812.847 25.29C812.371 25.7433 812.031 26.344 811.827 27.092C811.623 27.8173 811.521 28.5767 811.521 29.37V36H809.005Z" fill="#131313"/>
<path d="M629.808 77.24C628.992 77.24 628.2 77.08 627.432 76.76C626.664 76.424 626.024 75.92 625.512 75.248C625.016 74.576 624.76 73.736 624.744 72.728L625.776 72.656C625.824 73.488 626.048 74.176 626.448 74.72C626.848 75.248 627.352 75.64 627.96 75.896C628.568 76.136 629.192 76.256 629.832 76.256C630.52 76.256 631.16 76.136 631.752 75.896C632.344 75.656 632.816 75.312 633.168 74.864C633.52 74.4 633.696 73.856 633.696 73.232C633.696 72.656 633.584 72.184 633.36 71.816C633.136 71.448 632.856 71.16 632.52 70.952C632.184 70.744 631.848 70.6 631.512 70.52C631.176 70.424 630.888 70.376 630.648 70.376H628.56V69.704H630.672C631.536 69.704 632.192 69.48 632.64 69.032C633.104 68.584 633.336 68.008 633.336 67.304C633.336 66.328 633.008 65.568 632.352 65.024C631.696 64.464 630.824 64.184 629.736 64.184C629.064 64.184 628.496 64.296 628.032 64.52C627.568 64.744 627.192 65.024 626.904 65.36C626.616 65.696 626.4 66.04 626.256 66.392C626.128 66.744 626.048 67.056 626.016 67.328L625.032 67.232C625.048 66.976 625.136 66.632 625.296 66.2C625.456 65.752 625.712 65.304 626.064 64.856C626.416 64.408 626.888 64.032 627.48 63.728C628.088 63.408 628.84 63.248 629.736 63.248C631.128 63.248 632.248 63.6 633.096 64.304C633.944 64.992 634.368 65.944 634.368 67.16C634.368 67.96 634.16 68.592 633.744 69.056C633.328 69.504 632.784 69.832 632.112 70.04C632.816 70.248 633.424 70.64 633.936 71.216C634.464 71.776 634.728 72.488 634.728 73.352C634.728 74.136 634.512 74.824 634.08 75.416C633.648 75.992 633.064 76.44 632.328 76.76C631.592 77.08 630.752 77.24 629.808 77.24ZM644.223 77L641.439 67.568V67.256H642.471L644.967 76.064H645.015L647.727 67.256H648.735L651.495 76.064H651.543L653.991 67.256H655.023V67.568L652.287 77H650.703L648.255 69.176H648.207L645.783 77H644.223ZM660.71 77.24C659.67 77.24 658.806 76.992 658.118 76.496C657.446 76 656.942 75.368 656.606 74.6C656.27 73.816 656.11 73.008 656.126 72.176C656.126 71.312 656.302 70.504 656.654 69.752C657.006 69 657.518 68.4 658.19 67.952C658.878 67.488 659.71 67.256 660.686 67.256C661.902 67.256 662.902 67.656 663.686 68.456C664.486 69.24 664.934 70.296 665.03 71.624C665.046 71.704 665.054 71.8 665.054 71.912C665.054 72.024 665.054 72.128 665.054 72.224H657.182C657.182 73.456 657.486 74.44 658.094 75.176C658.702 75.912 659.574 76.28 660.71 76.28C661.526 76.28 662.23 76.064 662.822 75.632C663.43 75.2 663.806 74.616 663.95 73.88H665.03C664.838 74.872 664.35 75.68 663.566 76.304C662.798 76.928 661.846 77.24 660.71 77.24ZM657.254 71.504H663.926C663.91 71.088 663.79 70.624 663.566 70.112C663.358 69.6 663.014 69.152 662.534 68.768C662.07 68.384 661.454 68.192 660.686 68.192C659.63 68.192 658.822 68.52 658.262 69.176C657.702 69.832 657.366 70.608 657.254 71.504ZM671.397 77.24C670.357 77.24 669.493 76.992 668.805 76.496C668.133 76 667.629 75.368 667.293 74.6C666.957 73.816 666.797 73.008 666.813 72.176C666.813 71.312 666.989 70.504 667.341 69.752C667.693 69 668.205 68.4 668.877 67.952C669.565 67.488 670.397 67.256 671.373 67.256C672.589 67.256 673.589 67.656 674.373 68.456C675.173 69.24 675.621 70.296 675.717 71.624C675.733 71.704 675.741 71.8 675.741 71.912C675.741 72.024 675.741 72.128 675.741 72.224H667.869C667.869 73.456 668.173 74.44 668.781 75.176C669.389 75.912 670.261 76.28 671.397 76.28C672.213 76.28 672.917 76.064 673.509 75.632C674.117 75.2 674.493 74.616 674.637 73.88H675.717C675.525 74.872 675.037 75.68 674.253 76.304C673.485 76.928 672.533 77.24 671.397 77.24ZM667.941 71.504H674.613C674.597 71.088 674.477 70.624 674.253 70.112C674.045 69.6 673.701 69.152 673.221 68.768C672.757 68.384 672.141 68.192 671.373 68.192C670.317 68.192 669.509 68.52 668.949 69.176C668.389 69.832 668.053 70.608 667.941 71.504ZM679.157 77.024H678.053V63.488H679.157V72.992L685.037 67.256H686.501L682.085 71.504L686.573 77.024H685.205L681.293 72.272L679.157 74.36V77.024ZM691.515 77.24C690.699 77.24 690.035 77.104 689.523 76.832C689.011 76.544 688.619 76.208 688.347 75.824C688.075 75.44 687.883 75.072 687.771 74.72C687.675 74.368 687.627 74.112 687.627 73.952H688.707C688.707 73.968 688.715 74.104 688.731 74.36C688.763 74.6 688.859 74.88 689.019 75.2C689.179 75.52 689.451 75.8 689.835 76.04C690.235 76.264 690.803 76.376 691.539 76.376C692.051 76.376 692.531 76.32 692.979 76.208C693.443 76.08 693.811 75.888 694.083 75.632C694.371 75.36 694.515 75.008 694.515 74.576C694.499 74.064 694.331 73.672 694.011 73.4C693.691 73.112 693.275 72.896 692.763 72.752C692.251 72.608 691.715 72.48 691.155 72.368C690.595 72.256 690.059 72.104 689.547 71.912C689.051 71.72 688.643 71.44 688.323 71.072C688.019 70.704 687.875 70.2 687.891 69.56C687.891 68.808 688.243 68.192 688.947 67.712C689.651 67.232 690.555 66.992 691.659 66.992C692.075 66.992 692.507 67.04 692.955 67.136C693.419 67.232 693.851 67.4 694.251 67.64C694.651 67.88 694.971 68.216 695.211 68.648C695.451 69.064 695.555 69.6 695.523 70.256H694.467C694.499 69.76 694.419 69.36 694.227 69.056C694.035 68.736 693.779 68.496 693.459 68.336C693.155 68.176 692.835 68.072 692.499 68.024C692.163 67.96 691.859 67.928 691.587 67.928C690.835 67.928 690.195 68.072 689.667 68.36C689.155 68.632 688.899 69.04 688.899 69.584C688.899 70.08 689.059 70.456 689.379 70.712C689.699 70.952 690.115 71.144 690.627 71.288C691.139 71.416 691.675 71.544 692.235 71.672C692.795 71.784 693.323 71.944 693.819 72.152C694.331 72.344 694.747 72.632 695.067 73.016C695.403 73.4 695.571 73.936 695.571 74.624C695.571 75.232 695.387 75.736 695.019 76.136C694.651 76.52 694.155 76.8 693.531 76.976C692.923 77.152 692.251 77.24 691.515 77.24ZM705.281 77C704.769 77 704.441 76.856 704.297 76.568C704.153 76.28 704.081 75.936 704.081 75.536V68.144H702.473V67.256C703.049 67.256 703.449 67.224 703.673 67.16C703.897 67.08 704.033 66.864 704.081 66.512C704.129 66.16 704.153 65.568 704.153 64.736H705.137V67.256H707.417V68.144H705.137V76.064H707.417V77H705.281ZM713.396 77.24C711.876 77.24 710.732 76.776 709.964 75.848C709.212 74.904 708.836 73.712 708.836 72.272C708.836 70.8 709.22 69.6 709.988 68.672C710.756 67.728 711.892 67.256 713.396 67.256C714.868 67.256 715.988 67.72 716.756 68.648C717.54 69.56 717.932 70.768 717.932 72.272C717.932 73.216 717.764 74.064 717.428 74.816C717.108 75.552 716.612 76.144 715.94 76.592C715.284 77.024 714.436 77.24 713.396 77.24ZM713.396 76.256C714.292 76.256 714.988 76.056 715.484 75.656C715.98 75.256 716.324 74.752 716.516 74.144C716.724 73.52 716.828 72.888 716.828 72.248C716.828 71.592 716.724 70.96 716.516 70.352C716.324 69.728 715.98 69.216 715.484 68.816C714.988 68.4 714.292 68.192 713.396 68.192C712.5 68.192 711.804 68.4 711.308 68.816C710.812 69.216 710.46 69.728 710.252 70.352C710.044 70.96 709.94 71.592 709.94 72.248C709.94 72.888 710.044 73.52 710.252 74.144C710.46 74.752 710.812 75.256 711.308 75.656C711.804 76.056 712.5 76.256 713.396 76.256ZM730.371 77.24C729.443 77.24 728.651 77.024 727.995 76.592C727.355 76.144 726.867 75.544 726.531 74.792C726.195 74.024 726.027 73.176 726.027 72.248C726.027 71.304 726.195 70.456 726.531 69.704C726.883 68.952 727.379 68.36 728.019 67.928C728.675 67.48 729.467 67.256 730.395 67.256C731.067 67.256 731.627 67.376 732.075 67.616C732.523 67.84 732.883 68.112 733.155 68.432C733.443 68.736 733.659 69.032 733.803 69.32C733.947 69.592 734.035 69.784 734.067 69.896H734.115L734.139 63.488H735.243V77H734.331L734.139 74.624H734.091C734.043 74.736 733.939 74.928 733.779 75.2C733.635 75.472 733.419 75.768 733.131 76.088C732.843 76.408 732.467 76.68 732.003 76.904C731.555 77.128 731.011 77.24 730.371 77.24ZM730.515 76.208C731.507 76.208 732.347 75.864 733.035 75.176C733.723 74.488 734.067 73.512 734.067 72.248C734.067 71.016 733.739 70.056 733.083 69.368C732.443 68.664 731.643 68.312 730.683 68.312C729.883 68.312 729.219 68.504 728.691 68.888C728.163 69.256 727.763 69.744 727.491 70.352C727.235 70.944 727.107 71.576 727.107 72.248C727.107 72.92 727.227 73.56 727.467 74.168C727.707 74.776 728.075 75.272 728.571 75.656C729.067 76.024 729.715 76.208 730.515 76.208ZM741.568 77.24C740.048 77.24 738.904 76.776 738.136 75.848C737.384 74.904 737.008 73.712 737.008 72.272C737.008 70.8 737.392 69.6 738.16 68.672C738.928 67.728 740.064 67.256 741.568 67.256C743.04 67.256 744.16 67.72 744.928 68.648C745.712 69.56 746.104 70.768 746.104 72.272C746.104 73.216 745.936 74.064 745.6 74.816C745.28 75.552 744.784 76.144 744.112 76.592C743.456 77.024 742.608 77.24 741.568 77.24ZM741.568 76.256C742.464 76.256 743.16 76.056 743.656 75.656C744.152 75.256 744.496 74.752 744.688 74.144C744.896 73.52 745 72.888 745 72.248C745 71.592 744.896 70.96 744.688 70.352C744.496 69.728 744.152 69.216 743.656 68.816C743.16 68.4 742.464 68.192 741.568 68.192C740.672 68.192 739.976 68.4 739.48 68.816C738.984 69.216 738.632 69.728 738.424 70.352C738.216 70.96 738.112 71.592 738.112 72.248C738.112 72.888 738.216 73.52 738.424 74.144C738.632 74.752 738.984 75.256 739.48 75.656C739.976 76.056 740.672 76.256 741.568 76.256ZM754.295 77V67.256H755.231L755.375 69.752C755.535 69.064 755.911 68.472 756.503 67.976C757.095 67.48 757.927 67.24 758.999 67.256H759.527V68.48H758.999C757.911 68.48 757.111 68.656 756.599 69.008C756.087 69.344 755.751 69.8 755.591 70.376C755.447 70.952 755.375 71.592 755.375 72.296V77H754.295ZM764.96 77.24C763.92 77.24 763.056 76.992 762.368 76.496C761.696 76 761.192 75.368 760.856 74.6C760.52 73.816 760.36 73.008 760.376 72.176C760.376 71.312 760.552 70.504 760.904 69.752C761.256 69 761.768 68.4 762.44 67.952C763.128 67.488 763.96 67.256 764.936 67.256C766.152 67.256 767.152 67.656 767.936 68.456C768.736 69.24 769.184 70.296 769.28 71.624C769.296 71.704 769.304 71.8 769.304 71.912C769.304 72.024 769.304 72.128 769.304 72.224H761.432C761.432 73.456 761.736 74.44 762.344 75.176C762.952 75.912 763.824 76.28 764.96 76.28C765.776 76.28 766.48 76.064 767.072 75.632C767.68 75.2 768.056 74.616 768.2 73.88H769.28C769.088 74.872 768.6 75.68 767.816 76.304C767.048 76.928 766.096 77.24 764.96 77.24ZM761.504 71.504H768.176C768.16 71.088 768.04 70.624 767.816 70.112C767.608 69.6 767.264 69.152 766.784 68.768C766.32 68.384 765.704 68.192 764.936 68.192C763.88 68.192 763.072 68.52 762.512 69.176C761.952 69.832 761.616 70.608 761.504 71.504ZM775.023 77.24C774.207 77.24 773.543 77.104 773.031 76.832C772.519 76.544 772.127 76.208 771.855 75.824C771.583 75.44 771.391 75.072 771.279 74.72C771.183 74.368 771.135 74.112 771.135 73.952H772.215C772.215 73.968 772.223 74.104 772.239 74.36C772.271 74.6 772.367 74.88 772.527 75.2C772.687 75.52 772.959 75.8 773.343 76.04C773.743 76.264 774.311 76.376 775.047 76.376C775.559 76.376 776.039 76.32 776.487 76.208C776.951 76.08 777.319 75.888 777.591 75.632C777.879 75.36 778.023 75.008 778.023 74.576C778.007 74.064 777.839 73.672 777.519 73.4C777.199 73.112 776.783 72.896 776.271 72.752C775.759 72.608 775.223 72.48 774.663 72.368C774.103 72.256 773.567 72.104 773.055 71.912C772.559 71.72 772.151 71.44 771.831 71.072C771.527 70.704 771.383 70.2 771.399 69.56C771.399 68.808 771.751 68.192 772.455 67.712C773.159 67.232 774.063 66.992 775.167 66.992C775.583 66.992 776.015 67.04 776.463 67.136C776.927 67.232 777.359 67.4 777.759 67.64C778.159 67.88 778.479 68.216 778.719 68.648C778.959 69.064 779.063 69.6 779.031 70.256H777.975C778.007 69.76 777.927 69.36 777.735 69.056C777.543 68.736 777.287 68.496 776.967 68.336C776.663 68.176 776.343 68.072 776.007 68.024C775.671 67.96 775.367 67.928 775.095 67.928C774.343 67.928 773.703 68.072 773.175 68.36C772.663 68.632 772.407 69.04 772.407 69.584C772.407 70.08 772.567 70.456 772.887 70.712C773.207 70.952 773.623 71.144 774.135 71.288C774.647 71.416 775.183 71.544 775.743 71.672C776.303 71.784 776.831 71.944 777.327 72.152C777.839 72.344 778.255 72.632 778.575 73.016C778.911 73.4 779.079 73.936 779.079 74.624C779.079 75.232 778.895 75.736 778.527 76.136C778.159 76.52 777.663 76.8 777.039 76.976C776.431 77.152 775.759 77.24 775.023 77.24ZM785.163 77.24C784.123 77.24 783.259 76.992 782.571 76.496C781.899 76 781.395 75.368 781.059 74.6C780.723 73.816 780.563 73.008 780.579 72.176C780.579 71.312 780.755 70.504 781.107 69.752C781.459 69 781.971 68.4 782.643 67.952C783.331 67.488 784.163 67.256 785.139 67.256C786.355 67.256 787.355 67.656 788.139 68.456C788.939 69.24 789.387 70.296 789.483 71.624C789.499 71.704 789.507 71.8 789.507 71.912C789.507 72.024 789.507 72.128 789.507 72.224H781.635C781.635 73.456 781.939 74.44 782.547 75.176C783.155 75.912 784.027 76.28 785.163 76.28C785.979 76.28 786.683 76.064 787.275 75.632C787.883 75.2 788.259 74.616 788.403 73.88H789.483C789.291 74.872 788.803 75.68 788.019 76.304C787.251 76.928 786.299 77.24 785.163 77.24ZM781.707 71.504H788.379C788.363 71.088 788.243 70.624 788.019 70.112C787.811 69.6 787.467 69.152 786.987 68.768C786.523 68.384 785.907 68.192 785.139 68.192C784.083 68.192 783.275 68.52 782.715 69.176C782.155 69.832 781.819 70.608 781.707 71.504ZM794.962 77.216C794.066 77.216 793.322 76.992 792.73 76.544C792.138 76.096 791.698 75.496 791.41 74.744C791.122 73.976 790.978 73.128 790.978 72.2C790.978 71.24 791.122 70.384 791.41 69.632C791.714 68.864 792.162 68.264 792.754 67.832C793.346 67.384 794.082 67.16 794.962 67.16C795.906 67.16 796.658 67.392 797.218 67.856C797.778 68.304 798.178 68.824 798.418 69.416H798.466V67.256H799.57V77H798.658L798.466 74.984H798.418C798.162 75.576 797.754 76.096 797.194 76.544C796.634 76.992 795.89 77.216 794.962 77.216ZM795.37 76.208C796.394 76.208 797.162 75.856 797.674 75.152C798.186 74.448 798.442 73.472 798.442 72.224C798.442 70.896 798.17 69.896 797.626 69.224C797.098 68.552 796.346 68.216 795.37 68.216C794.234 68.216 793.402 68.6 792.874 69.368C792.346 70.12 792.082 71.064 792.082 72.2C792.082 73.384 792.354 74.352 792.898 75.104C793.442 75.84 794.266 76.208 795.37 76.208ZM801.732 77V67.256H802.668L802.812 69.752C802.972 69.064 803.348 68.472 803.94 67.976C804.532 67.48 805.364 67.24 806.436 67.256H806.964V68.48H806.436C805.348 68.48 804.548 68.656 804.036 69.008C803.524 69.344 803.188 69.8 803.028 70.376C802.884 70.952 802.812 71.592 802.812 72.296V77H801.732ZM808.289 77V63.488H809.393V69.848H809.441C809.473 69.736 809.553 69.544 809.681 69.272C809.809 69 810.009 68.712 810.281 68.408C810.553 68.088 810.905 67.816 811.337 67.592C811.785 67.368 812.337 67.256 812.993 67.256C813.825 67.256 814.489 67.408 814.985 67.712C815.497 68 815.881 68.384 816.137 68.864C816.393 69.344 816.561 69.872 816.641 70.448C816.721 71.024 816.761 71.6 816.761 72.176V77H815.705V72.152C815.705 70.968 815.497 70.024 815.081 69.32C814.665 68.616 813.905 68.264 812.801 68.264C812.033 68.264 811.393 68.456 810.881 68.84C810.369 69.208 809.993 69.712 809.753 70.352C809.513 70.976 809.393 71.656 809.393 72.392V77H808.289ZM630.48 109.016V110H625.392V109.016H627.48V98.48C627.256 99.088 626.928 99.536 626.496 99.824C626.08 100.096 625.68 100.28 625.296 100.376C624.928 100.456 624.688 100.496 624.576 100.496V99.392C624.672 99.392 624.872 99.36 625.176 99.296C625.48 99.216 625.816 99.072 626.184 98.864C626.552 98.656 626.864 98.36 627.12 97.976C627.392 97.592 627.536 97.096 627.552 96.488H628.512V109.016H630.48ZM643.986 110.336C642.226 110.336 640.866 109.808 639.906 108.752C638.962 107.68 638.49 106.176 638.49 104.24V96.488H639.594V104.24C639.594 105.936 639.986 107.208 640.77 108.056C641.57 108.888 642.642 109.304 643.986 109.304C645.41 109.304 646.498 108.888 647.25 108.056C648.018 107.224 648.402 105.952 648.402 104.24V96.488H649.482V104.24C649.482 106.208 649.01 107.72 648.066 108.776C647.138 109.816 645.778 110.336 643.986 110.336ZM651.555 110L656.595 102.824L652.059 96.488H653.427L657.267 102.056L661.131 96.488H662.475L657.987 102.824L663.051 110H661.731L657.267 103.592L652.827 110H651.555ZM682.855 103.232C682.855 105.008 682.519 106.392 681.847 107.384C681.191 108.36 680.263 109.04 679.063 109.424C677.863 109.808 676.463 110 674.863 110H671.359V96.488H674.863C676.463 96.488 677.863 96.744 679.063 97.256C680.263 97.752 681.191 98.496 681.847 99.488C682.519 100.48 682.855 101.728 682.855 103.232ZM672.463 109.04H675.055C676.383 109.04 677.543 108.888 678.535 108.584C679.543 108.28 680.319 107.712 680.863 106.88C681.423 106.048 681.703 104.832 681.703 103.232C681.703 101.92 681.423 100.84 680.863 99.992C680.319 99.128 679.543 98.496 678.535 98.096C677.543 97.68 676.383 97.472 675.055 97.472H672.463V109.04ZM688.882 110.24C687.842 110.24 686.978 109.992 686.29 109.496C685.618 109 685.114 108.368 684.778 107.6C684.442 106.816 684.282 106.008 684.298 105.176C684.298 104.312 684.474 103.504 684.826 102.752C685.178 102 685.69 101.4 686.362 100.952C687.05 100.488 687.882 100.256 688.858 100.256C690.074 100.256 691.074 100.656 691.858 101.456C692.658 102.24 693.106 103.296 693.202 104.624C693.218 104.704 693.226 104.8 693.226 104.912C693.226 105.024 693.226 105.128 693.226 105.224H685.354C685.354 106.456 685.658 107.44 686.266 108.176C686.874 108.912 687.746 109.28 688.882 109.28C689.698 109.28 690.402 109.064 690.994 108.632C691.602 108.2 691.978 107.616 692.122 106.88H693.202C693.01 107.872 692.522 108.68 691.738 109.304C690.97 109.928 690.018 110.24 688.882 110.24ZM685.426 104.504H692.098C692.082 104.088 691.962 103.624 691.738 103.112C691.53 102.6 691.186 102.152 690.706 101.768C690.242 101.384 689.626 101.192 688.858 101.192C687.802 101.192 686.994 101.52 686.434 102.176C685.874 102.832 685.538 103.608 685.426 104.504ZM698.945 110.24C698.129 110.24 697.465 110.104 696.953 109.832C696.441 109.544 696.049 109.208 695.777 108.824C695.505 108.44 695.313 108.072 695.201 107.72C695.105 107.368 695.057 107.112 695.057 106.952H696.137C696.137 106.968 696.145 107.104 696.161 107.36C696.193 107.6 696.289 107.88 696.449 108.2C696.609 108.52 696.881 108.8 697.265 109.04C697.665 109.264 698.233 109.376 698.969 109.376C699.481 109.376 699.961 109.32 700.409 109.208C700.873 109.08 701.241 108.888 701.513 108.632C701.801 108.36 701.945 108.008 701.945 107.576C701.929 107.064 701.761 106.672 701.441 106.4C701.121 106.112 700.705 105.896 700.193 105.752C699.681 105.608 699.145 105.48 698.585 105.368C698.025 105.256 697.489 105.104 696.977 104.912C696.481 104.72 696.073 104.44 695.753 104.072C695.449 103.704 695.305 103.2 695.321 102.56C695.321 101.808 695.673 101.192 696.377 100.712C697.081 100.232 697.985 99.992 699.089 99.992C699.505 99.992 699.937 100.04 700.385 100.136C700.849 100.232 701.281 100.4 701.681 100.64C702.081 100.88 702.401 101.216 702.641 101.648C702.881 102.064 702.985 102.6 702.953 103.256H701.897C701.929 102.76 701.849 102.36 701.657 102.056C701.465 101.736 701.209 101.496 700.889 101.336C700.585 101.176 700.265 101.072 699.929 101.024C699.593 100.96 699.289 100.928 699.017 100.928C698.265 100.928 697.625 101.072 697.097 101.36C696.585 101.632 696.329 102.04 696.329 102.584C696.329 103.08 696.489 103.456 696.809 103.712C697.129 103.952 697.545 104.144 698.057 104.288C698.569 104.416 699.105 104.544 699.665 104.672C700.225 104.784 700.753 104.944 701.249 105.152C701.761 105.344 702.177 105.632 702.497 106.016C702.833 106.4 703.001 106.936 703.001 107.624C703.001 108.232 702.817 108.736 702.449 109.136C702.081 109.52 701.585 109.8 700.961 109.976C700.353 110.152 699.681 110.24 698.945 110.24ZM705.773 99.224C705.501 99.24 705.317 99.168 705.221 99.008C705.125 98.848 705.077 98.656 705.077 98.432C705.077 98.224 705.125 98.048 705.221 97.904C705.317 97.76 705.501 97.688 705.773 97.688C706.029 97.688 706.205 97.76 706.301 97.904C706.397 98.048 706.445 98.224 706.445 98.432C706.445 98.672 706.397 98.864 706.301 99.008C706.205 99.152 706.029 99.224 705.773 99.224ZM705.197 110V100.256H706.277V110H705.197ZM710.84 113.84V112.808H715.976V107.624H715.928C715.896 107.736 715.8 107.928 715.64 108.2C715.496 108.472 715.28 108.768 714.992 109.088C714.704 109.408 714.328 109.68 713.864 109.904C713.416 110.128 712.872 110.24 712.232 110.24C711.304 110.24 710.512 110.016 709.856 109.568C709.216 109.12 708.728 108.52 708.392 107.768C708.056 107.016 707.888 106.176 707.888 105.248C707.888 104.304 708.056 103.456 708.392 102.704C708.744 101.952 709.24 101.36 709.88 100.928C710.536 100.48 711.328 100.256 712.256 100.256C712.912 100.256 713.464 100.376 713.912 100.616C714.376 100.84 714.744 101.112 715.016 101.432C715.304 101.736 715.512 102.032 715.64 102.32C715.784 102.592 715.872 102.784 715.904 102.896H715.952L715.976 100.256H717.104V112.088C717.104 112.6 717.008 113.016 716.816 113.336C716.64 113.672 716.264 113.84 715.688 113.84H710.84ZM712.376 109.208C713.352 109.208 714.184 108.864 714.872 108.176C715.576 107.488 715.928 106.512 715.928 105.248C715.928 104.016 715.6 103.056 714.944 102.368C714.288 101.664 713.48 101.312 712.52 101.312C711.72 101.312 711.056 101.504 710.528 101.888C710 102.256 709.608 102.744 709.352 103.352C709.096 103.944 708.968 104.576 708.968 105.248C708.968 105.92 709.08 106.56 709.304 107.168C709.544 107.776 709.912 108.272 710.408 108.656C710.92 109.024 711.576 109.208 712.376 109.208ZM719.272 110V100.28H720.184L720.376 102.848H720.424C720.456 102.736 720.536 102.544 720.664 102.272C720.792 102 720.992 101.712 721.264 101.408C721.536 101.088 721.896 100.816 722.344 100.592C722.792 100.368 723.352 100.256 724.024 100.256C724.856 100.256 725.52 100.408 726.016 100.712C726.512 101 726.888 101.384 727.144 101.864C727.4 102.344 727.568 102.872 727.648 103.448C727.728 104.024 727.768 104.6 727.768 105.176V110H726.688V105.152C726.688 103.968 726.48 103.024 726.064 102.32C725.664 101.616 724.912 101.264 723.808 101.264C723.024 101.264 722.376 101.456 721.864 101.84C721.368 102.208 720.992 102.712 720.736 103.352C720.496 103.976 720.376 104.656 720.376 105.392V110H719.272ZM734.069 110.24C733.029 110.24 732.165 109.992 731.477 109.496C730.805 109 730.301 108.368 729.965 107.6C729.629 106.816 729.469 106.008 729.485 105.176C729.485 104.312 729.661 103.504 730.013 102.752C730.365 102 730.877 101.4 731.549 100.952C732.237 100.488 733.069 100.256 734.045 100.256C735.261 100.256 736.261 100.656 737.045 101.456C737.845 102.24 738.293 103.296 738.389 104.624C738.405 104.704 738.413 104.8 738.413 104.912C738.413 105.024 738.413 105.128 738.413 105.224H730.541C730.541 106.456 730.845 107.44 731.453 108.176C732.061 108.912 732.933 109.28 734.069 109.28C734.885 109.28 735.589 109.064 736.181 108.632C736.789 108.2 737.165 107.616 737.309 106.88H738.389C738.197 107.872 737.709 108.68 736.925 109.304C736.157 109.928 735.205 110.24 734.069 110.24ZM730.613 104.504H737.285C737.269 104.088 737.149 103.624 736.925 103.112C736.717 102.6 736.373 102.152 735.893 101.768C735.429 101.384 734.813 101.192 734.045 101.192C732.989 101.192 732.181 101.52 731.621 102.176C731.061 102.832 730.725 103.608 730.613 104.504ZM740.725 110V100.256H741.661L741.805 102.752C741.965 102.064 742.341 101.472 742.933 100.976C743.525 100.48 744.357 100.24 745.429 100.256H745.957V101.48H745.429C744.341 101.48 743.541 101.656 743.029 102.008C742.517 102.344 742.181 102.8 742.021 103.376C741.877 103.952 741.805 104.592 741.805 105.296V110H740.725ZM747.449 111.944V111.008H747.785C748.169 111.008 748.401 110.904 748.481 110.696C748.561 110.504 748.601 110.28 748.601 110.024C747.913 110.12 747.569 109.824 747.569 109.136C747.569 108.912 747.625 108.72 747.737 108.56C747.849 108.384 748.065 108.296 748.385 108.296C748.673 108.296 748.873 108.384 748.985 108.56C749.113 108.736 749.177 109.032 749.177 109.448C749.177 110.248 749.081 110.864 748.889 111.296C748.697 111.728 748.345 111.944 747.833 111.944H747.449ZM762.691 109.016V110H757.603V109.016H759.691V98.48C759.467 99.088 759.139 99.536 758.707 99.824C758.291 100.096 757.891 100.28 757.507 100.376C757.139 100.456 756.899 100.496 756.787 100.496V99.392C756.883 99.392 757.083 99.36 757.387 99.296C757.691 99.216 758.027 99.072 758.395 98.864C758.763 98.656 759.075 98.36 759.331 97.976C759.603 97.592 759.747 97.096 759.763 96.488H760.723V109.016H762.691ZM776.197 110.336C774.437 110.336 773.077 109.808 772.117 108.752C771.173 107.68 770.701 106.176 770.701 104.24V96.488H771.805V104.24C771.805 105.936 772.197 107.208 772.981 108.056C773.781 108.888 774.853 109.304 776.197 109.304C777.621 109.304 778.709 108.888 779.461 108.056C780.229 107.224 780.613 105.952 780.613 104.24V96.488H781.693V104.24C781.693 106.208 781.221 107.72 780.277 108.776C779.349 109.816 777.989 110.336 776.197 110.336ZM783.766 110L788.806 102.824L784.27 96.488H785.638L789.478 102.056L793.342 96.488H794.686L790.198 102.824L795.262 110H793.942L789.478 103.592L785.038 110H783.766ZM803.498 110V96.488H807.698C808.834 96.488 809.794 96.6 810.578 96.824C811.362 97.048 811.954 97.44 812.354 98C812.77 98.544 812.978 99.304 812.978 100.28C812.978 100.888 812.866 101.456 812.642 101.984C812.418 102.512 812.066 102.936 811.586 103.256C811.122 103.576 810.514 103.736 809.762 103.736C810.498 103.736 811.042 103.896 811.394 104.216C811.762 104.52 812.002 104.912 812.114 105.392C812.242 105.856 812.306 106.344 812.306 106.856C812.322 107.368 812.338 107.84 812.354 108.272C812.386 108.688 812.482 109 812.642 109.208C812.818 109.4 813.13 109.416 813.578 109.256V110.048C813.498 110.112 813.338 110.168 813.098 110.216C812.874 110.264 812.626 110.248 812.354 110.168C812.082 110.088 811.85 109.904 811.658 109.616C811.466 109.328 811.37 108.888 811.37 108.296C811.37 107.368 811.33 106.624 811.25 106.064C811.186 105.504 811.034 105.08 810.794 104.792C810.57 104.488 810.21 104.288 809.714 104.192C809.234 104.08 808.578 104.024 807.746 104.024C806.914 104.024 805.866 104.032 804.602 104.048V110H803.498ZM804.602 103.16H808.13C809.426 103.16 810.394 102.968 811.034 102.584C811.674 102.184 811.994 101.432 811.994 100.328C811.994 99.48 811.818 98.856 811.466 98.456C811.13 98.04 810.626 97.768 809.954 97.64C809.298 97.512 808.498 97.448 807.554 97.448H804.602V103.16ZM819.686 110.24C818.646 110.24 817.782 109.992 817.094 109.496C816.422 109 815.918 108.368 815.582 107.6C815.246 106.816 815.086 106.008 815.102 105.176C815.102 104.312 815.278 103.504 815.63 102.752C815.982 102 816.494 101.4 817.166 100.952C817.854 100.488 818.686 100.256 819.662 100.256C820.878 100.256 821.878 100.656 822.662 101.456C823.462 102.24 823.91 103.296 824.006 104.624C824.022 104.704 824.03 104.8 824.03 104.912C824.03 105.024 824.03 105.128 824.03 105.224H816.158C816.158 106.456 816.462 107.44 817.07 108.176C817.678 108.912 818.55 109.28 819.686 109.28C820.502 109.28 821.206 109.064 821.798 108.632C822.406 108.2 822.782 107.616 822.926 106.88H824.006C823.814 107.872 823.326 108.68 822.542 109.304C821.774 109.928 820.822 110.24 819.686 110.24ZM816.23 104.504H822.902C822.886 104.088 822.766 103.624 822.542 103.112C822.334 102.6 821.99 102.152 821.51 101.768C821.046 101.384 820.43 101.192 819.662 101.192C818.606 101.192 817.798 101.52 817.238 102.176C816.678 102.832 816.342 103.608 816.23 104.504ZM829.75 110.24C828.934 110.24 828.27 110.104 827.758 109.832C827.246 109.544 826.854 109.208 826.582 108.824C826.31 108.44 826.118 108.072 826.006 107.72C825.91 107.368 825.862 107.112 825.862 106.952H826.942C826.942 106.968 826.95 107.104 826.966 107.36C826.998 107.6 827.094 107.88 827.254 108.2C827.414 108.52 827.686 108.8 828.07 109.04C828.47 109.264 829.038 109.376 829.774 109.376C830.286 109.376 830.766 109.32 831.214 109.208C831.678 109.08 832.046 108.888 832.318 108.632C832.606 108.36 832.75 108.008 832.75 107.576C832.734 107.064 832.566 106.672 832.246 106.4C831.926 106.112 831.51 105.896 830.998 105.752C830.486 105.608 829.95 105.48 829.39 105.368C828.83 105.256 828.294 105.104 827.782 104.912C827.286 104.72 826.878 104.44 826.558 104.072C826.254 103.704 826.11 103.2 826.126 102.56C826.126 101.808 826.478 101.192 827.182 100.712C827.886 100.232 828.79 99.992 829.894 99.992C830.31 99.992 830.742 100.04 831.19 100.136C831.654 100.232 832.086 100.4 832.486 100.64C832.886 100.88 833.206 101.216 833.446 101.648C833.686 102.064 833.79 102.6 833.758 103.256H832.702C832.734 102.76 832.654 102.36 832.462 102.056C832.27 101.736 832.014 101.496 831.694 101.336C831.39 101.176 831.07 101.072 830.734 101.024C830.398 100.96 830.094 100.928 829.822 100.928C829.07 100.928 828.43 101.072 827.902 101.36C827.39 101.632 827.134 102.04 827.134 102.584C827.134 103.08 827.294 103.456 827.614 103.712C827.934 103.952 828.35 104.144 828.862 104.288C829.374 104.416 829.91 104.544 830.47 104.672C831.03 104.784 831.558 104.944 832.054 105.152C832.566 105.344 832.982 105.632 833.302 106.016C833.638 106.4 833.806 106.936 833.806 107.624C833.806 108.232 833.622 108.736 833.254 109.136C832.886 109.52 832.39 109.8 831.766 109.976C831.158 110.152 830.486 110.24 829.75 110.24ZM839.889 110.24C838.849 110.24 837.985 109.992 837.297 109.496C836.625 109 836.121 108.368 835.785 107.6C835.449 106.816 835.289 106.008 835.305 105.176C835.305 104.312 835.481 103.504 835.833 102.752C836.185 102 836.697 101.4 837.369 100.952C838.057 100.488 838.889 100.256 839.865 100.256C841.081 100.256 842.081 100.656 842.865 101.456C843.665 102.24 844.113 103.296 844.209 104.624C844.225 104.704 844.233 104.8 844.233 104.912C844.233 105.024 844.233 105.128 844.233 105.224H836.361C836.361 106.456 836.665 107.44 837.273 108.176C837.881 108.912 838.753 109.28 839.889 109.28C840.705 109.28 841.409 109.064 842.001 108.632C842.609 108.2 842.985 107.616 843.129 106.88H844.209C844.017 107.872 843.529 108.68 842.745 109.304C841.977 109.928 841.025 110.24 839.889 110.24ZM836.433 104.504H843.105C843.089 104.088 842.969 103.624 842.745 103.112C842.537 102.6 842.193 102.152 841.713 101.768C841.249 101.384 840.633 101.192 839.865 101.192C838.809 101.192 838.001 101.52 837.441 102.176C836.881 102.832 836.545 103.608 836.433 104.504ZM849.689 110.216C848.793 110.216 848.049 109.992 847.457 109.544C846.865 109.096 846.425 108.496 846.137 107.744C845.849 106.976 845.705 106.128 845.705 105.2C845.705 104.24 845.849 103.384 846.137 102.632C846.441 101.864 846.889 101.264 847.481 100.832C848.073 100.384 848.809 100.16 849.689 100.16C850.633 100.16 851.385 100.392 851.945 100.856C852.505 101.304 852.905 101.824 853.145 102.416H853.193V100.256H854.297V110H853.385L853.193 107.984H853.145C852.889 108.576 852.481 109.096 851.921 109.544C851.361 109.992 850.617 110.216 849.689 110.216ZM850.097 109.208C851.121 109.208 851.889 108.856 852.401 108.152C852.913 107.448 853.169 106.472 853.169 105.224C853.169 103.896 852.897 102.896 852.353 102.224C851.825 101.552 851.073 101.216 850.097 101.216C848.961 101.216 848.129 101.6 847.601 102.368C847.073 103.12 846.809 104.064 846.809 105.2C846.809 106.384 847.081 107.352 847.625 108.104C848.169 108.84 848.993 109.208 850.097 109.208ZM856.459 110V100.256H857.395L857.539 102.752C857.699 102.064 858.075 101.472 858.667 100.976C859.259 100.48 860.091 100.24 861.163 100.256H861.691V101.48H861.163C860.075 101.48 859.275 101.656 858.763 102.008C858.251 102.344 857.915 102.8 857.755 103.376C857.611 103.952 857.539 104.592 857.539 105.296V110H856.459ZM867.124 110.24C865.748 110.24 864.628 109.808 863.764 108.944C862.9 108.08 862.468 106.888 862.468 105.368C862.484 104.36 862.692 103.472 863.092 102.704C863.492 101.936 864.044 101.336 864.748 100.904C865.452 100.472 866.268 100.256 867.196 100.256C868.38 100.256 869.356 100.584 870.124 101.24C870.908 101.88 871.388 102.688 871.564 103.664H870.532C870.372 102.912 869.988 102.328 869.38 101.912C868.788 101.48 868.068 101.264 867.22 101.264C866.116 101.264 865.228 101.64 864.556 102.392C863.884 103.144 863.548 104.12 863.548 105.32C863.548 106.52 863.868 107.472 864.508 108.176C865.164 108.88 866.044 109.232 867.148 109.232C868.012 109.232 868.748 109.016 869.356 108.584C869.98 108.152 870.372 107.56 870.532 106.808H871.564C871.388 107.8 870.9 108.624 870.1 109.28C869.3 109.92 868.308 110.24 867.124 110.24ZM873.492 110V96.488H874.596V102.848H874.644C874.676 102.736 874.756 102.544 874.884 102.272C875.012 102 875.212 101.712 875.484 101.408C875.756 101.088 876.108 100.816 876.54 100.592C876.988 100.368 877.54 100.256 878.196 100.256C879.028 100.256 879.692 100.408 880.188 100.712C880.7 101 881.084 101.384 881.34 101.864C881.596 102.344 881.764 102.872 881.844 103.448C881.924 104.024 881.964 104.6 881.964 105.176V110H880.908V105.152C880.908 103.968 880.7 103.024 880.284 102.32C879.868 101.616 879.108 101.264 878.004 101.264C877.236 101.264 876.596 101.456 876.084 101.84C875.572 102.208 875.196 102.712 874.956 103.352C874.716 103.976 874.596 104.656 874.596 105.392V110H873.492ZM888.335 110.24C887.295 110.24 886.431 109.992 885.743 109.496C885.071 109 884.567 108.368 884.231 107.6C883.895 106.816 883.735 106.008 883.751 105.176C883.751 104.312 883.927 103.504 884.279 102.752C884.631 102 885.143 101.4 885.815 100.952C886.503 100.488 887.335 100.256 888.311 100.256C889.527 100.256 890.527 100.656 891.311 101.456C892.111 102.24 892.559 103.296 892.655 104.624C892.671 104.704 892.679 104.8 892.679 104.912C892.679 105.024 892.679 105.128 892.679 105.224H884.807C884.807 106.456 885.111 107.44 885.719 108.176C886.327 108.912 887.199 109.28 888.335 109.28C889.151 109.28 889.855 109.064 890.447 108.632C891.055 108.2 891.431 107.616 891.575 106.88H892.655C892.463 107.872 891.975 108.68 891.191 109.304C890.423 109.928 889.471 110.24 888.335 110.24ZM884.879 104.504H891.551C891.535 104.088 891.415 103.624 891.191 103.112C890.983 102.6 890.639 102.152 890.159 101.768C889.695 101.384 889.079 101.192 888.311 101.192C887.255 101.192 886.447 101.52 885.887 102.176C885.327 102.832 884.991 103.608 884.879 104.504ZM894.99 110V100.256H895.926L896.07 102.752C896.23 102.064 896.606 101.472 897.198 100.976C897.79 100.48 898.622 100.24 899.694 100.256H900.222V101.48H899.694C898.606 101.48 897.806 101.656 897.294 102.008C896.782 102.344 896.446 102.8 896.286 103.376C896.142 103.952 896.07 104.592 896.07 105.296V110H894.99Z" fill="black"/>
</svg>
