<svg width="326" height="107" viewBox="0 0 326 107" fill="none" xmlns="http://www.w3.org/2000/svg">
<path d="M1.276 23V10.614H4.444L7.92 22.186H7.964L11.374 10.614H14.542V23H12.672L12.782 11.472H12.738L9.262 23H6.556L3.102 11.472H3.058L3.146 23H1.276ZM15.7685 27.092V25.662H17.0665C17.3745 25.662 17.6312 25.5887 17.8365 25.442C18.0418 25.31 18.2912 24.9433 18.5845 24.342L19.3545 22.648L15.8345 14.002H17.7265L20.2565 20.756L22.9625 14.002H24.8765L20.2565 24.54C19.9338 25.288 19.6405 25.8453 19.3765 26.212C19.1125 26.5787 18.8192 26.8133 18.4965 26.916C18.1738 27.0333 17.7705 27.092 17.2865 27.092H15.7685ZM31.1326 23V14.002H32.8266L32.9806 16.444C33.0686 16.048 33.2372 15.6667 33.4866 15.3C33.7506 14.9187 34.1099 14.6107 34.5646 14.376C35.0339 14.1267 35.6279 14.002 36.3466 14.002H36.7206V16.026H36.3246C35.4299 16.026 34.7406 16.1433 34.2566 16.378C33.7726 16.598 33.4352 16.928 33.2446 17.368C33.0539 17.7933 32.9586 18.3213 32.9586 18.952V23H31.1326ZM42.076 23.22C40.58 23.22 39.4654 22.7873 38.732 21.922C37.9987 21.0567 37.632 19.9567 37.632 18.622C37.6174 17.2727 37.984 16.1653 38.732 15.3C39.48 14.4347 40.5947 13.9947 42.076 13.98C43.5134 13.98 44.606 14.4053 45.354 15.256C46.102 16.1067 46.476 17.2287 46.476 18.622C46.476 19.4873 46.3147 20.272 45.992 20.976C45.684 21.6653 45.2 22.2153 44.54 22.626C43.8947 23.022 43.0734 23.22 42.076 23.22ZM42.076 21.658C42.78 21.658 43.3154 21.504 43.682 21.196C44.0634 20.888 44.3274 20.4993 44.474 20.03C44.6207 19.546 44.694 19.0547 44.694 18.556C44.694 18.0573 44.6207 17.5733 44.474 17.104C44.3274 16.62 44.0634 16.224 43.682 15.916C43.3154 15.5933 42.78 15.432 42.076 15.432C41.3574 15.432 40.8074 15.5933 40.426 15.916C40.0447 16.224 39.7807 16.62 39.634 17.104C39.4874 17.5733 39.414 18.0573 39.414 18.556C39.414 19.0547 39.4874 19.546 39.634 20.03C39.7807 20.4993 40.0447 20.888 40.426 21.196C40.8074 21.504 41.3574 21.658 42.076 21.658ZM48.4086 23V10.614H50.2126V23H48.4086ZM56.2767 23.22C55.2647 23.22 54.436 23 53.7907 22.56C53.1454 22.1053 52.6687 21.526 52.3607 20.822C52.0527 20.118 51.8987 19.3773 51.8987 18.6C51.884 17.7347 52.0454 16.95 52.3827 16.246C52.7347 15.542 53.2334 14.9847 53.8787 14.574C54.5387 14.1633 55.3234 13.958 56.2327 13.958C57.01 13.958 57.7067 14.134 58.3227 14.486C58.9534 14.8233 59.452 15.3073 59.8187 15.938C60.1854 16.554 60.3834 17.2873 60.4127 18.138C60.4127 18.182 60.4127 18.27 60.4127 18.402C60.4274 18.5193 60.4347 18.622 60.4347 18.71H53.6367C53.6367 19.6487 53.864 20.382 54.3187 20.91C54.788 21.4233 55.4334 21.68 56.2547 21.68C56.8707 21.68 57.3914 21.526 57.8167 21.218C58.2567 20.8953 58.528 20.47 58.6307 19.942H60.4127C60.2807 20.8807 59.8554 21.6653 59.1367 22.296C58.418 22.912 57.4647 23.22 56.2767 23.22ZM53.7027 17.808H58.5867C58.572 17.6467 58.528 17.434 58.4547 17.17C58.3814 16.906 58.2567 16.6493 58.0807 16.4C57.9194 16.136 57.6847 15.916 57.3767 15.74C57.0687 15.564 56.6727 15.476 56.1887 15.476C55.5874 15.476 55.1107 15.608 54.7587 15.872C54.4214 16.1213 54.1647 16.4293 53.9887 16.796C53.8274 17.148 53.732 17.4853 53.7027 17.808Z" fill="#131313"/>
<path d="M5.04 54.252C3.72 54.252 2.7 53.856 1.98 53.064C1.272 52.26 0.918 51.132 0.918 49.68V43.866H1.746V49.68C1.746 50.952 2.04 51.906 2.628 52.542C3.228 53.166 4.032 53.478 5.04 53.478C6.108 53.478 6.924 53.166 7.488 52.542C8.064 51.918 8.352 50.964 8.352 49.68V43.866H9.162V49.68C9.162 51.156 8.808 52.29 8.1 53.082C7.404 53.862 6.384 54.252 5.04 54.252ZM10.7169 54L14.4969 48.618L11.0949 43.866H12.1209L15.0009 48.042L17.8989 43.866H18.9069L15.5409 48.618L19.3389 54H18.3489L15.0009 49.194L11.6709 54H10.7169ZM34.1917 48.924C34.1917 50.256 33.9397 51.294 33.4357 52.038C32.9437 52.77 32.2477 53.28 31.3477 53.568C30.4477 53.856 29.3977 54 28.1977 54H25.5697V43.866H28.1977C29.3977 43.866 30.4477 44.058 31.3477 44.442C32.2477 44.814 32.9437 45.372 33.4357 46.116C33.9397 46.86 34.1917 47.796 34.1917 48.924ZM26.3977 53.28H28.3417C29.3377 53.28 30.2077 53.166 30.9517 52.938C31.7077 52.71 32.2897 52.284 32.6977 51.66C33.1177 51.036 33.3277 50.124 33.3277 48.924C33.3277 47.94 33.1177 47.13 32.6977 46.494C32.2897 45.846 31.7077 45.372 30.9517 45.072C30.2077 44.76 29.3377 44.604 28.3417 44.604H26.3977V53.28ZM38.712 54.18C37.932 54.18 37.284 53.994 36.768 53.622C36.264 53.25 35.886 52.776 35.634 52.2C35.382 51.612 35.262 51.006 35.274 50.382C35.274 49.734 35.406 49.128 35.67 48.564C35.934 48 36.318 47.55 36.822 47.214C37.338 46.866 37.962 46.692 38.694 46.692C39.606 46.692 40.356 46.992 40.944 47.592C41.544 48.18 41.88 48.972 41.952 49.968C41.964 50.028 41.97 50.1 41.97 50.184C41.97 50.268 41.97 50.346 41.97 50.418H36.066C36.066 51.342 36.294 52.08 36.75 52.632C37.206 53.184 37.86 53.46 38.712 53.46C39.324 53.46 39.852 53.298 40.296 52.974C40.752 52.65 41.034 52.212 41.142 51.66H41.952C41.808 52.404 41.442 53.01 40.854 53.478C40.278 53.946 39.564 54.18 38.712 54.18ZM36.12 49.878H41.124C41.112 49.566 41.022 49.218 40.854 48.834C40.698 48.45 40.44 48.114 40.08 47.826C39.732 47.538 39.27 47.394 38.694 47.394C37.902 47.394 37.296 47.64 36.876 48.132C36.456 48.624 36.204 49.206 36.12 49.878ZM46.2596 54.18C45.6476 54.18 45.1496 54.078 44.7656 53.874C44.3816 53.658 44.0876 53.406 43.8836 53.118C43.6796 52.83 43.5356 52.554 43.4516 52.29C43.3796 52.026 43.3436 51.834 43.3436 51.714H44.1536C44.1536 51.726 44.1596 51.828 44.1716 52.02C44.1956 52.2 44.2676 52.41 44.3876 52.65C44.5076 52.89 44.7116 53.1 44.9996 53.28C45.2996 53.448 45.7256 53.532 46.2776 53.532C46.6616 53.532 47.0216 53.49 47.3576 53.406C47.7056 53.31 47.9816 53.166 48.1856 52.974C48.4016 52.77 48.5096 52.506 48.5096 52.182C48.4976 51.798 48.3716 51.504 48.1316 51.3C47.8916 51.084 47.5796 50.922 47.1956 50.814C46.8116 50.706 46.4096 50.61 45.9896 50.526C45.5696 50.442 45.1676 50.328 44.7836 50.184C44.4116 50.04 44.1056 49.83 43.8656 49.554C43.6376 49.278 43.5296 48.9 43.5416 48.42C43.5416 47.856 43.8056 47.394 44.3336 47.034C44.8616 46.674 45.5396 46.494 46.3676 46.494C46.6796 46.494 47.0036 46.53 47.3396 46.602C47.6876 46.674 48.0116 46.8 48.3116 46.98C48.6116 47.16 48.8516 47.412 49.0316 47.736C49.2116 48.048 49.2896 48.45 49.2656 48.942H48.4736C48.4976 48.57 48.4376 48.27 48.2936 48.042C48.1496 47.802 47.9576 47.622 47.7176 47.502C47.4896 47.382 47.2496 47.304 46.9976 47.268C46.7456 47.22 46.5176 47.196 46.3136 47.196C45.7496 47.196 45.2696 47.304 44.8736 47.52C44.4896 47.724 44.2976 48.03 44.2976 48.438C44.2976 48.81 44.4176 49.092 44.6576 49.284C44.8976 49.464 45.2096 49.608 45.5936 49.716C45.9776 49.812 46.3796 49.908 46.7996 50.004C47.2196 50.088 47.6156 50.208 47.9876 50.364C48.3716 50.508 48.6836 50.724 48.9236 51.012C49.1756 51.3 49.3016 51.702 49.3016 52.218C49.3016 52.674 49.1636 53.052 48.8876 53.352C48.6116 53.64 48.2396 53.85 47.7716 53.982C47.3156 54.114 46.8116 54.18 46.2596 54.18ZM51.3803 45.918C51.1763 45.93 51.0383 45.876 50.9663 45.756C50.8943 45.636 50.8583 45.492 50.8583 45.324C50.8583 45.168 50.8943 45.036 50.9663 44.928C51.0383 44.82 51.1763 44.766 51.3803 44.766C51.5723 44.766 51.7043 44.82 51.7763 44.928C51.8483 45.036 51.8843 45.168 51.8843 45.324C51.8843 45.504 51.8483 45.648 51.7763 45.756C51.7043 45.864 51.5723 45.918 51.3803 45.918ZM50.9483 54V46.692H51.7583V54H50.9483ZM55.1807 56.88V56.106H59.0327V52.218H58.9967C58.9727 52.302 58.9007 52.446 58.7807 52.65C58.6727 52.854 58.5107 53.076 58.2947 53.316C58.0787 53.556 57.7967 53.76 57.4487 53.928C57.1127 54.096 56.7047 54.18 56.2247 54.18C55.5287 54.18 54.9347 54.012 54.4427 53.676C53.9627 53.34 53.5967 52.89 53.3447 52.326C53.0927 51.762 52.9667 51.132 52.9667 50.436C52.9667 49.728 53.0927 49.092 53.3447 48.528C53.6087 47.964 53.9807 47.52 54.4607 47.196C54.9527 46.86 55.5467 46.692 56.2427 46.692C56.7347 46.692 57.1487 46.782 57.4847 46.962C57.8327 47.13 58.1087 47.334 58.3127 47.574C58.5287 47.802 58.6847 48.024 58.7807 48.24C58.8887 48.444 58.9547 48.588 58.9787 48.672H59.0147L59.0327 46.692H59.8787V55.566C59.8787 55.95 59.8067 56.262 59.6627 56.502C59.5307 56.754 59.2487 56.88 58.8167 56.88H55.1807ZM56.3327 53.406C57.0647 53.406 57.6887 53.148 58.2047 52.632C58.7327 52.116 58.9967 51.384 58.9967 50.436C58.9967 49.512 58.7507 48.792 58.2587 48.276C57.7667 47.748 57.1607 47.484 56.4407 47.484C55.8407 47.484 55.3427 47.628 54.9467 47.916C54.5507 48.192 54.2567 48.558 54.0647 49.014C53.8727 49.458 53.7767 49.932 53.7767 50.436C53.7767 50.94 53.8607 51.42 54.0287 51.876C54.2087 52.332 54.4847 52.704 54.8567 52.992C55.2407 53.268 55.7327 53.406 56.3327 53.406ZM61.5047 54V46.71H62.1887L62.3327 48.636H62.3687C62.3927 48.552 62.4527 48.408 62.5487 48.204C62.6447 48 62.7947 47.784 62.9987 47.556C63.2027 47.316 63.4727 47.112 63.8087 46.944C64.1447 46.776 64.5647 46.692 65.0687 46.692C65.6927 46.692 66.1907 46.806 66.5627 47.034C66.9347 47.25 67.2167 47.538 67.4087 47.898C67.6007 48.258 67.7267 48.654 67.7867 49.086C67.8467 49.518 67.8767 49.95 67.8767 50.382V54H67.0667V50.364C67.0667 49.476 66.9107 48.768 66.5987 48.24C66.2987 47.712 65.7347 47.448 64.9067 47.448C64.3187 47.448 63.8327 47.592 63.4487 47.88C63.0767 48.156 62.7947 48.534 62.6027 49.014C62.4227 49.482 62.3327 49.992 62.3327 50.544V54H61.5047ZM5.04 78.252C3.72 78.252 2.7 77.856 1.98 77.064C1.272 76.26 0.918 75.132 0.918 73.68V67.866H1.746V73.68C1.746 74.952 2.04 75.906 2.628 76.542C3.228 77.166 4.032 77.478 5.04 77.478C6.108 77.478 6.924 77.166 7.488 76.542C8.064 75.918 8.352 74.964 8.352 73.68V67.866H9.162V73.68C9.162 75.156 8.808 76.29 8.1 77.082C7.404 77.862 6.384 78.252 5.04 78.252ZM10.7169 78L14.4969 72.618L11.0949 67.866H12.1209L15.0009 72.042L17.8989 67.866H18.9069L15.5409 72.618L19.3389 78H18.3489L15.0009 73.194L11.6709 78H10.7169ZM31.3837 67.866H32.2477L35.2897 77.586L38.3497 67.866H39.2497L35.9737 78H34.6237L31.8157 69L28.8817 78H27.5137L24.3997 67.866H25.2817L28.2157 77.586L31.3837 67.866ZM40.5395 78V70.692H41.2415L41.3495 72.564C41.4695 72.048 41.7515 71.604 42.1955 71.232C42.6395 70.86 43.2635 70.68 44.0675 70.692H44.4635V71.61H44.0675C43.2515 71.61 42.6515 71.742 42.2675 72.006C41.8835 72.258 41.6315 72.6 41.5115 73.032C41.4035 73.464 41.3495 73.944 41.3495 74.472V78H40.5395ZM46.1948 69.918C45.9908 69.93 45.8528 69.876 45.7808 69.756C45.7088 69.636 45.6728 69.492 45.6728 69.324C45.6728 69.168 45.7088 69.036 45.7808 68.928C45.8528 68.82 45.9908 68.766 46.1948 68.766C46.3868 68.766 46.5188 68.82 46.5908 68.928C46.6628 69.036 46.6988 69.168 46.6988 69.324C46.6988 69.504 46.6628 69.648 46.5908 69.756C46.5188 69.864 46.3868 69.918 46.1948 69.918ZM45.7628 78V70.692H46.5728V78H45.7628ZM50.0977 78C49.7137 78 49.4677 77.892 49.3597 77.676C49.2517 77.46 49.1977 77.202 49.1977 76.902V71.358H47.9917V70.692C48.4237 70.692 48.7237 70.668 48.8917 70.62C49.0597 70.56 49.1617 70.398 49.1977 70.134C49.2337 69.87 49.2517 69.426 49.2517 68.802H49.9897V70.692H51.6997V71.358H49.9897V77.298H51.6997V78H50.0977ZM54.0346 69.918C53.8306 69.93 53.6926 69.876 53.6206 69.756C53.5486 69.636 53.5126 69.492 53.5126 69.324C53.5126 69.168 53.5486 69.036 53.6206 68.928C53.6926 68.82 53.8306 68.766 54.0346 68.766C54.2266 68.766 54.3586 68.82 54.4306 68.928C54.5026 69.036 54.5386 69.168 54.5386 69.324C54.5386 69.504 54.5026 69.648 54.4306 69.756C54.3586 69.864 54.2266 69.918 54.0346 69.918ZM53.6026 78V70.692H54.4126V78H53.6026ZM56.161 78V70.71H56.845L56.989 72.636H57.025C57.049 72.552 57.109 72.408 57.205 72.204C57.301 72 57.451 71.784 57.655 71.556C57.859 71.316 58.129 71.112 58.465 70.944C58.801 70.776 59.221 70.692 59.725 70.692C60.349 70.692 60.847 70.806 61.219 71.034C61.591 71.25 61.873 71.538 62.065 71.898C62.257 72.258 62.383 72.654 62.443 73.086C62.503 73.518 62.533 73.95 62.533 74.382V78H61.723V74.364C61.723 73.476 61.567 72.768 61.255 72.24C60.955 71.712 60.391 71.448 59.563 71.448C58.975 71.448 58.489 71.592 58.105 71.88C57.733 72.156 57.451 72.534 57.259 73.014C57.079 73.482 56.989 73.992 56.989 74.544V78H56.161ZM65.6748 80.88V80.106H69.5268V76.218H69.4908C69.4668 76.302 69.3948 76.446 69.2748 76.65C69.1668 76.854 69.0048 77.076 68.7888 77.316C68.5728 77.556 68.2908 77.76 67.9428 77.928C67.6068 78.096 67.1988 78.18 66.7188 78.18C66.0228 78.18 65.4288 78.012 64.9368 77.676C64.4568 77.34 64.0908 76.89 63.8388 76.326C63.5868 75.762 63.4608 75.132 63.4608 74.436C63.4608 73.728 63.5868 73.092 63.8388 72.528C64.1028 71.964 64.4748 71.52 64.9548 71.196C65.4468 70.86 66.0408 70.692 66.7368 70.692C67.2288 70.692 67.6428 70.782 67.9788 70.962C68.3268 71.13 68.6028 71.334 68.8068 71.574C69.0228 71.802 69.1788 72.024 69.2748 72.24C69.3828 72.444 69.4488 72.588 69.4728 72.672H69.5088L69.5268 70.692H70.3728V79.566C70.3728 79.95 70.3008 80.262 70.1568 80.502C70.0248 80.754 69.7428 80.88 69.3108 80.88H65.6748ZM66.8268 77.406C67.5588 77.406 68.1828 77.148 68.6988 76.632C69.2268 76.116 69.4908 75.384 69.4908 74.436C69.4908 73.512 69.2448 72.792 68.7528 72.276C68.2608 71.748 67.6548 71.484 66.9348 71.484C66.3348 71.484 65.8368 71.628 65.4408 71.916C65.0448 72.192 64.7508 72.558 64.5588 73.014C64.3668 73.458 64.2708 73.932 64.2708 74.436C64.2708 74.94 64.3548 75.42 64.5228 75.876C64.7028 76.332 64.9788 76.704 65.3508 76.992C65.7348 77.268 66.2268 77.406 66.8268 77.406Z" fill="black"/>
<path d="M115.22 12.55V10.614H124.79V12.55H121.116V23H118.872V12.55H115.22ZM128.697 23.22C127.671 23.22 126.82 23.022 126.145 22.626C125.471 22.23 124.965 21.6873 124.627 20.998C124.29 20.294 124.121 19.4947 124.121 18.6C124.107 17.2507 124.481 16.1433 125.243 15.278C126.021 14.398 127.172 13.958 128.697 13.958C130.179 13.958 131.301 14.3833 132.063 15.234C132.841 16.0847 133.229 17.2067 133.229 18.6C133.229 19.4653 133.068 20.25 132.745 20.954C132.423 21.658 131.924 22.2153 131.249 22.626C130.575 23.022 129.724 23.22 128.697 23.22ZM128.697 21.328C129.343 21.328 129.834 21.1887 130.171 20.91C130.523 20.6313 130.758 20.2793 130.875 19.854C130.993 19.414 131.051 18.974 131.051 18.534C131.051 18.0793 130.993 17.632 130.875 17.192C130.758 16.752 130.523 16.3927 130.171 16.114C129.834 15.8353 129.343 15.696 128.697 15.696C128.037 15.696 127.531 15.8427 127.179 16.136C126.842 16.4147 126.607 16.774 126.475 17.214C126.358 17.6393 126.299 18.0793 126.299 18.534C126.299 18.974 126.358 19.414 126.475 19.854C126.607 20.2793 126.842 20.6313 127.179 20.91C127.531 21.1887 128.037 21.328 128.697 21.328ZM139.074 23.22C138.048 23.22 137.197 23.022 136.522 22.626C135.848 22.23 135.342 21.6873 135.004 20.998C134.667 20.294 134.498 19.4947 134.498 18.6C134.484 17.2507 134.858 16.1433 135.62 15.278C136.398 14.398 137.549 13.958 139.074 13.958C140.556 13.958 141.678 14.3833 142.44 15.234C143.218 16.0847 143.606 17.2067 143.606 18.6C143.606 19.4653 143.445 20.25 143.122 20.954C142.8 21.658 142.301 22.2153 141.626 22.626C140.952 23.022 140.101 23.22 139.074 23.22ZM139.074 21.328C139.72 21.328 140.211 21.1887 140.548 20.91C140.9 20.6313 141.135 20.2793 141.252 19.854C141.37 19.414 141.428 18.974 141.428 18.534C141.428 18.0793 141.37 17.632 141.252 17.192C141.135 16.752 140.9 16.3927 140.548 16.114C140.211 15.8353 139.72 15.696 139.074 15.696C138.414 15.696 137.908 15.8427 137.556 16.136C137.219 16.4147 136.984 16.774 136.852 17.214C136.735 17.6393 136.676 18.0793 136.676 18.534C136.676 18.974 136.735 19.414 136.852 19.854C136.984 20.2793 137.219 20.6313 137.556 20.91C137.908 21.1887 138.414 21.328 139.074 21.328ZM145.425 23V10.614H147.625V23H145.425ZM153.308 23.22C152.926 23.22 152.501 23.154 152.032 23.022C151.577 22.89 151.137 22.692 150.712 22.428C150.301 22.164 149.956 21.8267 149.678 21.416C149.414 20.9907 149.282 20.492 149.282 19.92H151.35C151.35 19.9493 151.357 20.052 151.372 20.228C151.386 20.3893 151.445 20.58 151.548 20.8C151.665 21.0053 151.856 21.1887 152.12 21.35C152.384 21.5113 152.765 21.592 153.264 21.592C153.85 21.592 154.29 21.4893 154.584 21.284C154.877 21.064 155.024 20.8147 155.024 20.536C155.024 20.2133 154.884 19.964 154.606 19.788C154.342 19.5973 153.997 19.4433 153.572 19.326C153.146 19.2087 152.692 19.0913 152.208 18.974C151.738 18.842 151.291 18.6733 150.866 18.468C150.455 18.2627 150.118 17.984 149.854 17.632C149.59 17.2653 149.458 16.796 149.458 16.224C149.458 15.388 149.795 14.7573 150.47 14.332C151.144 13.892 152.002 13.672 153.044 13.672C153.777 13.672 154.459 13.7893 155.09 14.024C155.72 14.244 156.226 14.6033 156.608 15.102C156.989 15.586 157.18 16.224 157.18 17.016H155.112C155.126 16.5613 155.024 16.224 154.804 16.004C154.598 15.7693 154.334 15.608 154.012 15.52C153.704 15.432 153.403 15.388 153.11 15.388C152.582 15.388 152.178 15.4833 151.9 15.674C151.636 15.85 151.504 16.0847 151.504 16.378C151.504 16.7153 151.636 16.9793 151.9 17.17C152.178 17.346 152.53 17.4927 152.956 17.61C153.396 17.7273 153.85 17.852 154.32 17.984C154.804 18.1013 155.258 18.2627 155.684 18.468C156.124 18.6733 156.476 18.952 156.74 19.304C157.018 19.6413 157.158 20.096 157.158 20.668C157.158 21.5333 156.798 22.1787 156.08 22.604C155.376 23.0147 154.452 23.22 153.308 23.22Z" fill="#131313"/>
<path d="M117.124 54H116.314V43.866H123.208V44.604H117.124V48.222H121.984V48.942H117.124V54ZM124.843 45.918C124.639 45.93 124.501 45.876 124.429 45.756C124.357 45.636 124.321 45.492 124.321 45.324C124.321 45.168 124.357 45.036 124.429 44.928C124.501 44.82 124.639 44.766 124.843 44.766C125.035 44.766 125.167 44.82 125.239 44.928C125.311 45.036 125.347 45.168 125.347 45.324C125.347 45.504 125.311 45.648 125.239 45.756C125.167 45.864 125.035 45.918 124.843 45.918ZM124.411 54V46.692H125.221V54H124.411ZM128.644 56.88V56.106H132.496V52.218H132.46C132.436 52.302 132.364 52.446 132.244 52.65C132.136 52.854 131.974 53.076 131.758 53.316C131.542 53.556 131.26 53.76 130.912 53.928C130.576 54.096 130.168 54.18 129.688 54.18C128.992 54.18 128.398 54.012 127.906 53.676C127.426 53.34 127.06 52.89 126.808 52.326C126.556 51.762 126.43 51.132 126.43 50.436C126.43 49.728 126.556 49.092 126.808 48.528C127.072 47.964 127.444 47.52 127.924 47.196C128.416 46.86 129.01 46.692 129.706 46.692C130.198 46.692 130.612 46.782 130.948 46.962C131.296 47.13 131.572 47.334 131.776 47.574C131.992 47.802 132.148 48.024 132.244 48.24C132.352 48.444 132.418 48.588 132.442 48.672H132.478L132.496 46.692H133.342V55.566C133.342 55.95 133.27 56.262 133.126 56.502C132.994 56.754 132.712 56.88 132.28 56.88H128.644ZM129.796 53.406C130.528 53.406 131.152 53.148 131.668 52.632C132.196 52.116 132.46 51.384 132.46 50.436C132.46 49.512 132.214 48.792 131.722 48.276C131.23 47.748 130.624 47.484 129.904 47.484C129.304 47.484 128.806 47.628 128.41 47.916C128.014 48.192 127.72 48.558 127.528 49.014C127.336 49.458 127.24 49.932 127.24 50.436C127.24 50.94 127.324 51.42 127.492 51.876C127.672 52.332 127.948 52.704 128.32 52.992C128.704 53.268 129.196 53.406 129.796 53.406ZM134.968 54V46.692H135.652L135.724 48.636H135.76C135.796 48.528 135.856 48.372 135.94 48.168C136.036 47.952 136.174 47.736 136.354 47.52C136.534 47.292 136.774 47.1 137.074 46.944C137.374 46.776 137.746 46.692 138.19 46.692C138.67 46.692 139.054 46.788 139.342 46.98C139.642 47.16 139.876 47.4 140.044 47.7C140.212 48 140.332 48.312 140.404 48.636H140.44C140.476 48.528 140.542 48.372 140.638 48.168C140.746 47.952 140.896 47.736 141.088 47.52C141.292 47.292 141.55 47.1 141.862 46.944C142.174 46.776 142.552 46.692 142.996 46.692C143.476 46.692 143.866 46.788 144.166 46.98C144.466 47.172 144.7 47.418 144.868 47.718C145.036 48.006 145.156 48.318 145.228 48.654C145.3 48.99 145.342 49.314 145.354 49.626C145.366 49.926 145.372 50.178 145.372 50.382V54H144.634V50.364C144.634 50.16 144.622 49.902 144.598 49.59C144.586 49.266 144.52 48.942 144.4 48.618C144.292 48.282 144.112 48.006 143.86 47.79C143.608 47.562 143.248 47.448 142.78 47.448C142.264 47.448 141.844 47.592 141.52 47.88C141.196 48.168 140.95 48.546 140.782 49.014C140.626 49.482 140.548 49.992 140.548 50.544V54H139.81V50.364C139.81 50.16 139.798 49.902 139.774 49.59C139.762 49.266 139.696 48.942 139.576 48.618C139.468 48.282 139.288 48.006 139.036 47.79C138.784 47.562 138.424 47.448 137.956 47.448C137.44 47.448 137.02 47.592 136.696 47.88C136.372 48.168 136.126 48.546 135.958 49.014C135.802 49.482 135.724 49.992 135.724 50.544V54H134.968ZM149.46 54.162C148.788 54.162 148.23 53.994 147.786 53.658C147.342 53.322 147.012 52.872 146.796 52.308C146.58 51.732 146.472 51.096 146.472 50.4C146.472 49.68 146.58 49.038 146.796 48.474C147.024 47.898 147.36 47.448 147.804 47.124C148.248 46.788 148.8 46.62 149.46 46.62C150.168 46.62 150.732 46.794 151.152 47.142C151.572 47.478 151.872 47.868 152.052 48.312H152.088V46.692H152.916V54H152.232L152.088 52.488H152.052C151.86 52.932 151.554 53.322 151.134 53.658C150.714 53.994 150.156 54.162 149.46 54.162ZM149.766 53.406C150.534 53.406 151.11 53.142 151.494 52.614C151.878 52.086 152.07 51.354 152.07 50.418C152.07 49.422 151.866 48.672 151.458 48.168C151.062 47.664 150.498 47.412 149.766 47.412C148.914 47.412 148.29 47.7 147.894 48.276C147.498 48.84 147.3 49.548 147.3 50.4C147.3 51.288 147.504 52.014 147.912 52.578C148.32 53.13 148.938 53.406 149.766 53.406Z" fill="black"/>
<path d="M116.53 72.024C116.29 72.024 116.128 71.964 116.044 71.844C115.972 71.724 115.936 71.568 115.936 71.376C115.936 71.208 115.972 71.058 116.044 70.926C116.128 70.782 116.29 70.71 116.53 70.71C116.746 70.71 116.896 70.782 116.98 70.926C117.064 71.058 117.106 71.208 117.106 71.376C117.106 71.568 117.064 71.724 116.98 71.844C116.896 71.964 116.746 72.024 116.53 72.024ZM115.828 79.458V78.756H116.08C116.368 78.756 116.542 78.678 116.602 78.522C116.662 78.378 116.692 78.21 116.692 78.018C116.176 78.09 115.918 77.868 115.918 77.352C115.918 77.184 115.96 77.04 116.044 76.92C116.128 76.788 116.29 76.722 116.53 76.722C116.758 76.722 116.914 76.788 116.998 76.92C117.082 77.052 117.124 77.274 117.124 77.586C117.124 78.186 117.052 78.648 116.908 78.972C116.776 79.296 116.518 79.458 116.134 79.458H115.828ZM118.996 78V67.866H120.418L124.144 77.604H124.18L127.87 67.866H129.292V78H128.464L128.5 68.334H128.464L124.756 78H123.514L119.824 68.334H119.788L119.824 78H118.996ZM131.822 69.918C131.618 69.93 131.48 69.876 131.408 69.756C131.336 69.636 131.3 69.492 131.3 69.324C131.3 69.168 131.336 69.036 131.408 68.928C131.48 68.82 131.618 68.766 131.822 68.766C132.014 68.766 132.146 68.82 132.218 68.928C132.29 69.036 132.326 69.168 132.326 69.324C132.326 69.504 132.29 69.648 132.218 69.756C132.146 69.864 132.014 69.918 131.822 69.918ZM131.39 78V70.692H132.2V78H131.39ZM134.182 78V70.692H134.884L134.992 72.564C135.112 72.048 135.394 71.604 135.838 71.232C136.282 70.86 136.906 70.68 137.71 70.692H138.106V71.61H137.71C136.894 71.61 136.294 71.742 135.91 72.006C135.526 72.258 135.274 72.6 135.154 73.032C135.046 73.464 134.992 73.944 134.992 74.472V78H134.182ZM142.145 78.18C141.005 78.18 140.147 77.832 139.571 77.136C139.007 76.428 138.725 75.534 138.725 74.454C138.725 73.35 139.013 72.45 139.589 71.754C140.165 71.046 141.017 70.692 142.145 70.692C143.249 70.692 144.089 71.04 144.665 71.736C145.253 72.42 145.547 73.326 145.547 74.454C145.547 75.162 145.421 75.798 145.169 76.362C144.929 76.914 144.557 77.358 144.053 77.694C143.561 78.018 142.925 78.18 142.145 78.18ZM142.145 77.442C142.817 77.442 143.339 77.292 143.711 76.992C144.083 76.692 144.341 76.314 144.485 75.858C144.641 75.39 144.719 74.916 144.719 74.436C144.719 73.944 144.641 73.47 144.485 73.014C144.341 72.546 144.083 72.162 143.711 71.862C143.339 71.55 142.817 71.394 142.145 71.394C141.473 71.394 140.951 71.55 140.579 71.862C140.207 72.162 139.943 72.546 139.787 73.014C139.631 73.47 139.553 73.944 139.553 74.436C139.553 74.916 139.631 75.39 139.787 75.858C139.943 76.314 140.207 76.692 140.579 76.992C140.951 77.292 141.473 77.442 142.145 77.442Z" fill="black"/>
<path d="M183.22 12.198V10.614H192.68V12.198H188.874V23H187.048V12.198H183.22ZM194.63 13.012C194.234 13.0267 193.97 12.9313 193.838 12.726C193.706 12.5207 193.64 12.264 193.64 11.956C193.64 11.692 193.706 11.4573 193.838 11.252C193.97 11.0467 194.234 10.944 194.63 10.944C195.011 10.944 195.268 11.0467 195.4 11.252C195.547 11.4573 195.62 11.692 195.62 11.956C195.62 12.264 195.547 12.5207 195.4 12.726C195.268 12.9167 195.011 13.012 194.63 13.012ZM193.706 23V14.002H195.532V23H193.706ZM197.565 23V14.002H199.149L199.193 16.092H199.237C199.266 16.0187 199.325 15.872 199.413 15.652C199.515 15.432 199.669 15.1973 199.875 14.948C200.095 14.684 200.381 14.464 200.733 14.288C201.085 14.0973 201.517 14.002 202.031 14.002C202.808 14.002 203.38 14.2147 203.747 14.64C204.128 15.0507 204.399 15.5347 204.561 16.092H204.605C204.619 16.0187 204.685 15.872 204.803 15.652C204.92 15.432 205.089 15.1973 205.309 14.948C205.543 14.684 205.844 14.464 206.211 14.288C206.577 14.0973 207.025 14.002 207.553 14.002C208.125 14.002 208.587 14.1193 208.939 14.354C209.305 14.5887 209.584 14.8967 209.775 15.278C209.98 15.6447 210.119 16.0407 210.193 16.466C210.281 16.8767 210.332 17.2727 210.347 17.654C210.361 18.0353 210.369 18.3507 210.369 18.6V23H208.807V18.578C208.807 18.358 208.792 18.0867 208.763 17.764C208.748 17.4267 208.682 17.0967 208.565 16.774C208.462 16.4367 208.279 16.1653 208.015 15.96C207.765 15.74 207.406 15.63 206.937 15.63C206.379 15.63 205.947 15.7767 205.639 16.07C205.331 16.3633 205.111 16.752 204.979 17.236C204.847 17.7053 204.781 18.1967 204.781 18.71V23H203.219V18.578C203.219 18.358 203.204 18.0867 203.175 17.764C203.16 17.4267 203.094 17.0967 202.977 16.774C202.874 16.4367 202.691 16.1653 202.427 15.96C202.177 15.74 201.818 15.63 201.349 15.63C200.791 15.63 200.359 15.7767 200.051 16.07C199.743 16.3633 199.523 16.752 199.391 17.236C199.259 17.7053 199.193 18.1967 199.193 18.71V23H197.565ZM216.224 23.22C215.212 23.22 214.383 23 213.738 22.56C213.093 22.1053 212.616 21.526 212.308 20.822C212 20.118 211.846 19.3773 211.846 18.6C211.831 17.7347 211.993 16.95 212.33 16.246C212.682 15.542 213.181 14.9847 213.826 14.574C214.486 14.1633 215.271 13.958 216.18 13.958C216.957 13.958 217.654 14.134 218.27 14.486C218.901 14.8233 219.399 15.3073 219.766 15.938C220.133 16.554 220.331 17.2873 220.36 18.138C220.36 18.182 220.36 18.27 220.36 18.402C220.375 18.5193 220.382 18.622 220.382 18.71H213.584C213.584 19.6487 213.811 20.382 214.266 20.91C214.735 21.4233 215.381 21.68 216.202 21.68C216.818 21.68 217.339 21.526 217.764 21.218C218.204 20.8953 218.475 20.47 218.578 19.942H220.36C220.228 20.8807 219.803 21.6653 219.084 22.296C218.365 22.912 217.412 23.22 216.224 23.22ZM213.65 17.808H218.534C218.519 17.6467 218.475 17.434 218.402 17.17C218.329 16.906 218.204 16.6493 218.028 16.4C217.867 16.136 217.632 15.916 217.324 15.74C217.016 15.564 216.62 15.476 216.136 15.476C215.535 15.476 215.058 15.608 214.706 15.872C214.369 16.1213 214.112 16.4293 213.936 16.796C213.775 17.148 213.679 17.4853 213.65 17.808ZM222.407 23V10.614H224.211V23H222.407ZM227.437 13.012C227.041 13.0267 226.777 12.9313 226.645 12.726C226.513 12.5207 226.447 12.264 226.447 11.956C226.447 11.692 226.513 11.4573 226.645 11.252C226.777 11.0467 227.041 10.944 227.437 10.944C227.818 10.944 228.075 11.0467 228.207 11.252C228.353 11.4573 228.427 11.692 228.427 11.956C228.427 12.264 228.353 12.5207 228.207 12.726C228.075 12.9167 227.818 13.012 227.437 13.012ZM226.513 23V14.002H228.339V23H226.513ZM230.371 23V14.024H231.933L232.241 16.092H232.285C232.3 16.0333 232.358 15.894 232.461 15.674C232.564 15.454 232.732 15.2193 232.967 14.97C233.202 14.706 233.517 14.4787 233.913 14.288C234.309 14.0973 234.808 14.002 235.409 14.002C236.201 14.002 236.817 14.156 237.257 14.464C237.697 14.7573 238.02 15.146 238.225 15.63C238.43 16.0993 238.555 16.598 238.599 17.126C238.658 17.654 238.687 18.1453 238.687 18.6V23H236.905V18.578C236.905 18.0207 236.846 17.522 236.729 17.082C236.612 16.6273 236.392 16.2753 236.069 16.026C235.761 15.762 235.306 15.63 234.705 15.63C234.089 15.63 233.598 15.7767 233.231 16.07C232.864 16.3633 232.608 16.7447 232.461 17.214C232.314 17.6833 232.241 18.182 232.241 18.71V23H230.371ZM244.54 23.22C243.528 23.22 242.7 23 242.054 22.56C241.409 22.1053 240.932 21.526 240.624 20.822C240.316 20.118 240.162 19.3773 240.162 18.6C240.148 17.7347 240.309 16.95 240.646 16.246C240.998 15.542 241.497 14.9847 242.142 14.574C242.802 14.1633 243.587 13.958 244.496 13.958C245.274 13.958 245.97 14.134 246.586 14.486C247.217 14.8233 247.716 15.3073 248.082 15.938C248.449 16.554 248.647 17.2873 248.676 18.138C248.676 18.182 248.676 18.27 248.676 18.402C248.691 18.5193 248.698 18.622 248.698 18.71H241.9C241.9 19.6487 242.128 20.382 242.582 20.91C243.052 21.4233 243.697 21.68 244.518 21.68C245.134 21.68 245.655 21.526 246.08 21.218C246.52 20.8953 246.792 20.47 246.894 19.942H248.676C248.544 20.8807 248.119 21.6653 247.4 22.296C246.682 22.912 245.728 23.22 244.54 23.22ZM241.966 17.808H246.85C246.836 17.6467 246.792 17.434 246.718 17.17C246.645 16.906 246.52 16.6493 246.344 16.4C246.183 16.136 245.948 15.916 245.64 15.74C245.332 15.564 244.936 15.476 244.452 15.476C243.851 15.476 243.374 15.608 243.022 15.872C242.685 16.1213 242.428 16.4293 242.252 16.796C242.091 17.148 241.996 17.4853 241.966 17.808ZM267.675 23.044C267.132 22.824 266.619 22.5893 266.135 22.34C265.666 22.076 265.167 21.768 264.639 21.416C264.038 22.0027 263.348 22.4427 262.571 22.736C261.794 23.0293 261.002 23.1833 260.195 23.198C259.403 23.2127 258.67 23.088 257.995 22.824C257.32 22.5453 256.77 22.1347 256.345 21.592C255.934 21.0347 255.729 20.3453 255.729 19.524C255.729 18.952 255.839 18.468 256.059 18.072C256.279 17.676 256.55 17.3533 256.873 17.104C257.196 16.84 257.518 16.6273 257.841 16.466C258.164 16.29 258.42 16.1507 258.611 16.048C258.494 15.8867 258.325 15.6667 258.105 15.388C257.9 15.1093 257.709 14.7867 257.533 14.42C257.372 14.0387 257.291 13.6133 257.291 13.144C257.291 12.5573 257.445 12.066 257.753 11.67C258.061 11.2593 258.464 10.9513 258.963 10.746C259.462 10.5407 259.99 10.438 260.547 10.438C261.104 10.4233 261.632 10.5113 262.131 10.702C262.63 10.8927 263.033 11.186 263.341 11.582C263.664 11.9633 263.825 12.4473 263.825 13.034C263.825 13.5327 263.693 13.98 263.429 14.376C263.18 14.7573 262.872 15.0873 262.505 15.366C262.153 15.6447 261.823 15.8647 261.515 16.026C261.222 16.1873 261.031 16.29 260.943 16.334C261.104 16.5393 261.339 16.8107 261.647 17.148C261.97 17.4707 262.336 17.8153 262.747 18.182C263.172 18.534 263.605 18.8713 264.045 19.194C264.206 18.9447 264.36 18.6147 264.507 18.204C264.654 17.7933 264.72 17.3753 264.705 16.95C264.705 16.5247 264.558 16.158 264.265 15.85L265.805 14.816C265.922 14.992 266.047 15.2707 266.179 15.652C266.326 16.0333 266.421 16.4807 266.465 16.994C266.524 17.5073 266.494 18.0427 266.377 18.6C266.26 19.1573 266.018 19.6927 265.651 20.206C266.076 20.4993 266.487 20.7633 266.883 20.998C267.294 21.218 267.785 21.438 268.357 21.658L267.675 23.044ZM259.931 15.476C260.034 15.432 260.21 15.344 260.459 15.212C260.708 15.08 260.965 14.9187 261.229 14.728C261.493 14.5373 261.72 14.3247 261.911 14.09C262.116 13.8407 262.226 13.5767 262.241 13.298C262.27 12.9167 262.175 12.616 261.955 12.396C261.735 12.1613 261.456 12.0073 261.119 11.934C260.796 11.846 260.466 11.846 260.129 11.934C259.792 12.0073 259.506 12.1613 259.271 12.396C259.051 12.616 258.941 12.924 258.941 13.32C258.956 13.9507 259.286 14.6693 259.931 15.476ZM263.209 20.382C262.549 19.8833 261.896 19.326 261.251 18.71C260.606 18.094 260.056 17.5 259.601 16.928C259.058 17.192 258.582 17.5 258.171 17.852C257.76 18.204 257.555 18.688 257.555 19.304C257.555 19.9493 257.753 20.4627 258.149 20.844C258.56 21.2107 259.073 21.4453 259.689 21.548C260.305 21.6507 260.928 21.6067 261.559 21.416C262.204 21.2253 262.754 20.8807 263.209 20.382ZM273.949 12.198V10.614H283.409V12.198H279.603V23H277.777V12.198H273.949ZM287.101 23.22C286.089 23.22 285.26 23 284.615 22.56C283.97 22.1053 283.493 21.526 283.185 20.822C282.877 20.118 282.723 19.3773 282.723 18.6C282.708 17.7347 282.87 16.95 283.207 16.246C283.559 15.542 284.058 14.9847 284.703 14.574C285.363 14.1633 286.148 13.958 287.057 13.958C287.834 13.958 288.531 14.134 289.147 14.486C289.778 14.8233 290.276 15.3073 290.643 15.938C291.01 16.554 291.208 17.2873 291.237 18.138C291.237 18.182 291.237 18.27 291.237 18.402C291.252 18.5193 291.259 18.622 291.259 18.71H284.461C284.461 19.6487 284.688 20.382 285.143 20.91C285.612 21.4233 286.258 21.68 287.079 21.68C287.695 21.68 288.216 21.526 288.641 21.218C289.081 20.8953 289.352 20.47 289.455 19.942H291.237C291.105 20.8807 290.68 21.6653 289.961 22.296C289.242 22.912 288.289 23.22 287.101 23.22ZM284.527 17.808H289.411C289.396 17.6467 289.352 17.434 289.279 17.17C289.206 16.906 289.081 16.6493 288.905 16.4C288.744 16.136 288.509 15.916 288.201 15.74C287.893 15.564 287.497 15.476 287.013 15.476C286.412 15.476 285.935 15.608 285.583 15.872C285.246 16.1213 284.989 16.4293 284.813 16.796C284.652 17.148 284.556 17.4853 284.527 17.808ZM296.144 23.198C295.308 23.198 294.633 23.0073 294.12 22.626C293.606 22.23 293.225 21.6873 292.976 20.998C292.741 20.294 292.624 19.4947 292.624 18.6C292.624 17.236 292.902 16.1213 293.46 15.256C294.017 14.376 294.912 13.936 296.144 13.936C296.804 13.936 297.339 14.0533 297.75 14.288C298.16 14.5227 298.476 14.7867 298.696 15.08C298.93 15.3733 299.092 15.63 299.18 15.85H299.224V14.002H301.094V23H299.532L299.224 21.394H299.18C299.092 21.614 298.93 21.8707 298.696 22.164C298.461 22.4427 298.138 22.6847 297.728 22.89C297.317 23.0953 296.789 23.198 296.144 23.198ZM296.87 21.636C297.735 21.636 298.336 21.3573 298.674 20.8C299.026 20.2427 299.202 19.5167 299.202 18.622C299.202 17.6833 299.018 16.9427 298.652 16.4C298.3 15.8573 297.706 15.586 296.87 15.586C296.254 15.586 295.77 15.7253 295.418 16.004C295.066 16.268 294.809 16.6273 294.648 17.082C294.501 17.5367 294.428 18.0427 294.428 18.6C294.428 19.4653 294.611 20.1913 294.978 20.778C295.344 21.35 295.975 21.636 296.87 21.636ZM302.709 23V14.002H304.293L304.337 16.092H304.381C304.41 16.0187 304.469 15.872 304.557 15.652C304.66 15.432 304.814 15.1973 305.019 14.948C305.239 14.684 305.525 14.464 305.877 14.288C306.229 14.0973 306.662 14.002 307.175 14.002C307.952 14.002 308.524 14.2147 308.891 14.64C309.272 15.0507 309.544 15.5347 309.705 16.092H309.749C309.764 16.0187 309.83 15.872 309.947 15.652C310.064 15.432 310.233 15.1973 310.453 14.948C310.688 14.684 310.988 14.464 311.355 14.288C311.722 14.0973 312.169 14.002 312.697 14.002C313.269 14.002 313.731 14.1193 314.083 14.354C314.45 14.5887 314.728 14.8967 314.919 15.278C315.124 15.6447 315.264 16.0407 315.337 16.466C315.425 16.8767 315.476 17.2727 315.491 17.654C315.506 18.0353 315.513 18.3507 315.513 18.6V23H313.951V18.578C313.951 18.358 313.936 18.0867 313.907 17.764C313.892 17.4267 313.826 17.0967 313.709 16.774C313.606 16.4367 313.423 16.1653 313.159 15.96C312.91 15.74 312.55 15.63 312.081 15.63C311.524 15.63 311.091 15.7767 310.783 16.07C310.475 16.3633 310.255 16.752 310.123 17.236C309.991 17.7053 309.925 18.1967 309.925 18.71V23H308.363V18.578C308.363 18.358 308.348 18.0867 308.319 17.764C308.304 17.4267 308.238 17.0967 308.121 16.774C308.018 16.4367 307.835 16.1653 307.571 15.96C307.322 15.74 306.962 15.63 306.493 15.63C305.936 15.63 305.503 15.7767 305.195 16.07C304.887 16.3633 304.667 16.752 304.535 17.236C304.403 17.7053 304.337 18.1967 304.337 18.71V23H302.709Z" fill="#131313"/>
<path d="M187.86 53.262V54H184.044V53.262H185.61V45.36C185.442 45.816 185.196 46.152 184.872 46.368C184.56 46.572 184.26 46.71 183.972 46.782C183.696 46.842 183.516 46.872 183.432 46.872V46.044C183.504 46.044 183.654 46.02 183.882 45.972C184.11 45.912 184.362 45.804 184.638 45.648C184.914 45.492 185.148 45.27 185.34 44.982C185.544 44.694 185.652 44.322 185.664 43.866H186.384V53.262H187.86ZM193.651 54V46.692H194.335L194.407 48.636H194.443C194.479 48.528 194.539 48.372 194.623 48.168C194.719 47.952 194.857 47.736 195.037 47.52C195.217 47.292 195.457 47.1 195.757 46.944C196.057 46.776 196.429 46.692 196.873 46.692C197.353 46.692 197.737 46.788 198.025 46.98C198.325 47.16 198.559 47.4 198.727 47.7C198.895 48 199.015 48.312 199.087 48.636H199.123C199.159 48.528 199.225 48.372 199.321 48.168C199.429 47.952 199.579 47.736 199.771 47.52C199.975 47.292 200.233 47.1 200.545 46.944C200.857 46.776 201.235 46.692 201.679 46.692C202.159 46.692 202.549 46.788 202.849 46.98C203.149 47.172 203.383 47.418 203.551 47.718C203.719 48.006 203.839 48.318 203.911 48.654C203.983 48.99 204.025 49.314 204.037 49.626C204.049 49.926 204.055 50.178 204.055 50.382V54H203.317V50.364C203.317 50.16 203.305 49.902 203.281 49.59C203.269 49.266 203.203 48.942 203.083 48.618C202.975 48.282 202.795 48.006 202.543 47.79C202.291 47.562 201.931 47.448 201.463 47.448C200.947 47.448 200.527 47.592 200.203 47.88C199.879 48.168 199.633 48.546 199.465 49.014C199.309 49.482 199.231 49.992 199.231 50.544V54H198.493V50.364C198.493 50.16 198.481 49.902 198.457 49.59C198.445 49.266 198.379 48.942 198.259 48.618C198.151 48.282 197.971 48.006 197.719 47.79C197.467 47.562 197.107 47.448 196.639 47.448C196.123 47.448 195.703 47.592 195.379 47.88C195.055 48.168 194.809 48.546 194.641 49.014C194.485 49.482 194.407 49.992 194.407 50.544V54H193.651ZM208.774 54.18C207.634 54.18 206.776 53.832 206.2 53.136C205.636 52.428 205.354 51.534 205.354 50.454C205.354 49.35 205.642 48.45 206.218 47.754C206.794 47.046 207.646 46.692 208.774 46.692C209.878 46.692 210.718 47.04 211.294 47.736C211.882 48.42 212.176 49.326 212.176 50.454C212.176 51.162 212.05 51.798 211.798 52.362C211.558 52.914 211.186 53.358 210.682 53.694C210.19 54.018 209.554 54.18 208.774 54.18ZM208.774 53.442C209.446 53.442 209.968 53.292 210.34 52.992C210.712 52.692 210.97 52.314 211.114 51.858C211.27 51.39 211.348 50.916 211.348 50.436C211.348 49.944 211.27 49.47 211.114 49.014C210.97 48.546 210.712 48.162 210.34 47.862C209.968 47.55 209.446 47.394 208.774 47.394C208.102 47.394 207.58 47.55 207.208 47.862C206.836 48.162 206.572 48.546 206.416 49.014C206.26 49.47 206.182 49.944 206.182 50.436C206.182 50.916 206.26 51.39 206.416 51.858C206.572 52.314 206.836 52.692 207.208 52.992C207.58 53.292 208.102 53.442 208.774 53.442ZM213.655 54V46.71H214.339L214.483 48.636H214.519C214.543 48.552 214.603 48.408 214.699 48.204C214.795 48 214.945 47.784 215.149 47.556C215.353 47.316 215.623 47.112 215.959 46.944C216.295 46.776 216.715 46.692 217.219 46.692C217.843 46.692 218.341 46.806 218.713 47.034C219.085 47.25 219.367 47.538 219.559 47.898C219.751 48.258 219.877 48.654 219.937 49.086C219.997 49.518 220.027 49.95 220.027 50.382V54H219.217V50.364C219.217 49.476 219.061 48.768 218.749 48.24C218.449 47.712 217.885 47.448 217.057 47.448C216.469 47.448 215.983 47.592 215.599 47.88C215.227 48.156 214.945 48.534 214.753 49.014C214.573 49.482 214.483 49.992 214.483 50.544V54H213.655ZM223.043 54C222.659 54 222.413 53.892 222.305 53.676C222.197 53.46 222.143 53.202 222.143 52.902V47.358H220.937V46.692C221.369 46.692 221.669 46.668 221.837 46.62C222.005 46.56 222.107 46.398 222.143 46.134C222.179 45.87 222.197 45.426 222.197 44.802H222.935V46.692H224.645V47.358H222.935V53.298H224.645V54H223.043ZM226.242 54V43.866H227.07V48.636H227.106C227.13 48.552 227.19 48.408 227.286 48.204C227.382 48 227.532 47.784 227.736 47.556C227.94 47.316 228.204 47.112 228.528 46.944C228.864 46.776 229.278 46.692 229.77 46.692C230.394 46.692 230.892 46.806 231.264 47.034C231.648 47.25 231.936 47.538 232.128 47.898C232.32 48.258 232.446 48.654 232.506 49.086C232.566 49.518 232.596 49.95 232.596 50.382V54H231.804V50.364C231.804 49.476 231.648 48.768 231.336 48.24C231.024 47.712 230.454 47.448 229.626 47.448C229.05 47.448 228.57 47.592 228.186 47.88C227.802 48.156 227.52 48.534 227.34 49.014C227.16 49.482 227.07 49.992 227.07 50.544V54H226.242ZM240.094 54C239.71 54 239.464 53.892 239.356 53.676C239.248 53.46 239.194 53.202 239.194 52.902V47.358H237.988V46.692C238.42 46.692 238.72 46.668 238.888 46.62C239.056 46.56 239.158 46.398 239.194 46.134C239.23 45.87 239.248 45.426 239.248 44.802H239.986V46.692H241.696V47.358H239.986V53.298H241.696V54H240.094ZM246.18 54.18C245.04 54.18 244.182 53.832 243.606 53.136C243.042 52.428 242.76 51.534 242.76 50.454C242.76 49.35 243.048 48.45 243.624 47.754C244.2 47.046 245.052 46.692 246.18 46.692C247.284 46.692 248.124 47.04 248.7 47.736C249.288 48.42 249.582 49.326 249.582 50.454C249.582 51.162 249.456 51.798 249.204 52.362C248.964 52.914 248.592 53.358 248.088 53.694C247.596 54.018 246.96 54.18 246.18 54.18ZM246.18 53.442C246.852 53.442 247.374 53.292 247.746 52.992C248.118 52.692 248.376 52.314 248.52 51.858C248.676 51.39 248.754 50.916 248.754 50.436C248.754 49.944 248.676 49.47 248.52 49.014C248.376 48.546 248.118 48.162 247.746 47.862C247.374 47.55 246.852 47.394 246.18 47.394C245.508 47.394 244.986 47.55 244.614 47.862C244.242 48.162 243.978 48.546 243.822 49.014C243.666 49.47 243.588 49.944 243.588 50.436C243.588 50.916 243.666 51.39 243.822 51.858C243.978 52.314 244.242 52.692 244.614 52.992C244.986 53.292 245.508 53.442 246.18 53.442ZM258.911 54.18C258.215 54.18 257.621 54.018 257.129 53.694C256.649 53.358 256.283 52.908 256.031 52.344C255.779 51.768 255.653 51.132 255.653 50.436C255.653 49.728 255.779 49.092 256.031 48.528C256.295 47.964 256.667 47.52 257.147 47.196C257.639 46.86 258.233 46.692 258.929 46.692C259.433 46.692 259.853 46.782 260.189 46.962C260.525 47.13 260.795 47.334 260.999 47.574C261.215 47.802 261.377 48.024 261.485 48.24C261.593 48.444 261.659 48.588 261.683 48.672H261.719L261.737 43.866H262.565V54H261.881L261.737 52.218H261.701C261.665 52.302 261.587 52.446 261.467 52.65C261.359 52.854 261.197 53.076 260.981 53.316C260.765 53.556 260.483 53.76 260.135 53.928C259.799 54.096 259.391 54.18 258.911 54.18ZM259.019 53.406C259.763 53.406 260.393 53.148 260.909 52.632C261.425 52.116 261.683 51.384 261.683 50.436C261.683 49.512 261.437 48.792 260.945 48.276C260.465 47.748 259.865 47.484 259.145 47.484C258.545 47.484 258.047 47.628 257.651 47.916C257.255 48.192 256.955 48.558 256.751 49.014C256.559 49.458 256.463 49.932 256.463 50.436C256.463 50.94 256.553 51.42 256.733 51.876C256.913 52.332 257.189 52.704 257.561 52.992C257.933 53.268 258.419 53.406 259.019 53.406ZM267.345 54.18C266.565 54.18 265.917 53.994 265.401 53.622C264.897 53.25 264.519 52.776 264.267 52.2C264.015 51.612 263.895 51.006 263.907 50.382C263.907 49.734 264.039 49.128 264.303 48.564C264.567 48 264.951 47.55 265.455 47.214C265.971 46.866 266.595 46.692 267.327 46.692C268.239 46.692 268.989 46.992 269.577 47.592C270.177 48.18 270.513 48.972 270.585 49.968C270.597 50.028 270.603 50.1 270.603 50.184C270.603 50.268 270.603 50.346 270.603 50.418H264.699C264.699 51.342 264.927 52.08 265.383 52.632C265.839 53.184 266.493 53.46 267.345 53.46C267.957 53.46 268.485 53.298 268.929 52.974C269.385 52.65 269.667 52.212 269.775 51.66H270.585C270.441 52.404 270.075 53.01 269.487 53.478C268.911 53.946 268.197 54.18 267.345 54.18ZM264.753 49.878H269.757C269.745 49.566 269.655 49.218 269.487 48.834C269.331 48.45 269.073 48.114 268.713 47.826C268.365 47.538 267.903 47.394 267.327 47.394C266.535 47.394 265.929 47.64 265.509 48.132C265.089 48.624 264.837 49.206 264.753 49.878ZM274.892 54.18C274.28 54.18 273.782 54.078 273.398 53.874C273.014 53.658 272.72 53.406 272.516 53.118C272.312 52.83 272.168 52.554 272.084 52.29C272.012 52.026 271.976 51.834 271.976 51.714H272.786C272.786 51.726 272.792 51.828 272.804 52.02C272.828 52.2 272.9 52.41 273.02 52.65C273.14 52.89 273.344 53.1 273.632 53.28C273.932 53.448 274.358 53.532 274.91 53.532C275.294 53.532 275.654 53.49 275.99 53.406C276.338 53.31 276.614 53.166 276.818 52.974C277.034 52.77 277.142 52.506 277.142 52.182C277.13 51.798 277.004 51.504 276.764 51.3C276.524 51.084 276.212 50.922 275.828 50.814C275.444 50.706 275.042 50.61 274.622 50.526C274.202 50.442 273.8 50.328 273.416 50.184C273.044 50.04 272.738 49.83 272.498 49.554C272.27 49.278 272.162 48.9 272.174 48.42C272.174 47.856 272.438 47.394 272.966 47.034C273.494 46.674 274.172 46.494 275 46.494C275.312 46.494 275.636 46.53 275.972 46.602C276.32 46.674 276.644 46.8 276.944 46.98C277.244 47.16 277.484 47.412 277.664 47.736C277.844 48.048 277.922 48.45 277.898 48.942H277.106C277.13 48.57 277.07 48.27 276.926 48.042C276.782 47.802 276.59 47.622 276.35 47.502C276.122 47.382 275.882 47.304 275.63 47.268C275.378 47.22 275.15 47.196 274.946 47.196C274.382 47.196 273.902 47.304 273.506 47.52C273.122 47.724 272.93 48.03 272.93 48.438C272.93 48.81 273.05 49.092 273.29 49.284C273.53 49.464 273.842 49.608 274.226 49.716C274.61 49.812 275.012 49.908 275.432 50.004C275.852 50.088 276.248 50.208 276.62 50.364C277.004 50.508 277.316 50.724 277.556 51.012C277.808 51.3 277.934 51.702 277.934 52.218C277.934 52.674 277.796 53.052 277.52 53.352C277.244 53.64 276.872 53.85 276.404 53.982C275.948 54.114 275.444 54.18 274.892 54.18ZM280.013 45.918C279.809 45.93 279.671 45.876 279.599 45.756C279.527 45.636 279.491 45.492 279.491 45.324C279.491 45.168 279.527 45.036 279.599 44.928C279.671 44.82 279.809 44.766 280.013 44.766C280.205 44.766 280.337 44.82 280.409 44.928C280.481 45.036 280.517 45.168 280.517 45.324C280.517 45.504 280.481 45.648 280.409 45.756C280.337 45.864 280.205 45.918 280.013 45.918ZM279.581 54V46.692H280.391V54H279.581ZM283.813 56.88V56.106H287.666V52.218H287.63C287.606 52.302 287.534 52.446 287.414 52.65C287.306 52.854 287.144 53.076 286.928 53.316C286.712 53.556 286.43 53.76 286.082 53.928C285.746 54.096 285.338 54.18 284.858 54.18C284.162 54.18 283.568 54.012 283.076 53.676C282.596 53.34 282.23 52.89 281.978 52.326C281.726 51.762 281.6 51.132 281.6 50.436C281.6 49.728 281.726 49.092 281.978 48.528C282.242 47.964 282.614 47.52 283.094 47.196C283.586 46.86 284.18 46.692 284.876 46.692C285.368 46.692 285.782 46.782 286.118 46.962C286.466 47.13 286.742 47.334 286.946 47.574C287.162 47.802 287.318 48.024 287.414 48.24C287.522 48.444 287.588 48.588 287.612 48.672H287.648L287.666 46.692H288.512V55.566C288.512 55.95 288.44 56.262 288.296 56.502C288.164 56.754 287.882 56.88 287.45 56.88H283.813ZM284.966 53.406C285.698 53.406 286.322 53.148 286.838 52.632C287.366 52.116 287.63 51.384 287.63 50.436C287.63 49.512 287.384 48.792 286.892 48.276C286.4 47.748 285.794 47.484 285.074 47.484C284.474 47.484 283.976 47.628 283.58 47.916C283.184 48.192 282.89 48.558 282.698 49.014C282.506 49.458 282.41 49.932 282.41 50.436C282.41 50.94 282.494 51.42 282.662 51.876C282.842 52.332 283.118 52.704 283.49 52.992C283.874 53.268 284.366 53.406 284.966 53.406ZM290.138 54V46.71H290.822L290.966 48.636H291.002C291.026 48.552 291.086 48.408 291.182 48.204C291.278 48 291.428 47.784 291.632 47.556C291.836 47.316 292.106 47.112 292.442 46.944C292.778 46.776 293.198 46.692 293.702 46.692C294.326 46.692 294.824 46.806 295.196 47.034C295.568 47.25 295.85 47.538 296.042 47.898C296.234 48.258 296.36 48.654 296.42 49.086C296.48 49.518 296.51 49.95 296.51 50.382V54H295.7V50.364C295.7 49.476 295.544 48.768 295.232 48.24C294.932 47.712 294.368 47.448 293.54 47.448C292.952 47.448 292.466 47.592 292.082 47.88C291.71 48.156 291.428 48.534 291.236 49.014C291.056 49.482 290.966 49.992 290.966 50.544V54H290.138ZM187.86 77.262V78H184.044V77.262H185.61V69.36C185.442 69.816 185.196 70.152 184.872 70.368C184.56 70.572 184.26 70.71 183.972 70.782C183.696 70.842 183.516 70.872 183.432 70.872V70.044C183.504 70.044 183.654 70.02 183.882 69.972C184.11 69.912 184.362 69.804 184.638 69.648C184.914 69.492 185.148 69.27 185.34 68.982C185.544 68.694 185.652 68.322 185.664 67.866H186.384V77.262H187.86ZM197.989 78.252C196.669 78.252 195.649 77.856 194.929 77.064C194.221 76.26 193.867 75.132 193.867 73.68V67.866H194.695V73.68C194.695 74.952 194.989 75.906 195.577 76.542C196.177 77.166 196.981 77.478 197.989 77.478C199.057 77.478 199.873 77.166 200.437 76.542C201.013 75.918 201.301 74.964 201.301 73.68V67.866H202.111V73.68C202.111 75.156 201.757 76.29 201.049 77.082C200.353 77.862 199.333 78.252 197.989 78.252ZM203.666 78L207.446 72.618L204.044 67.866H205.07L207.95 72.042L210.848 67.866H211.856L208.49 72.618L212.288 78H211.298L207.95 73.194L204.62 78H203.666ZM213.729 79.458V78.756H213.981C214.269 78.756 214.443 78.678 214.503 78.522C214.563 78.378 214.593 78.21 214.593 78.018C214.077 78.09 213.819 77.868 213.819 77.352C213.819 77.184 213.861 77.04 213.945 76.92C214.029 76.788 214.191 76.722 214.431 76.722C214.647 76.722 214.797 76.788 214.881 76.92C214.977 77.052 215.025 77.274 215.025 77.586C215.025 78.186 214.953 78.648 214.809 78.972C214.665 79.296 214.401 79.458 214.017 79.458H213.729ZM225.161 77.262V78H221.345V77.262H222.911V69.36C222.743 69.816 222.497 70.152 222.173 70.368C221.861 70.572 221.561 70.71 221.273 70.782C220.997 70.842 220.817 70.872 220.733 70.872V70.044C220.805 70.044 220.955 70.02 221.183 69.972C221.411 69.912 221.663 69.804 221.939 69.648C222.215 69.492 222.449 69.27 222.641 68.982C222.845 68.694 222.953 68.322 222.965 67.866H223.685V77.262H225.161ZM232.266 78H231.456V67.866H235.2C237.432 67.866 238.548 68.916 238.548 71.016C238.548 72 238.254 72.762 237.666 73.302C237.078 73.83 236.256 74.094 235.2 74.094H232.266V78ZM235.128 68.586H232.266V73.392H235.128C235.992 73.392 236.652 73.194 237.108 72.798C237.564 72.402 237.792 71.802 237.792 70.998C237.792 70.17 237.57 69.564 237.126 69.18C236.682 68.784 236.016 68.586 235.128 68.586ZM239.905 78V70.692H240.607L240.715 72.564C240.835 72.048 241.117 71.604 241.561 71.232C242.005 70.86 242.629 70.68 243.433 70.692H243.829V71.61H243.433C242.617 71.61 242.017 71.742 241.633 72.006C241.249 72.258 240.997 72.6 240.877 73.032C240.769 73.464 240.715 73.944 240.715 74.472V78H239.905ZM247.867 78.18C246.727 78.18 245.869 77.832 245.293 77.136C244.729 76.428 244.447 75.534 244.447 74.454C244.447 73.35 244.735 72.45 245.311 71.754C245.887 71.046 246.739 70.692 247.867 70.692C248.971 70.692 249.811 71.04 250.387 71.736C250.975 72.42 251.269 73.326 251.269 74.454C251.269 75.162 251.143 75.798 250.891 76.362C250.651 76.914 250.279 77.358 249.775 77.694C249.283 78.018 248.647 78.18 247.867 78.18ZM247.867 77.442C248.539 77.442 249.061 77.292 249.433 76.992C249.805 76.692 250.063 76.314 250.207 75.858C250.363 75.39 250.441 74.916 250.441 74.436C250.441 73.944 250.363 73.47 250.207 73.014C250.063 72.546 249.805 72.162 249.433 71.862C249.061 71.55 248.539 71.394 247.867 71.394C247.195 71.394 246.673 71.55 246.301 71.862C245.929 72.162 245.665 72.546 245.509 73.014C245.353 73.47 245.275 73.944 245.275 74.436C245.275 74.916 245.353 75.39 245.509 75.858C245.665 76.314 245.929 76.692 246.301 76.992C246.673 77.292 247.195 77.442 247.867 77.442ZM256.169 78.18C255.473 78.18 254.879 78.018 254.387 77.694C253.907 77.358 253.541 76.908 253.289 76.344C253.037 75.768 252.911 75.132 252.911 74.436C252.911 73.728 253.037 73.092 253.289 72.528C253.553 71.964 253.925 71.52 254.405 71.196C254.897 70.86 255.491 70.692 256.187 70.692C256.691 70.692 257.111 70.782 257.447 70.962C257.783 71.13 258.053 71.334 258.257 71.574C258.473 71.802 258.635 72.024 258.743 72.24C258.851 72.444 258.917 72.588 258.941 72.672H258.977L258.995 67.866H259.823V78H259.139L258.995 76.218H258.959C258.923 76.302 258.845 76.446 258.725 76.65C258.617 76.854 258.455 77.076 258.239 77.316C258.023 77.556 257.741 77.76 257.393 77.928C257.057 78.096 256.649 78.18 256.169 78.18ZM256.277 77.406C257.021 77.406 257.651 77.148 258.167 76.632C258.683 76.116 258.941 75.384 258.941 74.436C258.941 73.512 258.695 72.792 258.203 72.276C257.723 71.748 257.123 71.484 256.403 71.484C255.803 71.484 255.305 71.628 254.909 71.916C254.513 72.192 254.213 72.558 254.009 73.014C253.817 73.458 253.721 73.932 253.721 74.436C253.721 74.94 253.811 75.42 253.991 75.876C254.171 76.332 254.447 76.704 254.819 76.992C255.191 77.268 255.677 77.406 256.277 77.406ZM264.135 78.18C263.367 78.18 262.779 78.006 262.371 77.658C261.963 77.31 261.681 76.86 261.525 76.308C261.381 75.744 261.309 75.144 261.309 74.508V70.692H262.119V74.508C262.119 75.06 262.173 75.558 262.281 76.002C262.401 76.434 262.617 76.782 262.929 77.046C263.253 77.298 263.721 77.424 264.333 77.424C264.909 77.424 265.365 77.292 265.701 77.028C266.049 76.752 266.307 76.404 266.475 75.984C266.643 75.552 266.739 75.096 266.763 74.616L266.781 70.692H267.609V78H266.925L266.781 76.254H266.745C266.673 76.506 266.529 76.782 266.313 77.082C266.097 77.382 265.809 77.64 265.449 77.856C265.101 78.072 264.663 78.18 264.135 78.18ZM272.495 78.18C271.463 78.18 270.623 77.856 269.975 77.208C269.327 76.56 269.003 75.666 269.003 74.526C269.015 73.77 269.171 73.104 269.471 72.528C269.771 71.952 270.185 71.502 270.713 71.178C271.241 70.854 271.853 70.692 272.549 70.692C273.437 70.692 274.169 70.938 274.745 71.43C275.333 71.91 275.693 72.516 275.825 73.248H275.051C274.931 72.684 274.643 72.246 274.187 71.934C273.743 71.61 273.203 71.448 272.567 71.448C271.739 71.448 271.073 71.73 270.569 72.294C270.065 72.858 269.813 73.59 269.813 74.49C269.813 75.39 270.053 76.104 270.533 76.632C271.025 77.16 271.685 77.424 272.513 77.424C273.161 77.424 273.713 77.262 274.169 76.938C274.637 76.614 274.931 76.17 275.051 75.606H275.825C275.693 76.35 275.327 76.968 274.727 77.46C274.127 77.94 273.383 78.18 272.495 78.18ZM278.783 78C278.399 78 278.153 77.892 278.045 77.676C277.937 77.46 277.883 77.202 277.883 76.902V71.358H276.677V70.692C277.109 70.692 277.409 70.668 277.577 70.62C277.745 70.56 277.847 70.398 277.883 70.134C277.919 69.87 277.937 69.426 277.937 68.802H278.675V70.692H280.385V71.358H278.675V77.298H280.385V78H278.783ZM184.008 102V91.866H185.43L189.156 101.604H189.192L192.882 91.866H194.304V102H193.476L193.512 92.334H193.476L189.768 102H188.526L184.836 92.334H184.8L184.836 102H184.008ZM198.651 102.162C197.979 102.162 197.421 101.994 196.977 101.658C196.533 101.322 196.203 100.872 195.987 100.308C195.771 99.732 195.663 99.096 195.663 98.4C195.663 97.68 195.771 97.038 195.987 96.474C196.215 95.898 196.551 95.448 196.995 95.124C197.439 94.788 197.991 94.62 198.651 94.62C199.359 94.62 199.923 94.794 200.343 95.142C200.763 95.478 201.063 95.868 201.243 96.312H201.279V94.692H202.107V102H201.423L201.279 100.488H201.243C201.051 100.932 200.745 101.322 200.325 101.658C199.905 101.994 199.347 102.162 198.651 102.162ZM198.957 101.406C199.725 101.406 200.301 101.142 200.685 100.614C201.069 100.086 201.261 99.354 201.261 98.418C201.261 97.422 201.057 96.672 200.649 96.168C200.253 95.664 199.689 95.412 198.957 95.412C198.105 95.412 197.481 95.7 197.085 96.276C196.689 96.84 196.491 97.548 196.491 98.4C196.491 99.288 196.695 100.014 197.103 100.578C197.511 101.13 198.129 101.406 198.957 101.406ZM203.495 102V94.71H204.179L204.323 96.636H204.359C204.383 96.552 204.443 96.408 204.539 96.204C204.635 96 204.785 95.784 204.989 95.556C205.193 95.316 205.463 95.112 205.799 94.944C206.135 94.776 206.555 94.692 207.059 94.692C207.683 94.692 208.181 94.806 208.553 95.034C208.925 95.25 209.207 95.538 209.399 95.898C209.591 96.258 209.717 96.654 209.777 97.086C209.837 97.518 209.867 97.95 209.867 98.382V102H209.057V98.364C209.057 97.476 208.901 96.768 208.589 96.24C208.289 95.712 207.725 95.448 206.897 95.448C206.309 95.448 205.823 95.592 205.439 95.88C205.067 96.156 204.785 96.534 204.593 97.014C204.413 97.482 204.323 97.992 204.323 98.544V102H203.495ZM213.927 102.162C213.255 102.162 212.697 101.994 212.253 101.658C211.809 101.322 211.479 100.872 211.263 100.308C211.047 99.732 210.939 99.096 210.939 98.4C210.939 97.68 211.047 97.038 211.263 96.474C211.491 95.898 211.827 95.448 212.271 95.124C212.715 94.788 213.267 94.62 213.927 94.62C214.635 94.62 215.199 94.794 215.619 95.142C216.039 95.478 216.339 95.868 216.519 96.312H216.555V94.692H217.383V102H216.699L216.555 100.488H216.519C216.327 100.932 216.021 101.322 215.601 101.658C215.181 101.994 214.623 102.162 213.927 102.162ZM214.233 101.406C215.001 101.406 215.577 101.142 215.961 100.614C216.345 100.086 216.537 99.354 216.537 98.418C216.537 97.422 216.333 96.672 215.925 96.168C215.529 95.664 214.965 95.412 214.233 95.412C213.381 95.412 212.757 95.7 212.361 96.276C211.965 96.84 211.767 97.548 211.767 98.4C211.767 99.288 211.971 100.014 212.379 100.578C212.787 101.13 213.405 101.406 214.233 101.406ZM220.444 104.88V104.106H224.296V100.218H224.26C224.236 100.302 224.164 100.446 224.044 100.65C223.936 100.854 223.774 101.076 223.558 101.316C223.342 101.556 223.06 101.76 222.712 101.928C222.376 102.096 221.968 102.18 221.488 102.18C220.792 102.18 220.198 102.012 219.706 101.676C219.226 101.34 218.86 100.89 218.608 100.326C218.356 99.762 218.23 99.132 218.23 98.436C218.23 97.728 218.356 97.092 218.608 96.528C218.872 95.964 219.244 95.52 219.724 95.196C220.216 94.86 220.81 94.692 221.506 94.692C221.998 94.692 222.412 94.782 222.748 94.962C223.096 95.13 223.372 95.334 223.576 95.574C223.792 95.802 223.948 96.024 224.044 96.24C224.152 96.444 224.218 96.588 224.242 96.672H224.278L224.296 94.692H225.142V103.566C225.142 103.95 225.07 104.262 224.926 104.502C224.794 104.754 224.512 104.88 224.08 104.88H220.444ZM221.596 101.406C222.328 101.406 222.952 101.148 223.468 100.632C223.996 100.116 224.26 99.384 224.26 98.436C224.26 97.512 224.014 96.792 223.522 96.276C223.03 95.748 222.424 95.484 221.704 95.484C221.104 95.484 220.606 95.628 220.21 95.916C219.814 96.192 219.52 96.558 219.328 97.014C219.136 97.458 219.04 97.932 219.04 98.436C219.04 98.94 219.124 99.42 219.292 99.876C219.472 100.332 219.748 100.704 220.12 100.992C220.504 101.268 220.996 101.406 221.596 101.406ZM230.026 102.18C229.246 102.18 228.598 101.994 228.082 101.622C227.578 101.25 227.2 100.776 226.948 100.2C226.696 99.612 226.576 99.006 226.588 98.382C226.588 97.734 226.72 97.128 226.984 96.564C227.248 96 227.632 95.55 228.136 95.214C228.652 94.866 229.276 94.692 230.008 94.692C230.92 94.692 231.67 94.992 232.258 95.592C232.858 96.18 233.194 96.972 233.266 97.968C233.278 98.028 233.284 98.1 233.284 98.184C233.284 98.268 233.284 98.346 233.284 98.418H227.38C227.38 99.342 227.608 100.08 228.064 100.632C228.52 101.184 229.174 101.46 230.026 101.46C230.638 101.46 231.166 101.298 231.61 100.974C232.066 100.65 232.348 100.212 232.456 99.66H233.266C233.122 100.404 232.756 101.01 232.168 101.478C231.592 101.946 230.878 102.18 230.026 102.18ZM227.434 97.878H232.438C232.426 97.566 232.336 97.218 232.168 96.834C232.012 96.45 231.754 96.114 231.394 95.826C231.046 95.538 230.584 95.394 230.008 95.394C229.216 95.394 228.61 95.64 228.19 96.132C227.77 96.624 227.518 97.206 227.434 97.878ZM235.018 102V94.692H235.72L235.828 96.564C235.948 96.048 236.23 95.604 236.674 95.232C237.118 94.86 237.742 94.68 238.546 94.692H238.942V95.61H238.546C237.73 95.61 237.13 95.742 236.746 96.006C236.362 96.258 236.11 96.6 235.99 97.032C235.882 97.464 235.828 97.944 235.828 98.472V102H235.018ZM240.061 103.458V102.756H240.313C240.601 102.756 240.775 102.678 240.835 102.522C240.895 102.378 240.925 102.21 240.925 102.018C240.409 102.09 240.151 101.868 240.151 101.352C240.151 101.184 240.193 101.04 240.277 100.92C240.361 100.788 240.523 100.722 240.763 100.722C240.979 100.722 241.129 100.788 241.213 100.92C241.309 101.052 241.357 101.274 241.357 101.586C241.357 102.186 241.285 102.648 241.141 102.972C240.997 103.296 240.733 103.458 240.349 103.458H240.061ZM250.989 102.18C250.377 102.18 249.783 102.06 249.207 101.82C248.631 101.568 248.151 101.19 247.767 100.686C247.395 100.182 247.203 99.552 247.191 98.796L247.965 98.742C248.001 99.366 248.169 99.882 248.469 100.29C248.769 100.686 249.147 100.98 249.603 101.172C250.059 101.352 250.527 101.442 251.007 101.442C251.523 101.442 252.003 101.352 252.447 101.172C252.891 100.992 253.245 100.734 253.509 100.398C253.773 100.05 253.905 99.642 253.905 99.174C253.905 98.742 253.821 98.388 253.653 98.112C253.485 97.836 253.275 97.62 253.023 97.464C252.771 97.308 252.519 97.2 252.267 97.14C252.015 97.068 251.799 97.032 251.619 97.032H250.053V96.528H251.637C252.285 96.528 252.777 96.36 253.113 96.024C253.461 95.688 253.635 95.256 253.635 94.728C253.635 93.996 253.389 93.426 252.897 93.018C252.405 92.598 251.751 92.388 250.935 92.388C250.431 92.388 250.005 92.472 249.657 92.64C249.309 92.808 249.027 93.018 248.811 93.27C248.595 93.522 248.433 93.78 248.325 94.044C248.229 94.308 248.169 94.542 248.145 94.746L247.407 94.674C247.419 94.482 247.485 94.224 247.605 93.9C247.725 93.564 247.917 93.228 248.181 92.892C248.445 92.556 248.799 92.274 249.243 92.046C249.699 91.806 250.263 91.686 250.935 91.686C251.979 91.686 252.819 91.95 253.455 92.478C254.091 92.994 254.409 93.708 254.409 94.62C254.409 95.22 254.253 95.694 253.941 96.042C253.629 96.378 253.221 96.624 252.717 96.78C253.245 96.936 253.701 97.23 254.085 97.662C254.481 98.082 254.679 98.616 254.679 99.264C254.679 99.852 254.517 100.368 254.193 100.812C253.869 101.244 253.431 101.58 252.879 101.82C252.327 102.06 251.697 102.18 250.989 102.18ZM263.798 102.18C263.102 102.18 262.508 102.018 262.016 101.694C261.536 101.358 261.17 100.908 260.918 100.344C260.666 99.768 260.54 99.132 260.54 98.436C260.54 97.728 260.666 97.092 260.918 96.528C261.182 95.964 261.554 95.52 262.034 95.196C262.526 94.86 263.12 94.692 263.816 94.692C264.32 94.692 264.74 94.782 265.076 94.962C265.412 95.13 265.682 95.334 265.886 95.574C266.102 95.802 266.264 96.024 266.372 96.24C266.48 96.444 266.546 96.588 266.57 96.672H266.606L266.624 91.866H267.452V102H266.768L266.624 100.218H266.588C266.552 100.302 266.474 100.446 266.354 100.65C266.246 100.854 266.084 101.076 265.868 101.316C265.652 101.556 265.37 101.76 265.022 101.928C264.686 102.096 264.278 102.18 263.798 102.18ZM263.906 101.406C264.65 101.406 265.28 101.148 265.796 100.632C266.312 100.116 266.57 99.384 266.57 98.436C266.57 97.512 266.324 96.792 265.832 96.276C265.352 95.748 264.752 95.484 264.032 95.484C263.432 95.484 262.934 95.628 262.538 95.916C262.142 96.192 261.842 96.558 261.638 97.014C261.446 97.458 261.35 97.932 261.35 98.436C261.35 98.94 261.44 99.42 261.62 99.876C261.8 100.332 262.076 100.704 262.448 100.992C262.82 101.268 263.306 101.406 263.906 101.406ZM272.231 102.18C271.451 102.18 270.803 101.994 270.287 101.622C269.783 101.25 269.405 100.776 269.153 100.2C268.901 99.612 268.781 99.006 268.793 98.382C268.793 97.734 268.925 97.128 269.189 96.564C269.453 96 269.837 95.55 270.341 95.214C270.857 94.866 271.481 94.692 272.213 94.692C273.125 94.692 273.875 94.992 274.463 95.592C275.063 96.18 275.399 96.972 275.471 97.968C275.483 98.028 275.489 98.1 275.489 98.184C275.489 98.268 275.489 98.346 275.489 98.418H269.585C269.585 99.342 269.813 100.08 270.269 100.632C270.725 101.184 271.379 101.46 272.231 101.46C272.843 101.46 273.371 101.298 273.815 100.974C274.271 100.65 274.553 100.212 274.661 99.66H275.471C275.327 100.404 274.961 101.01 274.373 101.478C273.797 101.946 273.083 102.18 272.231 102.18ZM269.639 97.878H274.643C274.631 97.566 274.541 97.218 274.373 96.834C274.217 96.45 273.959 96.114 273.599 95.826C273.251 95.538 272.789 95.394 272.213 95.394C271.421 95.394 270.815 95.64 270.395 96.132C269.975 96.624 269.723 97.206 269.639 97.878ZM282.263 94.692H283.091V94.926L280.211 102H279.023L276.143 94.944V94.692H276.953L279.617 101.334H279.653L282.263 94.692ZM286.881 102.18C286.269 102.18 285.771 102.078 285.387 101.874C285.003 101.658 284.709 101.406 284.505 101.118C284.301 100.83 284.157 100.554 284.073 100.29C284.001 100.026 283.965 99.834 283.965 99.714H284.775C284.775 99.726 284.781 99.828 284.793 100.02C284.817 100.2 284.889 100.41 285.009 100.65C285.129 100.89 285.333 101.1 285.621 101.28C285.921 101.448 286.347 101.532 286.899 101.532C287.283 101.532 287.643 101.49 287.979 101.406C288.327 101.31 288.603 101.166 288.807 100.974C289.023 100.77 289.131 100.506 289.131 100.182C289.119 99.798 288.993 99.504 288.753 99.3C288.513 99.084 288.201 98.922 287.817 98.814C287.433 98.706 287.031 98.61 286.611 98.526C286.191 98.442 285.789 98.328 285.405 98.184C285.033 98.04 284.727 97.83 284.487 97.554C284.259 97.278 284.151 96.9 284.163 96.42C284.163 95.856 284.427 95.394 284.955 95.034C285.483 94.674 286.161 94.494 286.989 94.494C287.301 94.494 287.625 94.53 287.961 94.602C288.309 94.674 288.633 94.8 288.933 94.98C289.233 95.16 289.473 95.412 289.653 95.736C289.833 96.048 289.911 96.45 289.887 96.942H289.095C289.119 96.57 289.059 96.27 288.915 96.042C288.771 95.802 288.579 95.622 288.339 95.502C288.111 95.382 287.871 95.304 287.619 95.268C287.367 95.22 287.139 95.196 286.935 95.196C286.371 95.196 285.891 95.304 285.495 95.52C285.111 95.724 284.919 96.03 284.919 96.438C284.919 96.81 285.039 97.092 285.279 97.284C285.519 97.464 285.831 97.608 286.215 97.716C286.599 97.812 287.001 97.908 287.421 98.004C287.841 98.088 288.237 98.208 288.609 98.364C288.993 98.508 289.305 98.724 289.545 99.012C289.797 99.3 289.923 99.702 289.923 100.218C289.923 100.674 289.785 101.052 289.509 101.352C289.233 101.64 288.861 101.85 288.393 101.982C287.937 102.114 287.433 102.18 286.881 102.18Z" fill="black"/>
</svg>
