<svg width="86" height="51" viewBox="0 0 86 51" fill="none" xmlns="http://www.w3.org/2000/svg">
<g clip-path="url(#clip0_61_432)">
<path d="M24.323 18.4795C24.323 19.525 24.4356 20.3726 24.6326 20.9943C24.8577 21.6159 25.1392 22.294 25.5332 23.0287C25.674 23.2547 25.7303 23.4808 25.7303 23.6786C25.7303 23.9612 25.5614 24.2437 25.1955 24.5263L23.4223 25.713C23.169 25.8826 22.9157 25.9673 22.6905 25.9673C22.4091 25.9673 22.1276 25.8261 21.8461 25.5717C21.4521 25.1479 21.1144 24.6958 20.8329 24.2437C20.5514 23.7634 20.27 23.2265 19.9604 22.5766C17.765 25.1762 15.0067 26.4759 11.6856 26.4759C9.32131 26.4759 7.43555 25.7978 6.05641 24.4415C4.67728 23.0852 3.97363 21.2768 3.97363 19.0163C3.97363 16.6146 4.818 14.6649 6.53489 13.1956C8.25178 11.7263 10.5316 10.9916 13.4306 10.9916C14.3875 10.9916 15.3726 11.0764 16.414 11.2177C17.4554 11.3589 18.525 11.585 19.6508 11.8393V9.7766C19.6508 7.62914 19.2005 6.13157 18.3279 5.25563C17.4273 4.37969 15.9074 3.95585 13.7402 3.95585C12.7551 3.95585 11.7418 4.06888 10.7005 4.32318C9.65906 4.57749 8.64582 4.8883 7.66072 5.28389C7.21039 5.48168 6.87264 5.59471 6.67562 5.65122C6.4786 5.70773 6.33787 5.73599 6.22529 5.73599C5.83125 5.73599 5.63423 5.45342 5.63423 4.86005V3.4755C5.63423 3.0234 5.69052 2.68433 5.83125 2.48654C5.97198 2.28874 6.22529 2.09095 6.61933 1.89316C7.60443 1.38455 8.78655 0.96071 10.1657 0.621637C11.5448 0.254308 13.0084 0.0847714 14.5564 0.0847714C17.9058 0.0847714 20.3544 0.847685 21.9306 2.37351C23.4786 3.89934 24.2667 6.21634 24.2667 9.32451V18.4795H24.323ZM12.8958 22.7744C13.8246 22.7744 14.7816 22.6049 15.7948 22.2658C16.8081 21.9267 17.7087 21.3051 18.4687 20.4574C18.919 19.9205 19.2567 19.3272 19.4256 18.649C19.5945 17.9709 19.7071 17.1514 19.7071 16.1907V15.004C18.8909 14.8062 18.0183 14.6366 17.1177 14.5236C16.217 14.4106 15.3445 14.3541 14.472 14.3541C12.5862 14.3541 11.2071 14.7214 10.2783 15.4843C9.34946 16.2472 8.89913 17.321 8.89913 18.7338C8.89913 20.0618 9.23688 21.0508 9.94052 21.7289C10.616 22.4353 11.6011 22.7744 12.8958 22.7744ZM35.4968 25.8261C34.9902 25.8261 34.6524 25.7413 34.4273 25.5435C34.2021 25.374 34.0051 24.9784 33.8362 24.4415L27.222 2.59956C27.0531 2.03444 26.9687 1.66711 26.9687 1.46932C26.9687 1.01722 27.1938 0.762917 27.6442 0.762917H30.4024C30.9372 0.762917 31.3031 0.847685 31.5001 1.04548C31.7253 1.21501 31.8942 1.6106 32.063 2.14746L36.7915 20.853L41.1822 2.14746C41.323 1.58234 41.4918 1.21501 41.717 1.04548C41.9422 0.875941 42.3362 0.762917 42.8428 0.762917H45.0945C45.6293 0.762917 45.9952 0.847685 46.2203 1.04548C46.4455 1.21501 46.6425 1.6106 46.7551 2.14746L51.2021 21.079L56.0713 2.14746C56.2402 1.58234 56.4372 1.21501 56.6342 1.04548C56.8594 0.875941 57.2253 0.762917 57.7319 0.762917H60.3495C60.7998 0.762917 61.0531 0.988966 61.0531 1.46932C61.0531 1.6106 61.025 1.75188 60.9968 1.92142C60.9687 2.09095 60.9124 2.317 60.7998 2.62782L54.0167 24.4698C53.8478 25.0349 53.6508 25.4022 53.4256 25.5717C53.2005 25.7413 52.8346 25.8543 52.3561 25.8543H49.9356C49.4008 25.8543 49.0349 25.7695 48.8097 25.5717C48.5846 25.374 48.3875 25.0066 48.275 24.4415L43.9124 6.21634L39.5779 24.4132C39.4372 24.9784 39.2683 25.3457 39.0432 25.5435C38.818 25.7413 38.424 25.8261 37.9173 25.8261H35.4968ZM71.664 26.589C70.2005 26.589 68.7369 26.4194 67.3296 26.0804C65.9223 25.7413 64.8246 25.374 64.0928 24.9501C63.6425 24.6958 63.3329 24.4132 63.2203 24.1589C63.1077 23.9046 63.0514 23.6221 63.0514 23.3678V21.9267C63.0514 21.3333 63.2766 21.0508 63.6988 21.0508C63.8677 21.0508 64.0365 21.079 64.2054 21.1355C64.3743 21.1921 64.6276 21.3051 64.9091 21.4181C65.866 21.8419 66.9074 22.181 68.0051 22.4071C69.1309 22.6331 70.2286 22.7461 71.3544 22.7461C73.1276 22.7461 74.5067 22.4353 75.4637 21.8137C76.4207 21.1921 76.9273 20.2879 76.9273 19.1294C76.9273 18.3382 76.674 17.6883 76.1673 17.1514C75.6607 16.6146 74.7038 16.1342 73.3246 15.6821L69.2435 14.4106C67.1889 13.7607 65.669 12.8 64.7402 11.5285C63.8114 10.2852 63.3329 8.90067 63.3329 7.43135C63.3329 6.24459 63.5862 5.19912 64.0928 4.29493C64.5995 3.39073 65.275 2.59956 66.1193 1.97793C66.9637 1.32804 67.9207 0.847685 69.0465 0.508612C70.1723 0.16954 71.3544 0.0282593 72.5928 0.0282593C73.212 0.0282593 73.8594 0.0565153 74.4786 0.141284C75.126 0.226052 75.717 0.339076 76.3081 0.4521C76.871 0.593381 77.4058 0.734661 77.9124 0.904197C78.419 1.07373 78.813 1.24327 79.0945 1.41281C79.4885 1.63886 79.77 1.8649 79.9389 2.11921C80.1077 2.34526 80.1922 2.65607 80.1922 3.05166V4.37969C80.1922 4.97307 79.967 5.28389 79.5448 5.28389C79.3197 5.28389 78.9538 5.17086 78.4753 4.94482C76.871 4.21016 75.0697 3.84283 73.0713 3.84283C71.467 3.84283 70.2005 4.09713 69.3279 4.634C68.4554 5.17086 68.0051 5.99029 68.0051 7.14879C68.0051 7.93996 68.2865 8.6181 68.8495 9.15497C69.4124 9.69184 70.4538 10.2287 71.9455 10.7091L75.9422 11.9806C77.9687 12.6305 79.4322 13.5347 80.3048 14.6932C81.1773 15.8517 81.5995 17.1797 81.5995 18.649C81.5995 19.864 81.3462 20.966 80.8677 21.9267C80.3611 22.8874 79.6856 23.7351 78.813 24.4132C77.9405 25.1197 76.8991 25.6283 75.6889 25.9956C74.4223 26.3912 73.0995 26.589 71.664 26.589Z" fill="white"/>
<path d="M76.9835 40.3214C67.7236 47.1876 54.2699 50.8327 42.702 50.8327C26.4901 50.8327 11.8825 44.8141 0.849393 34.8115C-0.0231238 34.0203 0.764956 32.9466 1.80635 33.5682C13.7401 40.5192 28.4603 44.7293 43.6871 44.7293C53.9603 44.7293 65.2467 42.5819 75.6325 38.1739C77.1805 37.4675 78.5034 39.1912 76.9835 40.3214ZM80.8395 35.9135C79.6573 34.3876 73.015 35.1788 70.0034 35.5461C69.1027 35.6592 68.962 34.868 69.7782 34.2746C75.0696 30.5448 83.7666 31.6185 84.7799 32.8618C85.7931 34.1333 84.4984 42.8644 79.5448 47.0463C78.7848 47.6962 78.053 47.3572 78.3908 46.5095C79.5166 43.7121 82.0216 37.411 80.8395 35.9135Z" fill="#FF9900"/>
</g>
<defs>
<clipPath id="clip0_61_432">
<rect width="85" height="51" fill="white" transform="translate(0.286499)"/>
</clipPath>
</defs>
</svg>
