<svg width="42" height="46" viewBox="0 0 42 46" fill="none" xmlns="http://www.w3.org/2000/svg">
<g clip-path="url(#clip0_67_509)">
<path d="M5.06834 40.9706L1.46265 0.530457H41.0808L37.472 40.9639L21.2474 45.4625L5.06834 40.9706Z" fill="#1572B6"/>
<path d="M21.2725 42.0242L34.382 38.3896L37.4662 3.83734H21.2725V42.0242Z" fill="#33A9DC"/>
<path d="M21.272 18.4886H27.835L28.2888 13.4098H21.272V8.44989H33.7091L33.5902 9.78049L32.3714 23.448H21.272V18.4886Z" fill="white"/>
<path d="M21.3018 31.3697L21.2799 31.3759L15.7563 29.8841L15.4027 25.9284H10.4246L11.1197 33.716L21.2791 36.5362L21.3022 36.5295L21.3018 31.3697Z" fill="#EBEBEB"/>
<path d="M27.4137 23.2383L26.8161 29.8806L21.2844 31.3737V36.534L31.4522 33.716L31.5271 32.878L32.3901 23.2383H27.4137Z" fill="white"/>
<path d="M21.2894 8.44989V13.4093H9.30917L9.20942 12.2947L8.98364 9.78049L8.86475 8.44989H21.2894ZM21.272 18.489V23.4489H15.8183L15.719 22.3343L15.4928 19.8196L15.3739 18.489H21.272Z" fill="#EBEBEB"/>
</g>
<defs>
<clipPath id="clip0_67_509">
<rect width="41" height="46" fill="white" transform="translate(0.771973)"/>
</clipPath>
</defs>
</svg>
