<svg width="65" height="55" viewBox="0 0 65 55" fill="none" xmlns="http://www.w3.org/2000/svg">
<path d="M11.7812 42.2812L12.1266 41.8739L28.4172 15.7248L28.4517 15.4481L21.2713 4.0356C21.1398 3.8269 20.9341 3.65847 20.6833 3.55412C20.4325 3.44977 20.1493 3.41479 19.8737 3.45413C19.5981 3.49347 19.3441 3.60514 19.1476 3.77333C18.9512 3.94153 18.8222 4.15774 18.7789 4.39138L11.7812 42.2812Z" fill="#FFC24A"/>
<path d="M11.9844 41.9719L12.2444 41.5422L28.3664 15.6647L21.2042 4.20751C21.0861 4.00826 20.8949 3.84676 20.6592 3.74719C20.4235 3.64763 20.156 3.61537 19.8968 3.65525C19.6376 3.69512 19.4007 3.80498 19.2215 3.96838C19.0423 4.13177 18.9305 4.3399 18.9028 4.56157L11.9844 41.9719Z" fill="#FFA712"/>
<path d="M33.6863 24.0797L39.0325 19.4391L33.6842 10.8092C33.5665 10.6235 33.3915 10.4682 33.1778 10.36C32.964 10.2518 32.7196 10.1946 32.4706 10.1946C32.2215 10.1946 31.9771 10.2518 31.7634 10.36C31.5496 10.4682 31.3746 10.6235 31.2569 10.8092L28.3989 15.4189V15.8125L33.6863 24.0797Z" fill="#F4BD62"/>
<path d="M33.5907 23.8906L38.7887 19.3875L33.5907 11C33.5056 10.8184 33.3603 10.6616 33.1723 10.5483C32.9842 10.4351 32.7615 10.3703 32.5309 10.3617C32.3003 10.3532 32.0717 10.4013 31.8726 10.5002C31.6736 10.5991 31.5127 10.7446 31.4092 10.9192L28.537 15.6097L28.4517 15.8486L33.5907 23.8906Z" fill="#FFA50E"/>
<path d="M11.7853 42.283L11.9417 42.1489L12.5084 41.9547L33.349 24.3856L33.6131 23.7772L28.4151 15.3931L11.7853 42.283Z" fill="#F6820C"/>
<path d="M34.3525 51.1431L53.2188 42.2417L47.8278 14.1728C47.7892 13.9749 47.6868 13.7899 47.5321 13.638C47.3773 13.4861 47.176 13.3733 46.9504 13.3118C46.7248 13.2504 46.4835 13.2427 46.2531 13.2897C46.0227 13.3367 45.812 13.4365 45.6442 13.5781L11.7812 42.2812L30.5358 51.1414C31.1188 51.4167 31.7754 51.5612 32.4431 51.5612C33.1108 51.5612 33.7674 51.4167 34.3505 51.1414" fill="#FDE068"/>
<path d="M53.0461 42.1678L47.6998 14.3103C47.6904 14.121 47.6148 13.9384 47.4827 13.7855C47.3505 13.6326 47.1677 13.5163 46.9574 13.4514C46.7471 13.3864 46.5188 13.3757 46.3013 13.4206C46.0838 13.4655 45.8869 13.564 45.7356 13.7036L11.9844 42.2279L30.5317 50.9936C31.1101 51.2666 31.7615 51.4099 32.4238 51.4099C33.0862 51.4099 33.7375 51.2666 34.3159 50.9936L53.0461 42.1678Z" fill="#FCCA3F"/>
<path d="M34.3525 50.875C33.7694 51.1503 33.1129 51.2948 32.4452 51.2948C31.7775 51.2948 31.1209 51.1503 30.5378 50.875L11.9356 42.1472L11.7812 42.2813L30.5358 51.1414C31.1188 51.4167 31.7754 51.5612 32.4431 51.5612C33.1108 51.5612 33.7674 51.4167 34.3505 51.1414L53.2188 42.2417L53.172 42.0011L34.3525 50.875Z" fill="#EEAB37"/>
</svg>
