<svg width="67" height="66" viewBox="0 0 67 66" fill="none" xmlns="http://www.w3.org/2000/svg">
<g clip-path="url(#clip0_67_527)">
<path d="M33.2865 2.75002C25.3485 2.66936 17.7033 5.74369 12.031 11.2974C6.35874 16.851 3.12356 24.4296 3.0365 32.3675C3.06709 38.6407 5.08509 44.7429 8.80067 49.7974C12.5162 54.852 17.7382 58.5989 23.7165 60.5C25.229 60.775 25.779 59.8675 25.779 59.07C25.779 58.2725 25.779 56.5125 25.779 54.0375C17.364 55.825 15.5765 50.0775 15.5765 50.0775C15.0163 48.2732 13.8254 46.7309 12.2215 45.7325C9.4715 43.9175 12.4415 43.945 12.4415 43.945C13.392 44.0721 14.3015 44.4127 15.1016 44.9414C15.9017 45.47 16.5718 46.173 17.0615 46.9975C17.9149 48.4774 19.3152 49.563 20.961 50.0207C22.6068 50.4785 24.3666 50.2717 25.8615 49.445C26.0152 47.9391 26.6972 46.5362 27.7865 45.485C21.0765 44.7425 14.0365 42.2125 14.0365 30.855C13.9765 27.8924 15.0712 25.0226 17.089 22.8525C16.17 20.309 16.2785 17.5074 17.3915 15.0425C17.3915 15.0425 19.949 14.245 25.6415 18.0675C30.5967 16.7471 35.8113 16.7471 40.7665 18.0675C46.5415 14.245 49.0165 15.0425 49.0165 15.0425C50.1295 17.5074 50.238 20.309 49.319 22.8525C51.3837 24.9828 52.5377 27.8334 52.5365 30.8C52.5365 42.185 45.4415 44.6875 38.7865 45.43C39.5152 46.1375 40.0781 46.9977 40.4347 47.9487C40.7913 48.8996 40.9328 49.9178 40.849 50.93V59.0425C40.849 59.0425 41.399 60.775 42.9115 60.4725C48.8728 58.5596 54.0772 54.8118 57.7813 49.7644C61.4854 44.717 63.4997 38.6281 63.5365 32.3675C63.4494 24.4296 60.2143 16.851 54.542 11.2974C48.8697 5.74369 41.2245 2.66936 33.2865 2.75002Z" fill="white"/>
</g>
<defs>
<clipPath id="clip0_67_527">
<rect width="66" height="66" fill="white" transform="translate(0.286499)"/>
</clipPath>
</defs>
</svg>
