<svg width="47" height="53" viewBox="0 0 47 53" fill="none" xmlns="http://www.w3.org/2000/svg">
<g clip-path="url(#clip0_61_384)">
<path d="M46.2065 0.74176L42.0303 47.6209L23.2584 52.8358L4.53817 47.6283L0.366455 0.74176H46.2065Z" fill="#E44D26"/>
<path d="M23.2865 48.8498L38.4551 44.6358L42.0239 4.57544H23.2865V48.8498Z" fill="#F16529"/>
<path d="M15.1683 16.0764H23.2865V10.3259H8.89661L9.03397 11.8687L10.4444 27.7153H23.2865V21.965H15.6927L15.1683 16.0764Z" fill="#EBEBEB"/>
<path d="M16.4615 30.5906H10.7008L11.5048 39.6197L23.2601 42.8897L23.2865 42.8823V36.8995L23.2613 36.9062L16.8701 35.1769L16.4615 30.5906Z" fill="#EBEBEB"/>
<path d="M23.2666 27.7153H30.3332L29.667 35.1732L23.2666 36.9043V42.8869L35.0312 39.6197L35.1175 38.6481L36.4661 23.5091L36.6061 21.965H23.2666V27.7153Z" fill="white"/>
<path d="M23.2666 16.0624V16.0764H37.1283L37.2434 14.7839L37.5049 11.8687L37.6421 10.3259H23.2666V16.0624Z" fill="white"/>
</g>
<defs>
<clipPath id="clip0_61_384">
<rect width="47" height="53" fill="white"/>
</clipPath>
</defs>
</svg>
