<svg width="48" height="45" viewBox="0 0 48 45" fill="none" xmlns="http://www.w3.org/2000/svg">
<g clip-path="url(#clip0_61_471)">
<path d="M44.1349 21.8234C44.1349 19.5449 41.9709 17.6978 39.3012 17.6978C39.1296 17.6978 38.9602 17.7057 38.7932 17.7206L45.4321 1.00763H17.219L23.8487 17.7061C23.7514 17.701 23.6536 17.6978 23.555 17.6978C20.8854 17.6978 18.7213 19.5449 18.7213 21.8234C18.7213 23.6652 20.1355 25.2244 22.0872 25.755C21.0564 27.2791 19.7592 28.6518 18.2865 29.8377C16.284 31.4502 13.9921 32.6729 11.5133 33.4264C8.5621 32.1323 7.16837 29.2544 8.42598 26.731C8.56788 26.4461 8.71297 26.1573 8.85144 25.8697C10.9896 25.4438 12.5827 23.8078 12.5827 21.853C12.5827 19.5745 10.4187 17.7274 7.74907 17.7274C5.07956 17.7274 2.91543 19.5745 2.91543 21.853C2.91543 23.2503 3.72999 24.4844 4.97496 25.2308C3.77862 27.5558 2.02 29.989 1.47212 32.8091C0.815514 36.1889 1.47 39.7764 4.89469 41.8025C12.8705 46.5208 21.5282 38.8774 30.6566 36.9561C33.9649 36.2597 37.5963 36.372 40.511 34.9311C42.6998 33.849 44.1428 32.0558 44.5523 30.0426C44.9569 28.0537 44.3671 26.0736 43.0107 24.4679C43.7122 23.7518 44.1349 22.8299 44.1349 21.8234Z" fill="#99425B"/>
<path d="M43.3893 29.8703C43.0337 31.6181 41.769 33.1448 39.9194 34.0593C38.1952 34.9116 36.1291 35.166 33.9416 35.4353C32.7696 35.5795 31.5578 35.7287 30.374 35.9779C27.2439 36.6367 24.212 37.9221 21.2801 39.1651C15.4126 41.6527 10.3453 43.8008 5.56725 40.9744C2.06736 38.9039 2.22897 35.0732 2.63672 32.974C3.01461 31.0292 4.03623 29.2382 5.02421 27.506C5.19491 27.2065 5.36219 26.9126 5.52499 26.6212C6.01467 26.7881 6.53551 26.9021 7.07843 26.9539C6.07275 29.7868 7.65429 32.8671 10.9739 34.3227L11.4282 34.522L11.9094 34.3757C14.5337 33.578 16.9518 32.2979 19.0967 30.5707C20.4831 29.4542 21.6752 28.2191 22.6549 26.8993C22.9487 26.9371 23.2491 26.9569 23.555 26.9569C26.6017 26.9569 29.1247 25.0128 29.5151 22.5019C30.7622 22.4629 32.0868 22.4626 33.3411 22.5015C33.7313 25.0126 36.2544 26.9569 39.3012 26.9569C40.5751 26.9569 41.7568 26.6161 42.7303 26.0373C43.4061 27.2181 43.6584 28.5467 43.3893 29.8703ZM7.74909 18.7351C9.76353 18.7351 11.4022 20.1339 11.4022 21.8532C11.4022 22.4708 11.19 23.0466 10.8254 23.5316C10.218 24.3399 9.18614 24.894 8.00007 24.9631C7.91708 24.968 7.8335 24.9713 7.74909 24.9713C7.30026 24.9713 6.87019 24.9014 6.47259 24.7745C5.6683 24.5176 4.99812 24.025 4.57656 23.3961C4.27139 22.9407 4.09597 22.4143 4.09597 21.8532C4.09597 20.1339 5.73477 18.7351 7.74909 18.7351ZM19.9018 21.8236C19.9018 20.2615 21.2547 18.9644 23.0128 18.7401C23.1897 18.7174 23.3708 18.7055 23.555 18.7055C24.726 18.7055 25.7687 19.1791 26.4375 19.9128C26.6037 20.0951 26.7478 20.2929 26.8639 20.5041C27.0843 20.9051 27.2081 21.3521 27.2081 21.8236C27.2081 22.0729 27.1727 22.3152 27.1076 22.5477C26.7516 23.8198 25.4808 24.792 23.9235 24.9259C23.8024 24.9362 23.6794 24.9417 23.555 24.9417C22.8256 24.9417 22.1461 24.7576 21.5751 24.442C20.5693 23.8859 19.9018 22.9203 19.9018 21.8236ZM35.1486 18.1158C34.3661 18.755 33.7841 19.5715 33.4943 20.4898C32.1415 20.4465 30.707 20.4465 29.3621 20.4898C29.0531 19.5111 28.4123 18.6477 27.5504 17.9918L31.3305 11.4677L35.1486 18.1158ZM18.8656 2.01543H43.7853L37.8996 16.8321C37.6445 16.8844 37.3956 16.9502 37.1541 17.0293L31.3398 6.90552L25.5091 16.9689C25.257 16.8948 24.9973 16.8351 24.7315 16.7899L18.8656 2.01543ZM42.9544 21.8236C42.9544 22.1363 42.8996 22.438 42.7989 22.723C42.559 23.4009 42.0556 23.9818 41.3909 24.379C40.7983 24.7331 40.0779 24.9417 39.3012 24.9417C37.6145 24.9417 36.1916 23.9606 35.7734 22.6319C35.6921 22.374 35.6481 22.1031 35.6481 21.8236C35.6481 21.3974 35.749 20.991 35.9312 20.6207C36.0251 20.4298 36.1422 20.2495 36.2766 20.08C36.9341 19.2518 38.0435 18.7055 39.3012 18.7055C39.4166 18.7055 39.5304 18.7106 39.643 18.7196C41.4977 18.8671 42.9544 20.2026 42.9544 21.8236ZM45.3154 21.8236C45.3154 19.3174 43.1999 17.2264 40.4135 16.7796L47.0789 0.000183105H15.5725L22.248 16.8138C19.5583 17.3246 17.5408 19.3762 17.5408 21.8236C17.5408 23.6613 18.6787 25.2756 20.384 26.1827C19.5637 27.2258 18.591 28.2073 17.4765 29.1049C15.7086 30.5283 13.7393 31.6078 11.6161 32.3181C9.47761 31.1715 8.57357 29.0092 9.51243 27.1255L9.58598 26.9779C9.63202 26.8857 9.67806 26.7933 9.72398 26.7009C12.0729 26.0016 13.7633 24.0934 13.7633 21.8532C13.7633 19.0226 11.0653 16.7199 7.74909 16.7199C4.43289 16.7199 1.73492 19.0226 1.73492 21.8532C1.73492 23.2819 2.42293 24.5757 3.53026 25.5073C3.32957 25.8723 3.11826 26.2436 2.9014 26.6238C1.88898 28.3987 0.741515 30.4104 0.307556 32.6443C-0.554343 37.0809 0.835957 40.6274 4.22228 42.6307C6.27722 43.8463 8.3639 44.3242 10.4639 44.3242C14.4182 44.3242 18.4182 42.6286 22.3304 40.9699C25.148 39.7755 28.0615 38.5403 30.9394 37.9345C32.0101 37.7091 33.112 37.5734 34.2786 37.4299C36.5918 37.145 38.9839 36.8506 41.1027 35.8031C43.5588 34.5889 45.2401 32.5521 45.7155 30.2151C46.1236 28.2088 45.6325 26.1993 44.4346 24.4952C44.993 23.7164 45.3154 22.8016 45.3154 21.8236Z" fill="white"/>
</g>
<defs>
<clipPath id="clip0_61_471">
<rect width="47.1028" height="44.4444" fill="white" transform="translate(0.0583496)"/>
</clipPath>
</defs>
</svg>
