<svg width="46" height="46" viewBox="0 0 46 46" fill="none" xmlns="http://www.w3.org/2000/svg">
<g clip-path="url(#clip0_61_436)">
<path d="M0 0H46V46H0V0Z" fill="#F7DF1E"/>
<path d="M12.095 38.441L15.6153 36.3106C16.2944 37.5147 16.9122 38.5335 18.3941 38.5335C19.8145 38.5335 20.71 37.9778 20.71 35.8166V21.1185H25.0329V35.8777C25.0329 40.355 22.4084 42.393 18.5794 42.393C15.1213 42.393 13.1139 40.602 12.095 38.4406" fill="black"/>
<path d="M27.381 37.9777L30.9008 35.9398C31.8274 37.453 33.0316 38.5645 35.1621 38.5645C36.9532 38.5645 38.0954 37.6689 38.0954 36.4338C38.0954 34.9517 36.9221 34.4267 34.9459 33.5624L33.8654 33.0989C30.7466 31.7714 28.6777 30.104 28.6777 26.5838C28.6777 23.3416 31.1479 20.8713 35.0078 20.8713C37.756 20.8713 39.7321 21.8286 41.1524 24.3297L37.7866 26.4911C37.0455 25.1634 36.2429 24.6386 35.0079 24.6386C33.7418 24.6386 32.939 25.4414 32.939 26.4911C32.939 27.788 33.7418 28.3131 35.5943 29.1159L36.675 29.5791C40.3495 31.154 42.4184 32.7594 42.4184 36.372C42.4184 40.2629 39.3615 42.3933 35.2548 42.3933C31.2407 42.3933 28.6468 40.479 27.381 37.9777Z" fill="black"/>
</g>
<defs>
<clipPath id="clip0_61_436">
<rect width="46" height="46" fill="white"/>
</clipPath>
</defs>
</svg>
