<svg width="107" height="65" viewBox="0 0 107 65" fill="none" xmlns="http://www.w3.org/2000/svg">
<path d="M25.2475 16.9466H45.4287V18.5611H27.0974V30.7128H44.3355V32.3273H27.0974V45.6686H45.6389V47.2832H25.2475V16.9466ZM47.2366 16.9466H49.3808L58.8828 30.2879L68.595 16.9466L81.8052 0L60.1021 31.69L71.2858 47.2832H69.0575L58.8828 33.0921L48.6661 47.2832H46.4798L57.7476 31.69L47.2366 16.9466ZM72.0846 18.5611V16.9466H95.0828V18.5611H84.4877V47.2832H82.6377V18.5611H72.0846ZM0 16.9466H2.31243L34.1994 64.9756L21.0221 47.2832L1.93403 19.2409L1.84994 47.2832H0L0 16.9466ZM94.8964 45.1814C94.5184 45.1814 94.235 44.8866 94.235 44.5057C94.235 44.1248 94.5184 43.83 94.8964 43.83C95.2789 43.83 95.5578 44.1248 95.5578 44.5057C95.5578 44.8866 95.2789 45.1814 94.8964 45.1814ZM96.7142 43.4037H97.7041C97.7176 43.9434 98.109 44.3062 98.685 44.3062C99.3284 44.3062 99.6928 43.9162 99.6928 43.186V38.5604H100.701V43.1906C100.701 44.5057 99.9448 45.263 98.694 45.263C97.5196 45.263 96.7142 44.5284 96.7142 43.4037ZM102.019 43.3448H103.018C103.103 43.966 103.706 44.3606 104.575 44.3606C105.385 44.3606 105.979 43.9388 105.979 43.3584C105.979 42.8595 105.601 42.5602 104.741 42.3562L103.904 42.1521C102.73 41.8755 102.195 41.3041 102.195 40.3427C102.195 39.1772 103.139 38.4017 104.557 38.4017C105.875 38.4017 106.838 39.1772 106.897 40.2792H105.916C105.821 39.676 105.299 39.2996 104.543 39.2996C103.747 39.2996 103.216 39.6851 103.216 40.2746C103.216 40.7417 103.558 41.0093 104.404 41.2088L105.119 41.3857C106.451 41.6986 107 42.2428 107 43.2269C107 44.4785 106.037 45.263 104.498 45.263C103.058 45.263 102.091 44.5148 102.019 43.3448Z" fill="white"/>
</svg>
