<svg width="51" height="57" viewBox="0 0 51 57" fill="none" xmlns="http://www.w3.org/2000/svg">
<g clip-path="url(#clip0_67_532)">
<path d="M25.5 56.8942C24.7081 56.8942 23.9689 56.6852 23.2826 56.3193L16.2609 52.1901C15.205 51.6151 15.7329 51.406 16.0497 51.3015C17.4752 50.8311 17.7391 50.7266 19.2174 49.8903C19.3758 49.7857 19.587 49.838 19.7453 49.9425L25.1304 53.1309C25.3416 53.2354 25.6056 53.2354 25.764 53.1309L46.8292 41.0569C47.0404 40.9524 47.146 40.7433 47.146 40.4819V16.3862C47.146 16.1248 47.0404 15.9158 46.8292 15.8112L25.764 3.78946C25.5528 3.68493 25.2888 3.68493 25.1304 3.78946L4.06522 15.8112C3.85404 15.9158 3.74845 16.1771 3.74845 16.3862V40.4819C3.74845 40.691 3.85404 40.9524 4.06522 41.0569L9.81988 44.3498C12.9348 45.9179 14.8882 44.0885 14.8882 42.2591V18.4769C14.8882 18.1633 15.1522 17.8497 15.5217 17.8497H18.2143C18.5311 17.8497 18.8478 18.111 18.8478 18.4769V42.2591C18.8478 46.3883 16.5776 48.7926 12.618 48.7926C11.4037 48.7926 10.4534 48.7926 7.76087 47.4859L2.21739 44.3498C0.844721 43.5658 0 42.1023 0 40.5342V16.4384C0 14.8704 0.844721 13.4069 2.21739 12.6228L23.2826 0.548819C24.6025 -0.18294 26.3975 -0.18294 27.7174 0.548819L48.7826 12.6228C50.1553 13.4069 51 14.8704 51 16.4384V40.5342C51 42.1023 50.1553 43.5658 48.7826 44.3498L27.7174 56.4238C27.0311 56.7374 26.2391 56.8942 25.5 56.8942ZM31.9938 40.3251C22.7547 40.3251 20.854 36.1437 20.854 32.5894C20.854 32.2758 21.118 31.9622 21.4876 31.9622H24.2329C24.5497 31.9622 24.8137 32.1712 24.8137 32.4849C25.236 35.2551 26.4503 36.6141 32.0466 36.6141C36.4814 36.6141 38.382 35.621 38.382 33.2689C38.382 31.9099 37.854 30.9168 30.9379 30.2373C25.1832 29.6624 21.5932 28.4079 21.5932 23.8606C21.5932 19.6268 25.1832 17.1179 31.2019 17.1179C37.9596 17.1179 41.2857 19.4177 41.7081 24.4355C41.7081 24.5923 41.6553 24.7491 41.5497 24.9059C41.4441 25.0105 41.2857 25.115 41.1273 25.115H38.382C38.118 25.115 37.854 24.9059 37.8012 24.6446C37.1677 21.7698 35.5311 20.829 31.2019 20.829C26.3447 20.829 25.764 22.5016 25.764 23.756C25.764 25.2718 26.4503 25.7422 32.9969 26.5785C39.4907 27.4148 42.5528 28.617 42.5528 33.1121C42.5 37.7117 38.6988 40.3251 31.9938 40.3251Z" fill="#539E43"/>
</g>
<defs>
<clipPath id="clip0_67_532">
<rect width="51" height="57" fill="white"/>
</clipPath>
</defs>
</svg>
