<svg width="49" height="48" viewBox="0 0 49 48" fill="none" xmlns="http://www.w3.org/2000/svg">
<g clip-path="url(#clip0_67_500)">
<path d="M0.0583496 24V48H24.0583H48.0583V24V0H24.0583H0.0583496V24Z" fill="#007ACC"/>
<path d="M10.673 24.1592L10.6577 26.1249H13.7815H16.9054V35.0011V43.8773H19.1149H21.3244V35.0011V26.1249H24.4482H27.572V24.1973C27.572 23.1307 27.5492 22.2392 27.5187 22.2164C27.4958 22.1859 23.6939 22.1707 19.0844 22.1783L10.6958 22.2011L10.673 24.1592Z" fill="white"/>
<path d="M38.7896 22.1453C40.0086 22.4501 40.9381 22.991 41.7915 23.8748C42.2334 24.3472 42.8886 25.2082 42.942 25.4139C42.9572 25.4748 40.8696 26.8767 39.6048 27.6615C39.5591 27.692 39.3762 27.4939 39.1705 27.1891C38.5534 26.2901 37.9058 25.9015 36.9153 25.8329C35.46 25.7339 34.5229 26.4958 34.5305 27.7682C34.5305 28.1415 34.5839 28.3625 34.7362 28.6672C35.0562 29.3301 35.6505 29.7263 37.5172 30.5339C40.9534 32.012 42.4239 32.9872 43.3381 34.3739C44.3591 35.9206 44.5877 38.3891 43.8943 40.2253C43.1324 42.2215 41.2429 43.5777 38.5839 44.0272C37.761 44.172 35.8105 44.1491 34.9267 43.9891C32.9991 43.6463 31.1705 42.6939 30.0429 41.4444C29.601 40.9567 28.74 39.6844 28.7934 39.5929C28.8162 39.5625 29.0143 39.4406 29.2353 39.311C29.4486 39.1891 30.2562 38.7244 31.0181 38.2825L32.3972 37.4825L32.6867 37.9091C33.0905 38.5263 33.9743 39.372 34.5077 39.6539C36.0391 40.4615 38.142 40.3472 39.1781 39.4177C39.62 39.0139 39.8029 38.5948 39.8029 37.9777C39.8029 37.4215 39.7343 37.1777 39.4448 36.7586C39.0715 36.2253 38.3096 35.7758 36.1458 34.8386C33.6696 33.772 32.6029 33.1091 31.6277 32.0577C31.0639 31.4482 30.5305 30.4729 30.3096 29.6577C30.1267 28.9796 30.081 27.2806 30.2258 26.5948C30.7362 24.2025 32.542 22.5339 35.1477 22.0386C35.9934 21.8786 37.9591 21.9396 38.7896 22.1453Z" fill="white"/>
</g>
<defs>
<clipPath id="clip0_67_500">
<rect width="48" height="48" fill="white" transform="translate(0.0583496)"/>
</clipPath>
</defs>
</svg>
