<svg width="457" height="175" viewBox="0 0 457 175" fill="none" xmlns="http://www.w3.org/2000/svg">
<path d="M0 10C0 4.47715 4.47715 0 10 0H447C452.523 0 457 4.47715 457 10V165H0V10Z" fill="#5E6F67"/>
<path d="M431.833 25.7664V19.1667M431.833 19.1667H425.234M431.833 19.1667L422.075 28.9246M427.45 31.7991C430.772 32.457 434.35 31.4988 436.925 28.9246C441.025 24.824 441.025 18.1759 436.925 14.0754C432.824 9.97487 426.176 9.97487 422.075 14.0754C419.501 16.6496 418.543 20.2279 419.201 23.5496" stroke="white" strokeWidth="2" strokeLinecap="round" strokeLinejoin="round"/>
<path d="M202.861 140.114H209.449L209.908 141.302H202.483L202.861 140.114ZM212.473 144.191C212.563 144.461 212.761 144.632 213.067 144.704L214.201 145.001V146H208.369V145.001L210.34 144.623L205.75 131.474H206.479L202.186 144.623L204.13 145.001V146H199.027V145.001L200.215 144.704C200.521 144.632 200.719 144.461 200.809 144.191L205.48 130.583H207.586L212.473 144.191ZM215.004 140.573C215.004 139.403 215.211 138.368 215.625 137.468C216.039 136.55 216.642 135.83 217.434 135.308C218.244 134.768 219.243 134.498 220.431 134.498C221.061 134.498 221.691 134.57 222.321 134.714C222.951 134.858 223.464 135.029 223.86 135.227C223.896 135.749 223.887 136.307 223.833 136.901C223.797 137.477 223.743 138.017 223.671 138.521H222.591L222.159 136.901C222.123 136.703 222.078 136.541 222.024 136.415C221.97 136.289 221.88 136.181 221.754 136.091C221.592 135.947 221.376 135.839 221.106 135.767C220.836 135.677 220.539 135.632 220.215 135.632C219.297 135.632 218.586 136.001 218.082 136.739C217.578 137.477 217.326 138.593 217.326 140.087C217.326 141.689 217.605 142.877 218.163 143.651C218.739 144.425 219.549 144.812 220.593 144.812C221.187 144.812 221.727 144.695 222.213 144.461C222.699 144.227 223.095 143.948 223.401 143.624L223.995 144.137C223.671 144.803 223.158 145.325 222.456 145.703C221.772 146.081 220.944 146.27 219.972 146.27C218.874 146.27 217.956 146.027 217.218 145.541C216.48 145.037 215.922 144.362 215.544 143.516C215.184 142.652 215.004 141.671 215.004 140.573ZM227.32 136.199L225.619 135.983V135.065L226.861 134.876C227.041 134.84 227.176 134.786 227.266 134.714C227.356 134.624 227.419 134.498 227.455 134.336L228.184 131.501H229.399L229.426 134.768H233.098V136.118H229.453V142.517C229.453 143.381 229.588 143.957 229.858 144.245C230.146 144.515 230.542 144.65 231.046 144.65C231.46 144.65 231.838 144.578 232.18 144.434C232.54 144.29 232.846 144.074 233.098 143.786L233.692 144.353C233.404 144.965 232.954 145.424 232.342 145.73C231.748 146.036 231.073 146.189 230.317 146.189C229.777 146.189 229.273 146.108 228.805 145.946C228.355 145.784 227.995 145.487 227.725 145.055C227.455 144.623 227.32 144.011 227.32 143.219V136.199ZM238.093 146.216C237.193 146.216 236.437 145.982 235.825 145.514C235.231 145.046 234.934 144.371 234.934 143.489C234.934 142.733 235.15 142.139 235.582 141.707C236.032 141.257 236.59 140.933 237.256 140.735C237.922 140.537 238.597 140.411 239.281 140.357L241.927 140.141V141.167L239.632 141.383C238.84 141.437 238.228 141.617 237.796 141.923C237.382 142.229 237.175 142.688 237.175 143.3C237.175 143.786 237.31 144.164 237.58 144.434C237.868 144.704 238.291 144.839 238.849 144.839C239.443 144.839 240.028 144.704 240.604 144.434C241.198 144.164 241.648 143.831 241.954 143.435L242.197 143.948C241.819 144.614 241.261 145.163 240.523 145.595C239.803 146.009 238.993 146.216 238.093 146.216ZM235.258 136.874C235.528 136.118 236.068 135.542 236.878 135.146C237.688 134.75 238.615 134.552 239.659 134.552C240.973 134.552 241.954 134.885 242.602 135.551C243.25 136.199 243.574 137.198 243.574 138.548V144.137C243.574 144.533 243.772 144.749 244.168 144.785L245.275 144.893V145.811C245.095 145.865 244.816 145.937 244.438 146.027C244.06 146.117 243.709 146.162 243.385 146.162C242.845 146.162 242.413 146.009 242.089 145.703C241.783 145.397 241.594 144.947 241.522 144.353V138.845C241.522 137.837 241.315 137.135 240.901 136.739C240.505 136.325 239.893 136.118 239.065 136.118C238.453 136.118 237.868 136.217 237.31 136.415C236.752 136.613 236.239 136.937 235.771 137.387L235.258 136.874ZM247.123 145.433C247.051 144.893 247.024 144.371 247.042 143.867C247.06 143.345 247.096 142.859 247.15 142.409H248.284L248.689 143.894C248.779 144.29 248.932 144.56 249.148 144.704C249.328 144.812 249.589 144.929 249.931 145.055C250.291 145.181 250.714 145.244 251.2 145.244C251.884 145.244 252.397 145.091 252.739 144.785C253.099 144.461 253.279 144.029 253.279 143.489C253.279 143.075 253.162 142.742 252.928 142.49C252.694 142.22 252.352 141.977 251.902 141.761C251.452 141.545 250.903 141.302 250.255 141.032C249.373 140.672 248.653 140.267 248.095 139.817C247.537 139.349 247.258 138.665 247.258 137.765C247.258 136.685 247.636 135.875 248.392 135.335C249.166 134.777 250.165 134.498 251.389 134.498C251.965 134.498 252.559 134.561 253.171 134.687C253.783 134.813 254.296 134.966 254.71 135.146C254.728 135.632 254.719 136.118 254.683 136.604C254.647 137.09 254.584 137.567 254.494 138.035H253.441L253.117 136.685C253.063 136.505 253 136.352 252.928 136.226C252.856 136.1 252.739 135.992 252.577 135.902C252.415 135.812 252.217 135.731 251.983 135.659C251.767 135.587 251.506 135.542 251.2 135.524C250.624 135.506 250.147 135.632 249.769 135.902C249.391 136.172 249.202 136.595 249.202 137.171C249.202 137.603 249.328 137.954 249.58 138.224C249.832 138.494 250.147 138.719 250.525 138.899C250.921 139.061 251.335 139.223 251.767 139.385C252.379 139.619 252.955 139.88 253.495 140.168C254.035 140.456 254.467 140.825 254.791 141.275C255.133 141.725 255.304 142.292 255.304 142.976C255.304 144.02 254.899 144.83 254.089 145.406C253.279 145.982 252.226 146.27 250.93 146.27C250.156 146.27 249.436 146.18 248.77 146C248.104 145.82 247.555 145.631 247.123 145.433ZM267.009 144.191C267.009 144.551 267.189 144.758 267.549 144.812L268.737 145.001V146H263.175V145.001L264.363 144.812C264.723 144.758 264.903 144.551 264.903 144.191V136.82C264.903 136.46 264.732 136.262 264.39 136.226L263.013 136.037V135.065C263.589 134.885 264.201 134.759 264.849 134.687C265.515 134.597 266.136 134.543 266.712 134.525L267.009 134.849V144.191ZM267.171 131.501C267.171 131.915 267.036 132.257 266.766 132.527C266.496 132.779 266.145 132.905 265.713 132.905C265.281 132.905 264.93 132.779 264.66 132.527C264.39 132.257 264.255 131.915 264.255 131.501C264.255 131.069 264.39 130.727 264.66 130.475C264.93 130.205 265.281 130.07 265.713 130.07C266.145 130.07 266.496 130.205 266.766 130.475C267.036 130.727 267.171 131.069 267.171 131.501ZM271.749 136.199L270.048 135.983V135.065L271.29 134.876C271.47 134.84 271.605 134.786 271.695 134.714C271.785 134.624 271.848 134.498 271.884 134.336L272.613 131.501H273.828L273.855 134.768H277.527V136.118H273.882V142.517C273.882 143.381 274.017 143.957 274.287 144.245C274.575 144.515 274.971 144.65 275.475 144.65C275.889 144.65 276.267 144.578 276.609 144.434C276.969 144.29 277.275 144.074 277.527 143.786L278.121 144.353C277.833 144.965 277.383 145.424 276.771 145.73C276.177 146.036 275.502 146.189 274.746 146.189C274.206 146.189 273.702 146.108 273.234 145.946C272.784 145.784 272.424 145.487 272.154 145.055C271.884 144.623 271.749 144.011 271.749 143.219V136.199ZM282.522 146.216C281.622 146.216 280.866 145.982 280.254 145.514C279.66 145.046 279.363 144.371 279.363 143.489C279.363 142.733 279.579 142.139 280.011 141.707C280.461 141.257 281.019 140.933 281.685 140.735C282.351 140.537 283.026 140.411 283.71 140.357L286.356 140.141V141.167L284.061 141.383C283.269 141.437 282.657 141.617 282.225 141.923C281.811 142.229 281.604 142.688 281.604 143.3C281.604 143.786 281.739 144.164 282.009 144.434C282.297 144.704 282.72 144.839 283.278 144.839C283.872 144.839 284.457 144.704 285.033 144.434C285.627 144.164 286.077 143.831 286.383 143.435L286.626 143.948C286.248 144.614 285.69 145.163 284.952 145.595C284.232 146.009 283.422 146.216 282.522 146.216ZM279.687 136.874C279.957 136.118 280.497 135.542 281.307 135.146C282.117 134.75 283.044 134.552 284.088 134.552C285.402 134.552 286.383 134.885 287.031 135.551C287.679 136.199 288.003 137.198 288.003 138.548V144.137C288.003 144.533 288.201 144.749 288.597 144.785L289.704 144.893V145.811C289.524 145.865 289.245 145.937 288.867 146.027C288.489 146.117 288.138 146.162 287.814 146.162C287.274 146.162 286.842 146.009 286.518 145.703C286.212 145.397 286.023 144.947 285.951 144.353V138.845C285.951 137.837 285.744 137.135 285.33 136.739C284.934 136.325 284.322 136.118 283.494 136.118C282.882 136.118 282.297 136.217 281.739 136.415C281.181 136.613 280.668 136.937 280.2 137.387L279.687 136.874ZM294.873 144.191C294.873 144.551 295.044 144.758 295.386 144.812L296.817 145.028V146H290.796V145.001L292.227 144.812C292.587 144.758 292.767 144.56 292.767 144.218V130.61C292.767 130.268 292.587 130.07 292.227 130.016L290.742 129.8V128.909C291.3 128.747 291.93 128.621 292.632 128.531C293.352 128.423 293.991 128.36 294.549 128.342L294.873 128.666V144.191ZM302.156 144.191C302.156 144.551 302.336 144.758 302.696 144.812L303.884 145.001V146H298.322V145.001L299.51 144.812C299.87 144.758 300.05 144.551 300.05 144.191V136.82C300.05 136.46 299.879 136.262 299.537 136.226L298.16 136.037V135.065C298.736 134.885 299.348 134.759 299.996 134.687C300.662 134.597 301.283 134.543 301.859 134.525L302.156 134.849V144.191ZM302.318 131.501C302.318 131.915 302.183 132.257 301.913 132.527C301.643 132.779 301.292 132.905 300.86 132.905C300.428 132.905 300.077 132.779 299.807 132.527C299.537 132.257 299.402 131.915 299.402 131.501C299.402 131.069 299.537 130.727 299.807 130.475C300.077 130.205 300.428 130.07 300.86 130.07C301.292 130.07 301.643 130.205 301.913 130.475C302.183 130.727 302.318 131.069 302.318 131.501ZM308.678 146.216C307.778 146.216 307.022 145.982 306.41 145.514C305.816 145.046 305.519 144.371 305.519 143.489C305.519 142.733 305.735 142.139 306.167 141.707C306.617 141.257 307.175 140.933 307.841 140.735C308.507 140.537 309.182 140.411 309.866 140.357L312.512 140.141V141.167L310.217 141.383C309.425 141.437 308.813 141.617 308.381 141.923C307.967 142.229 307.76 142.688 307.76 143.3C307.76 143.786 307.895 144.164 308.165 144.434C308.453 144.704 308.876 144.839 309.434 144.839C310.028 144.839 310.613 144.704 311.189 144.434C311.783 144.164 312.233 143.831 312.539 143.435L312.782 143.948C312.404 144.614 311.846 145.163 311.108 145.595C310.388 146.009 309.578 146.216 308.678 146.216ZM305.843 136.874C306.113 136.118 306.653 135.542 307.463 135.146C308.273 134.75 309.2 134.552 310.244 134.552C311.558 134.552 312.539 134.885 313.187 135.551C313.835 136.199 314.159 137.198 314.159 138.548V144.137C314.159 144.533 314.357 144.749 314.753 144.785L315.86 144.893V145.811C315.68 145.865 315.401 145.937 315.023 146.027C314.645 146.117 314.294 146.162 313.97 146.162C313.43 146.162 312.998 146.009 312.674 145.703C312.368 145.397 312.179 144.947 312.107 144.353V138.845C312.107 137.837 311.9 137.135 311.486 136.739C311.09 136.325 310.478 136.118 309.65 136.118C309.038 136.118 308.453 136.217 307.895 136.415C307.337 136.613 306.824 136.937 306.356 137.387L305.843 136.874ZM324.728 146V145.001L325.808 144.812C325.97 144.776 326.096 144.713 326.186 144.623C326.294 144.533 326.348 144.389 326.348 144.191V139.196C326.348 138.116 326.195 137.306 325.889 136.766C325.601 136.226 325.034 135.956 324.188 135.956C323.522 135.956 322.883 136.082 322.271 136.334C321.677 136.586 321.137 136.955 320.651 137.441L320.732 136.604C321.308 135.812 321.974 135.263 322.73 134.957C323.486 134.651 324.269 134.498 325.079 134.498C326.375 134.498 327.257 134.876 327.725 135.632C328.193 136.388 328.427 137.45 328.427 138.818V144.191C328.427 144.551 328.607 144.758 328.967 144.812L330.182 145.001V146H324.728ZM317.411 146V145.001L318.599 144.812C318.959 144.758 319.139 144.551 319.139 144.191V136.82C319.139 136.478 318.968 136.28 318.626 136.226L317.249 136.037V135.065C317.789 134.903 318.356 134.777 318.95 134.687C319.562 134.597 320.129 134.543 320.651 134.525L321.029 134.876L321.245 136.82V144.191C321.245 144.551 321.416 144.758 321.758 144.812L322.865 145.001V146H317.411ZM334.834 146.216C333.934 146.216 333.178 145.982 332.566 145.514C331.972 145.046 331.675 144.371 331.675 143.489C331.675 142.733 331.891 142.139 332.323 141.707C332.773 141.257 333.331 140.933 333.997 140.735C334.663 140.537 335.338 140.411 336.022 140.357L338.668 140.141V141.167L336.373 141.383C335.581 141.437 334.969 141.617 334.537 141.923C334.123 142.229 333.916 142.688 333.916 143.3C333.916 143.786 334.051 144.164 334.321 144.434C334.609 144.704 335.032 144.839 335.59 144.839C336.184 144.839 336.769 144.704 337.345 144.434C337.939 144.164 338.389 143.831 338.695 143.435L338.938 143.948C338.56 144.614 338.002 145.163 337.264 145.595C336.544 146.009 335.734 146.216 334.834 146.216ZM331.999 136.874C332.269 136.118 332.809 135.542 333.619 135.146C334.429 134.75 335.356 134.552 336.4 134.552C337.714 134.552 338.695 134.885 339.343 135.551C339.991 136.199 340.315 137.198 340.315 138.548V144.137C340.315 144.533 340.513 144.749 340.909 144.785L342.016 144.893V145.811C341.836 145.865 341.557 145.937 341.179 146.027C340.801 146.117 340.45 146.162 340.126 146.162C339.586 146.162 339.154 146.009 338.83 145.703C338.524 145.397 338.335 144.947 338.263 144.353V138.845C338.263 137.837 338.056 137.135 337.642 136.739C337.246 136.325 336.634 136.118 335.806 136.118C335.194 136.118 334.609 136.217 334.051 136.415C333.493 136.613 332.98 136.937 332.512 137.387L331.999 136.874ZM343.865 145.433C343.793 144.893 343.766 144.371 343.784 143.867C343.802 143.345 343.838 142.859 343.892 142.409H345.026L345.431 143.894C345.521 144.29 345.674 144.56 345.89 144.704C346.07 144.812 346.331 144.929 346.673 145.055C347.033 145.181 347.456 145.244 347.942 145.244C348.626 145.244 349.139 145.091 349.481 144.785C349.841 144.461 350.021 144.029 350.021 143.489C350.021 143.075 349.904 142.742 349.67 142.49C349.436 142.22 349.094 141.977 348.644 141.761C348.194 141.545 347.645 141.302 346.997 141.032C346.115 140.672 345.395 140.267 344.837 139.817C344.279 139.349 344 138.665 344 137.765C344 136.685 344.378 135.875 345.134 135.335C345.908 134.777 346.907 134.498 348.131 134.498C348.707 134.498 349.301 134.561 349.913 134.687C350.525 134.813 351.038 134.966 351.452 135.146C351.47 135.632 351.461 136.118 351.425 136.604C351.389 137.09 351.326 137.567 351.236 138.035H350.183L349.859 136.685C349.805 136.505 349.742 136.352 349.67 136.226C349.598 136.1 349.481 135.992 349.319 135.902C349.157 135.812 348.959 135.731 348.725 135.659C348.509 135.587 348.248 135.542 347.942 135.524C347.366 135.506 346.889 135.632 346.511 135.902C346.133 136.172 345.944 136.595 345.944 137.171C345.944 137.603 346.07 137.954 346.322 138.224C346.574 138.494 346.889 138.719 347.267 138.899C347.663 139.061 348.077 139.223 348.509 139.385C349.121 139.619 349.697 139.88 350.237 140.168C350.777 140.456 351.209 140.825 351.533 141.275C351.875 141.725 352.046 142.292 352.046 142.976C352.046 144.02 351.641 144.83 350.831 145.406C350.021 145.982 348.968 146.27 347.672 146.27C346.898 146.27 346.178 146.18 345.512 146C344.846 145.82 344.297 145.631 343.865 145.433ZM360.024 140.546C360.024 138.656 360.492 137.18 361.428 136.118C362.382 135.038 363.66 134.498 365.262 134.498C366.486 134.498 367.476 134.831 368.232 135.497C368.988 136.163 369.366 137.135 369.366 138.413C369.366 138.593 369.357 138.818 369.339 139.088C369.321 139.34 369.294 139.574 369.258 139.79H361.563V138.764H367.233C367.251 138.674 367.26 138.593 367.26 138.521C367.278 138.449 367.287 138.359 367.287 138.251C367.287 137.477 367.08 136.847 366.666 136.361C366.27 135.857 365.703 135.605 364.965 135.605C364.119 135.605 363.453 135.956 362.967 136.658C362.481 137.36 362.238 138.494 362.238 140.06C362.238 141.248 362.382 142.193 362.67 142.895C362.958 143.579 363.345 144.074 363.831 144.38C364.335 144.668 364.911 144.812 365.559 144.812C366.189 144.812 366.774 144.668 367.314 144.38C367.872 144.092 368.313 143.696 368.637 143.192L369.312 143.597C369.078 144.407 368.574 145.055 367.8 145.541C367.044 146.027 366.099 146.27 364.965 146.27C363.849 146.27 362.922 146.027 362.184 145.541C361.464 145.037 360.924 144.362 360.564 143.516C360.204 142.652 360.024 141.662 360.024 140.546ZM370.743 146V145.001L371.715 144.866C371.985 144.848 372.201 144.731 372.363 144.515L375.9 139.871H376.44L379.302 135.983L377.844 135.713V134.768H382.137V135.713L381.273 135.902C381.003 135.956 380.796 136.082 380.652 136.28L377.223 140.708H376.71L373.794 144.812L375.441 145.001V146H370.743ZM377.169 146V145.001L378.519 144.812L375.9 140.924H375.765L372.417 136.307C372.273 136.091 372.066 135.956 371.796 135.902L371.013 135.713V134.768H376.089V135.713L374.685 135.983L377.304 139.79H377.412L380.868 144.515C381.03 144.713 381.246 144.839 381.516 144.893L382.326 145.001V146H377.169ZM383.667 150.86V149.861L384.882 149.672C385.224 149.636 385.395 149.438 385.395 149.078V136.847C385.395 136.487 385.233 136.28 384.909 136.226L383.532 136.037V135.065C384.09 134.903 384.657 134.777 385.233 134.687C385.809 134.597 386.376 134.543 386.934 134.525L387.285 134.876L387.501 136.604V149.078C387.501 149.438 387.681 149.636 388.041 149.672L389.688 149.861V150.86H383.667ZM389.472 146.216C389.076 146.216 388.644 146.18 388.176 146.108C387.726 146.036 387.33 145.91 386.988 145.73L387.231 144.407C387.429 144.623 387.735 144.794 388.149 144.92C388.563 145.046 389.022 145.109 389.526 145.109C390.552 145.109 391.371 144.758 391.983 144.056C392.595 143.354 392.91 142.121 392.928 140.357C392.946 138.881 392.712 137.783 392.226 137.063C391.758 136.325 391.011 135.956 389.985 135.956C389.373 135.956 388.842 136.073 388.392 136.307C387.942 136.541 387.591 136.793 387.339 137.063L387.069 136.55C387.429 135.992 387.906 135.515 388.5 135.119C389.112 134.705 389.895 134.498 390.849 134.498C391.659 134.498 392.397 134.687 393.063 135.065C393.729 135.425 394.251 136.001 394.629 136.793C395.007 137.567 395.196 138.584 395.196 139.844C395.196 141.842 394.683 143.408 393.657 144.542C392.649 145.658 391.254 146.216 389.472 146.216ZM400.626 137.333C400.86 136.901 401.184 136.469 401.598 136.037C402.03 135.587 402.516 135.218 403.056 134.93C403.614 134.642 404.181 134.498 404.757 134.498C404.955 134.498 405.18 134.525 405.432 134.579C405.702 134.633 405.927 134.705 406.107 134.795C406.143 135.335 406.134 135.956 406.08 136.658C406.044 137.342 405.963 137.972 405.837 138.548H404.838L404.541 137.009C404.487 136.793 404.406 136.64 404.298 136.55C404.208 136.46 404.064 136.415 403.866 136.415C403.344 136.415 402.804 136.55 402.246 136.82C401.688 137.072 401.184 137.477 400.734 138.035L400.626 137.333ZM401.112 137.306V144.191C401.112 144.569 401.301 144.776 401.679 144.812L403.65 145.028V146H397.278V145.001L398.466 144.812C398.826 144.758 399.006 144.551 399.006 144.191V136.874C399.006 136.478 398.826 136.253 398.466 136.199L397.116 136.037V135.065C397.638 134.903 398.196 134.777 398.79 134.687C399.402 134.597 399.969 134.543 400.491 134.525L400.815 134.849L401.112 137.306ZM407.67 140.546C407.67 138.656 408.138 137.18 409.074 136.118C410.028 135.038 411.306 134.498 412.908 134.498C414.132 134.498 415.122 134.831 415.878 135.497C416.634 136.163 417.012 137.135 417.012 138.413C417.012 138.593 417.003 138.818 416.985 139.088C416.967 139.34 416.94 139.574 416.904 139.79H409.209V138.764H414.879C414.897 138.674 414.906 138.593 414.906 138.521C414.924 138.449 414.933 138.359 414.933 138.251C414.933 137.477 414.726 136.847 414.312 136.361C413.916 135.857 413.349 135.605 412.611 135.605C411.765 135.605 411.099 135.956 410.613 136.658C410.127 137.36 409.884 138.494 409.884 140.06C409.884 141.248 410.028 142.193 410.316 142.895C410.604 143.579 410.991 144.074 411.477 144.38C411.981 144.668 412.557 144.812 413.205 144.812C413.835 144.812 414.42 144.668 414.96 144.38C415.518 144.092 415.959 143.696 416.283 143.192L416.958 143.597C416.724 144.407 416.22 145.055 415.446 145.541C414.69 146.027 413.745 146.27 412.611 146.27C411.495 146.27 410.568 146.027 409.83 145.541C409.11 145.037 408.57 144.362 408.21 143.516C407.85 142.652 407.67 141.662 407.67 140.546ZM419.407 145.433C419.335 144.893 419.308 144.371 419.326 143.867C419.344 143.345 419.38 142.859 419.434 142.409H420.568L420.973 143.894C421.063 144.29 421.216 144.56 421.432 144.704C421.612 144.812 421.873 144.929 422.215 145.055C422.575 145.181 422.998 145.244 423.484 145.244C424.168 145.244 424.681 145.091 425.023 144.785C425.383 144.461 425.563 144.029 425.563 143.489C425.563 143.075 425.446 142.742 425.212 142.49C424.978 142.22 424.636 141.977 424.186 141.761C423.736 141.545 423.187 141.302 422.539 141.032C421.657 140.672 420.937 140.267 420.379 139.817C419.821 139.349 419.542 138.665 419.542 137.765C419.542 136.685 419.92 135.875 420.676 135.335C421.45 134.777 422.449 134.498 423.673 134.498C424.249 134.498 424.843 134.561 425.455 134.687C426.067 134.813 426.58 134.966 426.994 135.146C427.012 135.632 427.003 136.118 426.967 136.604C426.931 137.09 426.868 137.567 426.778 138.035H425.725L425.401 136.685C425.347 136.505 425.284 136.352 425.212 136.226C425.14 136.1 425.023 135.992 424.861 135.902C424.699 135.812 424.501 135.731 424.267 135.659C424.051 135.587 423.79 135.542 423.484 135.524C422.908 135.506 422.431 135.632 422.053 135.902C421.675 136.172 421.486 136.595 421.486 137.171C421.486 137.603 421.612 137.954 421.864 138.224C422.116 138.494 422.431 138.719 422.809 138.899C423.205 139.061 423.619 139.223 424.051 139.385C424.663 139.619 425.239 139.88 425.779 140.168C426.319 140.456 426.751 140.825 427.075 141.275C427.417 141.725 427.588 142.292 427.588 142.976C427.588 144.02 427.183 144.83 426.373 145.406C425.563 145.982 424.51 146.27 423.214 146.27C422.44 146.27 421.72 146.18 421.054 146C420.388 145.82 419.839 145.631 419.407 145.433ZM429.901 145.433C429.829 144.893 429.802 144.371 429.82 143.867C429.838 143.345 429.874 142.859 429.928 142.409H431.062L431.467 143.894C431.557 144.29 431.71 144.56 431.926 144.704C432.106 144.812 432.367 144.929 432.709 145.055C433.069 145.181 433.492 145.244 433.978 145.244C434.662 145.244 435.175 145.091 435.517 144.785C435.877 144.461 436.057 144.029 436.057 143.489C436.057 143.075 435.94 142.742 435.706 142.49C435.472 142.22 435.13 141.977 434.68 141.761C434.23 141.545 433.681 141.302 433.033 141.032C432.151 140.672 431.431 140.267 430.873 139.817C430.315 139.349 430.036 138.665 430.036 137.765C430.036 136.685 430.414 135.875 431.17 135.335C431.944 134.777 432.943 134.498 434.167 134.498C434.743 134.498 435.337 134.561 435.949 134.687C436.561 134.813 437.074 134.966 437.488 135.146C437.506 135.632 437.497 136.118 437.461 136.604C437.425 137.09 437.362 137.567 437.272 138.035H436.219L435.895 136.685C435.841 136.505 435.778 136.352 435.706 136.226C435.634 136.1 435.517 135.992 435.355 135.902C435.193 135.812 434.995 135.731 434.761 135.659C434.545 135.587 434.284 135.542 433.978 135.524C433.402 135.506 432.925 135.632 432.547 135.902C432.169 136.172 431.98 136.595 431.98 137.171C431.98 137.603 432.106 137.954 432.358 138.224C432.61 138.494 432.925 138.719 433.303 138.899C433.699 139.061 434.113 139.223 434.545 139.385C435.157 139.619 435.733 139.88 436.273 140.168C436.813 140.456 437.245 140.825 437.569 141.275C437.911 141.725 438.082 142.292 438.082 142.976C438.082 144.02 437.677 144.83 436.867 145.406C436.057 145.982 435.004 146.27 433.708 146.27C432.934 146.27 432.214 146.18 431.548 146C430.882 145.82 430.333 145.631 429.901 145.433Z" fill="white"/>
</svg>
