<svg width="457" height="233" viewBox="0 0 457 233" fill="none" xmlns="http://www.w3.org/2000/svg">
<rect width="457" height="233" rx="10" fill="#453F32"/>
<mask id="mask0_7_1544" style="mask-type:alpha" maskUnits="userSpaceOnUse" x="0" y="0" width="457" height="233">
<rect width="457" height="233" rx="10" fill="#9A7310"/>
</mask>
<g mask="url(#mask0_7_1544)">
<path d="M89.2171 -51.1154L230.06 29.0463L78.2224 110.569L89.2171 -51.1154Z" fill="#B5A57D" fill-opacity="0.43"/>
<path d="M116.664 -8.93282L257.507 71.2289L105.669 152.752L116.664 -8.93282Z" fill="#B5A57D" fill-opacity="0.43"/>
<path d="M323.5 339L237.33 201.75L409.67 201.75L323.5 339Z" fill="#B5A57D" fill-opacity="0.61"/>
<path d="M349.5 309L263.33 171.75L435.67 171.75L349.5 309Z" fill="#B5A57D" fill-opacity="0.37"/>
</g>
<path d="M432.833 25.7664V19.1667M432.833 19.1667H426.234M432.833 19.1667L423.075 28.9246M428.45 31.7991C431.772 32.457 435.35 31.4988 437.925 28.9246C442.025 24.824 442.025 18.1759 437.925 14.0754C433.824 9.97487 427.176 9.97487 423.075 14.0754C420.501 16.6496 419.543 20.2279 420.201 23.5496" stroke="white" strokeWidth="2" strokeLinecap="round" stroke-linejoin="round"/>
<path d="M234.501 130C234.692 130 234.87 129.809 235.034 129.426C235.225 129.043 235.321 128.415 235.321 127.54V107.86C235.321 106.985 235.225 106.37 235.034 106.015C234.843 105.632 234.651 105.427 234.46 105.4H247.908C250.395 105.4 252.35 105.742 253.771 106.425C255.22 107.081 256.245 108.024 256.846 109.254C257.447 110.457 257.748 111.864 257.748 113.477C257.748 115.172 257.434 116.648 256.805 117.905C256.204 119.135 255.179 120.092 253.73 120.775C252.309 121.431 250.368 121.759 247.908 121.759H239.913V127.54C239.913 128.415 240.009 129.043 240.2 129.426C240.391 129.809 240.583 130 240.774 130H234.501ZM241.594 118.52H247.047C248.824 118.52 250.149 118.301 251.024 117.864C251.899 117.427 252.473 116.825 252.746 116.06C253.047 115.295 253.197 114.434 253.197 113.477C253.197 112.466 253.019 111.605 252.664 110.894C252.309 110.183 251.68 109.65 250.778 109.295C249.903 108.912 248.66 108.721 247.047 108.721H241.594C240.747 108.721 240.255 108.776 240.118 108.885C239.981 108.967 239.913 109.281 239.913 109.828V117.372C239.913 117.919 239.981 118.247 240.118 118.356C240.255 118.465 240.747 118.52 241.594 118.52ZM261.237 130C261.428 130 261.606 129.809 261.77 129.426C261.961 129.043 262.057 128.415 262.057 127.54V104.17C262.057 103.295 261.961 102.68 261.77 102.325C261.606 101.942 261.428 101.737 261.237 101.71C262.439 101.71 263.478 101.628 264.353 101.464C265.255 101.273 265.883 101.081 266.239 100.89V127.54C266.239 128.415 266.321 129.043 266.485 129.426C266.676 129.809 266.867 130 267.059 130H261.237ZM279.694 130.41C278.109 130.41 276.715 130.137 275.512 129.59C274.337 129.016 273.421 128.046 272.765 126.679C272.137 125.285 271.822 123.358 271.822 120.898V113.272C271.822 112.397 271.727 111.769 271.535 111.386C271.371 111.003 271.194 110.812 271.002 110.812H276.865C276.674 110.812 276.469 111.003 276.25 111.386C276.059 111.769 275.963 112.397 275.963 113.272V121.472C275.963 123.795 276.373 125.381 277.193 126.228C278.013 127.075 279.093 127.499 280.432 127.499C281.772 127.499 282.933 127.171 283.917 126.515C284.901 125.859 285.667 124.957 286.213 123.809C286.787 122.661 287.074 121.363 287.074 119.914V113.272C287.074 112.397 286.979 111.782 286.787 111.427C286.623 111.044 286.446 110.839 286.254 110.812H291.256V127.54C291.256 128.415 291.338 129.043 291.502 129.426C291.694 129.809 291.885 130 292.076 130H287.074V127.54L287.156 126.72L287.074 126.638C286.91 126.966 286.637 127.349 286.254 127.786C285.872 128.196 285.366 128.606 284.737 129.016C284.136 129.426 283.412 129.754 282.564 130C281.717 130.273 280.76 130.41 279.694 130.41ZM295.586 130C295.778 130 295.955 129.809 296.119 129.426C296.311 129.043 296.406 128.415 296.406 127.54V113.682C296.406 112.807 296.311 112.192 296.119 111.837C295.955 111.454 295.778 111.249 295.586 111.222C296.789 111.222 297.828 111.14 298.702 110.976C299.604 110.785 300.233 110.593 300.588 110.402V112.903L300.506 113.436L300.588 113.518C300.998 112.999 301.449 112.507 301.941 112.042C302.461 111.577 303.13 111.195 303.95 110.894C304.77 110.566 305.823 110.402 307.107 110.402C309.649 110.402 311.59 111.126 312.929 112.575C314.296 114.024 314.979 116.292 314.979 119.381V127.54C314.979 128.415 315.061 129.043 315.225 129.426C315.417 129.809 315.608 130 315.799 130H309.977C310.169 130 310.346 129.809 310.51 129.426C310.702 129.043 310.797 128.415 310.797 127.54V119.504C310.797 117.891 310.592 116.634 310.182 115.732C309.772 114.83 309.198 114.201 308.46 113.846C307.75 113.463 306.916 113.272 305.959 113.272C304.948 113.272 304.032 113.491 303.212 113.928C302.392 114.365 301.75 115.062 301.285 116.019C300.821 116.976 300.588 118.26 300.588 119.873V127.54C300.588 128.415 300.67 129.043 300.834 129.426C301.026 129.809 301.217 130 301.408 130H295.586ZM324.327 130C324.519 130 324.696 129.809 324.86 129.426C325.052 129.043 325.147 128.415 325.147 127.54V119.504C325.147 117.891 324.942 116.634 324.532 115.732C324.122 114.83 323.548 114.201 322.81 113.846C322.1 113.463 321.266 113.272 320.309 113.272C318.724 113.272 317.439 113.778 316.455 114.789C315.471 115.773 314.979 117.454 314.979 119.832L313.298 115.732C313.38 115.431 313.572 114.994 313.872 114.42C314.2 113.846 314.665 113.258 315.266 112.657C315.895 112.028 316.701 111.495 317.685 111.058C318.697 110.621 319.954 110.402 321.457 110.402C323.152 110.402 324.587 110.73 325.762 111.386C326.938 112.015 327.826 112.985 328.427 114.297C329.029 115.609 329.329 117.304 329.329 119.381V127.54C329.329 128.415 329.411 129.043 329.575 129.426C329.767 129.809 329.958 130 330.149 130H324.327ZM341.494 130.41C338.515 130.41 336.424 129.877 335.221 128.811C334.019 127.718 333.417 126.255 333.417 124.424C333.417 123.139 333.732 122.046 334.36 121.144C335.016 120.215 335.987 119.504 337.271 119.012C338.583 118.52 340.237 118.274 342.232 118.274C343.654 118.274 344.884 118.383 345.922 118.602C346.988 118.793 347.849 119.026 348.505 119.299C349.189 119.572 349.667 119.805 349.94 119.996C349.94 118.383 349.735 117.085 349.325 116.101C348.943 115.117 348.314 114.406 347.439 113.969C346.565 113.504 345.376 113.272 343.872 113.272C342.26 113.272 340.811 113.463 339.526 113.846C338.269 114.201 337.258 114.598 336.492 115.035C335.727 115.445 335.249 115.746 335.057 115.937V115.117L334.647 112.042C334.893 111.933 335.426 111.755 336.246 111.509C337.066 111.236 338.146 110.99 339.485 110.771C340.825 110.525 342.396 110.402 344.2 110.402C346.496 110.402 348.369 110.73 349.817 111.386C351.293 112.015 352.373 112.999 353.056 114.338C353.767 115.65 354.122 117.317 354.122 119.34V127.54C354.122 128.305 354.204 128.866 354.368 129.221C354.56 129.549 354.751 129.809 354.942 130H349.94V128.77L350.022 127.991L349.94 127.95C349.503 128.36 348.984 128.715 348.382 129.016C347.781 129.317 347.125 129.576 346.414 129.795C345.704 129.986 344.925 130.137 344.077 130.246C343.257 130.355 342.396 130.41 341.494 130.41ZM342.847 127.499C344.323 127.499 345.594 127.349 346.66 127.048C347.726 126.747 348.533 126.351 349.079 125.859C349.653 125.34 349.94 124.752 349.94 124.096C349.94 123.276 349.394 122.579 348.3 122.005C347.234 121.431 345.567 121.144 343.298 121.144C341.194 121.144 339.704 121.417 338.829 121.964C337.982 122.511 337.558 123.331 337.558 124.424C337.558 125.49 337.968 126.269 338.788 126.761C339.636 127.253 340.989 127.499 342.847 127.499ZM358.488 130C358.679 130 358.857 129.809 359.021 129.426C359.212 129.043 359.308 128.415 359.308 127.54V113.682C359.308 112.807 359.212 112.192 359.021 111.837C358.857 111.454 358.679 111.249 358.488 111.222C359.69 111.222 360.729 111.14 361.604 110.976C362.506 110.785 363.134 110.593 363.49 110.402V112.452L363.408 113.149L363.49 113.231C363.9 112.684 364.392 112.206 364.966 111.796C365.567 111.359 366.25 111.017 367.016 110.771C367.781 110.525 368.656 110.402 369.64 110.402C370.924 110.402 372.031 110.593 372.961 110.976C373.917 111.331 374.601 111.7 375.011 112.083L374.191 115.527V116.757C373.835 116.32 373.316 115.869 372.633 115.404C371.977 114.912 371.225 114.502 370.378 114.174C369.53 113.846 368.628 113.682 367.672 113.682C366.578 113.682 365.608 114.119 364.761 114.994C363.913 115.869 363.49 117.317 363.49 119.34V127.54C363.49 128.415 363.572 129.043 363.736 129.426C363.927 129.809 364.118 130 364.31 130H358.488ZM377.706 130C377.898 130 378.075 129.809 378.239 129.426C378.431 129.043 378.526 128.415 378.526 127.54V113.272C378.526 112.397 378.431 111.782 378.239 111.427C378.075 111.044 377.898 110.839 377.706 110.812H382.708V127.54C382.708 128.415 382.79 129.043 382.954 129.426C383.146 129.809 383.337 130 383.528 130H377.706ZM380.207 106.876C379.415 106.876 378.8 106.657 378.362 106.22C377.925 105.755 377.706 105.222 377.706 104.621C377.706 103.992 377.911 103.459 378.321 103.022C378.759 102.585 379.387 102.366 380.207 102.366C381.027 102.366 381.642 102.585 382.052 103.022C382.49 103.459 382.708 103.992 382.708 104.621C382.708 105.222 382.49 105.755 382.052 106.22C381.615 106.657 381 106.876 380.207 106.876ZM387.035 130C387.227 130 387.404 129.809 387.568 129.426C387.76 129.043 387.855 128.415 387.855 127.54V113.272C387.855 112.397 387.76 111.782 387.568 111.427C387.404 111.044 387.227 110.839 387.035 110.812H392.037V127.54C392.037 128.415 392.119 129.043 392.283 129.426C392.475 129.809 392.666 130 392.857 130H387.035ZM389.536 106.876C388.744 106.876 388.129 106.657 387.691 106.22C387.254 105.755 387.035 105.222 387.035 104.621C387.035 103.992 387.24 103.459 387.65 103.022C388.088 102.585 388.716 102.366 389.536 102.366C390.356 102.366 390.971 102.585 391.381 103.022C391.819 103.459 392.037 103.992 392.037 104.621C392.037 105.222 391.819 105.755 391.381 106.22C390.944 106.657 390.329 106.876 389.536 106.876Z" fill="white"/>
</svg>
