<svg width="326" height="107" viewBox="0 0 326 107" fill="none" xmlns="http://www.w3.org/2000/svg">
<path d="M1.276 23V10.614H4.444L7.92 22.186H7.964L11.374 10.614H14.542V23H12.672L12.782 11.472H12.738L9.262 23H6.556L3.102 11.472H3.058L3.146 23H1.276ZM15.7685 27.092V25.662H17.0665C17.3745 25.662 17.6312 25.5887 17.8365 25.442C18.0418 25.31 18.2912 24.9433 18.5845 24.342L19.3545 22.648L15.8345 14.002H17.7265L20.2565 20.756L22.9625 14.002H24.8765L20.2565 24.54C19.9338 25.288 19.6405 25.8453 19.3765 26.212C19.1125 26.5787 18.8192 26.8133 18.4965 26.916C18.1738 27.0333 17.7705 27.092 17.2865 27.092H15.7685ZM31.1326 23V14.002H32.8266L32.9806 16.444C33.0686 16.048 33.2372 15.6667 33.4866 15.3C33.7506 14.9187 34.1099 14.6107 34.5646 14.376C35.0339 14.1267 35.6279 14.002 36.3466 14.002H36.7206V16.026H36.3246C35.4299 16.026 34.7406 16.1433 34.2566 16.378C33.7726 16.598 33.4352 16.928 33.2446 17.368C33.0539 17.7933 32.9586 18.3213 32.9586 18.952V23H31.1326ZM42.076 23.22C40.58 23.22 39.4654 22.7873 38.732 21.922C37.9987 21.0567 37.632 19.9567 37.632 18.622C37.6174 17.2727 37.984 16.1653 38.732 15.3C39.48 14.4347 40.5947 13.9947 42.076 13.98C43.5134 13.98 44.606 14.4053 45.354 15.256C46.102 16.1067 46.476 17.2287 46.476 18.622C46.476 19.4873 46.3147 20.272 45.992 20.976C45.684 21.6653 45.2 22.2153 44.54 22.626C43.8947 23.022 43.0734 23.22 42.076 23.22ZM42.076 21.658C42.78 21.658 43.3154 21.504 43.682 21.196C44.0634 20.888 44.3274 20.4993 44.474 20.03C44.6207 19.546 44.694 19.0547 44.694 18.556C44.694 18.0573 44.6207 17.5733 44.474 17.104C44.3274 16.62 44.0634 16.224 43.682 15.916C43.3154 15.5933 42.78 15.432 42.076 15.432C41.3574 15.432 40.8074 15.5933 40.426 15.916C40.0447 16.224 39.7807 16.62 39.634 17.104C39.4874 17.5733 39.414 18.0573 39.414 18.556C39.414 19.0547 39.4874 19.546 39.634 20.03C39.7807 20.4993 40.0447 20.888 40.426 21.196C40.8074 21.504 41.3574 21.658 42.076 21.658ZM48.4086 23V10.614H50.2126V23H48.4086ZM56.2767 23.22C55.2647 23.22 54.436 23 53.7907 22.56C53.1454 22.1053 52.6687 21.526 52.3607 20.822C52.0527 20.118 51.8987 19.3773 51.8987 18.6C51.884 17.7347 52.0454 16.95 52.3827 16.246C52.7347 15.542 53.2334 14.9847 53.8787 14.574C54.5387 14.1633 55.3234 13.958 56.2327 13.958C57.01 13.958 57.7067 14.134 58.3227 14.486C58.9534 14.8233 59.452 15.3073 59.8187 15.938C60.1854 16.554 60.3834 17.2873 60.4127 18.138C60.4127 18.182 60.4127 18.27 60.4127 18.402C60.4274 18.5193 60.4347 18.622 60.4347 18.71H53.6367C53.6367 19.6487 53.864 20.382 54.3187 20.91C54.788 21.4233 55.4334 21.68 56.2547 21.68C56.8707 21.68 57.3914 21.526 57.8167 21.218C58.2567 20.8953 58.528 20.47 58.6307 19.942H60.4127C60.2807 20.8807 59.8554 21.6653 59.1367 22.296C58.418 22.912 57.4647 23.22 56.2767 23.22ZM53.7027 17.808H58.5867C58.572 17.6467 58.528 17.434 58.4547 17.17C58.3814 16.906 58.2567 16.6493 58.0807 16.4C57.9194 16.136 57.6847 15.916 57.3767 15.74C57.0687 15.564 56.6727 15.476 56.1887 15.476C55.5874 15.476 55.1107 15.608 54.7587 15.872C54.4214 16.1213 54.1647 16.4293 53.9887 16.796C53.8274 17.148 53.732 17.4853 53.7027 17.808Z" fill="#131313"/>
<path d="M5.04 54.252C3.72 54.252 2.7 53.856 1.98 53.064C1.272 52.26 0.918 51.132 0.918 49.68V43.866H1.746V49.68C1.746 50.952 2.04 51.906 2.628 52.542C3.228 53.166 4.032 53.478 5.04 53.478C6.108 53.478 6.924 53.166 7.488 52.542C8.064 51.918 8.352 50.964 8.352 49.68V43.866H9.162V49.68C9.162 51.156 8.808 52.29 8.1 53.082C7.404 53.862 6.384 54.252 5.04 54.252ZM10.7169 54L14.4969 48.618L11.0949 43.866H12.1209L15.0009 48.042L17.8989 43.866H18.9069L15.5409 48.618L19.3389 54H18.3489L15.0009 49.194L11.6709 54H10.7169ZM25.5157 54V43.866H28.6657C29.5177 43.866 30.2377 43.95 30.8257 44.118C31.4137 44.286 31.8577 44.58 32.1577 45C32.4697 45.408 32.6257 45.978 32.6257 46.71C32.6257 47.166 32.5417 47.592 32.3737 47.988C32.2057 48.384 31.9417 48.702 31.5817 48.942C31.2337 49.182 30.7777 49.302 30.2137 49.302C30.7657 49.302 31.1737 49.422 31.4377 49.662C31.7137 49.89 31.8937 50.184 31.9777 50.544C32.0737 50.892 32.1217 51.258 32.1217 51.642C32.1337 52.026 32.1457 52.38 32.1577 52.704C32.1817 53.016 32.2537 53.25 32.3737 53.406C32.5057 53.55 32.7397 53.562 33.0757 53.442V54.036C33.0157 54.084 32.8957 54.126 32.7157 54.162C32.5477 54.198 32.3617 54.186 32.1577 54.126C31.9537 54.066 31.7797 53.928 31.6357 53.712C31.4917 53.496 31.4197 53.166 31.4197 52.722C31.4197 52.026 31.3897 51.468 31.3297 51.048C31.2817 50.628 31.1677 50.31 30.9877 50.094C30.8197 49.866 30.5497 49.716 30.1777 49.644C29.8177 49.56 29.3257 49.518 28.7017 49.518C28.0777 49.518 27.2917 49.524 26.3437 49.536V54H25.5157ZM26.3437 48.87H28.9897C29.9617 48.87 30.6877 48.726 31.1677 48.438C31.6477 48.138 31.8877 47.574 31.8877 46.746C31.8877 46.11 31.7557 45.642 31.4917 45.342C31.2397 45.03 30.8617 44.826 30.3577 44.73C29.8657 44.634 29.2657 44.586 28.5577 44.586H26.3437V48.87ZM37.6573 54.18C36.8773 54.18 36.2293 53.994 35.7133 53.622C35.2093 53.25 34.8313 52.776 34.5793 52.2C34.3273 51.612 34.2073 51.006 34.2193 50.382C34.2193 49.734 34.3513 49.128 34.6153 48.564C34.8793 48 35.2633 47.55 35.7673 47.214C36.2833 46.866 36.9073 46.692 37.6393 46.692C38.5513 46.692 39.3013 46.992 39.8893 47.592C40.4893 48.18 40.8253 48.972 40.8973 49.968C40.9093 50.028 40.9153 50.1 40.9153 50.184C40.9153 50.268 40.9153 50.346 40.9153 50.418H35.0113C35.0113 51.342 35.2393 52.08 35.6953 52.632C36.1513 53.184 36.8053 53.46 37.6573 53.46C38.2693 53.46 38.7973 53.298 39.2413 52.974C39.6973 52.65 39.9793 52.212 40.0873 51.66H40.8973C40.7533 52.404 40.3873 53.01 39.7993 53.478C39.2233 53.946 38.5093 54.18 37.6573 54.18ZM35.0653 49.878H40.0693C40.0573 49.566 39.9673 49.218 39.7993 48.834C39.6433 48.45 39.3853 48.114 39.0253 47.826C38.6773 47.538 38.2153 47.394 37.6393 47.394C36.8473 47.394 36.2413 47.64 35.8213 48.132C35.4013 48.624 35.1493 49.206 35.0653 49.878ZM45.2049 54.18C44.5929 54.18 44.0949 54.078 43.7109 53.874C43.3269 53.658 43.0329 53.406 42.8289 53.118C42.6249 52.83 42.4809 52.554 42.3969 52.29C42.3249 52.026 42.2889 51.834 42.2889 51.714H43.0989C43.0989 51.726 43.1049 51.828 43.1169 52.02C43.1409 52.2 43.2129 52.41 43.3329 52.65C43.4529 52.89 43.6569 53.1 43.9449 53.28C44.2449 53.448 44.6709 53.532 45.2229 53.532C45.6069 53.532 45.9669 53.49 46.3029 53.406C46.6509 53.31 46.9269 53.166 47.1309 52.974C47.3469 52.77 47.4549 52.506 47.4549 52.182C47.4429 51.798 47.3169 51.504 47.0769 51.3C46.8369 51.084 46.5249 50.922 46.1409 50.814C45.7569 50.706 45.3549 50.61 44.9349 50.526C44.5149 50.442 44.1129 50.328 43.7289 50.184C43.3569 50.04 43.0509 49.83 42.8109 49.554C42.5829 49.278 42.4749 48.9 42.4869 48.42C42.4869 47.856 42.7509 47.394 43.2789 47.034C43.8069 46.674 44.4849 46.494 45.3129 46.494C45.6249 46.494 45.9489 46.53 46.2849 46.602C46.6329 46.674 46.9569 46.8 47.2569 46.98C47.5569 47.16 47.7969 47.412 47.9769 47.736C48.1569 48.048 48.2349 48.45 48.2109 48.942H47.4189C47.4429 48.57 47.3829 48.27 47.2389 48.042C47.0949 47.802 46.9029 47.622 46.6629 47.502C46.4349 47.382 46.1949 47.304 45.9429 47.268C45.6909 47.22 45.4629 47.196 45.2589 47.196C44.6949 47.196 44.2149 47.304 43.8189 47.52C43.4349 47.724 43.2429 48.03 43.2429 48.438C43.2429 48.81 43.3629 49.092 43.6029 49.284C43.8429 49.464 44.1549 49.608 44.5389 49.716C44.9229 49.812 45.3249 49.908 45.7449 50.004C46.1649 50.088 46.5609 50.208 46.9329 50.364C47.3169 50.508 47.6289 50.724 47.8689 51.012C48.1209 51.3 48.2469 51.702 48.2469 52.218C48.2469 52.674 48.1089 53.052 47.8329 53.352C47.5569 53.64 47.1849 53.85 46.7169 53.982C46.2609 54.114 45.7569 54.18 45.2049 54.18ZM52.8096 54.18C52.0296 54.18 51.3816 53.994 50.8656 53.622C50.3616 53.25 49.9836 52.776 49.7316 52.2C49.4796 51.612 49.3596 51.006 49.3716 50.382C49.3716 49.734 49.5036 49.128 49.7676 48.564C50.0316 48 50.4156 47.55 50.9196 47.214C51.4356 46.866 52.0596 46.692 52.7916 46.692C53.7036 46.692 54.4536 46.992 55.0416 47.592C55.6416 48.18 55.9776 48.972 56.0496 49.968C56.0616 50.028 56.0676 50.1 56.0676 50.184C56.0676 50.268 56.0676 50.346 56.0676 50.418H50.1636C50.1636 51.342 50.3916 52.08 50.8476 52.632C51.3036 53.184 51.9576 53.46 52.8096 53.46C53.4216 53.46 53.9496 53.298 54.3936 52.974C54.8496 52.65 55.1316 52.212 55.2396 51.66H56.0496C55.9056 52.404 55.5396 53.01 54.9516 53.478C54.3756 53.946 53.6616 54.18 52.8096 54.18ZM50.2176 49.878H55.2216C55.2096 49.566 55.1196 49.218 54.9516 48.834C54.7956 48.45 54.5376 48.114 54.1776 47.826C53.8296 47.538 53.3676 47.394 52.7916 47.394C51.9996 47.394 51.3936 47.64 50.9736 48.132C50.5536 48.624 50.3016 49.206 50.2176 49.878ZM60.1592 54.162C59.4872 54.162 58.9292 53.994 58.4852 53.658C58.0412 53.322 57.7112 52.872 57.4952 52.308C57.2792 51.732 57.1712 51.096 57.1712 50.4C57.1712 49.68 57.2792 49.038 57.4952 48.474C57.7232 47.898 58.0592 47.448 58.5032 47.124C58.9472 46.788 59.4992 46.62 60.1592 46.62C60.8672 46.62 61.4312 46.794 61.8512 47.142C62.2712 47.478 62.5712 47.868 62.7512 48.312H62.7872V46.692H63.6152V54H62.9312L62.7872 52.488H62.7512C62.5592 52.932 62.2532 53.322 61.8332 53.658C61.4132 53.994 60.8552 54.162 60.1592 54.162ZM60.4652 53.406C61.2332 53.406 61.8092 53.142 62.1932 52.614C62.5772 52.086 62.7692 51.354 62.7692 50.418C62.7692 49.422 62.5652 48.672 62.1572 48.168C61.7612 47.664 61.1972 47.412 60.4652 47.412C59.6132 47.412 58.9892 47.7 58.5932 48.276C58.1972 48.84 57.9992 49.548 57.9992 50.4C57.9992 51.288 58.2032 52.014 58.6112 52.578C59.0192 53.13 59.6372 53.406 60.4652 53.406ZM65.2368 54V46.692H65.9388L66.0468 48.564C66.1668 48.048 66.4488 47.604 66.8928 47.232C67.3368 46.86 67.9608 46.68 68.7648 46.692H69.1608V47.61H68.7648C67.9488 47.61 67.3488 47.742 66.9648 48.006C66.5808 48.258 66.3288 48.6 66.2088 49.032C66.1008 49.464 66.0468 49.944 66.0468 50.472V54H65.2368ZM73.2354 54.18C72.2034 54.18 71.3634 53.856 70.7154 53.208C70.0674 52.56 69.7434 51.666 69.7434 50.526C69.7554 49.77 69.9114 49.104 70.2114 48.528C70.5114 47.952 70.9254 47.502 71.4534 47.178C71.9814 46.854 72.5934 46.692 73.2894 46.692C74.1774 46.692 74.9094 46.938 75.4854 47.43C76.0734 47.91 76.4334 48.516 76.5654 49.248H75.7914C75.6714 48.684 75.3834 48.246 74.9274 47.934C74.4834 47.61 73.9434 47.448 73.3074 47.448C72.4794 47.448 71.8134 47.73 71.3094 48.294C70.8054 48.858 70.5534 49.59 70.5534 50.49C70.5534 51.39 70.7934 52.104 71.2734 52.632C71.7654 53.16 72.4254 53.424 73.2534 53.424C73.9014 53.424 74.4534 53.262 74.9094 52.938C75.3774 52.614 75.6714 52.17 75.7914 51.606H76.5654C76.4334 52.35 76.0674 52.968 75.4674 53.46C74.8674 53.94 74.1234 54.18 73.2354 54.18ZM78.0114 54V43.866H78.8394V48.636H78.8754C78.8994 48.552 78.9594 48.408 79.0554 48.204C79.1514 48 79.3014 47.784 79.5054 47.556C79.7094 47.316 79.9734 47.112 80.2974 46.944C80.6334 46.776 81.0474 46.692 81.5394 46.692C82.1634 46.692 82.6614 46.806 83.0334 47.034C83.4174 47.25 83.7054 47.538 83.8974 47.898C84.0894 48.258 84.2154 48.654 84.2754 49.086C84.3354 49.518 84.3654 49.95 84.3654 50.382V54H83.5734V50.364C83.5734 49.476 83.4174 48.768 83.1054 48.24C82.7934 47.712 82.2234 47.448 81.3954 47.448C80.8194 47.448 80.3394 47.592 79.9554 47.88C79.5714 48.156 79.2894 48.534 79.1094 49.014C78.9294 49.482 78.8394 49.992 78.8394 50.544V54H78.0114ZM5.04 78.252C3.72 78.252 2.7 77.856 1.98 77.064C1.272 76.26 0.918 75.132 0.918 73.68V67.866H1.746V73.68C1.746 74.952 2.04 75.906 2.628 76.542C3.228 77.166 4.032 77.478 5.04 77.478C6.108 77.478 6.924 77.166 7.488 76.542C8.064 75.918 8.352 74.964 8.352 73.68V67.866H9.162V73.68C9.162 75.156 8.808 76.29 8.1 77.082C7.404 77.862 6.384 78.252 5.04 78.252ZM10.7169 78L14.4969 72.618L11.0949 67.866H12.1209L15.0009 72.042L17.8989 67.866H18.9069L15.5409 72.618L19.3389 78H18.3489L15.0009 73.194L11.6709 78H10.7169ZM34.1917 72.924C34.1917 74.256 33.9397 75.294 33.4357 76.038C32.9437 76.77 32.2477 77.28 31.3477 77.568C30.4477 77.856 29.3977 78 28.1977 78H25.5697V67.866H28.1977C29.3977 67.866 30.4477 68.058 31.3477 68.442C32.2477 68.814 32.9437 69.372 33.4357 70.116C33.9397 70.86 34.1917 71.796 34.1917 72.924ZM26.3977 77.28H28.3417C29.3377 77.28 30.2077 77.166 30.9517 76.938C31.7077 76.71 32.2897 76.284 32.6977 75.66C33.1177 75.036 33.3277 74.124 33.3277 72.924C33.3277 71.94 33.1177 71.13 32.6977 70.494C32.2897 69.846 31.7077 69.372 30.9517 69.072C30.2077 68.76 29.3377 68.604 28.3417 68.604H26.3977V77.28ZM38.712 78.18C37.932 78.18 37.284 77.994 36.768 77.622C36.264 77.25 35.886 76.776 35.634 76.2C35.382 75.612 35.262 75.006 35.274 74.382C35.274 73.734 35.406 73.128 35.67 72.564C35.934 72 36.318 71.55 36.822 71.214C37.338 70.866 37.962 70.692 38.694 70.692C39.606 70.692 40.356 70.992 40.944 71.592C41.544 72.18 41.88 72.972 41.952 73.968C41.964 74.028 41.97 74.1 41.97 74.184C41.97 74.268 41.97 74.346 41.97 74.418H36.066C36.066 75.342 36.294 76.08 36.75 76.632C37.206 77.184 37.86 77.46 38.712 77.46C39.324 77.46 39.852 77.298 40.296 76.974C40.752 76.65 41.034 76.212 41.142 75.66H41.952C41.808 76.404 41.442 77.01 40.854 77.478C40.278 77.946 39.564 78.18 38.712 78.18ZM36.12 73.878H41.124C41.112 73.566 41.022 73.218 40.854 72.834C40.698 72.45 40.44 72.114 40.08 71.826C39.732 71.538 39.27 71.394 38.694 71.394C37.902 71.394 37.296 71.64 36.876 72.132C36.456 72.624 36.204 73.206 36.12 73.878ZM46.2596 78.18C45.6476 78.18 45.1496 78.078 44.7656 77.874C44.3816 77.658 44.0876 77.406 43.8836 77.118C43.6796 76.83 43.5356 76.554 43.4516 76.29C43.3796 76.026 43.3436 75.834 43.3436 75.714H44.1536C44.1536 75.726 44.1596 75.828 44.1716 76.02C44.1956 76.2 44.2676 76.41 44.3876 76.65C44.5076 76.89 44.7116 77.1 44.9996 77.28C45.2996 77.448 45.7256 77.532 46.2776 77.532C46.6616 77.532 47.0216 77.49 47.3576 77.406C47.7056 77.31 47.9816 77.166 48.1856 76.974C48.4016 76.77 48.5096 76.506 48.5096 76.182C48.4976 75.798 48.3716 75.504 48.1316 75.3C47.8916 75.084 47.5796 74.922 47.1956 74.814C46.8116 74.706 46.4096 74.61 45.9896 74.526C45.5696 74.442 45.1676 74.328 44.7836 74.184C44.4116 74.04 44.1056 73.83 43.8656 73.554C43.6376 73.278 43.5296 72.9 43.5416 72.42C43.5416 71.856 43.8056 71.394 44.3336 71.034C44.8616 70.674 45.5396 70.494 46.3676 70.494C46.6796 70.494 47.0036 70.53 47.3396 70.602C47.6876 70.674 48.0116 70.8 48.3116 70.98C48.6116 71.16 48.8516 71.412 49.0316 71.736C49.2116 72.048 49.2896 72.45 49.2656 72.942H48.4736C48.4976 72.57 48.4376 72.27 48.2936 72.042C48.1496 71.802 47.9576 71.622 47.7176 71.502C47.4896 71.382 47.2496 71.304 46.9976 71.268C46.7456 71.22 46.5176 71.196 46.3136 71.196C45.7496 71.196 45.2696 71.304 44.8736 71.52C44.4896 71.724 44.2976 72.03 44.2976 72.438C44.2976 72.81 44.4176 73.092 44.6576 73.284C44.8976 73.464 45.2096 73.608 45.5936 73.716C45.9776 73.812 46.3796 73.908 46.7996 74.004C47.2196 74.088 47.6156 74.208 47.9876 74.364C48.3716 74.508 48.6836 74.724 48.9236 75.012C49.1756 75.3 49.3016 75.702 49.3016 76.218C49.3016 76.674 49.1636 77.052 48.8876 77.352C48.6116 77.64 48.2396 77.85 47.7716 77.982C47.3156 78.114 46.8116 78.18 46.2596 78.18ZM51.3803 69.918C51.1763 69.93 51.0383 69.876 50.9663 69.756C50.8943 69.636 50.8583 69.492 50.8583 69.324C50.8583 69.168 50.8943 69.036 50.9663 68.928C51.0383 68.82 51.1763 68.766 51.3803 68.766C51.5723 68.766 51.7043 68.82 51.7763 68.928C51.8483 69.036 51.8843 69.168 51.8843 69.324C51.8843 69.504 51.8483 69.648 51.7763 69.756C51.7043 69.864 51.5723 69.918 51.3803 69.918ZM50.9483 78V70.692H51.7583V78H50.9483ZM55.1807 80.88V80.106H59.0327V76.218H58.9967C58.9727 76.302 58.9007 76.446 58.7807 76.65C58.6727 76.854 58.5107 77.076 58.2947 77.316C58.0787 77.556 57.7967 77.76 57.4487 77.928C57.1127 78.096 56.7047 78.18 56.2247 78.18C55.5287 78.18 54.9347 78.012 54.4427 77.676C53.9627 77.34 53.5967 76.89 53.3447 76.326C53.0927 75.762 52.9667 75.132 52.9667 74.436C52.9667 73.728 53.0927 73.092 53.3447 72.528C53.6087 71.964 53.9807 71.52 54.4607 71.196C54.9527 70.86 55.5467 70.692 56.2427 70.692C56.7347 70.692 57.1487 70.782 57.4847 70.962C57.8327 71.13 58.1087 71.334 58.3127 71.574C58.5287 71.802 58.6847 72.024 58.7807 72.24C58.8887 72.444 58.9547 72.588 58.9787 72.672H59.0147L59.0327 70.692H59.8787V79.566C59.8787 79.95 59.8067 80.262 59.6627 80.502C59.5307 80.754 59.2487 80.88 58.8167 80.88H55.1807ZM56.3327 77.406C57.0647 77.406 57.6887 77.148 58.2047 76.632C58.7327 76.116 58.9967 75.384 58.9967 74.436C58.9967 73.512 58.7507 72.792 58.2587 72.276C57.7667 71.748 57.1607 71.484 56.4407 71.484C55.8407 71.484 55.3427 71.628 54.9467 71.916C54.5507 72.192 54.2567 72.558 54.0647 73.014C53.8727 73.458 53.7767 73.932 53.7767 74.436C53.7767 74.94 53.8607 75.42 54.0287 75.876C54.2087 76.332 54.4847 76.704 54.8567 76.992C55.2407 77.268 55.7327 77.406 56.3327 77.406ZM61.5047 78V70.71H62.1887L62.3327 72.636H62.3687C62.3927 72.552 62.4527 72.408 62.5487 72.204C62.6447 72 62.7947 71.784 62.9987 71.556C63.2027 71.316 63.4727 71.112 63.8087 70.944C64.1447 70.776 64.5647 70.692 65.0687 70.692C65.6927 70.692 66.1907 70.806 66.5627 71.034C66.9347 71.25 67.2167 71.538 67.4087 71.898C67.6007 72.258 67.7267 72.654 67.7867 73.086C67.8467 73.518 67.8767 73.95 67.8767 74.382V78H67.0667V74.364C67.0667 73.476 66.9107 72.768 66.5987 72.24C66.2987 71.712 65.7347 71.448 64.9067 71.448C64.3187 71.448 63.8327 71.592 63.4487 71.88C63.0767 72.156 62.7947 72.534 62.6027 73.014C62.4227 73.482 62.3327 73.992 62.3327 74.544V78H61.5047ZM5.04 102.252C3.72 102.252 2.7 101.856 1.98 101.064C1.272 100.26 0.918 99.132 0.918 97.68V91.866H1.746V97.68C1.746 98.952 2.04 99.906 2.628 100.542C3.228 101.166 4.032 101.478 5.04 101.478C6.108 101.478 6.924 101.166 7.488 100.542C8.064 99.918 8.352 98.964 8.352 97.68V91.866H9.162V97.68C9.162 99.156 8.808 100.29 8.1 101.082C7.404 101.862 6.384 102.252 5.04 102.252ZM10.7169 102L14.4969 96.618L11.0949 91.866H12.1209L15.0009 96.042L17.8989 91.866H18.9069L15.5409 96.618L19.3389 102H18.3489L15.0009 97.194L11.6709 102H10.7169ZM31.3837 91.866H32.2477L35.2897 101.586L38.3497 91.866H39.2497L35.9737 102H34.6237L31.8157 93L28.8817 102H27.5137L24.3997 91.866H25.2817L28.2157 101.586L31.3837 91.866ZM40.5395 102V94.692H41.2415L41.3495 96.564C41.4695 96.048 41.7515 95.604 42.1955 95.232C42.6395 94.86 43.2635 94.68 44.0675 94.692H44.4635V95.61H44.0675C43.2515 95.61 42.6515 95.742 42.2675 96.006C41.8835 96.258 41.6315 96.6 41.5115 97.032C41.4035 97.464 41.3495 97.944 41.3495 98.472V102H40.5395ZM46.1948 93.918C45.9908 93.93 45.8528 93.876 45.7808 93.756C45.7088 93.636 45.6728 93.492 45.6728 93.324C45.6728 93.168 45.7088 93.036 45.7808 92.928C45.8528 92.82 45.9908 92.766 46.1948 92.766C46.3868 92.766 46.5188 92.82 46.5908 92.928C46.6628 93.036 46.6988 93.168 46.6988 93.324C46.6988 93.504 46.6628 93.648 46.5908 93.756C46.5188 93.864 46.3868 93.918 46.1948 93.918ZM45.7628 102V94.692H46.5728V102H45.7628ZM50.0977 102C49.7137 102 49.4677 101.892 49.3597 101.676C49.2517 101.46 49.1977 101.202 49.1977 100.902V95.358H47.9917V94.692C48.4237 94.692 48.7237 94.668 48.8917 94.62C49.0597 94.56 49.1617 94.398 49.1977 94.134C49.2337 93.87 49.2517 93.426 49.2517 92.802H49.9897V94.692H51.6997V95.358H49.9897V101.298H51.6997V102H50.0977ZM54.0346 93.918C53.8306 93.93 53.6926 93.876 53.6206 93.756C53.5486 93.636 53.5126 93.492 53.5126 93.324C53.5126 93.168 53.5486 93.036 53.6206 92.928C53.6926 92.82 53.8306 92.766 54.0346 92.766C54.2266 92.766 54.3586 92.82 54.4306 92.928C54.5026 93.036 54.5386 93.168 54.5386 93.324C54.5386 93.504 54.5026 93.648 54.4306 93.756C54.3586 93.864 54.2266 93.918 54.0346 93.918ZM53.6026 102V94.692H54.4126V102H53.6026ZM56.161 102V94.71H56.845L56.989 96.636H57.025C57.049 96.552 57.109 96.408 57.205 96.204C57.301 96 57.451 95.784 57.655 95.556C57.859 95.316 58.129 95.112 58.465 94.944C58.801 94.776 59.221 94.692 59.725 94.692C60.349 94.692 60.847 94.806 61.219 95.034C61.591 95.25 61.873 95.538 62.065 95.898C62.257 96.258 62.383 96.654 62.443 97.086C62.503 97.518 62.533 97.95 62.533 98.382V102H61.723V98.364C61.723 97.476 61.567 96.768 61.255 96.24C60.955 95.712 60.391 95.448 59.563 95.448C58.975 95.448 58.489 95.592 58.105 95.88C57.733 96.156 57.451 96.534 57.259 97.014C57.079 97.482 56.989 97.992 56.989 98.544V102H56.161ZM65.6748 104.88V104.106H69.5268V100.218H69.4908C69.4668 100.302 69.3948 100.446 69.2748 100.65C69.1668 100.854 69.0048 101.076 68.7888 101.316C68.5728 101.556 68.2908 101.76 67.9428 101.928C67.6068 102.096 67.1988 102.18 66.7188 102.18C66.0228 102.18 65.4288 102.012 64.9368 101.676C64.4568 101.34 64.0908 100.89 63.8388 100.326C63.5868 99.762 63.4608 99.132 63.4608 98.436C63.4608 97.728 63.5868 97.092 63.8388 96.528C64.1028 95.964 64.4748 95.52 64.9548 95.196C65.4468 94.86 66.0408 94.692 66.7368 94.692C67.2288 94.692 67.6428 94.782 67.9788 94.962C68.3268 95.13 68.6028 95.334 68.8068 95.574C69.0228 95.802 69.1788 96.024 69.2748 96.24C69.3828 96.444 69.4488 96.588 69.4728 96.672H69.5088L69.5268 94.692H70.3728V103.566C70.3728 103.95 70.3008 104.262 70.1568 104.502C70.0248 104.754 69.7428 104.88 69.3108 104.88H65.6748ZM66.8268 101.406C67.5588 101.406 68.1828 101.148 68.6988 100.632C69.2268 100.116 69.4908 99.384 69.4908 98.436C69.4908 97.512 69.2448 96.792 68.7528 96.276C68.2608 95.748 67.6548 95.484 66.9348 95.484C66.3348 95.484 65.8368 95.628 65.4408 95.916C65.0448 96.192 64.7508 96.558 64.5588 97.014C64.3668 97.458 64.2708 97.932 64.2708 98.436C64.2708 98.94 64.3548 99.42 64.5228 99.876C64.7028 100.332 64.9788 100.704 65.3508 100.992C65.7348 101.268 66.2268 101.406 66.8268 101.406Z" fill="black"/>
<path d="M115.22 12.55V10.614H124.79V12.55H121.116V23H118.872V12.55H115.22ZM128.697 23.22C127.671 23.22 126.82 23.022 126.145 22.626C125.471 22.23 124.965 21.6873 124.627 20.998C124.29 20.294 124.121 19.4947 124.121 18.6C124.107 17.2507 124.481 16.1433 125.243 15.278C126.021 14.398 127.172 13.958 128.697 13.958C130.179 13.958 131.301 14.3833 132.063 15.234C132.841 16.0847 133.229 17.2067 133.229 18.6C133.229 19.4653 133.068 20.25 132.745 20.954C132.423 21.658 131.924 22.2153 131.249 22.626C130.575 23.022 129.724 23.22 128.697 23.22ZM128.697 21.328C129.343 21.328 129.834 21.1887 130.171 20.91C130.523 20.6313 130.758 20.2793 130.875 19.854C130.993 19.414 131.051 18.974 131.051 18.534C131.051 18.0793 130.993 17.632 130.875 17.192C130.758 16.752 130.523 16.3927 130.171 16.114C129.834 15.8353 129.343 15.696 128.697 15.696C128.037 15.696 127.531 15.8427 127.179 16.136C126.842 16.4147 126.607 16.774 126.475 17.214C126.358 17.6393 126.299 18.0793 126.299 18.534C126.299 18.974 126.358 19.414 126.475 19.854C126.607 20.2793 126.842 20.6313 127.179 20.91C127.531 21.1887 128.037 21.328 128.697 21.328ZM139.074 23.22C138.048 23.22 137.197 23.022 136.522 22.626C135.848 22.23 135.342 21.6873 135.004 20.998C134.667 20.294 134.498 19.4947 134.498 18.6C134.484 17.2507 134.858 16.1433 135.62 15.278C136.398 14.398 137.549 13.958 139.074 13.958C140.556 13.958 141.678 14.3833 142.44 15.234C143.218 16.0847 143.606 17.2067 143.606 18.6C143.606 19.4653 143.445 20.25 143.122 20.954C142.8 21.658 142.301 22.2153 141.626 22.626C140.952 23.022 140.101 23.22 139.074 23.22ZM139.074 21.328C139.72 21.328 140.211 21.1887 140.548 20.91C140.9 20.6313 141.135 20.2793 141.252 19.854C141.37 19.414 141.428 18.974 141.428 18.534C141.428 18.0793 141.37 17.632 141.252 17.192C141.135 16.752 140.9 16.3927 140.548 16.114C140.211 15.8353 139.72 15.696 139.074 15.696C138.414 15.696 137.908 15.8427 137.556 16.136C137.219 16.4147 136.984 16.774 136.852 17.214C136.735 17.6393 136.676 18.0793 136.676 18.534C136.676 18.974 136.735 19.414 136.852 19.854C136.984 20.2793 137.219 20.6313 137.556 20.91C137.908 21.1887 138.414 21.328 139.074 21.328ZM145.425 23V10.614H147.625V23H145.425ZM153.308 23.22C152.926 23.22 152.501 23.154 152.032 23.022C151.577 22.89 151.137 22.692 150.712 22.428C150.301 22.164 149.956 21.8267 149.678 21.416C149.414 20.9907 149.282 20.492 149.282 19.92H151.35C151.35 19.9493 151.357 20.052 151.372 20.228C151.386 20.3893 151.445 20.58 151.548 20.8C151.665 21.0053 151.856 21.1887 152.12 21.35C152.384 21.5113 152.765 21.592 153.264 21.592C153.85 21.592 154.29 21.4893 154.584 21.284C154.877 21.064 155.024 20.8147 155.024 20.536C155.024 20.2133 154.884 19.964 154.606 19.788C154.342 19.5973 153.997 19.4433 153.572 19.326C153.146 19.2087 152.692 19.0913 152.208 18.974C151.738 18.842 151.291 18.6733 150.866 18.468C150.455 18.2627 150.118 17.984 149.854 17.632C149.59 17.2653 149.458 16.796 149.458 16.224C149.458 15.388 149.795 14.7573 150.47 14.332C151.144 13.892 152.002 13.672 153.044 13.672C153.777 13.672 154.459 13.7893 155.09 14.024C155.72 14.244 156.226 14.6033 156.608 15.102C156.989 15.586 157.18 16.224 157.18 17.016H155.112C155.126 16.5613 155.024 16.224 154.804 16.004C154.598 15.7693 154.334 15.608 154.012 15.52C153.704 15.432 153.403 15.388 153.11 15.388C152.582 15.388 152.178 15.4833 151.9 15.674C151.636 15.85 151.504 16.0847 151.504 16.378C151.504 16.7153 151.636 16.9793 151.9 17.17C152.178 17.346 152.53 17.4927 152.956 17.61C153.396 17.7273 153.85 17.852 154.32 17.984C154.804 18.1013 155.258 18.2627 155.684 18.468C156.124 18.6733 156.476 18.952 156.74 19.304C157.018 19.6413 157.158 20.096 157.158 20.668C157.158 21.5333 156.798 22.1787 156.08 22.604C155.376 23.0147 154.452 23.22 153.308 23.22Z" fill="#131313"/>
<path d="M117.124 54H116.314V43.866H123.208V44.604H117.124V48.222H121.984V48.942H117.124V54ZM124.843 45.918C124.639 45.93 124.501 45.876 124.429 45.756C124.357 45.636 124.321 45.492 124.321 45.324C124.321 45.168 124.357 45.036 124.429 44.928C124.501 44.82 124.639 44.766 124.843 44.766C125.035 44.766 125.167 44.82 125.239 44.928C125.311 45.036 125.347 45.168 125.347 45.324C125.347 45.504 125.311 45.648 125.239 45.756C125.167 45.864 125.035 45.918 124.843 45.918ZM124.411 54V46.692H125.221V54H124.411ZM128.644 56.88V56.106H132.496V52.218H132.46C132.436 52.302 132.364 52.446 132.244 52.65C132.136 52.854 131.974 53.076 131.758 53.316C131.542 53.556 131.26 53.76 130.912 53.928C130.576 54.096 130.168 54.18 129.688 54.18C128.992 54.18 128.398 54.012 127.906 53.676C127.426 53.34 127.06 52.89 126.808 52.326C126.556 51.762 126.43 51.132 126.43 50.436C126.43 49.728 126.556 49.092 126.808 48.528C127.072 47.964 127.444 47.52 127.924 47.196C128.416 46.86 129.01 46.692 129.706 46.692C130.198 46.692 130.612 46.782 130.948 46.962C131.296 47.13 131.572 47.334 131.776 47.574C131.992 47.802 132.148 48.024 132.244 48.24C132.352 48.444 132.418 48.588 132.442 48.672H132.478L132.496 46.692H133.342V55.566C133.342 55.95 133.27 56.262 133.126 56.502C132.994 56.754 132.712 56.88 132.28 56.88H128.644ZM129.796 53.406C130.528 53.406 131.152 53.148 131.668 52.632C132.196 52.116 132.46 51.384 132.46 50.436C132.46 49.512 132.214 48.792 131.722 48.276C131.23 47.748 130.624 47.484 129.904 47.484C129.304 47.484 128.806 47.628 128.41 47.916C128.014 48.192 127.72 48.558 127.528 49.014C127.336 49.458 127.24 49.932 127.24 50.436C127.24 50.94 127.324 51.42 127.492 51.876C127.672 52.332 127.948 52.704 128.32 52.992C128.704 53.268 129.196 53.406 129.796 53.406ZM134.968 54V46.692H135.652L135.724 48.636H135.76C135.796 48.528 135.856 48.372 135.94 48.168C136.036 47.952 136.174 47.736 136.354 47.52C136.534 47.292 136.774 47.1 137.074 46.944C137.374 46.776 137.746 46.692 138.19 46.692C138.67 46.692 139.054 46.788 139.342 46.98C139.642 47.16 139.876 47.4 140.044 47.7C140.212 48 140.332 48.312 140.404 48.636H140.44C140.476 48.528 140.542 48.372 140.638 48.168C140.746 47.952 140.896 47.736 141.088 47.52C141.292 47.292 141.55 47.1 141.862 46.944C142.174 46.776 142.552 46.692 142.996 46.692C143.476 46.692 143.866 46.788 144.166 46.98C144.466 47.172 144.7 47.418 144.868 47.718C145.036 48.006 145.156 48.318 145.228 48.654C145.3 48.99 145.342 49.314 145.354 49.626C145.366 49.926 145.372 50.178 145.372 50.382V54H144.634V50.364C144.634 50.16 144.622 49.902 144.598 49.59C144.586 49.266 144.52 48.942 144.4 48.618C144.292 48.282 144.112 48.006 143.86 47.79C143.608 47.562 143.248 47.448 142.78 47.448C142.264 47.448 141.844 47.592 141.52 47.88C141.196 48.168 140.95 48.546 140.782 49.014C140.626 49.482 140.548 49.992 140.548 50.544V54H139.81V50.364C139.81 50.16 139.798 49.902 139.774 49.59C139.762 49.266 139.696 48.942 139.576 48.618C139.468 48.282 139.288 48.006 139.036 47.79C138.784 47.562 138.424 47.448 137.956 47.448C137.44 47.448 137.02 47.592 136.696 47.88C136.372 48.168 136.126 48.546 135.958 49.014C135.802 49.482 135.724 49.992 135.724 50.544V54H134.968ZM149.46 54.162C148.788 54.162 148.23 53.994 147.786 53.658C147.342 53.322 147.012 52.872 146.796 52.308C146.58 51.732 146.472 51.096 146.472 50.4C146.472 49.68 146.58 49.038 146.796 48.474C147.024 47.898 147.36 47.448 147.804 47.124C148.248 46.788 148.8 46.62 149.46 46.62C150.168 46.62 150.732 46.794 151.152 47.142C151.572 47.478 151.872 47.868 152.052 48.312H152.088V46.692H152.916V54H152.232L152.088 52.488H152.052C151.86 52.932 151.554 53.322 151.134 53.658C150.714 53.994 150.156 54.162 149.46 54.162ZM149.766 53.406C150.534 53.406 151.11 53.142 151.494 52.614C151.878 52.086 152.07 51.354 152.07 50.418C152.07 49.422 151.866 48.672 151.458 48.168C151.062 47.664 150.498 47.412 149.766 47.412C148.914 47.412 148.29 47.7 147.894 48.276C147.498 48.84 147.3 49.548 147.3 50.4C147.3 51.288 147.504 52.014 147.912 52.578C148.32 53.13 148.938 53.406 149.766 53.406ZM117.124 78H116.314V67.866H123.208V68.604H117.124V72.222H121.984V72.942H117.124V78ZM124.843 69.918C124.639 69.93 124.501 69.876 124.429 69.756C124.357 69.636 124.321 69.492 124.321 69.324C124.321 69.168 124.357 69.036 124.429 68.928C124.501 68.82 124.639 68.766 124.843 68.766C125.035 68.766 125.167 68.82 125.239 68.928C125.311 69.036 125.347 69.168 125.347 69.324C125.347 69.504 125.311 69.648 125.239 69.756C125.167 69.864 125.035 69.918 124.843 69.918ZM124.411 78V70.692H125.221V78H124.411ZM128.644 80.88V80.106H132.496V76.218H132.46C132.436 76.302 132.364 76.446 132.244 76.65C132.136 76.854 131.974 77.076 131.758 77.316C131.542 77.556 131.26 77.76 130.912 77.928C130.576 78.096 130.168 78.18 129.688 78.18C128.992 78.18 128.398 78.012 127.906 77.676C127.426 77.34 127.06 76.89 126.808 76.326C126.556 75.762 126.43 75.132 126.43 74.436C126.43 73.728 126.556 73.092 126.808 72.528C127.072 71.964 127.444 71.52 127.924 71.196C128.416 70.86 129.01 70.692 129.706 70.692C130.198 70.692 130.612 70.782 130.948 70.962C131.296 71.13 131.572 71.334 131.776 71.574C131.992 71.802 132.148 72.024 132.244 72.24C132.352 72.444 132.418 72.588 132.442 72.672H132.478L132.496 70.692H133.342V79.566C133.342 79.95 133.27 80.262 133.126 80.502C132.994 80.754 132.712 80.88 132.28 80.88H128.644ZM129.796 77.406C130.528 77.406 131.152 77.148 131.668 76.632C132.196 76.116 132.46 75.384 132.46 74.436C132.46 73.512 132.214 72.792 131.722 72.276C131.23 71.748 130.624 71.484 129.904 71.484C129.304 71.484 128.806 71.628 128.41 71.916C128.014 72.192 127.72 72.558 127.528 73.014C127.336 73.458 127.24 73.932 127.24 74.436C127.24 74.94 127.324 75.42 127.492 75.876C127.672 76.332 127.948 76.704 128.32 76.992C128.704 77.268 129.196 77.406 129.796 77.406ZM136.03 69.72C135.814 69.72 135.67 69.666 135.598 69.558C135.538 69.438 135.508 69.288 135.508 69.108C135.508 68.952 135.538 68.82 135.598 68.712C135.67 68.592 135.814 68.532 136.03 68.532C136.234 68.532 136.366 68.592 136.426 68.712C136.498 68.82 136.534 68.952 136.534 69.108C136.534 69.288 136.498 69.438 136.426 69.558C136.366 69.666 136.234 69.72 136.03 69.72ZM135.598 70.692H136.426V79.782C136.426 80.082 136.366 80.34 136.246 80.556C136.138 80.772 135.898 80.88 135.526 80.88H134.338V80.178H135.598V70.692ZM140.653 78.162C139.981 78.162 139.423 77.994 138.979 77.658C138.535 77.322 138.205 76.872 137.989 76.308C137.773 75.732 137.665 75.096 137.665 74.4C137.665 73.68 137.773 73.038 137.989 72.474C138.217 71.898 138.553 71.448 138.997 71.124C139.441 70.788 139.993 70.62 140.653 70.62C141.361 70.62 141.925 70.794 142.345 71.142C142.765 71.478 143.065 71.868 143.245 72.312H143.281V70.692H144.109V78H143.425L143.281 76.488H143.245C143.053 76.932 142.747 77.322 142.327 77.658C141.907 77.994 141.349 78.162 140.653 78.162ZM140.959 77.406C141.727 77.406 142.303 77.142 142.687 76.614C143.071 76.086 143.263 75.354 143.263 74.418C143.263 73.422 143.059 72.672 142.651 72.168C142.255 71.664 141.691 71.412 140.959 71.412C140.107 71.412 139.483 71.7 139.087 72.276C138.691 72.84 138.493 73.548 138.493 74.4C138.493 75.288 138.697 76.014 139.105 76.578C139.513 77.13 140.131 77.406 140.959 77.406ZM145.497 78V70.692H146.181L146.253 72.636H146.289C146.325 72.528 146.385 72.372 146.469 72.168C146.565 71.952 146.703 71.736 146.883 71.52C147.063 71.292 147.303 71.1 147.603 70.944C147.903 70.776 148.275 70.692 148.719 70.692C149.199 70.692 149.583 70.788 149.871 70.98C150.171 71.16 150.405 71.4 150.573 71.7C150.741 72 150.861 72.312 150.933 72.636H150.969C151.005 72.528 151.071 72.372 151.167 72.168C151.275 71.952 151.425 71.736 151.617 71.52C151.821 71.292 152.079 71.1 152.391 70.944C152.703 70.776 153.081 70.692 153.525 70.692C154.005 70.692 154.395 70.788 154.695 70.98C154.995 71.172 155.229 71.418 155.397 71.718C155.565 72.006 155.685 72.318 155.757 72.654C155.829 72.99 155.871 73.314 155.883 73.626C155.895 73.926 155.901 74.178 155.901 74.382V78H155.163V74.364C155.163 74.16 155.151 73.902 155.127 73.59C155.115 73.266 155.049 72.942 154.929 72.618C154.821 72.282 154.641 72.006 154.389 71.79C154.137 71.562 153.777 71.448 153.309 71.448C152.793 71.448 152.373 71.592 152.049 71.88C151.725 72.168 151.479 72.546 151.311 73.014C151.155 73.482 151.077 73.992 151.077 74.544V78H150.339V74.364C150.339 74.16 150.327 73.902 150.303 73.59C150.291 73.266 150.225 72.942 150.105 72.618C149.997 72.282 149.817 72.006 149.565 71.79C149.313 71.562 148.953 71.448 148.485 71.448C147.969 71.448 147.549 71.592 147.225 71.88C146.901 72.168 146.655 72.546 146.487 73.014C146.331 73.482 146.253 73.992 146.253 74.544V78H145.497ZM115.594 102V101.298L122.776 92.604H116.224V91.866H123.82V92.568L116.674 101.244H123.766V102H115.594ZM128.557 102.18C127.417 102.18 126.559 101.832 125.983 101.136C125.419 100.428 125.137 99.534 125.137 98.454C125.137 97.35 125.425 96.45 126.001 95.754C126.577 95.046 127.429 94.692 128.557 94.692C129.661 94.692 130.501 95.04 131.077 95.736C131.665 96.42 131.959 97.326 131.959 98.454C131.959 99.162 131.833 99.798 131.581 100.362C131.341 100.914 130.969 101.358 130.465 101.694C129.973 102.018 129.337 102.18 128.557 102.18ZM128.557 101.442C129.229 101.442 129.751 101.292 130.123 100.992C130.495 100.692 130.753 100.314 130.897 99.858C131.053 99.39 131.131 98.916 131.131 98.436C131.131 97.944 131.053 97.47 130.897 97.014C130.753 96.546 130.495 96.162 130.123 95.862C129.751 95.55 129.229 95.394 128.557 95.394C127.885 95.394 127.363 95.55 126.991 95.862C126.619 96.162 126.355 96.546 126.199 97.014C126.043 97.47 125.965 97.944 125.965 98.436C125.965 98.916 126.043 99.39 126.199 99.858C126.355 100.314 126.619 100.692 126.991 100.992C127.363 101.292 127.885 101.442 128.557 101.442ZM136.66 102.18C135.52 102.18 134.662 101.832 134.086 101.136C133.522 100.428 133.24 99.534 133.24 98.454C133.24 97.35 133.528 96.45 134.104 95.754C134.68 95.046 135.532 94.692 136.66 94.692C137.764 94.692 138.604 95.04 139.18 95.736C139.768 96.42 140.062 97.326 140.062 98.454C140.062 99.162 139.936 99.798 139.684 100.362C139.444 100.914 139.072 101.358 138.568 101.694C138.076 102.018 137.44 102.18 136.66 102.18ZM136.66 101.442C137.332 101.442 137.854 101.292 138.226 100.992C138.598 100.692 138.856 100.314 139 99.858C139.156 99.39 139.234 98.916 139.234 98.436C139.234 97.944 139.156 97.47 139 97.014C138.856 96.546 138.598 96.162 138.226 95.862C137.854 95.55 137.332 95.394 136.66 95.394C135.988 95.394 135.466 95.55 135.094 95.862C134.722 96.162 134.458 96.546 134.302 97.014C134.146 97.47 134.068 97.944 134.068 98.436C134.068 98.916 134.146 99.39 134.302 99.858C134.458 100.314 134.722 100.692 135.094 100.992C135.466 101.292 135.988 101.442 136.66 101.442ZM141.542 102V94.692H142.226L142.298 96.636H142.334C142.37 96.528 142.43 96.372 142.514 96.168C142.61 95.952 142.748 95.736 142.928 95.52C143.108 95.292 143.348 95.1 143.648 94.944C143.948 94.776 144.32 94.692 144.764 94.692C145.244 94.692 145.628 94.788 145.916 94.98C146.216 95.16 146.45 95.4 146.618 95.7C146.786 96 146.906 96.312 146.978 96.636H147.014C147.05 96.528 147.116 96.372 147.212 96.168C147.32 95.952 147.47 95.736 147.662 95.52C147.866 95.292 148.124 95.1 148.436 94.944C148.748 94.776 149.126 94.692 149.57 94.692C150.05 94.692 150.44 94.788 150.74 94.98C151.04 95.172 151.274 95.418 151.442 95.718C151.61 96.006 151.73 96.318 151.802 96.654C151.874 96.99 151.916 97.314 151.928 97.626C151.94 97.926 151.946 98.178 151.946 98.382V102H151.208V98.364C151.208 98.16 151.196 97.902 151.172 97.59C151.16 97.266 151.094 96.942 150.974 96.618C150.866 96.282 150.686 96.006 150.434 95.79C150.182 95.562 149.822 95.448 149.354 95.448C148.838 95.448 148.418 95.592 148.094 95.88C147.77 96.168 147.524 96.546 147.356 97.014C147.2 97.482 147.122 97.992 147.122 98.544V102H146.384V98.364C146.384 98.16 146.372 97.902 146.348 97.59C146.336 97.266 146.27 96.942 146.15 96.618C146.042 96.282 145.862 96.006 145.61 95.79C145.358 95.562 144.998 95.448 144.53 95.448C144.014 95.448 143.594 95.592 143.27 95.88C142.946 96.168 142.7 96.546 142.532 97.014C142.376 97.482 142.298 97.992 142.298 98.544V102H141.542Z" fill="black"/>
<path d="M183.22 12.198V10.614H192.68V12.198H188.874V23H187.048V12.198H183.22ZM194.63 13.012C194.234 13.0267 193.97 12.9313 193.838 12.726C193.706 12.5207 193.64 12.264 193.64 11.956C193.64 11.692 193.706 11.4573 193.838 11.252C193.97 11.0467 194.234 10.944 194.63 10.944C195.011 10.944 195.268 11.0467 195.4 11.252C195.547 11.4573 195.62 11.692 195.62 11.956C195.62 12.264 195.547 12.5207 195.4 12.726C195.268 12.9167 195.011 13.012 194.63 13.012ZM193.706 23V14.002H195.532V23H193.706ZM197.565 23V14.002H199.149L199.193 16.092H199.237C199.266 16.0187 199.325 15.872 199.413 15.652C199.515 15.432 199.669 15.1973 199.875 14.948C200.095 14.684 200.381 14.464 200.733 14.288C201.085 14.0973 201.517 14.002 202.031 14.002C202.808 14.002 203.38 14.2147 203.747 14.64C204.128 15.0507 204.399 15.5347 204.561 16.092H204.605C204.619 16.0187 204.685 15.872 204.803 15.652C204.92 15.432 205.089 15.1973 205.309 14.948C205.543 14.684 205.844 14.464 206.211 14.288C206.577 14.0973 207.025 14.002 207.553 14.002C208.125 14.002 208.587 14.1193 208.939 14.354C209.305 14.5887 209.584 14.8967 209.775 15.278C209.98 15.6447 210.119 16.0407 210.193 16.466C210.281 16.8767 210.332 17.2727 210.347 17.654C210.361 18.0353 210.369 18.3507 210.369 18.6V23H208.807V18.578C208.807 18.358 208.792 18.0867 208.763 17.764C208.748 17.4267 208.682 17.0967 208.565 16.774C208.462 16.4367 208.279 16.1653 208.015 15.96C207.765 15.74 207.406 15.63 206.937 15.63C206.379 15.63 205.947 15.7767 205.639 16.07C205.331 16.3633 205.111 16.752 204.979 17.236C204.847 17.7053 204.781 18.1967 204.781 18.71V23H203.219V18.578C203.219 18.358 203.204 18.0867 203.175 17.764C203.16 17.4267 203.094 17.0967 202.977 16.774C202.874 16.4367 202.691 16.1653 202.427 15.96C202.177 15.74 201.818 15.63 201.349 15.63C200.791 15.63 200.359 15.7767 200.051 16.07C199.743 16.3633 199.523 16.752 199.391 17.236C199.259 17.7053 199.193 18.1967 199.193 18.71V23H197.565ZM216.224 23.22C215.212 23.22 214.383 23 213.738 22.56C213.093 22.1053 212.616 21.526 212.308 20.822C212 20.118 211.846 19.3773 211.846 18.6C211.831 17.7347 211.993 16.95 212.33 16.246C212.682 15.542 213.181 14.9847 213.826 14.574C214.486 14.1633 215.271 13.958 216.18 13.958C216.957 13.958 217.654 14.134 218.27 14.486C218.901 14.8233 219.399 15.3073 219.766 15.938C220.133 16.554 220.331 17.2873 220.36 18.138C220.36 18.182 220.36 18.27 220.36 18.402C220.375 18.5193 220.382 18.622 220.382 18.71H213.584C213.584 19.6487 213.811 20.382 214.266 20.91C214.735 21.4233 215.381 21.68 216.202 21.68C216.818 21.68 217.339 21.526 217.764 21.218C218.204 20.8953 218.475 20.47 218.578 19.942H220.36C220.228 20.8807 219.803 21.6653 219.084 22.296C218.365 22.912 217.412 23.22 216.224 23.22ZM213.65 17.808H218.534C218.519 17.6467 218.475 17.434 218.402 17.17C218.329 16.906 218.204 16.6493 218.028 16.4C217.867 16.136 217.632 15.916 217.324 15.74C217.016 15.564 216.62 15.476 216.136 15.476C215.535 15.476 215.058 15.608 214.706 15.872C214.369 16.1213 214.112 16.4293 213.936 16.796C213.775 17.148 213.679 17.4853 213.65 17.808ZM222.407 23V10.614H224.211V23H222.407ZM227.437 13.012C227.041 13.0267 226.777 12.9313 226.645 12.726C226.513 12.5207 226.447 12.264 226.447 11.956C226.447 11.692 226.513 11.4573 226.645 11.252C226.777 11.0467 227.041 10.944 227.437 10.944C227.818 10.944 228.075 11.0467 228.207 11.252C228.353 11.4573 228.427 11.692 228.427 11.956C228.427 12.264 228.353 12.5207 228.207 12.726C228.075 12.9167 227.818 13.012 227.437 13.012ZM226.513 23V14.002H228.339V23H226.513ZM230.371 23V14.024H231.933L232.241 16.092H232.285C232.3 16.0333 232.358 15.894 232.461 15.674C232.564 15.454 232.732 15.2193 232.967 14.97C233.202 14.706 233.517 14.4787 233.913 14.288C234.309 14.0973 234.808 14.002 235.409 14.002C236.201 14.002 236.817 14.156 237.257 14.464C237.697 14.7573 238.02 15.146 238.225 15.63C238.43 16.0993 238.555 16.598 238.599 17.126C238.658 17.654 238.687 18.1453 238.687 18.6V23H236.905V18.578C236.905 18.0207 236.846 17.522 236.729 17.082C236.612 16.6273 236.392 16.2753 236.069 16.026C235.761 15.762 235.306 15.63 234.705 15.63C234.089 15.63 233.598 15.7767 233.231 16.07C232.864 16.3633 232.608 16.7447 232.461 17.214C232.314 17.6833 232.241 18.182 232.241 18.71V23H230.371ZM244.54 23.22C243.528 23.22 242.7 23 242.054 22.56C241.409 22.1053 240.932 21.526 240.624 20.822C240.316 20.118 240.162 19.3773 240.162 18.6C240.148 17.7347 240.309 16.95 240.646 16.246C240.998 15.542 241.497 14.9847 242.142 14.574C242.802 14.1633 243.587 13.958 244.496 13.958C245.274 13.958 245.97 14.134 246.586 14.486C247.217 14.8233 247.716 15.3073 248.082 15.938C248.449 16.554 248.647 17.2873 248.676 18.138C248.676 18.182 248.676 18.27 248.676 18.402C248.691 18.5193 248.698 18.622 248.698 18.71H241.9C241.9 19.6487 242.128 20.382 242.582 20.91C243.052 21.4233 243.697 21.68 244.518 21.68C245.134 21.68 245.655 21.526 246.08 21.218C246.52 20.8953 246.792 20.47 246.894 19.942H248.676C248.544 20.8807 248.119 21.6653 247.4 22.296C246.682 22.912 245.728 23.22 244.54 23.22ZM241.966 17.808H246.85C246.836 17.6467 246.792 17.434 246.718 17.17C246.645 16.906 246.52 16.6493 246.344 16.4C246.183 16.136 245.948 15.916 245.64 15.74C245.332 15.564 244.936 15.476 244.452 15.476C243.851 15.476 243.374 15.608 243.022 15.872C242.685 16.1213 242.428 16.4293 242.252 16.796C242.091 17.148 241.996 17.4853 241.966 17.808ZM267.675 23.044C267.132 22.824 266.619 22.5893 266.135 22.34C265.666 22.076 265.167 21.768 264.639 21.416C264.038 22.0027 263.348 22.4427 262.571 22.736C261.794 23.0293 261.002 23.1833 260.195 23.198C259.403 23.2127 258.67 23.088 257.995 22.824C257.32 22.5453 256.77 22.1347 256.345 21.592C255.934 21.0347 255.729 20.3453 255.729 19.524C255.729 18.952 255.839 18.468 256.059 18.072C256.279 17.676 256.55 17.3533 256.873 17.104C257.196 16.84 257.518 16.6273 257.841 16.466C258.164 16.29 258.42 16.1507 258.611 16.048C258.494 15.8867 258.325 15.6667 258.105 15.388C257.9 15.1093 257.709 14.7867 257.533 14.42C257.372 14.0387 257.291 13.6133 257.291 13.144C257.291 12.5573 257.445 12.066 257.753 11.67C258.061 11.2593 258.464 10.9513 258.963 10.746C259.462 10.5407 259.99 10.438 260.547 10.438C261.104 10.4233 261.632 10.5113 262.131 10.702C262.63 10.8927 263.033 11.186 263.341 11.582C263.664 11.9633 263.825 12.4473 263.825 13.034C263.825 13.5327 263.693 13.98 263.429 14.376C263.18 14.7573 262.872 15.0873 262.505 15.366C262.153 15.6447 261.823 15.8647 261.515 16.026C261.222 16.1873 261.031 16.29 260.943 16.334C261.104 16.5393 261.339 16.8107 261.647 17.148C261.97 17.4707 262.336 17.8153 262.747 18.182C263.172 18.534 263.605 18.8713 264.045 19.194C264.206 18.9447 264.36 18.6147 264.507 18.204C264.654 17.7933 264.72 17.3753 264.705 16.95C264.705 16.5247 264.558 16.158 264.265 15.85L265.805 14.816C265.922 14.992 266.047 15.2707 266.179 15.652C266.326 16.0333 266.421 16.4807 266.465 16.994C266.524 17.5073 266.494 18.0427 266.377 18.6C266.26 19.1573 266.018 19.6927 265.651 20.206C266.076 20.4993 266.487 20.7633 266.883 20.998C267.294 21.218 267.785 21.438 268.357 21.658L267.675 23.044ZM259.931 15.476C260.034 15.432 260.21 15.344 260.459 15.212C260.708 15.08 260.965 14.9187 261.229 14.728C261.493 14.5373 261.72 14.3247 261.911 14.09C262.116 13.8407 262.226 13.5767 262.241 13.298C262.27 12.9167 262.175 12.616 261.955 12.396C261.735 12.1613 261.456 12.0073 261.119 11.934C260.796 11.846 260.466 11.846 260.129 11.934C259.792 12.0073 259.506 12.1613 259.271 12.396C259.051 12.616 258.941 12.924 258.941 13.32C258.956 13.9507 259.286 14.6693 259.931 15.476ZM263.209 20.382C262.549 19.8833 261.896 19.326 261.251 18.71C260.606 18.094 260.056 17.5 259.601 16.928C259.058 17.192 258.582 17.5 258.171 17.852C257.76 18.204 257.555 18.688 257.555 19.304C257.555 19.9493 257.753 20.4627 258.149 20.844C258.56 21.2107 259.073 21.4453 259.689 21.548C260.305 21.6507 260.928 21.6067 261.559 21.416C262.204 21.2253 262.754 20.8807 263.209 20.382ZM273.949 12.198V10.614H283.409V12.198H279.603V23H277.777V12.198H273.949ZM287.101 23.22C286.089 23.22 285.26 23 284.615 22.56C283.97 22.1053 283.493 21.526 283.185 20.822C282.877 20.118 282.723 19.3773 282.723 18.6C282.708 17.7347 282.87 16.95 283.207 16.246C283.559 15.542 284.058 14.9847 284.703 14.574C285.363 14.1633 286.148 13.958 287.057 13.958C287.834 13.958 288.531 14.134 289.147 14.486C289.778 14.8233 290.276 15.3073 290.643 15.938C291.01 16.554 291.208 17.2873 291.237 18.138C291.237 18.182 291.237 18.27 291.237 18.402C291.252 18.5193 291.259 18.622 291.259 18.71H284.461C284.461 19.6487 284.688 20.382 285.143 20.91C285.612 21.4233 286.258 21.68 287.079 21.68C287.695 21.68 288.216 21.526 288.641 21.218C289.081 20.8953 289.352 20.47 289.455 19.942H291.237C291.105 20.8807 290.68 21.6653 289.961 22.296C289.242 22.912 288.289 23.22 287.101 23.22ZM284.527 17.808H289.411C289.396 17.6467 289.352 17.434 289.279 17.17C289.206 16.906 289.081 16.6493 288.905 16.4C288.744 16.136 288.509 15.916 288.201 15.74C287.893 15.564 287.497 15.476 287.013 15.476C286.412 15.476 285.935 15.608 285.583 15.872C285.246 16.1213 284.989 16.4293 284.813 16.796C284.652 17.148 284.556 17.4853 284.527 17.808ZM296.144 23.198C295.308 23.198 294.633 23.0073 294.12 22.626C293.606 22.23 293.225 21.6873 292.976 20.998C292.741 20.294 292.624 19.4947 292.624 18.6C292.624 17.236 292.902 16.1213 293.46 15.256C294.017 14.376 294.912 13.936 296.144 13.936C296.804 13.936 297.339 14.0533 297.75 14.288C298.16 14.5227 298.476 14.7867 298.696 15.08C298.93 15.3733 299.092 15.63 299.18 15.85H299.224V14.002H301.094V23H299.532L299.224 21.394H299.18C299.092 21.614 298.93 21.8707 298.696 22.164C298.461 22.4427 298.138 22.6847 297.728 22.89C297.317 23.0953 296.789 23.198 296.144 23.198ZM296.87 21.636C297.735 21.636 298.336 21.3573 298.674 20.8C299.026 20.2427 299.202 19.5167 299.202 18.622C299.202 17.6833 299.018 16.9427 298.652 16.4C298.3 15.8573 297.706 15.586 296.87 15.586C296.254 15.586 295.77 15.7253 295.418 16.004C295.066 16.268 294.809 16.6273 294.648 17.082C294.501 17.5367 294.428 18.0427 294.428 18.6C294.428 19.4653 294.611 20.1913 294.978 20.778C295.344 21.35 295.975 21.636 296.87 21.636ZM302.709 23V14.002H304.293L304.337 16.092H304.381C304.41 16.0187 304.469 15.872 304.557 15.652C304.66 15.432 304.814 15.1973 305.019 14.948C305.239 14.684 305.525 14.464 305.877 14.288C306.229 14.0973 306.662 14.002 307.175 14.002C307.952 14.002 308.524 14.2147 308.891 14.64C309.272 15.0507 309.544 15.5347 309.705 16.092H309.749C309.764 16.0187 309.83 15.872 309.947 15.652C310.064 15.432 310.233 15.1973 310.453 14.948C310.688 14.684 310.988 14.464 311.355 14.288C311.722 14.0973 312.169 14.002 312.697 14.002C313.269 14.002 313.731 14.1193 314.083 14.354C314.45 14.5887 314.728 14.8967 314.919 15.278C315.124 15.6447 315.264 16.0407 315.337 16.466C315.425 16.8767 315.476 17.2727 315.491 17.654C315.506 18.0353 315.513 18.3507 315.513 18.6V23H313.951V18.578C313.951 18.358 313.936 18.0867 313.907 17.764C313.892 17.4267 313.826 17.0967 313.709 16.774C313.606 16.4367 313.423 16.1653 313.159 15.96C312.91 15.74 312.55 15.63 312.081 15.63C311.524 15.63 311.091 15.7767 310.783 16.07C310.475 16.3633 310.255 16.752 310.123 17.236C309.991 17.7053 309.925 18.1967 309.925 18.71V23H308.363V18.578C308.363 18.358 308.348 18.0867 308.319 17.764C308.304 17.4267 308.238 17.0967 308.121 16.774C308.018 16.4367 307.835 16.1653 307.571 15.96C307.322 15.74 306.962 15.63 306.493 15.63C305.936 15.63 305.503 15.7767 305.195 16.07C304.887 16.3633 304.667 16.752 304.535 17.236C304.403 17.7053 304.337 18.1967 304.337 18.71V23H302.709Z" fill="#131313"/>
<path d="M187.86 53.262V54H184.044V53.262H185.61V45.36C185.442 45.816 185.196 46.152 184.872 46.368C184.56 46.572 184.26 46.71 183.972 46.782C183.696 46.842 183.516 46.872 183.432 46.872V46.044C183.504 46.044 183.654 46.02 183.882 45.972C184.11 45.912 184.362 45.804 184.638 45.648C184.914 45.492 185.148 45.27 185.34 44.982C185.544 44.694 185.652 44.322 185.664 43.866H186.384V53.262H187.86ZM193.651 54V46.692H194.335L194.407 48.636H194.443C194.479 48.528 194.539 48.372 194.623 48.168C194.719 47.952 194.857 47.736 195.037 47.52C195.217 47.292 195.457 47.1 195.757 46.944C196.057 46.776 196.429 46.692 196.873 46.692C197.353 46.692 197.737 46.788 198.025 46.98C198.325 47.16 198.559 47.4 198.727 47.7C198.895 48 199.015 48.312 199.087 48.636H199.123C199.159 48.528 199.225 48.372 199.321 48.168C199.429 47.952 199.579 47.736 199.771 47.52C199.975 47.292 200.233 47.1 200.545 46.944C200.857 46.776 201.235 46.692 201.679 46.692C202.159 46.692 202.549 46.788 202.849 46.98C203.149 47.172 203.383 47.418 203.551 47.718C203.719 48.006 203.839 48.318 203.911 48.654C203.983 48.99 204.025 49.314 204.037 49.626C204.049 49.926 204.055 50.178 204.055 50.382V54H203.317V50.364C203.317 50.16 203.305 49.902 203.281 49.59C203.269 49.266 203.203 48.942 203.083 48.618C202.975 48.282 202.795 48.006 202.543 47.79C202.291 47.562 201.931 47.448 201.463 47.448C200.947 47.448 200.527 47.592 200.203 47.88C199.879 48.168 199.633 48.546 199.465 49.014C199.309 49.482 199.231 49.992 199.231 50.544V54H198.493V50.364C198.493 50.16 198.481 49.902 198.457 49.59C198.445 49.266 198.379 48.942 198.259 48.618C198.151 48.282 197.971 48.006 197.719 47.79C197.467 47.562 197.107 47.448 196.639 47.448C196.123 47.448 195.703 47.592 195.379 47.88C195.055 48.168 194.809 48.546 194.641 49.014C194.485 49.482 194.407 49.992 194.407 50.544V54H193.651ZM208.774 54.18C207.634 54.18 206.776 53.832 206.2 53.136C205.636 52.428 205.354 51.534 205.354 50.454C205.354 49.35 205.642 48.45 206.218 47.754C206.794 47.046 207.646 46.692 208.774 46.692C209.878 46.692 210.718 47.04 211.294 47.736C211.882 48.42 212.176 49.326 212.176 50.454C212.176 51.162 212.05 51.798 211.798 52.362C211.558 52.914 211.186 53.358 210.682 53.694C210.19 54.018 209.554 54.18 208.774 54.18ZM208.774 53.442C209.446 53.442 209.968 53.292 210.34 52.992C210.712 52.692 210.97 52.314 211.114 51.858C211.27 51.39 211.348 50.916 211.348 50.436C211.348 49.944 211.27 49.47 211.114 49.014C210.97 48.546 210.712 48.162 210.34 47.862C209.968 47.55 209.446 47.394 208.774 47.394C208.102 47.394 207.58 47.55 207.208 47.862C206.836 48.162 206.572 48.546 206.416 49.014C206.26 49.47 206.182 49.944 206.182 50.436C206.182 50.916 206.26 51.39 206.416 51.858C206.572 52.314 206.836 52.692 207.208 52.992C207.58 53.292 208.102 53.442 208.774 53.442ZM213.655 54V46.71H214.339L214.483 48.636H214.519C214.543 48.552 214.603 48.408 214.699 48.204C214.795 48 214.945 47.784 215.149 47.556C215.353 47.316 215.623 47.112 215.959 46.944C216.295 46.776 216.715 46.692 217.219 46.692C217.843 46.692 218.341 46.806 218.713 47.034C219.085 47.25 219.367 47.538 219.559 47.898C219.751 48.258 219.877 48.654 219.937 49.086C219.997 49.518 220.027 49.95 220.027 50.382V54H219.217V50.364C219.217 49.476 219.061 48.768 218.749 48.24C218.449 47.712 217.885 47.448 217.057 47.448C216.469 47.448 215.983 47.592 215.599 47.88C215.227 48.156 214.945 48.534 214.753 49.014C214.573 49.482 214.483 49.992 214.483 50.544V54H213.655ZM223.043 54C222.659 54 222.413 53.892 222.305 53.676C222.197 53.46 222.143 53.202 222.143 52.902V47.358H220.937V46.692C221.369 46.692 221.669 46.668 221.837 46.62C222.005 46.56 222.107 46.398 222.143 46.134C222.179 45.87 222.197 45.426 222.197 44.802H222.935V46.692H224.645V47.358H222.935V53.298H224.645V54H223.043ZM226.242 54V43.866H227.07V48.636H227.106C227.13 48.552 227.19 48.408 227.286 48.204C227.382 48 227.532 47.784 227.736 47.556C227.94 47.316 228.204 47.112 228.528 46.944C228.864 46.776 229.278 46.692 229.77 46.692C230.394 46.692 230.892 46.806 231.264 47.034C231.648 47.25 231.936 47.538 232.128 47.898C232.32 48.258 232.446 48.654 232.506 49.086C232.566 49.518 232.596 49.95 232.596 50.382V54H231.804V50.364C231.804 49.476 231.648 48.768 231.336 48.24C231.024 47.712 230.454 47.448 229.626 47.448C229.05 47.448 228.57 47.592 228.186 47.88C227.802 48.156 227.52 48.534 227.34 49.014C227.16 49.482 227.07 49.992 227.07 50.544V54H226.242ZM240.094 54C239.71 54 239.464 53.892 239.356 53.676C239.248 53.46 239.194 53.202 239.194 52.902V47.358H237.988V46.692C238.42 46.692 238.72 46.668 238.888 46.62C239.056 46.56 239.158 46.398 239.194 46.134C239.23 45.87 239.248 45.426 239.248 44.802H239.986V46.692H241.696V47.358H239.986V53.298H241.696V54H240.094ZM246.18 54.18C245.04 54.18 244.182 53.832 243.606 53.136C243.042 52.428 242.76 51.534 242.76 50.454C242.76 49.35 243.048 48.45 243.624 47.754C244.2 47.046 245.052 46.692 246.18 46.692C247.284 46.692 248.124 47.04 248.7 47.736C249.288 48.42 249.582 49.326 249.582 50.454C249.582 51.162 249.456 51.798 249.204 52.362C248.964 52.914 248.592 53.358 248.088 53.694C247.596 54.018 246.96 54.18 246.18 54.18ZM246.18 53.442C246.852 53.442 247.374 53.292 247.746 52.992C248.118 52.692 248.376 52.314 248.52 51.858C248.676 51.39 248.754 50.916 248.754 50.436C248.754 49.944 248.676 49.47 248.52 49.014C248.376 48.546 248.118 48.162 247.746 47.862C247.374 47.55 246.852 47.394 246.18 47.394C245.508 47.394 244.986 47.55 244.614 47.862C244.242 48.162 243.978 48.546 243.822 49.014C243.666 49.47 243.588 49.944 243.588 50.436C243.588 50.916 243.666 51.39 243.822 51.858C243.978 52.314 244.242 52.692 244.614 52.992C244.986 53.292 245.508 53.442 246.18 53.442ZM258.911 54.18C258.215 54.18 257.621 54.018 257.129 53.694C256.649 53.358 256.283 52.908 256.031 52.344C255.779 51.768 255.653 51.132 255.653 50.436C255.653 49.728 255.779 49.092 256.031 48.528C256.295 47.964 256.667 47.52 257.147 47.196C257.639 46.86 258.233 46.692 258.929 46.692C259.433 46.692 259.853 46.782 260.189 46.962C260.525 47.13 260.795 47.334 260.999 47.574C261.215 47.802 261.377 48.024 261.485 48.24C261.593 48.444 261.659 48.588 261.683 48.672H261.719L261.737 43.866H262.565V54H261.881L261.737 52.218H261.701C261.665 52.302 261.587 52.446 261.467 52.65C261.359 52.854 261.197 53.076 260.981 53.316C260.765 53.556 260.483 53.76 260.135 53.928C259.799 54.096 259.391 54.18 258.911 54.18ZM259.019 53.406C259.763 53.406 260.393 53.148 260.909 52.632C261.425 52.116 261.683 51.384 261.683 50.436C261.683 49.512 261.437 48.792 260.945 48.276C260.465 47.748 259.865 47.484 259.145 47.484C258.545 47.484 258.047 47.628 257.651 47.916C257.255 48.192 256.955 48.558 256.751 49.014C256.559 49.458 256.463 49.932 256.463 50.436C256.463 50.94 256.553 51.42 256.733 51.876C256.913 52.332 257.189 52.704 257.561 52.992C257.933 53.268 258.419 53.406 259.019 53.406ZM267.345 54.18C266.565 54.18 265.917 53.994 265.401 53.622C264.897 53.25 264.519 52.776 264.267 52.2C264.015 51.612 263.895 51.006 263.907 50.382C263.907 49.734 264.039 49.128 264.303 48.564C264.567 48 264.951 47.55 265.455 47.214C265.971 46.866 266.595 46.692 267.327 46.692C268.239 46.692 268.989 46.992 269.577 47.592C270.177 48.18 270.513 48.972 270.585 49.968C270.597 50.028 270.603 50.1 270.603 50.184C270.603 50.268 270.603 50.346 270.603 50.418H264.699C264.699 51.342 264.927 52.08 265.383 52.632C265.839 53.184 266.493 53.46 267.345 53.46C267.957 53.46 268.485 53.298 268.929 52.974C269.385 52.65 269.667 52.212 269.775 51.66H270.585C270.441 52.404 270.075 53.01 269.487 53.478C268.911 53.946 268.197 54.18 267.345 54.18ZM264.753 49.878H269.757C269.745 49.566 269.655 49.218 269.487 48.834C269.331 48.45 269.073 48.114 268.713 47.826C268.365 47.538 267.903 47.394 267.327 47.394C266.535 47.394 265.929 47.64 265.509 48.132C265.089 48.624 264.837 49.206 264.753 49.878ZM274.892 54.18C274.28 54.18 273.782 54.078 273.398 53.874C273.014 53.658 272.72 53.406 272.516 53.118C272.312 52.83 272.168 52.554 272.084 52.29C272.012 52.026 271.976 51.834 271.976 51.714H272.786C272.786 51.726 272.792 51.828 272.804 52.02C272.828 52.2 272.9 52.41 273.02 52.65C273.14 52.89 273.344 53.1 273.632 53.28C273.932 53.448 274.358 53.532 274.91 53.532C275.294 53.532 275.654 53.49 275.99 53.406C276.338 53.31 276.614 53.166 276.818 52.974C277.034 52.77 277.142 52.506 277.142 52.182C277.13 51.798 277.004 51.504 276.764 51.3C276.524 51.084 276.212 50.922 275.828 50.814C275.444 50.706 275.042 50.61 274.622 50.526C274.202 50.442 273.8 50.328 273.416 50.184C273.044 50.04 272.738 49.83 272.498 49.554C272.27 49.278 272.162 48.9 272.174 48.42C272.174 47.856 272.438 47.394 272.966 47.034C273.494 46.674 274.172 46.494 275 46.494C275.312 46.494 275.636 46.53 275.972 46.602C276.32 46.674 276.644 46.8 276.944 46.98C277.244 47.16 277.484 47.412 277.664 47.736C277.844 48.048 277.922 48.45 277.898 48.942H277.106C277.13 48.57 277.07 48.27 276.926 48.042C276.782 47.802 276.59 47.622 276.35 47.502C276.122 47.382 275.882 47.304 275.63 47.268C275.378 47.22 275.15 47.196 274.946 47.196C274.382 47.196 273.902 47.304 273.506 47.52C273.122 47.724 272.93 48.03 272.93 48.438C272.93 48.81 273.05 49.092 273.29 49.284C273.53 49.464 273.842 49.608 274.226 49.716C274.61 49.812 275.012 49.908 275.432 50.004C275.852 50.088 276.248 50.208 276.62 50.364C277.004 50.508 277.316 50.724 277.556 51.012C277.808 51.3 277.934 51.702 277.934 52.218C277.934 52.674 277.796 53.052 277.52 53.352C277.244 53.64 276.872 53.85 276.404 53.982C275.948 54.114 275.444 54.18 274.892 54.18ZM280.013 45.918C279.809 45.93 279.671 45.876 279.599 45.756C279.527 45.636 279.491 45.492 279.491 45.324C279.491 45.168 279.527 45.036 279.599 44.928C279.671 44.82 279.809 44.766 280.013 44.766C280.205 44.766 280.337 44.82 280.409 44.928C280.481 45.036 280.517 45.168 280.517 45.324C280.517 45.504 280.481 45.648 280.409 45.756C280.337 45.864 280.205 45.918 280.013 45.918ZM279.581 54V46.692H280.391V54H279.581ZM283.813 56.88V56.106H287.666V52.218H287.63C287.606 52.302 287.534 52.446 287.414 52.65C287.306 52.854 287.144 53.076 286.928 53.316C286.712 53.556 286.43 53.76 286.082 53.928C285.746 54.096 285.338 54.18 284.858 54.18C284.162 54.18 283.568 54.012 283.076 53.676C282.596 53.34 282.23 52.89 281.978 52.326C281.726 51.762 281.6 51.132 281.6 50.436C281.6 49.728 281.726 49.092 281.978 48.528C282.242 47.964 282.614 47.52 283.094 47.196C283.586 46.86 284.18 46.692 284.876 46.692C285.368 46.692 285.782 46.782 286.118 46.962C286.466 47.13 286.742 47.334 286.946 47.574C287.162 47.802 287.318 48.024 287.414 48.24C287.522 48.444 287.588 48.588 287.612 48.672H287.648L287.666 46.692H288.512V55.566C288.512 55.95 288.44 56.262 288.296 56.502C288.164 56.754 287.882 56.88 287.45 56.88H283.813ZM284.966 53.406C285.698 53.406 286.322 53.148 286.838 52.632C287.366 52.116 287.63 51.384 287.63 50.436C287.63 49.512 287.384 48.792 286.892 48.276C286.4 47.748 285.794 47.484 285.074 47.484C284.474 47.484 283.976 47.628 283.58 47.916C283.184 48.192 282.89 48.558 282.698 49.014C282.506 49.458 282.41 49.932 282.41 50.436C282.41 50.94 282.494 51.42 282.662 51.876C282.842 52.332 283.118 52.704 283.49 52.992C283.874 53.268 284.366 53.406 284.966 53.406ZM290.138 54V46.71H290.822L290.966 48.636H291.002C291.026 48.552 291.086 48.408 291.182 48.204C291.278 48 291.428 47.784 291.632 47.556C291.836 47.316 292.106 47.112 292.442 46.944C292.778 46.776 293.198 46.692 293.702 46.692C294.326 46.692 294.824 46.806 295.196 47.034C295.568 47.25 295.85 47.538 296.042 47.898C296.234 48.258 296.36 48.654 296.42 49.086C296.48 49.518 296.51 49.95 296.51 50.382V54H295.7V50.364C295.7 49.476 295.544 48.768 295.232 48.24C294.932 47.712 294.368 47.448 293.54 47.448C292.952 47.448 292.466 47.592 292.082 47.88C291.71 48.156 291.428 48.534 291.236 49.014C291.056 49.482 290.966 49.992 290.966 50.544V54H290.138ZM187.86 77.262V78H184.044V77.262H185.61V69.36C185.442 69.816 185.196 70.152 184.872 70.368C184.56 70.572 184.26 70.71 183.972 70.782C183.696 70.842 183.516 70.872 183.432 70.872V70.044C183.504 70.044 183.654 70.02 183.882 69.972C184.11 69.912 184.362 69.804 184.638 69.648C184.914 69.492 185.148 69.27 185.34 68.982C185.544 68.694 185.652 68.322 185.664 67.866H186.384V77.262H187.86ZM197.989 78.252C196.669 78.252 195.649 77.856 194.929 77.064C194.221 76.26 193.867 75.132 193.867 73.68V67.866H194.695V73.68C194.695 74.952 194.989 75.906 195.577 76.542C196.177 77.166 196.981 77.478 197.989 77.478C199.057 77.478 199.873 77.166 200.437 76.542C201.013 75.918 201.301 74.964 201.301 73.68V67.866H202.111V73.68C202.111 75.156 201.757 76.29 201.049 77.082C200.353 77.862 199.333 78.252 197.989 78.252ZM203.666 78L207.446 72.618L204.044 67.866H205.07L207.95 72.042L210.848 67.866H211.856L208.49 72.618L212.288 78H211.298L207.95 73.194L204.62 78H203.666ZM222.155 77.262V78H218.339V77.262H219.905V69.36C219.737 69.816 219.491 70.152 219.167 70.368C218.855 70.572 218.555 70.71 218.267 70.782C217.991 70.842 217.811 70.872 217.727 70.872V70.044C217.799 70.044 217.949 70.02 218.177 69.972C218.405 69.912 218.657 69.804 218.933 69.648C219.209 69.492 219.443 69.27 219.635 68.982C219.839 68.694 219.947 68.322 219.959 67.866H220.679V77.262H222.155ZM232.284 78.252C230.964 78.252 229.944 77.856 229.224 77.064C228.516 76.26 228.162 75.132 228.162 73.68V67.866H228.99V73.68C228.99 74.952 229.284 75.906 229.872 76.542C230.472 77.166 231.276 77.478 232.284 77.478C233.352 77.478 234.168 77.166 234.732 76.542C235.308 75.918 235.596 74.964 235.596 73.68V67.866H236.406V73.68C236.406 75.156 236.052 76.29 235.344 77.082C234.648 77.862 233.628 78.252 232.284 78.252ZM242.101 77.28V78H238.465V77.28H239.887V68.604H238.465V67.866H242.101V68.604H240.697V77.28H242.101ZM244.139 79.458V78.756H244.391C244.679 78.756 244.853 78.678 244.913 78.522C244.973 78.378 245.003 78.21 245.003 78.018C244.487 78.09 244.229 77.868 244.229 77.352C244.229 77.184 244.271 77.04 244.355 76.92C244.439 76.788 244.601 76.722 244.841 76.722C245.057 76.722 245.207 76.788 245.291 76.92C245.387 77.052 245.435 77.274 245.435 77.586C245.435 78.186 245.363 78.648 245.219 78.972C245.075 79.296 244.811 79.458 244.427 79.458H244.139ZM251.377 78V77.316C251.377 77.316 251.491 77.232 251.719 77.064C251.959 76.896 252.265 76.674 252.637 76.398C253.009 76.11 253.417 75.786 253.861 75.426C254.305 75.054 254.743 74.664 255.175 74.256C255.619 73.848 256.015 73.44 256.363 73.032C256.723 72.624 256.993 72.234 257.173 71.862C257.473 71.238 257.563 70.674 257.443 70.17C257.335 69.666 257.059 69.264 256.615 68.964C256.171 68.664 255.607 68.514 254.923 68.514C254.179 68.526 253.573 68.748 253.105 69.18C252.649 69.6 252.421 70.218 252.421 71.034L251.665 70.962C251.665 69.99 251.971 69.228 252.583 68.676C253.207 68.112 254.017 67.83 255.013 67.83C255.877 67.83 256.591 68.028 257.155 68.424C257.719 68.82 258.073 69.342 258.217 69.99C258.373 70.626 258.271 71.316 257.911 72.06C257.707 72.456 257.395 72.882 256.975 73.338C256.555 73.794 256.093 74.25 255.589 74.706C255.085 75.15 254.593 75.564 254.113 75.948C253.645 76.32 253.243 76.626 252.907 76.866C252.571 77.094 252.367 77.226 252.295 77.262H258.505V78H251.377ZM267.858 78.18C267.162 78.18 266.568 78.018 266.076 77.694C265.596 77.358 265.23 76.908 264.978 76.344C264.726 75.768 264.6 75.132 264.6 74.436C264.6 73.728 264.726 73.092 264.978 72.528C265.242 71.964 265.614 71.52 266.094 71.196C266.586 70.86 267.18 70.692 267.876 70.692C268.38 70.692 268.8 70.782 269.136 70.962C269.472 71.13 269.742 71.334 269.946 71.574C270.162 71.802 270.324 72.024 270.432 72.24C270.54 72.444 270.606 72.588 270.63 72.672H270.666L270.684 67.866H271.512V78H270.828L270.684 76.218H270.648C270.612 76.302 270.534 76.446 270.414 76.65C270.306 76.854 270.144 77.076 269.928 77.316C269.712 77.556 269.43 77.76 269.082 77.928C268.746 78.096 268.338 78.18 267.858 78.18ZM267.966 77.406C268.71 77.406 269.34 77.148 269.856 76.632C270.372 76.116 270.63 75.384 270.63 74.436C270.63 73.512 270.384 72.792 269.892 72.276C269.412 71.748 268.812 71.484 268.092 71.484C267.492 71.484 266.994 71.628 266.598 71.916C266.202 72.192 265.902 72.558 265.698 73.014C265.506 73.458 265.41 73.932 265.41 74.436C265.41 74.94 265.5 75.42 265.68 75.876C265.86 76.332 266.136 76.704 266.508 76.992C266.88 77.268 267.366 77.406 267.966 77.406ZM276.292 78.18C275.512 78.18 274.864 77.994 274.348 77.622C273.844 77.25 273.466 76.776 273.214 76.2C272.962 75.612 272.842 75.006 272.854 74.382C272.854 73.734 272.986 73.128 273.25 72.564C273.514 72 273.898 71.55 274.402 71.214C274.918 70.866 275.542 70.692 276.274 70.692C277.186 70.692 277.936 70.992 278.524 71.592C279.124 72.18 279.46 72.972 279.532 73.968C279.544 74.028 279.55 74.1 279.55 74.184C279.55 74.268 279.55 74.346 279.55 74.418H273.646C273.646 75.342 273.874 76.08 274.33 76.632C274.786 77.184 275.44 77.46 276.292 77.46C276.904 77.46 277.432 77.298 277.876 76.974C278.332 76.65 278.614 76.212 278.722 75.66H279.532C279.388 76.404 279.022 77.01 278.434 77.478C277.858 77.946 277.144 78.18 276.292 78.18ZM273.7 73.878H278.704C278.692 73.566 278.602 73.218 278.434 72.834C278.278 72.45 278.02 72.114 277.66 71.826C277.312 71.538 276.85 71.394 276.274 71.394C275.482 71.394 274.876 71.64 274.456 72.132C274.036 72.624 273.784 73.206 273.7 73.878ZM286.324 70.692H287.152V70.926L284.272 78H283.084L280.204 70.944V70.692H281.014L283.678 77.334H283.714L286.324 70.692ZM290.941 78.18C290.329 78.18 289.831 78.078 289.447 77.874C289.063 77.658 288.769 77.406 288.565 77.118C288.361 76.83 288.217 76.554 288.133 76.29C288.061 76.026 288.025 75.834 288.025 75.714H288.835C288.835 75.726 288.841 75.828 288.853 76.02C288.877 76.2 288.949 76.41 289.069 76.65C289.189 76.89 289.393 77.1 289.681 77.28C289.981 77.448 290.407 77.532 290.959 77.532C291.343 77.532 291.703 77.49 292.039 77.406C292.387 77.31 292.663 77.166 292.867 76.974C293.083 76.77 293.191 76.506 293.191 76.182C293.179 75.798 293.053 75.504 292.813 75.3C292.573 75.084 292.261 74.922 291.877 74.814C291.493 74.706 291.091 74.61 290.671 74.526C290.251 74.442 289.849 74.328 289.465 74.184C289.093 74.04 288.787 73.83 288.547 73.554C288.319 73.278 288.211 72.9 288.223 72.42C288.223 71.856 288.487 71.394 289.015 71.034C289.543 70.674 290.221 70.494 291.049 70.494C291.361 70.494 291.685 70.53 292.021 70.602C292.369 70.674 292.693 70.8 292.993 70.98C293.293 71.16 293.533 71.412 293.713 71.736C293.893 72.048 293.971 72.45 293.947 72.942H293.155C293.179 72.57 293.119 72.27 292.975 72.042C292.831 71.802 292.639 71.622 292.399 71.502C292.171 71.382 291.931 71.304 291.679 71.268C291.427 71.22 291.199 71.196 290.995 71.196C290.431 71.196 289.951 71.304 289.555 71.52C289.171 71.724 288.979 72.03 288.979 72.438C288.979 72.81 289.099 73.092 289.339 73.284C289.579 73.464 289.891 73.608 290.275 73.716C290.659 73.812 291.061 73.908 291.481 74.004C291.901 74.088 292.297 74.208 292.669 74.364C293.053 74.508 293.365 74.724 293.605 75.012C293.857 75.3 293.983 75.702 293.983 76.218C293.983 76.674 293.845 77.052 293.569 77.352C293.293 77.64 292.921 77.85 292.453 77.982C291.997 78.114 291.493 78.18 290.941 78.18Z" fill="black"/>
</svg>
