<svg width="936" height="155" viewBox="0 0 936 155" fill="none" xmlns="http://www.w3.org/2000/svg">
<path d="M1.972 36V16.858H6.868L12.24 34.742H12.308L17.578 16.858H22.474V36H19.584L19.754 18.184H19.686L14.314 36H10.132L4.794 18.184H4.726L4.862 36H1.972ZM24.3695 42.324V40.114H26.3755C26.8515 40.114 27.2482 40.0007 27.5655 39.774C27.8828 39.57 28.2682 39.0033 28.7215 38.074L29.9115 35.456L24.4715 22.094H27.3955L31.3055 32.532L35.4875 22.094H38.4455L31.3055 38.38C30.8068 39.536 30.3535 40.3973 29.9455 40.964C29.5375 41.5307 29.0842 41.8933 28.5855 42.052C28.0868 42.2333 27.4635 42.324 26.7155 42.324H24.3695ZM48.114 36V22.094H50.732L50.97 25.868C51.106 25.256 51.3667 24.6667 51.752 24.1C52.16 23.5107 52.7153 23.0347 53.418 22.672C54.1433 22.2867 55.0613 22.094 56.172 22.094H56.75V25.222H56.138C54.7553 25.222 53.69 25.4033 52.942 25.766C52.194 26.106 51.6727 26.616 51.378 27.296C51.0833 27.9533 50.936 28.7693 50.936 29.744V36H48.114ZM65.0266 36.34C62.7146 36.34 60.9919 35.6713 59.8586 34.334C58.7253 32.9967 58.1586 31.2967 58.1586 29.234C58.1359 27.1487 58.7026 25.4373 59.8586 24.1C61.0146 22.7627 62.7373 22.0827 65.0266 22.06C67.2479 22.06 68.9366 22.7173 70.0926 24.032C71.2486 25.3467 71.8266 27.0807 71.8266 29.234C71.8266 30.5713 71.5773 31.784 71.0786 32.872C70.6026 33.9373 69.8546 34.7873 68.8346 35.422C67.8373 36.034 66.5679 36.34 65.0266 36.34ZM65.0266 33.926C66.1146 33.926 66.9419 33.688 67.5086 33.212C68.0979 32.736 68.5059 32.1353 68.7326 31.41C68.9593 30.662 69.0726 29.9027 69.0726 29.132C69.0726 28.3613 68.9593 27.6133 68.7326 26.888C68.5059 26.14 68.0979 25.528 67.5086 25.052C66.9419 24.5533 66.1146 24.304 65.0266 24.304C63.9159 24.304 63.0659 24.5533 62.4766 25.052C61.8873 25.528 61.4793 26.14 61.2526 26.888C61.0259 27.6133 60.9126 28.3613 60.9126 29.132C60.9126 29.9027 61.0259 30.662 61.2526 31.41C61.4793 32.1353 61.8873 32.736 62.4766 33.212C63.0659 33.688 63.9159 33.926 65.0266 33.926ZM74.8133 36V16.858H77.6013V36H74.8133ZM86.9731 36.34C85.4091 36.34 84.1284 36 83.1311 35.32C82.1337 34.6173 81.3971 33.722 80.9211 32.634C80.4451 31.546 80.2071 30.4013 80.2071 29.2C80.1844 27.8627 80.4337 26.65 80.9551 25.562C81.4991 24.474 82.2697 23.6127 83.2671 22.978C84.2871 22.3433 85.4997 22.026 86.9051 22.026C88.1064 22.026 89.1831 22.298 90.1351 22.842C91.1097 23.3633 91.8804 24.1113 92.4471 25.086C93.0137 26.038 93.3197 27.1713 93.3651 28.486C93.3651 28.554 93.3651 28.69 93.3651 28.894C93.3877 29.0753 93.3991 29.234 93.3991 29.37H82.8931C82.8931 30.8207 83.2444 31.954 83.9471 32.77C84.6724 33.5633 85.6697 33.96 86.9391 33.96C87.8911 33.96 88.6957 33.722 89.3531 33.246C90.0331 32.7473 90.4524 32.09 90.6111 31.274H93.3651C93.1611 32.7247 92.5037 33.9373 91.3931 34.912C90.2824 35.864 88.8091 36.34 86.9731 36.34ZM82.9951 27.976H90.5431C90.5204 27.7267 90.4524 27.398 90.3391 26.99C90.2257 26.582 90.0331 26.1853 89.7611 25.8C89.5117 25.392 89.1491 25.052 88.6731 24.78C88.1971 24.508 87.5851 24.372 86.8371 24.372C85.9077 24.372 85.1711 24.576 84.6271 24.984C84.1057 25.3693 83.7091 25.8453 83.4371 26.412C83.1877 26.956 83.0404 27.4773 82.9951 27.976Z" fill="#131313"/>
<path d="M6.72 82.336C4.96 82.336 3.6 81.808 2.64 80.752C1.696 79.68 1.224 78.176 1.224 76.24V68.488H2.328V76.24C2.328 77.936 2.72 79.208 3.504 80.056C4.304 80.888 5.376 81.304 6.72 81.304C8.144 81.304 9.232 80.888 9.984 80.056C10.752 79.224 11.136 77.952 11.136 76.24V68.488H12.216V76.24C12.216 78.208 11.744 79.72 10.8 80.776C9.872 81.816 8.512 82.336 6.72 82.336ZM14.2892 82L19.3292 74.824L14.7932 68.488H16.1612L20.0012 74.056L23.8652 68.488H25.2092L20.7212 74.824L25.7852 82H24.4652L20.0012 75.592L15.5612 82H14.2892ZM34.0209 82V68.488H38.2209C39.3569 68.488 40.3169 68.6 41.1009 68.824C41.8849 69.048 42.4769 69.44 42.8769 70C43.2929 70.544 43.5009 71.304 43.5009 72.28C43.5009 72.888 43.3889 73.456 43.1649 73.984C42.9409 74.512 42.5889 74.936 42.1089 75.256C41.6449 75.576 41.0369 75.736 40.2849 75.736C41.0209 75.736 41.5649 75.896 41.9169 76.216C42.2849 76.52 42.5249 76.912 42.6369 77.392C42.7649 77.856 42.8289 78.344 42.8289 78.856C42.8449 79.368 42.8609 79.84 42.8769 80.272C42.9089 80.688 43.0049 81 43.1649 81.208C43.3409 81.4 43.6529 81.416 44.1009 81.256V82.048C44.0209 82.112 43.8609 82.168 43.6209 82.216C43.3969 82.264 43.1489 82.248 42.8769 82.168C42.6049 82.088 42.3729 81.904 42.1809 81.616C41.9889 81.328 41.8929 80.888 41.8929 80.296C41.8929 79.368 41.8529 78.624 41.7729 78.064C41.7089 77.504 41.5569 77.08 41.3169 76.792C41.0929 76.488 40.7329 76.288 40.2369 76.192C39.7569 76.08 39.1009 76.024 38.2689 76.024C37.4369 76.024 36.3889 76.032 35.1249 76.048V82H34.0209ZM35.1249 75.16H38.6529C39.9489 75.16 40.9169 74.968 41.5569 74.584C42.1969 74.184 42.5169 73.432 42.5169 72.328C42.5169 71.48 42.3409 70.856 41.9889 70.456C41.6529 70.04 41.1489 69.768 40.4769 69.64C39.8209 69.512 39.0209 69.448 38.0769 69.448H35.1249V75.16ZM50.2097 82.24C49.1697 82.24 48.3057 81.992 47.6177 81.496C46.9457 81 46.4417 80.368 46.1057 79.6C45.7697 78.816 45.6097 78.008 45.6257 77.176C45.6257 76.312 45.8017 75.504 46.1537 74.752C46.5057 74 47.0177 73.4 47.6897 72.952C48.3777 72.488 49.2097 72.256 50.1857 72.256C51.4017 72.256 52.4017 72.656 53.1857 73.456C53.9857 74.24 54.4337 75.296 54.5297 76.624C54.5457 76.704 54.5537 76.8 54.5537 76.912C54.5537 77.024 54.5537 77.128 54.5537 77.224H46.6817C46.6817 78.456 46.9857 79.44 47.5937 80.176C48.2017 80.912 49.0737 81.28 50.2097 81.28C51.0257 81.28 51.7297 81.064 52.3217 80.632C52.9297 80.2 53.3057 79.616 53.4497 78.88H54.5297C54.3377 79.872 53.8497 80.68 53.0657 81.304C52.2977 81.928 51.3457 82.24 50.2097 82.24ZM46.7537 76.504H53.4257C53.4097 76.088 53.2897 75.624 53.0657 75.112C52.8577 74.6 52.5137 74.152 52.0337 73.768C51.5697 73.384 50.9537 73.192 50.1857 73.192C49.1297 73.192 48.3217 73.52 47.7617 74.176C47.2017 74.832 46.8657 75.608 46.7537 76.504ZM60.2732 82.24C59.4572 82.24 58.7932 82.104 58.2812 81.832C57.7692 81.544 57.3772 81.208 57.1052 80.824C56.8332 80.44 56.6412 80.072 56.5292 79.72C56.4332 79.368 56.3852 79.112 56.3852 78.952H57.4652C57.4652 78.968 57.4732 79.104 57.4892 79.36C57.5212 79.6 57.6172 79.88 57.7772 80.2C57.9372 80.52 58.2092 80.8 58.5932 81.04C58.9932 81.264 59.5612 81.376 60.2972 81.376C60.8092 81.376 61.2892 81.32 61.7372 81.208C62.2012 81.08 62.5692 80.888 62.8412 80.632C63.1292 80.36 63.2732 80.008 63.2732 79.576C63.2572 79.064 63.0892 78.672 62.7692 78.4C62.4492 78.112 62.0332 77.896 61.5212 77.752C61.0092 77.608 60.4732 77.48 59.9132 77.368C59.3532 77.256 58.8172 77.104 58.3052 76.912C57.8092 76.72 57.4012 76.44 57.0812 76.072C56.7772 75.704 56.6332 75.2 56.6492 74.56C56.6492 73.808 57.0012 73.192 57.7052 72.712C58.4092 72.232 59.3132 71.992 60.4172 71.992C60.8332 71.992 61.2652 72.04 61.7132 72.136C62.1772 72.232 62.6092 72.4 63.0092 72.64C63.4092 72.88 63.7292 73.216 63.9692 73.648C64.2092 74.064 64.3132 74.6 64.2812 75.256H63.2252C63.2572 74.76 63.1772 74.36 62.9852 74.056C62.7932 73.736 62.5372 73.496 62.2172 73.336C61.9132 73.176 61.5932 73.072 61.2572 73.024C60.9212 72.96 60.6172 72.928 60.3452 72.928C59.5932 72.928 58.9532 73.072 58.4252 73.36C57.9132 73.632 57.6572 74.04 57.6572 74.584C57.6572 75.08 57.8172 75.456 58.1372 75.712C58.4572 75.952 58.8732 76.144 59.3852 76.288C59.8972 76.416 60.4332 76.544 60.9932 76.672C61.5532 76.784 62.0812 76.944 62.5772 77.152C63.0892 77.344 63.5052 77.632 63.8252 78.016C64.1612 78.4 64.3292 78.936 64.3292 79.624C64.3292 80.232 64.1452 80.736 63.7772 81.136C63.4092 81.52 62.9132 81.8 62.2892 81.976C61.6812 82.152 61.0092 82.24 60.2732 82.24ZM70.4128 82.24C69.3728 82.24 68.5088 81.992 67.8208 81.496C67.1488 81 66.6448 80.368 66.3088 79.6C65.9728 78.816 65.8128 78.008 65.8288 77.176C65.8288 76.312 66.0048 75.504 66.3568 74.752C66.7088 74 67.2208 73.4 67.8928 72.952C68.5808 72.488 69.4128 72.256 70.3888 72.256C71.6048 72.256 72.6048 72.656 73.3888 73.456C74.1888 74.24 74.6368 75.296 74.7328 76.624C74.7488 76.704 74.7568 76.8 74.7568 76.912C74.7568 77.024 74.7568 77.128 74.7568 77.224H66.8848C66.8848 78.456 67.1888 79.44 67.7968 80.176C68.4048 80.912 69.2768 81.28 70.4128 81.28C71.2288 81.28 71.9328 81.064 72.5248 80.632C73.1328 80.2 73.5088 79.616 73.6528 78.88H74.7328C74.5408 79.872 74.0528 80.68 73.2688 81.304C72.5008 81.928 71.5488 82.24 70.4128 82.24ZM66.9568 76.504H73.6288C73.6128 76.088 73.4928 75.624 73.2688 75.112C73.0608 74.6 72.7168 74.152 72.2368 73.768C71.7728 73.384 71.1568 73.192 70.3888 73.192C69.3328 73.192 68.5248 73.52 67.9648 74.176C67.4048 74.832 67.0688 75.608 66.9568 76.504ZM80.2123 82.216C79.3163 82.216 78.5723 81.992 77.9803 81.544C77.3883 81.096 76.9483 80.496 76.6603 79.744C76.3723 78.976 76.2283 78.128 76.2283 77.2C76.2283 76.24 76.3723 75.384 76.6603 74.632C76.9643 73.864 77.4123 73.264 78.0043 72.832C78.5963 72.384 79.3323 72.16 80.2123 72.16C81.1563 72.16 81.9083 72.392 82.4683 72.856C83.0283 73.304 83.4283 73.824 83.6683 74.416H83.7163V72.256H84.8203V82H83.9083L83.7163 79.984H83.6683C83.4123 80.576 83.0043 81.096 82.4443 81.544C81.8843 81.992 81.1403 82.216 80.2123 82.216ZM80.6203 81.208C81.6443 81.208 82.4123 80.856 82.9243 80.152C83.4363 79.448 83.6923 78.472 83.6923 77.224C83.6923 75.896 83.4203 74.896 82.8763 74.224C82.3483 73.552 81.5963 73.216 80.6203 73.216C79.4843 73.216 78.6523 73.6 78.1243 74.368C77.5963 75.12 77.3323 76.064 77.3323 77.2C77.3323 78.384 77.6043 79.352 78.1483 80.104C78.6923 80.84 79.5163 81.208 80.6203 81.208ZM86.9824 82V72.256H87.9184L88.0624 74.752C88.2224 74.064 88.5984 73.472 89.1904 72.976C89.7824 72.48 90.6144 72.24 91.6864 72.256H92.2144V73.48H91.6864C90.5984 73.48 89.7984 73.656 89.2864 74.008C88.7744 74.344 88.4384 74.8 88.2784 75.376C88.1344 75.952 88.0624 76.592 88.0624 77.296V82H86.9824ZM97.6472 82.24C96.2712 82.24 95.1512 81.808 94.2872 80.944C93.4232 80.08 92.9912 78.888 92.9912 77.368C93.0072 76.36 93.2152 75.472 93.6152 74.704C94.0152 73.936 94.5672 73.336 95.2712 72.904C95.9752 72.472 96.7912 72.256 97.7192 72.256C98.9032 72.256 99.8792 72.584 100.647 73.24C101.431 73.88 101.911 74.688 102.087 75.664H101.055C100.895 74.912 100.511 74.328 99.9032 73.912C99.3112 73.48 98.5912 73.264 97.7432 73.264C96.6392 73.264 95.7512 73.64 95.0792 74.392C94.4072 75.144 94.0712 76.12 94.0712 77.32C94.0712 78.52 94.3912 79.472 95.0312 80.176C95.6872 80.88 96.5672 81.232 97.6712 81.232C98.5352 81.232 99.2712 81.016 99.8792 80.584C100.503 80.152 100.895 79.56 101.055 78.808H102.087C101.911 79.8 101.423 80.624 100.623 81.28C99.8232 81.92 98.8312 82.24 97.6472 82.24ZM104.015 82V68.488H105.119V74.848H105.167C105.199 74.736 105.279 74.544 105.407 74.272C105.535 74 105.735 73.712 106.007 73.408C106.279 73.088 106.631 72.816 107.063 72.592C107.511 72.368 108.063 72.256 108.719 72.256C109.551 72.256 110.215 72.408 110.711 72.712C111.223 73 111.607 73.384 111.863 73.864C112.119 74.344 112.287 74.872 112.367 75.448C112.447 76.024 112.487 76.6 112.487 77.176V82H111.431V77.152C111.431 75.968 111.223 75.024 110.807 74.32C110.391 73.616 109.631 73.264 108.527 73.264C107.759 73.264 107.119 73.456 106.607 73.84C106.095 74.208 105.719 74.712 105.479 75.352C105.239 75.976 105.119 76.656 105.119 77.392V82H104.015ZM6.72 115.336C4.96 115.336 3.6 114.808 2.64 113.752C1.696 112.68 1.224 111.176 1.224 109.24V101.488H2.328V109.24C2.328 110.936 2.72 112.208 3.504 113.056C4.304 113.888 5.376 114.304 6.72 114.304C8.144 114.304 9.232 113.888 9.984 113.056C10.752 112.224 11.136 110.952 11.136 109.24V101.488H12.216V109.24C12.216 111.208 11.744 112.72 10.8 113.776C9.872 114.816 8.512 115.336 6.72 115.336ZM14.2892 115L19.3292 107.824L14.7932 101.488H16.1612L20.0012 107.056L23.8652 101.488H25.2092L20.7212 107.824L25.7852 115H24.4652L20.0012 108.592L15.5612 115H14.2892ZM45.5889 108.232C45.5889 110.008 45.2529 111.392 44.5809 112.384C43.9249 113.36 42.9969 114.04 41.7969 114.424C40.5969 114.808 39.1969 115 37.5969 115H34.0929V101.488H37.5969C39.1969 101.488 40.5969 101.744 41.7969 102.256C42.9969 102.752 43.9249 103.496 44.5809 104.488C45.2529 105.48 45.5889 106.728 45.5889 108.232ZM35.1969 114.04H37.7889C39.1169 114.04 40.2769 113.888 41.2689 113.584C42.2769 113.28 43.0529 112.712 43.5969 111.88C44.1569 111.048 44.4369 109.832 44.4369 108.232C44.4369 106.92 44.1569 105.84 43.5969 104.992C43.0529 104.128 42.2769 103.496 41.2689 103.096C40.2769 102.68 39.1169 102.472 37.7889 102.472H35.1969V114.04ZM51.6159 115.24C50.5759 115.24 49.7119 114.992 49.0239 114.496C48.3519 114 47.8479 113.368 47.5119 112.6C47.1759 111.816 47.0159 111.008 47.0319 110.176C47.0319 109.312 47.2079 108.504 47.5599 107.752C47.9119 107 48.4239 106.4 49.0959 105.952C49.7839 105.488 50.6159 105.256 51.5919 105.256C52.8079 105.256 53.8079 105.656 54.5919 106.456C55.3919 107.24 55.8399 108.296 55.9359 109.624C55.9519 109.704 55.9599 109.8 55.9599 109.912C55.9599 110.024 55.9599 110.128 55.9599 110.224H48.0879C48.0879 111.456 48.3919 112.44 48.9999 113.176C49.6079 113.912 50.4799 114.28 51.6159 114.28C52.4319 114.28 53.1359 114.064 53.7279 113.632C54.3359 113.2 54.7119 112.616 54.8559 111.88H55.9359C55.7439 112.872 55.2559 113.68 54.4719 114.304C53.7039 114.928 52.7519 115.24 51.6159 115.24ZM48.1599 109.504H54.8319C54.8159 109.088 54.6959 108.624 54.4719 108.112C54.2639 107.6 53.9199 107.152 53.4399 106.768C52.9759 106.384 52.3599 106.192 51.5919 106.192C50.5359 106.192 49.7279 106.52 49.1679 107.176C48.6079 107.832 48.2719 108.608 48.1599 109.504ZM61.6794 115.24C60.8634 115.24 60.1994 115.104 59.6874 114.832C59.1754 114.544 58.7834 114.208 58.5114 113.824C58.2394 113.44 58.0474 113.072 57.9354 112.72C57.8394 112.368 57.7914 112.112 57.7914 111.952H58.8714C58.8714 111.968 58.8794 112.104 58.8954 112.36C58.9274 112.6 59.0234 112.88 59.1834 113.2C59.3434 113.52 59.6154 113.8 59.9994 114.04C60.3994 114.264 60.9674 114.376 61.7034 114.376C62.2154 114.376 62.6954 114.32 63.1434 114.208C63.6074 114.08 63.9754 113.888 64.2474 113.632C64.5354 113.36 64.6794 113.008 64.6794 112.576C64.6634 112.064 64.4954 111.672 64.1754 111.4C63.8554 111.112 63.4394 110.896 62.9274 110.752C62.4154 110.608 61.8794 110.48 61.3194 110.368C60.7594 110.256 60.2234 110.104 59.7114 109.912C59.2154 109.72 58.8074 109.44 58.4874 109.072C58.1834 108.704 58.0394 108.2 58.0554 107.56C58.0554 106.808 58.4074 106.192 59.1114 105.712C59.8154 105.232 60.7194 104.992 61.8234 104.992C62.2394 104.992 62.6714 105.04 63.1194 105.136C63.5834 105.232 64.0154 105.4 64.4154 105.64C64.8154 105.88 65.1354 106.216 65.3754 106.648C65.6154 107.064 65.7194 107.6 65.6874 108.256H64.6314C64.6634 107.76 64.5834 107.36 64.3914 107.056C64.1994 106.736 63.9434 106.496 63.6234 106.336C63.3194 106.176 62.9994 106.072 62.6634 106.024C62.3274 105.96 62.0234 105.928 61.7514 105.928C60.9994 105.928 60.3594 106.072 59.8314 106.36C59.3194 106.632 59.0634 107.04 59.0634 107.584C59.0634 108.08 59.2234 108.456 59.5434 108.712C59.8634 108.952 60.2794 109.144 60.7914 109.288C61.3034 109.416 61.8394 109.544 62.3994 109.672C62.9594 109.784 63.4874 109.944 63.9834 110.152C64.4954 110.344 64.9114 110.632 65.2314 111.016C65.5674 111.4 65.7354 111.936 65.7354 112.624C65.7354 113.232 65.5514 113.736 65.1834 114.136C64.8154 114.52 64.3194 114.8 63.6954 114.976C63.0874 115.152 62.4154 115.24 61.6794 115.24ZM68.5071 104.224C68.2351 104.24 68.0511 104.168 67.9551 104.008C67.8591 103.848 67.8111 103.656 67.8111 103.432C67.8111 103.224 67.8591 103.048 67.9551 102.904C68.0511 102.76 68.2351 102.688 68.5071 102.688C68.7631 102.688 68.9391 102.76 69.0351 102.904C69.1311 103.048 69.1791 103.224 69.1791 103.432C69.1791 103.672 69.1311 103.864 69.0351 104.008C68.9391 104.152 68.7631 104.224 68.5071 104.224ZM67.9311 115V105.256H69.0111V115H67.9311ZM73.5742 118.84V117.808H78.7103V112.624H78.6623C78.6303 112.736 78.5343 112.928 78.3743 113.2C78.2303 113.472 78.0143 113.768 77.7263 114.088C77.4383 114.408 77.0623 114.68 76.5983 114.904C76.1503 115.128 75.6063 115.24 74.9663 115.24C74.0383 115.24 73.2463 115.016 72.5903 114.568C71.9503 114.12 71.4623 113.52 71.1263 112.768C70.7903 112.016 70.6223 111.176 70.6223 110.248C70.6223 109.304 70.7903 108.456 71.1263 107.704C71.4783 106.952 71.9743 106.36 72.6143 105.928C73.2703 105.48 74.0623 105.256 74.9903 105.256C75.6463 105.256 76.1983 105.376 76.6463 105.616C77.1103 105.84 77.4783 106.112 77.7503 106.432C78.0383 106.736 78.2463 107.032 78.3743 107.32C78.5183 107.592 78.6063 107.784 78.6383 107.896H78.6863L78.7103 105.256H79.8383V117.088C79.8383 117.6 79.7423 118.016 79.5503 118.336C79.3743 118.672 78.9983 118.84 78.4223 118.84H73.5742ZM75.1103 114.208C76.0863 114.208 76.9183 113.864 77.6063 113.176C78.3103 112.488 78.6623 111.512 78.6623 110.248C78.6623 109.016 78.3343 108.056 77.6783 107.368C77.0223 106.664 76.2143 106.312 75.2543 106.312C74.4543 106.312 73.7903 106.504 73.2623 106.888C72.7343 107.256 72.3423 107.744 72.0863 108.352C71.8303 108.944 71.7023 109.576 71.7023 110.248C71.7023 110.92 71.8143 111.56 72.0383 112.168C72.2783 112.776 72.6463 113.272 73.1423 113.656C73.6543 114.024 74.3103 114.208 75.1103 114.208ZM82.0063 115V105.28H82.9183L83.1103 107.848H83.1583C83.1903 107.736 83.2703 107.544 83.3983 107.272C83.5263 107 83.7263 106.712 83.9983 106.408C84.2703 106.088 84.6303 105.816 85.0783 105.592C85.5263 105.368 86.0863 105.256 86.7583 105.256C87.5903 105.256 88.2543 105.408 88.7503 105.712C89.2463 106 89.6223 106.384 89.8783 106.864C90.1343 107.344 90.3023 107.872 90.3823 108.448C90.4623 109.024 90.5023 109.6 90.5023 110.176V115H89.4223V110.152C89.4223 108.968 89.2143 108.024 88.7983 107.32C88.3983 106.616 87.6463 106.264 86.5423 106.264C85.7583 106.264 85.1103 106.456 84.5983 106.84C84.1023 107.208 83.7263 107.712 83.4703 108.352C83.2303 108.976 83.1103 109.656 83.1103 110.392V115H82.0063ZM6.72 148.336C4.96 148.336 3.6 147.808 2.64 146.752C1.696 145.68 1.224 144.176 1.224 142.24V134.488H2.328V142.24C2.328 143.936 2.72 145.208 3.504 146.056C4.304 146.888 5.376 147.304 6.72 147.304C8.144 147.304 9.232 146.888 9.984 146.056C10.752 145.224 11.136 143.952 11.136 142.24V134.488H12.216V142.24C12.216 144.208 11.744 145.72 10.8 146.776C9.872 147.816 8.512 148.336 6.72 148.336ZM14.2892 148L19.3292 140.824L14.7932 134.488H16.1612L20.0012 140.056L23.8652 134.488H25.2092L20.7212 140.824L25.7852 148H24.4652L20.0012 141.592L15.5612 148H14.2892ZM41.8449 134.488H42.9969L47.0529 147.448L51.1329 134.488H52.3329L47.9649 148H46.1649L42.4209 136L38.5089 148H36.6849L32.5329 134.488H33.7089L37.6209 147.448L41.8449 134.488ZM54.0527 148V138.256H54.9887L55.1327 140.752C55.2927 140.064 55.6687 139.472 56.2607 138.976C56.8527 138.48 57.6847 138.24 58.7567 138.256H59.2847V139.48H58.7567C57.6687 139.48 56.8687 139.656 56.3567 140.008C55.8447 140.344 55.5087 140.8 55.3487 141.376C55.2047 141.952 55.1327 142.592 55.1327 143.296V148H54.0527ZM61.593 137.224C61.321 137.24 61.137 137.168 61.041 137.008C60.945 136.848 60.897 136.656 60.897 136.432C60.897 136.224 60.945 136.048 61.041 135.904C61.137 135.76 61.321 135.688 61.593 135.688C61.849 135.688 62.025 135.76 62.121 135.904C62.217 136.048 62.265 136.224 62.265 136.432C62.265 136.672 62.217 136.864 62.121 137.008C62.025 137.152 61.849 137.224 61.593 137.224ZM61.017 148V138.256H62.097V148H61.017ZM66.7969 148C66.2849 148 65.9569 147.856 65.8129 147.568C65.6689 147.28 65.5969 146.936 65.5969 146.536V139.144H63.9889V138.256C64.5649 138.256 64.9649 138.224 65.1889 138.16C65.4129 138.08 65.5489 137.864 65.5969 137.512C65.6449 137.16 65.6689 136.568 65.6689 135.736H66.6529V138.256H68.9329V139.144H66.6529V147.064H68.9329V148H66.7969ZM72.0461 137.224C71.7741 137.24 71.5901 137.168 71.4941 137.008C71.3981 136.848 71.3501 136.656 71.3501 136.432C71.3501 136.224 71.3981 136.048 71.4941 135.904C71.5901 135.76 71.7741 135.688 72.0461 135.688C72.3021 135.688 72.4781 135.76 72.5741 135.904C72.6701 136.048 72.7181 136.224 72.7181 136.432C72.7181 136.672 72.6701 136.864 72.5741 137.008C72.4781 137.152 72.3021 137.224 72.0461 137.224ZM71.4701 148V138.256H72.5501V148H71.4701ZM74.8813 148V138.28H75.7933L75.9853 140.848H76.0333C76.0653 140.736 76.1453 140.544 76.2733 140.272C76.4013 140 76.6013 139.712 76.8733 139.408C77.1453 139.088 77.5053 138.816 77.9533 138.592C78.4013 138.368 78.9613 138.256 79.6333 138.256C80.4653 138.256 81.1293 138.408 81.6253 138.712C82.1213 139 82.4973 139.384 82.7533 139.864C83.0093 140.344 83.1773 140.872 83.2573 141.448C83.3373 142.024 83.3773 142.6 83.3773 143.176V148H82.2973V143.152C82.2973 141.968 82.0893 141.024 81.6733 140.32C81.2733 139.616 80.5213 139.264 79.4173 139.264C78.6333 139.264 77.9853 139.456 77.4733 139.84C76.9773 140.208 76.6013 140.712 76.3453 141.352C76.1053 141.976 75.9853 142.656 75.9853 143.392V148H74.8813ZM87.5664 151.84V150.808H92.7024V145.624H92.6544C92.6224 145.736 92.5264 145.928 92.3664 146.2C92.2224 146.472 92.0064 146.768 91.7184 147.088C91.4304 147.408 91.0544 147.68 90.5904 147.904C90.1424 148.128 89.5984 148.24 88.9584 148.24C88.0304 148.24 87.2384 148.016 86.5824 147.568C85.9424 147.12 85.4544 146.52 85.1184 145.768C84.7824 145.016 84.6144 144.176 84.6144 143.248C84.6144 142.304 84.7824 141.456 85.1184 140.704C85.4704 139.952 85.9664 139.36 86.6064 138.928C87.2624 138.48 88.0544 138.256 88.9824 138.256C89.6384 138.256 90.1904 138.376 90.6384 138.616C91.1024 138.84 91.4704 139.112 91.7424 139.432C92.0304 139.736 92.2384 140.032 92.3664 140.32C92.5104 140.592 92.5984 140.784 92.6304 140.896H92.6784L92.7024 138.256H93.8304V150.088C93.8304 150.6 93.7344 151.016 93.5424 151.336C93.3664 151.672 92.9904 151.84 92.4144 151.84H87.5664ZM89.1024 147.208C90.0784 147.208 90.9104 146.864 91.5984 146.176C92.3024 145.488 92.6544 144.512 92.6544 143.248C92.6544 142.016 92.3264 141.056 91.6704 140.368C91.0144 139.664 90.2064 139.312 89.2464 139.312C88.4464 139.312 87.7824 139.504 87.2544 139.888C86.7264 140.256 86.3344 140.744 86.0784 141.352C85.8224 141.944 85.6944 142.576 85.6944 143.248C85.6944 143.92 85.8064 144.56 86.0304 145.168C86.2704 145.776 86.6384 146.272 87.1344 146.656C87.6464 147.024 88.3024 147.208 89.1024 147.208Z" fill="black"/>
<path d="M312.34 19.85V16.858H327.13V19.85H321.452V36H317.984V19.85H312.34ZM333.168 36.34C331.582 36.34 330.267 36.034 329.224 35.422C328.182 34.81 327.4 33.9713 326.878 32.906C326.357 31.818 326.096 30.5827 326.096 29.2C326.074 27.1147 326.652 25.4033 327.83 24.066C329.032 22.706 330.811 22.026 333.168 22.026C335.458 22.026 337.192 22.6833 338.37 23.998C339.572 25.3127 340.172 27.0467 340.172 29.2C340.172 30.5373 339.923 31.75 339.424 32.838C338.926 33.926 338.155 34.7873 337.112 35.422C336.07 36.034 334.755 36.34 333.168 36.34ZM333.168 33.416C334.166 33.416 334.925 33.2007 335.446 32.77C335.99 32.3393 336.353 31.7953 336.534 31.138C336.716 30.458 336.806 29.778 336.806 29.098C336.806 28.3953 336.716 27.704 336.534 27.024C336.353 26.344 335.99 25.7887 335.446 25.358C334.925 24.9273 334.166 24.712 333.168 24.712C332.148 24.712 331.366 24.9387 330.822 25.392C330.301 25.8227 329.938 26.378 329.734 27.058C329.553 27.7153 329.462 28.3953 329.462 29.098C329.462 29.778 329.553 30.458 329.734 31.138C329.938 31.7953 330.301 32.3393 330.822 32.77C331.366 33.2007 332.148 33.416 333.168 33.416ZM349.206 36.34C347.619 36.34 346.304 36.034 345.262 35.422C344.219 34.81 343.437 33.9713 342.916 32.906C342.394 31.818 342.134 30.5827 342.134 29.2C342.111 27.1147 342.689 25.4033 343.868 24.066C345.069 22.706 346.848 22.026 349.206 22.026C351.495 22.026 353.229 22.6833 354.408 23.998C355.609 25.3127 356.21 27.0467 356.21 29.2C356.21 30.5373 355.96 31.75 355.462 32.838C354.963 33.926 354.192 34.7873 353.15 35.422C352.107 36.034 350.792 36.34 349.206 36.34ZM349.206 33.416C350.203 33.416 350.962 33.2007 351.484 32.77C352.028 32.3393 352.39 31.7953 352.572 31.138C352.753 30.458 352.844 29.778 352.844 29.098C352.844 28.3953 352.753 27.704 352.572 27.024C352.39 26.344 352.028 25.7887 351.484 25.358C350.962 24.9273 350.203 24.712 349.206 24.712C348.186 24.712 347.404 24.9387 346.86 25.392C346.338 25.8227 345.976 26.378 345.772 27.058C345.59 27.7153 345.5 28.3953 345.5 29.098C345.5 29.778 345.59 30.458 345.772 31.138C345.976 31.7953 346.338 32.3393 346.86 32.77C347.404 33.2007 348.186 33.416 349.206 33.416ZM359.021 36V16.858H362.421V36H359.021ZM371.203 36.34C370.613 36.34 369.956 36.238 369.231 36.034C368.528 35.83 367.848 35.524 367.191 35.116C366.556 34.708 366.023 34.1867 365.593 33.552C365.185 32.8947 364.981 32.124 364.981 31.24H368.177C368.177 31.2853 368.188 31.444 368.211 31.716C368.233 31.9653 368.324 32.26 368.483 32.6C368.664 32.9173 368.959 33.2007 369.367 33.45C369.775 33.6993 370.364 33.824 371.135 33.824C372.041 33.824 372.721 33.6653 373.175 33.348C373.628 33.008 373.855 32.6227 373.855 32.192C373.855 31.6933 373.639 31.308 373.209 31.036C372.801 30.7413 372.268 30.5033 371.611 30.322C370.953 30.1407 370.251 29.9593 369.503 29.778C368.777 29.574 368.086 29.3133 367.429 28.996C366.794 28.6787 366.273 28.248 365.865 27.704C365.457 27.1373 365.253 26.412 365.253 25.528C365.253 24.236 365.774 23.2613 366.817 22.604C367.859 21.924 369.185 21.584 370.795 21.584C371.928 21.584 372.982 21.7653 373.957 22.128C374.931 22.468 375.713 23.0233 376.303 23.794C376.892 24.542 377.187 25.528 377.187 26.752H373.991C374.013 26.0493 373.855 25.528 373.515 25.188C373.197 24.8253 372.789 24.576 372.291 24.44C371.815 24.304 371.35 24.236 370.897 24.236C370.081 24.236 369.457 24.3833 369.027 24.678C368.619 24.95 368.415 25.3127 368.415 25.766C368.415 26.2873 368.619 26.6953 369.027 26.99C369.457 27.262 370.001 27.4887 370.659 27.67C371.339 27.8513 372.041 28.044 372.767 28.248C373.515 28.4293 374.217 28.6787 374.875 28.996C375.555 29.3133 376.099 29.744 376.507 30.288C376.937 30.8093 377.153 31.512 377.153 32.396C377.153 33.7333 376.597 34.7307 375.487 35.388C374.399 36.0227 372.971 36.34 371.203 36.34Z" fill="#131313"/>
<path d="M314.832 82H313.752V68.488H322.944V69.472H314.832V74.296H321.312V75.256H314.832V82ZM325.124 71.224C324.852 71.24 324.668 71.168 324.572 71.008C324.476 70.848 324.428 70.656 324.428 70.432C324.428 70.224 324.476 70.048 324.572 69.904C324.668 69.76 324.852 69.688 325.124 69.688C325.38 69.688 325.556 69.76 325.652 69.904C325.748 70.048 325.796 70.224 325.796 70.432C325.796 70.672 325.748 70.864 325.652 71.008C325.556 71.152 325.38 71.224 325.124 71.224ZM324.548 82V72.256H325.628V82H324.548ZM330.191 85.84V84.808H335.327V79.624H335.279C335.247 79.736 335.151 79.928 334.991 80.2C334.847 80.472 334.631 80.768 334.343 81.088C334.055 81.408 333.679 81.68 333.215 81.904C332.767 82.128 332.223 82.24 331.583 82.24C330.655 82.24 329.863 82.016 329.207 81.568C328.567 81.12 328.079 80.52 327.743 79.768C327.407 79.016 327.239 78.176 327.239 77.248C327.239 76.304 327.407 75.456 327.743 74.704C328.095 73.952 328.591 73.36 329.231 72.928C329.887 72.48 330.679 72.256 331.607 72.256C332.263 72.256 332.815 72.376 333.263 72.616C333.727 72.84 334.095 73.112 334.367 73.432C334.655 73.736 334.863 74.032 334.991 74.32C335.135 74.592 335.223 74.784 335.255 74.896H335.303L335.327 72.256H336.455V84.088C336.455 84.6 336.359 85.016 336.167 85.336C335.991 85.672 335.615 85.84 335.039 85.84H330.191ZM331.727 81.208C332.703 81.208 333.535 80.864 334.223 80.176C334.927 79.488 335.279 78.512 335.279 77.248C335.279 76.016 334.951 75.056 334.295 74.368C333.639 73.664 332.831 73.312 331.871 73.312C331.071 73.312 330.407 73.504 329.879 73.888C329.351 74.256 328.959 74.744 328.703 75.352C328.447 75.944 328.319 76.576 328.319 77.248C328.319 77.92 328.431 78.56 328.655 79.168C328.895 79.776 329.263 80.272 329.759 80.656C330.271 81.024 330.927 81.208 331.727 81.208ZM338.624 82V72.256H339.536L339.632 74.848H339.68C339.728 74.704 339.808 74.496 339.92 74.224C340.048 73.936 340.232 73.648 340.472 73.36C340.712 73.056 341.032 72.8 341.432 72.592C341.832 72.368 342.328 72.256 342.92 72.256C343.56 72.256 344.072 72.384 344.456 72.64C344.856 72.88 345.168 73.2 345.392 73.6C345.616 74 345.776 74.416 345.872 74.848H345.92C345.968 74.704 346.056 74.496 346.184 74.224C346.328 73.936 346.528 73.648 346.784 73.36C347.056 73.056 347.4 72.8 347.816 72.592C348.232 72.368 348.736 72.256 349.328 72.256C349.968 72.256 350.488 72.384 350.888 72.64C351.288 72.896 351.6 73.224 351.824 73.624C352.048 74.008 352.208 74.424 352.304 74.872C352.4 75.32 352.456 75.752 352.472 76.168C352.488 76.568 352.496 76.904 352.496 77.176V82H351.512V77.152C351.512 76.88 351.496 76.536 351.464 76.12C351.448 75.688 351.36 75.256 351.2 74.824C351.056 74.376 350.816 74.008 350.48 73.72C350.144 73.416 349.664 73.264 349.04 73.264C348.352 73.264 347.792 73.456 347.36 73.84C346.928 74.224 346.6 74.728 346.376 75.352C346.168 75.976 346.064 76.656 346.064 77.392V82H345.08V77.152C345.08 76.88 345.064 76.536 345.032 76.12C345.016 75.688 344.928 75.256 344.768 74.824C344.624 74.376 344.384 74.008 344.048 73.72C343.712 73.416 343.232 73.264 342.608 73.264C341.92 73.264 341.36 73.456 340.928 73.84C340.496 74.224 340.168 74.728 339.944 75.352C339.736 75.976 339.632 76.656 339.632 77.392V82H338.624ZM357.947 82.216C357.051 82.216 356.307 81.992 355.715 81.544C355.123 81.096 354.683 80.496 354.395 79.744C354.107 78.976 353.963 78.128 353.963 77.2C353.963 76.24 354.107 75.384 354.395 74.632C354.699 73.864 355.147 73.264 355.739 72.832C356.331 72.384 357.067 72.16 357.947 72.16C358.891 72.16 359.643 72.392 360.203 72.856C360.763 73.304 361.163 73.824 361.403 74.416H361.451V72.256H362.555V82H361.643L361.451 79.984H361.403C361.147 80.576 360.739 81.096 360.179 81.544C359.619 81.992 358.875 82.216 357.947 82.216ZM358.355 81.208C359.379 81.208 360.147 80.856 360.659 80.152C361.171 79.448 361.427 78.472 361.427 77.224C361.427 75.896 361.155 74.896 360.611 74.224C360.083 73.552 359.331 73.216 358.355 73.216C357.219 73.216 356.387 73.6 355.859 74.368C355.331 75.12 355.067 76.064 355.067 77.2C355.067 78.384 355.339 79.352 355.883 80.104C356.427 80.84 357.251 81.208 358.355 81.208ZM314.832 115H313.752V101.488H322.944V102.472H314.832V107.296H321.312V108.256H314.832V115ZM325.124 104.224C324.852 104.24 324.668 104.168 324.572 104.008C324.476 103.848 324.428 103.656 324.428 103.432C324.428 103.224 324.476 103.048 324.572 102.904C324.668 102.76 324.852 102.688 325.124 102.688C325.38 102.688 325.556 102.76 325.652 102.904C325.748 103.048 325.796 103.224 325.796 103.432C325.796 103.672 325.748 103.864 325.652 104.008C325.556 104.152 325.38 104.224 325.124 104.224ZM324.548 115V105.256H325.628V115H324.548ZM330.191 118.84V117.808H335.327V112.624H335.279C335.247 112.736 335.151 112.928 334.991 113.2C334.847 113.472 334.631 113.768 334.343 114.088C334.055 114.408 333.679 114.68 333.215 114.904C332.767 115.128 332.223 115.24 331.583 115.24C330.655 115.24 329.863 115.016 329.207 114.568C328.567 114.12 328.079 113.52 327.743 112.768C327.407 112.016 327.239 111.176 327.239 110.248C327.239 109.304 327.407 108.456 327.743 107.704C328.095 106.952 328.591 106.36 329.231 105.928C329.887 105.48 330.679 105.256 331.607 105.256C332.263 105.256 332.815 105.376 333.263 105.616C333.727 105.84 334.095 106.112 334.367 106.432C334.655 106.736 334.863 107.032 334.991 107.32C335.135 107.592 335.223 107.784 335.255 107.896H335.303L335.327 105.256H336.455V117.088C336.455 117.6 336.359 118.016 336.167 118.336C335.991 118.672 335.615 118.84 335.039 118.84H330.191ZM331.727 114.208C332.703 114.208 333.535 113.864 334.223 113.176C334.927 112.488 335.279 111.512 335.279 110.248C335.279 109.016 334.951 108.056 334.295 107.368C333.639 106.664 332.831 106.312 331.871 106.312C331.071 106.312 330.407 106.504 329.879 106.888C329.351 107.256 328.959 107.744 328.703 108.352C328.447 108.944 328.319 109.576 328.319 110.248C328.319 110.92 328.431 111.56 328.655 112.168C328.895 112.776 329.263 113.272 329.759 113.656C330.271 114.024 330.927 114.208 331.727 114.208ZM340.04 103.96C339.752 103.96 339.56 103.888 339.464 103.744C339.384 103.584 339.344 103.384 339.344 103.144C339.344 102.936 339.384 102.76 339.464 102.616C339.56 102.456 339.752 102.376 340.04 102.376C340.312 102.376 340.488 102.456 340.568 102.616C340.664 102.76 340.712 102.936 340.712 103.144C340.712 103.384 340.664 103.584 340.568 103.744C340.488 103.888 340.312 103.96 340.04 103.96ZM339.464 105.256H340.568V117.376C340.568 117.776 340.488 118.12 340.328 118.408C340.184 118.696 339.864 118.84 339.368 118.84H337.784V117.904H339.464V105.256ZM346.205 115.216C345.309 115.216 344.565 114.992 343.973 114.544C343.381 114.096 342.941 113.496 342.653 112.744C342.365 111.976 342.221 111.128 342.221 110.2C342.221 109.24 342.365 108.384 342.653 107.632C342.957 106.864 343.405 106.264 343.997 105.832C344.589 105.384 345.325 105.16 346.205 105.16C347.149 105.16 347.901 105.392 348.461 105.856C349.021 106.304 349.421 106.824 349.661 107.416H349.709V105.256H350.813V115H349.901L349.709 112.984H349.661C349.405 113.576 348.997 114.096 348.437 114.544C347.877 114.992 347.133 115.216 346.205 115.216ZM346.613 114.208C347.637 114.208 348.405 113.856 348.917 113.152C349.429 112.448 349.685 111.472 349.685 110.224C349.685 108.896 349.413 107.896 348.868 107.224C348.341 106.552 347.589 106.216 346.613 106.216C345.477 106.216 344.645 106.6 344.117 107.368C343.589 108.12 343.325 109.064 343.325 110.2C343.325 111.384 343.597 112.352 344.141 113.104C344.685 113.84 345.509 114.208 346.613 114.208ZM352.663 115V105.256H353.575L353.671 107.848H353.719C353.767 107.704 353.847 107.496 353.959 107.224C354.087 106.936 354.271 106.648 354.511 106.36C354.751 106.056 355.071 105.8 355.471 105.592C355.871 105.368 356.367 105.256 356.959 105.256C357.599 105.256 358.111 105.384 358.495 105.64C358.895 105.88 359.207 106.2 359.431 106.6C359.655 107 359.815 107.416 359.911 107.848H359.959C360.007 107.704 360.095 107.496 360.223 107.224C360.367 106.936 360.567 106.648 360.823 106.36C361.095 106.056 361.439 105.8 361.855 105.592C362.271 105.368 362.775 105.256 363.367 105.256C364.007 105.256 364.527 105.384 364.927 105.64C365.327 105.896 365.639 106.224 365.863 106.624C366.087 107.008 366.247 107.424 366.343 107.872C366.439 108.32 366.495 108.752 366.511 109.168C366.527 109.568 366.535 109.904 366.535 110.176V115H365.551V110.152C365.551 109.88 365.535 109.536 365.503 109.12C365.487 108.688 365.399 108.256 365.239 107.824C365.095 107.376 364.855 107.008 364.519 106.72C364.183 106.416 363.703 106.264 363.079 106.264C362.391 106.264 361.831 106.456 361.399 106.84C360.967 107.224 360.639 107.728 360.415 108.352C360.207 108.976 360.103 109.656 360.103 110.392V115H359.119V110.152C359.119 109.88 359.103 109.536 359.071 109.12C359.055 108.688 358.967 108.256 358.807 107.824C358.663 107.376 358.423 107.008 358.087 106.72C357.751 106.416 357.271 106.264 356.647 106.264C355.959 106.264 355.399 106.456 354.967 106.84C354.535 107.224 354.207 107.728 353.983 108.352C353.775 108.976 353.671 109.656 353.671 110.392V115H352.663ZM312.792 148V147.064L322.368 135.472H313.632V134.488H323.76V135.424L314.232 146.992H323.688V148H312.792ZM330.076 148.24C328.556 148.24 327.412 147.776 326.644 146.848C325.892 145.904 325.516 144.712 325.516 143.272C325.516 141.8 325.9 140.6 326.668 139.672C327.436 138.728 328.572 138.256 330.076 138.256C331.548 138.256 332.668 138.72 333.436 139.648C334.22 140.56 334.612 141.768 334.612 143.272C334.612 144.216 334.444 145.064 334.108 145.816C333.788 146.552 333.292 147.144 332.62 147.592C331.964 148.024 331.116 148.24 330.076 148.24ZM330.076 147.256C330.972 147.256 331.668 147.056 332.164 146.656C332.66 146.256 333.004 145.752 333.196 145.144C333.404 144.52 333.508 143.888 333.508 143.248C333.508 142.592 333.404 141.96 333.196 141.352C333.004 140.728 332.66 140.216 332.164 139.816C331.668 139.4 330.972 139.192 330.076 139.192C329.18 139.192 328.484 139.4 327.988 139.816C327.492 140.216 327.14 140.728 326.932 141.352C326.724 141.96 326.62 142.592 326.62 143.248C326.62 143.888 326.724 144.52 326.932 145.144C327.14 145.752 327.492 146.256 327.988 146.656C328.484 147.056 329.18 147.256 330.076 147.256ZM340.88 148.24C339.36 148.24 338.216 147.776 337.448 146.848C336.696 145.904 336.32 144.712 336.32 143.272C336.32 141.8 336.704 140.6 337.472 139.672C338.24 138.728 339.376 138.256 340.88 138.256C342.352 138.256 343.472 138.72 344.24 139.648C345.024 140.56 345.416 141.768 345.416 143.272C345.416 144.216 345.248 145.064 344.912 145.816C344.592 146.552 344.096 147.144 343.424 147.592C342.768 148.024 341.92 148.24 340.88 148.24ZM340.88 147.256C341.776 147.256 342.472 147.056 342.968 146.656C343.464 146.256 343.808 145.752 344 145.144C344.208 144.52 344.312 143.888 344.312 143.248C344.312 142.592 344.208 141.96 344 141.352C343.808 140.728 343.464 140.216 342.968 139.816C342.472 139.4 341.776 139.192 340.88 139.192C339.984 139.192 339.288 139.4 338.792 139.816C338.296 140.216 337.944 140.728 337.736 141.352C337.528 141.96 337.424 142.592 337.424 143.248C337.424 143.888 337.528 144.52 337.736 145.144C337.944 145.752 338.296 146.256 338.792 146.656C339.288 147.056 339.984 147.256 340.88 147.256ZM347.389 148V138.256H348.301L348.397 140.848H348.445C348.493 140.704 348.573 140.496 348.685 140.224C348.813 139.936 348.997 139.648 349.237 139.36C349.477 139.056 349.797 138.8 350.197 138.592C350.597 138.368 351.093 138.256 351.685 138.256C352.325 138.256 352.837 138.384 353.221 138.64C353.621 138.88 353.933 139.2 354.157 139.6C354.381 140 354.541 140.416 354.637 140.848H354.685C354.733 140.704 354.821 140.496 354.949 140.224C355.093 139.936 355.293 139.648 355.549 139.36C355.821 139.056 356.165 138.8 356.581 138.592C356.997 138.368 357.501 138.256 358.093 138.256C358.733 138.256 359.253 138.384 359.653 138.64C360.053 138.896 360.365 139.224 360.589 139.624C360.813 140.008 360.973 140.424 361.069 140.872C361.165 141.32 361.221 141.752 361.237 142.168C361.253 142.568 361.261 142.904 361.261 143.176V148H360.277V143.152C360.277 142.88 360.261 142.536 360.229 142.12C360.213 141.688 360.125 141.256 359.965 140.824C359.821 140.376 359.581 140.008 359.245 139.72C358.909 139.416 358.429 139.264 357.805 139.264C357.117 139.264 356.557 139.456 356.125 139.84C355.693 140.224 355.365 140.728 355.141 141.352C354.933 141.976 354.829 142.656 354.829 143.392V148H353.845V143.152C353.845 142.88 353.829 142.536 353.797 142.12C353.781 141.688 353.693 141.256 353.533 140.824C353.389 140.376 353.149 140.008 352.813 139.72C352.477 139.416 351.997 139.264 351.373 139.264C350.685 139.264 350.125 139.456 349.693 139.84C349.261 140.224 348.933 140.728 348.709 141.352C348.501 141.976 348.397 142.656 348.397 143.392V148H347.389Z" fill="black"/>
<path d="M624.34 19.306V16.858H638.96V19.306H633.078V36H630.256V19.306H624.34ZM641.974 20.564C641.362 20.5867 640.954 20.4393 640.75 20.122C640.546 19.8047 640.444 19.408 640.444 18.932C640.444 18.524 640.546 18.1613 640.75 17.844C640.954 17.5267 641.362 17.368 641.974 17.368C642.563 17.368 642.96 17.5267 643.164 17.844C643.39 18.1613 643.504 18.524 643.504 18.932C643.504 19.408 643.39 19.8047 643.164 20.122C642.96 20.4167 642.563 20.564 641.974 20.564ZM640.546 36V22.094H643.368V36H640.546ZM646.509 36V22.094H648.957L649.025 25.324H649.093C649.138 25.2107 649.229 24.984 649.365 24.644C649.523 24.304 649.761 23.9413 650.079 23.556C650.419 23.148 650.861 22.808 651.405 22.536C651.949 22.2413 652.617 22.094 653.411 22.094C654.612 22.094 655.496 22.4227 656.063 23.08C656.652 23.7147 657.071 24.4627 657.321 25.324H657.389C657.411 25.2107 657.513 24.984 657.695 24.644C657.876 24.304 658.137 23.9413 658.477 23.556C658.839 23.148 659.304 22.808 659.871 22.536C660.437 22.2413 661.129 22.094 661.945 22.094C662.829 22.094 663.543 22.2753 664.087 22.638C664.653 23.0007 665.084 23.4767 665.379 24.066C665.696 24.6327 665.911 25.2447 666.025 25.902C666.161 26.5367 666.24 27.1487 666.263 27.738C666.285 28.3273 666.297 28.8147 666.297 29.2V36H663.883V29.166C663.883 28.826 663.86 28.4067 663.815 27.908C663.792 27.3867 663.69 26.8767 663.509 26.378C663.35 25.8567 663.067 25.4373 662.659 25.12C662.273 24.78 661.718 24.61 660.993 24.61C660.131 24.61 659.463 24.8367 658.987 25.29C658.511 25.7433 658.171 26.344 657.967 27.092C657.763 27.8173 657.661 28.5767 657.661 29.37V36H655.247V29.166C655.247 28.826 655.224 28.4067 655.179 27.908C655.156 27.3867 655.054 26.8767 654.873 26.378C654.714 25.8567 654.431 25.4373 654.023 25.12C653.637 24.78 653.082 24.61 652.357 24.61C651.495 24.61 650.827 24.8367 650.351 25.29C649.875 25.7433 649.535 26.344 649.331 27.092C649.127 27.8173 649.025 28.5767 649.025 29.37V36H646.509ZM675.346 36.34C673.782 36.34 672.501 36 671.504 35.32C670.507 34.6173 669.77 33.722 669.294 32.634C668.818 31.546 668.58 30.4013 668.58 29.2C668.557 27.8627 668.807 26.65 669.328 25.562C669.872 24.474 670.643 23.6127 671.64 22.978C672.66 22.3433 673.873 22.026 675.278 22.026C676.479 22.026 677.556 22.298 678.508 22.842C679.483 23.3633 680.253 24.1113 680.82 25.086C681.387 26.038 681.693 27.1713 681.738 28.486C681.738 28.554 681.738 28.69 681.738 28.894C681.761 29.0753 681.772 29.234 681.772 29.37H671.266C671.266 30.8207 671.617 31.954 672.32 32.77C673.045 33.5633 674.043 33.96 675.312 33.96C676.264 33.96 677.069 33.722 677.726 33.246C678.406 32.7473 678.825 32.09 678.984 31.274H681.738C681.534 32.7247 680.877 33.9373 679.766 34.912C678.655 35.864 677.182 36.34 675.346 36.34ZM671.368 27.976H678.916C678.893 27.7267 678.825 27.398 678.712 26.99C678.599 26.582 678.406 26.1853 678.134 25.8C677.885 25.392 677.522 25.052 677.046 24.78C676.57 24.508 675.958 24.372 675.21 24.372C674.281 24.372 673.544 24.576 673 24.984C672.479 25.3693 672.082 25.8453 671.81 26.412C671.561 26.956 671.413 27.4773 671.368 27.976ZM684.901 36V16.858H687.689V36H684.901ZM692.675 20.564C692.063 20.5867 691.655 20.4393 691.451 20.122C691.247 19.8047 691.145 19.408 691.145 18.932C691.145 18.524 691.247 18.1613 691.451 17.844C691.655 17.5267 692.063 17.368 692.675 17.368C693.264 17.368 693.661 17.5267 693.865 17.844C694.092 18.1613 694.205 18.524 694.205 18.932C694.205 19.408 694.092 19.8047 693.865 20.122C693.661 20.4167 693.264 20.564 692.675 20.564ZM691.247 36V22.094H694.069V36H691.247ZM697.21 36V22.128H699.624L700.1 25.324H700.168C700.191 25.2333 700.281 25.018 700.44 24.678C700.599 24.338 700.859 23.9753 701.222 23.59C701.585 23.182 702.072 22.8307 702.684 22.536C703.296 22.2413 704.067 22.094 704.996 22.094C706.22 22.094 707.172 22.332 707.852 22.808C708.532 23.2613 709.031 23.862 709.348 24.61C709.665 25.3353 709.858 26.106 709.926 26.922C710.017 27.738 710.062 28.4973 710.062 29.2V36H707.308V29.166C707.308 28.3047 707.217 27.534 707.036 26.854C706.855 26.1513 706.515 25.6073 706.016 25.222C705.54 24.814 704.837 24.61 703.908 24.61C702.956 24.61 702.197 24.8367 701.63 25.29C701.063 25.7433 700.667 26.3327 700.44 27.058C700.213 27.7833 700.1 28.554 700.1 29.37V36H697.21ZM719.108 36.34C717.544 36.34 716.263 36 715.266 35.32C714.268 34.6173 713.532 33.722 713.056 32.634C712.58 31.546 712.342 30.4013 712.342 29.2C712.319 27.8627 712.568 26.65 713.09 25.562C713.634 24.474 714.404 23.6127 715.402 22.978C716.422 22.3433 717.634 22.026 719.04 22.026C720.241 22.026 721.318 22.298 722.27 22.842C723.244 23.3633 724.015 24.1113 724.582 25.086C725.148 26.038 725.454 27.1713 725.5 28.486C725.5 28.554 725.5 28.69 725.5 28.894C725.522 29.0753 725.534 29.234 725.534 29.37H715.028C715.028 30.8207 715.379 31.954 716.082 32.77C716.807 33.5633 717.804 33.96 719.074 33.96C720.026 33.96 720.83 33.722 721.488 33.246C722.168 32.7473 722.587 32.09 722.746 31.274H725.5C725.296 32.7247 724.638 33.9373 723.528 34.912C722.417 35.864 720.944 36.34 719.108 36.34ZM715.13 27.976H722.678C722.655 27.7267 722.587 27.398 722.474 26.99C722.36 26.582 722.168 26.1853 721.896 25.8C721.646 25.392 721.284 25.052 720.808 24.78C720.332 24.508 719.72 24.372 718.972 24.372C718.042 24.372 717.306 24.576 716.762 24.984C716.24 25.3693 715.844 25.8453 715.572 26.412C715.322 26.956 715.175 27.4773 715.13 27.976ZM754.861 36.068C754.023 35.728 753.229 35.3653 752.481 34.98C751.756 34.572 750.985 34.096 750.169 33.552C749.24 34.4587 748.175 35.1387 746.973 35.592C745.772 36.0453 744.548 36.2833 743.301 36.306C742.077 36.3287 740.944 36.136 739.901 35.728C738.859 35.2973 738.009 34.6627 737.351 33.824C736.717 32.9627 736.399 31.8973 736.399 30.628C736.399 29.744 736.569 28.996 736.909 28.384C737.249 27.772 737.669 27.2733 738.167 26.888C738.666 26.48 739.165 26.1513 739.663 25.902C740.162 25.63 740.559 25.4147 740.853 25.256C740.672 25.0067 740.411 24.6667 740.071 24.236C739.754 23.8053 739.459 23.3067 739.187 22.74C738.938 22.1507 738.813 21.4933 738.813 20.768C738.813 19.8613 739.051 19.102 739.527 18.49C740.003 17.8553 740.627 17.3793 741.397 17.062C742.168 16.7447 742.984 16.586 743.845 16.586C744.707 16.5633 745.523 16.6993 746.293 16.994C747.064 17.2887 747.687 17.742 748.163 18.354C748.662 18.9433 748.911 19.6913 748.911 20.598C748.911 21.3687 748.707 22.06 748.299 22.672C747.914 23.2613 747.438 23.7713 746.871 24.202C746.327 24.6327 745.817 24.9727 745.341 25.222C744.888 25.4713 744.593 25.63 744.457 25.698C744.707 26.0153 745.069 26.4347 745.545 26.956C746.044 27.4547 746.611 27.9873 747.245 28.554C747.903 29.098 748.571 29.6193 749.251 30.118C749.501 29.7327 749.739 29.2227 749.965 28.588C750.192 27.9533 750.294 27.3073 750.271 26.65C750.271 25.9927 750.045 25.426 749.591 24.95L751.971 23.352C752.153 23.624 752.345 24.0547 752.549 24.644C752.776 25.2333 752.923 25.9247 752.991 26.718C753.082 27.5113 753.037 28.3387 752.855 29.2C752.674 30.0613 752.3 30.8887 751.733 31.682C752.391 32.1353 753.025 32.5433 753.637 32.906C754.272 33.246 755.031 33.586 755.915 33.926L754.861 36.068ZM742.893 24.372C743.052 24.304 743.324 24.168 743.709 23.964C744.095 23.76 744.491 23.5107 744.899 23.216C745.307 22.9213 745.659 22.5927 745.953 22.23C746.271 21.8447 746.441 21.4367 746.463 21.006C746.509 20.4167 746.361 19.952 746.021 19.612C745.681 19.2493 745.251 19.0113 744.729 18.898C744.231 18.762 743.721 18.762 743.199 18.898C742.678 19.0113 742.236 19.2493 741.873 19.612C741.533 19.952 741.363 20.428 741.363 21.04C741.386 22.0147 741.896 23.1253 742.893 24.372ZM747.959 31.954C746.939 31.1833 745.931 30.322 744.933 29.37C743.936 28.418 743.086 27.5 742.383 26.616C741.545 27.024 740.808 27.5 740.173 28.044C739.539 28.588 739.221 29.336 739.221 30.288C739.221 31.2853 739.527 32.0787 740.139 32.668C740.774 33.2347 741.567 33.5973 742.519 33.756C743.471 33.9147 744.435 33.8467 745.409 33.552C746.407 33.2573 747.257 32.7247 747.959 31.954ZM764.557 19.306V16.858H779.177V19.306H773.295V36H770.473V19.306H764.557ZM784.883 36.34C783.319 36.34 782.039 36 781.041 35.32C780.044 34.6173 779.307 33.722 778.831 32.634C778.355 31.546 778.117 30.4013 778.117 29.2C778.095 27.8627 778.344 26.65 778.865 25.562C779.409 24.474 780.18 23.6127 781.177 22.978C782.197 22.3433 783.41 22.026 784.815 22.026C786.017 22.026 787.093 22.298 788.045 22.842C789.02 23.3633 789.791 24.1113 790.357 25.086C790.924 26.038 791.23 27.1713 791.275 28.486C791.275 28.554 791.275 28.69 791.275 28.894C791.298 29.0753 791.309 29.234 791.309 29.37H780.803C780.803 30.8207 781.155 31.954 781.857 32.77C782.583 33.5633 783.58 33.96 784.849 33.96C785.801 33.96 786.606 33.722 787.263 33.246C787.943 32.7473 788.363 32.09 788.521 31.274H791.275C791.071 32.7247 790.414 33.9373 789.303 34.912C788.193 35.864 786.719 36.34 784.883 36.34ZM780.905 27.976H788.453C788.431 27.7267 788.363 27.398 788.249 26.99C788.136 26.582 787.943 26.1853 787.671 25.8C787.422 25.392 787.059 25.052 786.583 24.78C786.107 24.508 785.495 24.372 784.747 24.372C783.818 24.372 783.081 24.576 782.537 24.984C782.016 25.3693 781.619 25.8453 781.347 26.412C781.098 26.956 780.951 27.4773 780.905 27.976ZM798.858 36.306C797.566 36.306 796.524 36.0113 795.73 35.422C794.937 34.81 794.348 33.9713 793.962 32.906C793.6 31.818 793.418 30.5827 793.418 29.2C793.418 27.092 793.849 25.3693 794.71 24.032C795.572 22.672 796.954 21.992 798.858 21.992C799.878 21.992 800.706 22.1733 801.34 22.536C801.975 22.8987 802.462 23.3067 802.802 23.76C803.165 24.2133 803.414 24.61 803.55 24.95H803.618V22.094H806.508V36H804.094L803.618 33.518H803.55C803.414 33.858 803.165 34.2547 802.802 34.708C802.44 35.1387 801.941 35.5127 801.306 35.83C800.672 36.1473 799.856 36.306 798.858 36.306ZM799.98 33.892C801.318 33.892 802.247 33.4613 802.768 32.6C803.312 31.7387 803.584 30.6167 803.584 29.234C803.584 27.7833 803.301 26.6387 802.734 25.8C802.19 24.9613 801.272 24.542 799.98 24.542C799.028 24.542 798.28 24.7573 797.736 25.188C797.192 25.596 796.796 26.1513 796.546 26.854C796.32 27.5567 796.206 28.3387 796.206 29.2C796.206 30.5373 796.49 31.6593 797.056 32.566C797.623 33.45 798.598 33.892 799.98 33.892ZM809.005 36V22.094H811.453L811.521 25.324H811.589C811.634 25.2107 811.725 24.984 811.861 24.644C812.02 24.304 812.258 23.9413 812.575 23.556C812.915 23.148 813.357 22.808 813.901 22.536C814.445 22.2413 815.114 22.094 815.907 22.094C817.108 22.094 817.992 22.4227 818.559 23.08C819.148 23.7147 819.568 24.4627 819.817 25.324H819.885C819.908 25.2107 820.01 24.984 820.191 24.644C820.372 24.304 820.633 23.9413 820.973 23.556C821.336 23.148 821.8 22.808 822.367 22.536C822.934 22.2413 823.625 22.094 824.441 22.094C825.325 22.094 826.039 22.2753 826.583 22.638C827.15 23.0007 827.58 23.4767 827.875 24.066C828.192 24.6327 828.408 25.2447 828.521 25.902C828.657 26.5367 828.736 27.1487 828.759 27.738C828.782 28.3273 828.793 28.8147 828.793 29.2V36H826.379V29.166C826.379 28.826 826.356 28.4067 826.311 27.908C826.288 27.3867 826.186 26.8767 826.005 26.378C825.846 25.8567 825.563 25.4373 825.155 25.12C824.77 24.78 824.214 24.61 823.489 24.61C822.628 24.61 821.959 24.8367 821.483 25.29C821.007 25.7433 820.667 26.344 820.463 27.092C820.259 27.8173 820.157 28.5767 820.157 29.37V36H817.743V29.166C817.743 28.826 817.72 28.4067 817.675 27.908C817.652 27.3867 817.55 26.8767 817.369 26.378C817.21 25.8567 816.927 25.4373 816.519 25.12C816.134 24.78 815.578 24.61 814.853 24.61C813.992 24.61 813.323 24.8367 812.847 25.29C812.371 25.7433 812.031 26.344 811.827 27.092C811.623 27.8173 811.521 28.5767 811.521 29.37V36H809.005Z" fill="#131313"/>
<path d="M630.48 81.016V82H625.392V81.016H627.48V70.48C627.256 71.088 626.928 71.536 626.496 71.824C626.08 72.096 625.68 72.28 625.296 72.376C624.928 72.456 624.688 72.496 624.576 72.496V71.392C624.672 71.392 624.872 71.36 625.176 71.296C625.48 71.216 625.816 71.072 626.184 70.864C626.552 70.656 626.864 70.36 627.12 69.976C627.392 69.592 627.536 69.096 627.552 68.488H628.512V81.016H630.48ZM638.202 82V72.256H639.114L639.21 74.848H639.258C639.306 74.704 639.386 74.496 639.498 74.224C639.626 73.936 639.81 73.648 640.05 73.36C640.29 73.056 640.61 72.8 641.01 72.592C641.41 72.368 641.906 72.256 642.498 72.256C643.138 72.256 643.65 72.384 644.034 72.64C644.434 72.88 644.746 73.2 644.97 73.6C645.194 74 645.354 74.416 645.45 74.848H645.498C645.546 74.704 645.634 74.496 645.762 74.224C645.906 73.936 646.106 73.648 646.362 73.36C646.634 73.056 646.978 72.8 647.394 72.592C647.81 72.368 648.314 72.256 648.906 72.256C649.546 72.256 650.066 72.384 650.466 72.64C650.866 72.896 651.178 73.224 651.402 73.624C651.626 74.008 651.786 74.424 651.882 74.872C651.978 75.32 652.034 75.752 652.05 76.168C652.066 76.568 652.074 76.904 652.074 77.176V82H651.09V77.152C651.09 76.88 651.074 76.536 651.042 76.12C651.026 75.688 650.938 75.256 650.778 74.824C650.634 74.376 650.394 74.008 650.058 73.72C649.722 73.416 649.242 73.264 648.618 73.264C647.93 73.264 647.37 73.456 646.938 73.84C646.506 74.224 646.178 74.728 645.954 75.352C645.746 75.976 645.642 76.656 645.642 77.392V82H644.658V77.152C644.658 76.88 644.642 76.536 644.61 76.12C644.594 75.688 644.506 75.256 644.346 74.824C644.202 74.376 643.962 74.008 643.626 73.72C643.29 73.416 642.81 73.264 642.186 73.264C641.498 73.264 640.938 73.456 640.506 73.84C640.074 74.224 639.746 74.728 639.522 75.352C639.314 75.976 639.21 76.656 639.21 77.392V82H638.202ZM658.365 82.24C656.845 82.24 655.701 81.776 654.933 80.848C654.181 79.904 653.805 78.712 653.805 77.272C653.805 75.8 654.189 74.6 654.957 73.672C655.725 72.728 656.861 72.256 658.365 72.256C659.837 72.256 660.957 72.72 661.725 73.648C662.509 74.56 662.901 75.768 662.901 77.272C662.901 78.216 662.733 79.064 662.397 79.816C662.077 80.552 661.581 81.144 660.909 81.592C660.253 82.024 659.405 82.24 658.365 82.24ZM658.365 81.256C659.261 81.256 659.957 81.056 660.453 80.656C660.949 80.256 661.293 79.752 661.485 79.144C661.693 78.52 661.797 77.888 661.797 77.248C661.797 76.592 661.693 75.96 661.485 75.352C661.293 74.728 660.949 74.216 660.453 73.816C659.957 73.4 659.261 73.192 658.365 73.192C657.469 73.192 656.773 73.4 656.277 73.816C655.781 74.216 655.429 74.728 655.221 75.352C655.013 75.96 654.909 76.592 654.909 77.248C654.909 77.888 655.013 78.52 655.221 79.144C655.429 79.752 655.781 80.256 656.277 80.656C656.773 81.056 657.469 81.256 658.365 81.256ZM664.874 82V72.28H665.786L665.978 74.848H666.026C666.058 74.736 666.138 74.544 666.266 74.272C666.394 74 666.594 73.712 666.866 73.408C667.138 73.088 667.498 72.816 667.946 72.592C668.394 72.368 668.954 72.256 669.626 72.256C670.458 72.256 671.122 72.408 671.618 72.712C672.114 73 672.49 73.384 672.746 73.864C673.002 74.344 673.17 74.872 673.25 75.448C673.33 76.024 673.37 76.6 673.37 77.176V82H672.29V77.152C672.29 75.968 672.082 75.024 671.666 74.32C671.266 73.616 670.514 73.264 669.41 73.264C668.626 73.264 667.978 73.456 667.465 73.84C666.97 74.208 666.594 74.712 666.338 75.352C666.098 75.976 665.978 76.656 665.978 77.392V82H664.874ZM677.391 82C676.879 82 676.551 81.856 676.407 81.568C676.263 81.28 676.191 80.936 676.191 80.536V73.144H674.583V72.256C675.159 72.256 675.559 72.224 675.783 72.16C676.007 72.08 676.143 71.864 676.191 71.512C676.239 71.16 676.263 70.568 676.263 69.736H677.247V72.256H679.527V73.144H677.247V81.064H679.527V82H677.391ZM681.656 82V68.488H682.76V74.848H682.808C682.84 74.736 682.92 74.544 683.048 74.272C683.176 74 683.376 73.712 683.648 73.408C683.92 73.088 684.272 72.816 684.704 72.592C685.152 72.368 685.704 72.256 686.36 72.256C687.192 72.256 687.856 72.408 688.352 72.712C688.864 73 689.248 73.384 689.504 73.864C689.76 74.344 689.928 74.872 690.008 75.448C690.088 76.024 690.128 76.6 690.128 77.176V82H689.072V77.152C689.072 75.968 688.864 75.024 688.448 74.32C688.032 73.616 687.272 73.264 686.168 73.264C685.4 73.264 684.76 73.456 684.248 73.84C683.736 74.208 683.36 74.712 683.12 75.352C682.88 75.976 682.76 76.656 682.76 77.392V82H681.656ZM700.125 82C699.613 82 699.285 81.856 699.141 81.568C698.997 81.28 698.925 80.936 698.925 80.536V73.144H697.317V72.256C697.893 72.256 698.293 72.224 698.517 72.16C698.741 72.08 698.877 71.864 698.925 71.512C698.973 71.16 698.997 70.568 698.997 69.736H699.981V72.256H702.261V73.144H699.981V81.064H702.261V82H700.125ZM708.24 82.24C706.72 82.24 705.576 81.776 704.808 80.848C704.056 79.904 703.68 78.712 703.68 77.272C703.68 75.8 704.064 74.6 704.832 73.672C705.6 72.728 706.736 72.256 708.24 72.256C709.712 72.256 710.832 72.72 711.6 73.648C712.384 74.56 712.776 75.768 712.776 77.272C712.776 78.216 712.608 79.064 712.272 79.816C711.952 80.552 711.456 81.144 710.784 81.592C710.128 82.024 709.28 82.24 708.24 82.24ZM708.24 81.256C709.136 81.256 709.832 81.056 710.328 80.656C710.824 80.256 711.168 79.752 711.36 79.144C711.568 78.52 711.672 77.888 711.672 77.248C711.672 76.592 711.568 75.96 711.36 75.352C711.168 74.728 710.824 74.216 710.328 73.816C709.832 73.4 709.136 73.192 708.24 73.192C707.344 73.192 706.648 73.4 706.152 73.816C705.656 74.216 705.304 74.728 705.096 75.352C704.888 75.96 704.784 76.592 704.784 77.248C704.784 77.888 704.888 78.52 705.096 79.144C705.304 79.752 705.656 80.256 706.152 80.656C706.648 81.056 707.344 81.256 708.24 81.256ZM725.215 82.24C724.287 82.24 723.495 82.024 722.839 81.592C722.199 81.144 721.711 80.544 721.375 79.792C721.039 79.024 720.871 78.176 720.871 77.248C720.871 76.304 721.039 75.456 721.375 74.704C721.727 73.952 722.223 73.36 722.863 72.928C723.519 72.48 724.311 72.256 725.239 72.256C725.911 72.256 726.471 72.376 726.919 72.616C727.367 72.84 727.727 73.112 727.999 73.432C728.287 73.736 728.503 74.032 728.647 74.32C728.791 74.592 728.879 74.784 728.911 74.896H728.959L728.983 68.488H730.087V82H729.175L728.983 79.624H728.935C728.887 79.736 728.783 79.928 728.623 80.2C728.479 80.472 728.263 80.768 727.975 81.088C727.687 81.408 727.311 81.68 726.847 81.904C726.399 82.128 725.855 82.24 725.215 82.24ZM725.359 81.208C726.351 81.208 727.191 80.864 727.879 80.176C728.567 79.488 728.911 78.512 728.911 77.248C728.911 76.016 728.583 75.056 727.927 74.368C727.287 73.664 726.487 73.312 725.527 73.312C724.727 73.312 724.063 73.504 723.535 73.888C723.007 74.256 722.607 74.744 722.335 75.352C722.079 75.944 721.951 76.576 721.951 77.248C721.951 77.92 722.071 78.56 722.311 79.168C722.551 79.776 722.919 80.272 723.415 80.656C723.911 81.024 724.559 81.208 725.359 81.208ZM736.46 82.24C735.42 82.24 734.556 81.992 733.868 81.496C733.196 81 732.692 80.368 732.356 79.6C732.02 78.816 731.86 78.008 731.876 77.176C731.876 76.312 732.052 75.504 732.404 74.752C732.756 74 733.268 73.4 733.94 72.952C734.628 72.488 735.46 72.256 736.436 72.256C737.652 72.256 738.652 72.656 739.436 73.456C740.236 74.24 740.684 75.296 740.78 76.624C740.796 76.704 740.804 76.8 740.804 76.912C740.804 77.024 740.804 77.128 740.804 77.224H732.932C732.932 78.456 733.236 79.44 733.844 80.176C734.452 80.912 735.324 81.28 736.46 81.28C737.276 81.28 737.98 81.064 738.572 80.632C739.18 80.2 739.556 79.616 739.7 78.88H740.78C740.588 79.872 740.1 80.68 739.316 81.304C738.548 81.928 737.596 82.24 736.46 82.24ZM733.004 76.504H739.676C739.66 76.088 739.54 75.624 739.316 75.112C739.108 74.6 738.764 74.152 738.284 73.768C737.82 73.384 737.204 73.192 736.436 73.192C735.38 73.192 734.572 73.52 734.012 74.176C733.452 74.832 733.116 75.608 733.004 76.504ZM746.523 82.24C745.707 82.24 745.043 82.104 744.531 81.832C744.019 81.544 743.627 81.208 743.355 80.824C743.083 80.44 742.891 80.072 742.779 79.72C742.683 79.368 742.635 79.112 742.635 78.952H743.715C743.715 78.968 743.723 79.104 743.739 79.36C743.771 79.6 743.867 79.88 744.027 80.2C744.187 80.52 744.459 80.8 744.843 81.04C745.243 81.264 745.811 81.376 746.547 81.376C747.059 81.376 747.539 81.32 747.987 81.208C748.451 81.08 748.819 80.888 749.091 80.632C749.379 80.36 749.523 80.008 749.523 79.576C749.507 79.064 749.339 78.672 749.019 78.4C748.699 78.112 748.283 77.896 747.771 77.752C747.259 77.608 746.723 77.48 746.163 77.368C745.603 77.256 745.067 77.104 744.555 76.912C744.059 76.72 743.651 76.44 743.331 76.072C743.027 75.704 742.883 75.2 742.899 74.56C742.899 73.808 743.251 73.192 743.955 72.712C744.659 72.232 745.563 71.992 746.667 71.992C747.083 71.992 747.515 72.04 747.963 72.136C748.427 72.232 748.859 72.4 749.259 72.64C749.659 72.88 749.979 73.216 750.219 73.648C750.459 74.064 750.563 74.6 750.531 75.256H749.475C749.507 74.76 749.427 74.36 749.235 74.056C749.043 73.736 748.787 73.496 748.467 73.336C748.163 73.176 747.843 73.072 747.507 73.024C747.171 72.96 746.867 72.928 746.595 72.928C745.843 72.928 745.203 73.072 744.675 73.36C744.163 73.632 743.907 74.04 743.907 74.584C743.907 75.08 744.067 75.456 744.387 75.712C744.707 75.952 745.123 76.144 745.635 76.288C746.147 76.416 746.683 76.544 747.243 76.672C747.803 76.784 748.331 76.944 748.827 77.152C749.339 77.344 749.755 77.632 750.075 78.016C750.411 78.4 750.579 78.936 750.579 79.624C750.579 80.232 750.395 80.736 750.027 81.136C749.659 81.52 749.163 81.8 748.539 81.976C747.931 82.152 747.259 82.24 746.523 82.24ZM753.351 71.224C753.079 71.24 752.895 71.168 752.799 71.008C752.703 70.848 752.655 70.656 752.655 70.432C752.655 70.224 752.703 70.048 752.799 69.904C752.895 69.76 753.079 69.688 753.351 69.688C753.607 69.688 753.783 69.76 753.879 69.904C753.975 70.048 754.023 70.224 754.023 70.432C754.023 70.672 753.975 70.864 753.879 71.008C753.783 71.152 753.607 71.224 753.351 71.224ZM752.775 82V72.256H753.855V82H752.775ZM758.418 85.84V84.808H763.554V79.624H763.506C763.474 79.736 763.378 79.928 763.218 80.2C763.074 80.472 762.858 80.768 762.57 81.088C762.282 81.408 761.906 81.68 761.442 81.904C760.994 82.128 760.45 82.24 759.81 82.24C758.882 82.24 758.09 82.016 757.434 81.568C756.794 81.12 756.306 80.52 755.97 79.768C755.634 79.016 755.466 78.176 755.466 77.248C755.466 76.304 755.634 75.456 755.97 74.704C756.322 73.952 756.818 73.36 757.458 72.928C758.114 72.48 758.906 72.256 759.834 72.256C760.49 72.256 761.042 72.376 761.49 72.616C761.954 72.84 762.322 73.112 762.594 73.432C762.882 73.736 763.09 74.032 763.218 74.32C763.362 74.592 763.45 74.784 763.482 74.896H763.53L763.554 72.256H764.682V84.088C764.682 84.6 764.586 85.016 764.394 85.336C764.218 85.672 763.842 85.84 763.266 85.84H758.418ZM759.954 81.208C760.93 81.208 761.762 80.864 762.45 80.176C763.154 79.488 763.506 78.512 763.506 77.248C763.506 76.016 763.178 75.056 762.522 74.368C761.866 73.664 761.058 73.312 760.098 73.312C759.298 73.312 758.634 73.504 758.106 73.888C757.578 74.256 757.186 74.744 756.93 75.352C756.674 75.944 756.546 76.576 756.546 77.248C756.546 77.92 756.658 78.56 756.882 79.168C757.122 79.776 757.49 80.272 757.986 80.656C758.498 81.024 759.154 81.208 759.954 81.208ZM766.85 82V72.28H767.762L767.954 74.848H768.002C768.034 74.736 768.114 74.544 768.242 74.272C768.37 74 768.57 73.712 768.842 73.408C769.114 73.088 769.474 72.816 769.922 72.592C770.37 72.368 770.93 72.256 771.602 72.256C772.434 72.256 773.098 72.408 773.594 72.712C774.09 73 774.466 73.384 774.722 73.864C774.978 74.344 775.146 74.872 775.226 75.448C775.306 76.024 775.346 76.6 775.346 77.176V82H774.266V77.152C774.266 75.968 774.058 75.024 773.642 74.32C773.242 73.616 772.49 73.264 771.386 73.264C770.602 73.264 769.954 73.456 769.442 73.84C768.946 74.208 768.57 74.712 768.314 75.352C768.074 75.976 767.954 76.656 767.954 77.392V82H766.85ZM630.48 114.016V115H625.392V114.016H627.48V103.48C627.256 104.088 626.928 104.536 626.496 104.824C626.08 105.096 625.68 105.28 625.296 105.376C624.928 105.456 624.688 105.496 624.576 105.496V104.392C624.672 104.392 624.872 104.36 625.176 104.296C625.48 104.216 625.816 104.072 626.184 103.864C626.552 103.656 626.864 103.36 627.12 102.976C627.392 102.592 627.536 102.096 627.552 101.488H628.512V114.016H630.48ZM643.986 115.336C642.226 115.336 640.866 114.808 639.906 113.752C638.962 112.68 638.49 111.176 638.49 109.24V101.488H639.594V109.24C639.594 110.936 639.986 112.208 640.77 113.056C641.57 113.888 642.642 114.304 643.986 114.304C645.41 114.304 646.498 113.888 647.25 113.056C648.018 112.224 648.402 110.952 648.402 109.24V101.488H649.482V109.24C649.482 111.208 649.01 112.72 648.066 113.776C647.138 114.816 645.778 115.336 643.986 115.336ZM651.555 115L656.595 107.824L652.059 101.488H653.427L657.267 107.056L661.131 101.488H662.475L657.987 107.824L663.051 115H661.731L657.267 108.592L652.827 115H651.555ZM676.207 114.016V115H671.119V114.016H673.207V103.48C672.983 104.088 672.655 104.536 672.223 104.824C671.807 105.096 671.407 105.28 671.023 105.376C670.655 105.456 670.415 105.496 670.303 105.496V104.392C670.399 104.392 670.599 104.36 670.903 104.296C671.207 104.216 671.543 104.072 671.911 103.864C672.279 103.656 672.591 103.36 672.847 102.976C673.119 102.592 673.263 102.096 673.279 101.488H674.239V114.016H676.207ZM689.712 115.336C687.952 115.336 686.592 114.808 685.632 113.752C684.688 112.68 684.216 111.176 684.216 109.24V101.488H685.32V109.24C685.32 110.936 685.712 112.208 686.496 113.056C687.296 113.888 688.368 114.304 689.712 114.304C691.136 114.304 692.224 113.888 692.976 113.056C693.744 112.224 694.128 110.952 694.128 109.24V101.488H695.208V109.24C695.208 111.208 694.736 112.72 693.792 113.776C692.864 114.816 691.504 115.336 689.712 115.336ZM702.801 114.04V115H697.953V114.04H699.849V102.472H697.953V101.488H702.801V102.472H700.929V114.04H702.801ZM705.519 116.944V116.008H705.855C706.239 116.008 706.471 115.904 706.551 115.696C706.631 115.504 706.671 115.28 706.671 115.024C705.983 115.12 705.639 114.824 705.639 114.136C705.639 113.912 705.695 113.72 705.807 113.56C705.919 113.384 706.135 113.296 706.455 113.296C706.743 113.296 706.943 113.384 707.055 113.56C707.183 113.736 707.247 114.032 707.247 114.448C707.247 115.248 707.151 115.864 706.959 116.296C706.767 116.728 706.415 116.944 705.903 116.944H705.519ZM715.169 115V114.088C715.169 114.088 715.321 113.976 715.625 113.752C715.945 113.528 716.353 113.232 716.849 112.864C717.345 112.48 717.889 112.048 718.481 111.568C719.073 111.072 719.657 110.552 720.233 110.008C720.825 109.464 721.353 108.92 721.817 108.376C722.297 107.832 722.657 107.312 722.897 106.816C723.297 105.984 723.417 105.232 723.257 104.56C723.113 103.888 722.745 103.352 722.153 102.952C721.561 102.552 720.809 102.352 719.897 102.352C718.905 102.368 718.097 102.664 717.473 103.24C716.865 103.8 716.561 104.624 716.561 105.712L715.553 105.616C715.553 104.32 715.961 103.304 716.777 102.568C717.609 101.816 718.689 101.44 720.017 101.44C721.169 101.44 722.121 101.704 722.873 102.232C723.625 102.76 724.097 103.456 724.289 104.32C724.497 105.168 724.361 106.088 723.881 107.08C723.609 107.608 723.193 108.176 722.633 108.784C722.073 109.392 721.457 110 720.785 110.608C720.113 111.2 719.457 111.752 718.817 112.264C718.193 112.76 717.657 113.168 717.209 113.488C716.761 113.792 716.489 113.968 716.393 114.016H724.673V115H715.169ZM737.144 115.24C736.216 115.24 735.424 115.024 734.768 114.592C734.128 114.144 733.64 113.544 733.304 112.792C732.968 112.024 732.8 111.176 732.8 110.248C732.8 109.304 732.968 108.456 733.304 107.704C733.656 106.952 734.152 106.36 734.792 105.928C735.448 105.48 736.24 105.256 737.168 105.256C737.84 105.256 738.4 105.376 738.848 105.616C739.296 105.84 739.656 106.112 739.928 106.432C740.216 106.736 740.432 107.032 740.576 107.32C740.72 107.592 740.808 107.784 740.84 107.896H740.888L740.912 101.488H742.016V115H741.104L740.912 112.624H740.864C740.816 112.736 740.712 112.928 740.552 113.2C740.408 113.472 740.192 113.768 739.904 114.088C739.616 114.408 739.24 114.68 738.776 114.904C738.328 115.128 737.784 115.24 737.144 115.24ZM737.288 114.208C738.28 114.208 739.12 113.864 739.808 113.176C740.496 112.488 740.84 111.512 740.84 110.248C740.84 109.016 740.512 108.056 739.856 107.368C739.216 106.664 738.416 106.312 737.456 106.312C736.656 106.312 735.992 106.504 735.464 106.888C734.936 107.256 734.536 107.744 734.264 108.352C734.008 108.944 733.88 109.576 733.88 110.248C733.88 110.92 734 111.56 734.24 112.168C734.48 112.776 734.848 113.272 735.344 113.656C735.84 114.024 736.488 114.208 737.288 114.208ZM748.389 115.24C747.349 115.24 746.485 114.992 745.797 114.496C745.125 114 744.621 113.368 744.285 112.6C743.949 111.816 743.789 111.008 743.805 110.176C743.805 109.312 743.981 108.504 744.333 107.752C744.685 107 745.197 106.4 745.869 105.952C746.557 105.488 747.389 105.256 748.365 105.256C749.581 105.256 750.581 105.656 751.365 106.456C752.165 107.24 752.613 108.296 752.709 109.624C752.725 109.704 752.733 109.8 752.733 109.912C752.733 110.024 752.733 110.128 752.733 110.224H744.861C744.861 111.456 745.165 112.44 745.773 113.176C746.381 113.912 747.253 114.28 748.389 114.28C749.205 114.28 749.909 114.064 750.501 113.632C751.109 113.2 751.485 112.616 751.629 111.88H752.709C752.517 112.872 752.029 113.68 751.245 114.304C750.477 114.928 749.525 115.24 748.389 115.24ZM744.933 109.504H751.605C751.589 109.088 751.469 108.624 751.245 108.112C751.037 107.6 750.693 107.152 750.213 106.768C749.749 106.384 749.133 106.192 748.365 106.192C747.309 106.192 746.501 106.52 745.941 107.176C745.381 107.832 745.045 108.608 744.933 109.504ZM761.765 105.256H762.869V105.568L759.029 115H757.445L753.605 105.592V105.256H754.685L758.237 114.112H758.285L761.765 105.256ZM767.922 115.24C767.106 115.24 766.442 115.104 765.93 114.832C765.418 114.544 765.026 114.208 764.754 113.824C764.482 113.44 764.29 113.072 764.178 112.72C764.082 112.368 764.034 112.112 764.034 111.952H765.114C765.114 111.968 765.122 112.104 765.138 112.36C765.17 112.6 765.266 112.88 765.426 113.2C765.586 113.52 765.858 113.8 766.242 114.04C766.642 114.264 767.21 114.376 767.946 114.376C768.458 114.376 768.938 114.32 769.386 114.208C769.85 114.08 770.218 113.888 770.49 113.632C770.778 113.36 770.922 113.008 770.922 112.576C770.906 112.064 770.738 111.672 770.418 111.4C770.098 111.112 769.682 110.896 769.17 110.752C768.658 110.608 768.122 110.48 767.562 110.368C767.002 110.256 766.466 110.104 765.954 109.912C765.458 109.72 765.05 109.44 764.73 109.072C764.426 108.704 764.282 108.2 764.298 107.56C764.298 106.808 764.65 106.192 765.354 105.712C766.058 105.232 766.962 104.992 768.066 104.992C768.482 104.992 768.914 105.04 769.362 105.136C769.826 105.232 770.258 105.4 770.658 105.64C771.058 105.88 771.378 106.216 771.618 106.648C771.858 107.064 771.962 107.6 771.93 108.256H770.874C770.906 107.76 770.826 107.36 770.634 107.056C770.442 106.736 770.186 106.496 769.866 106.336C769.562 106.176 769.242 106.072 768.906 106.024C768.57 105.96 768.266 105.928 767.994 105.928C767.242 105.928 766.602 106.072 766.074 106.36C765.562 106.632 765.306 107.04 765.306 107.584C765.306 108.08 765.466 108.456 765.786 108.712C766.106 108.952 766.522 109.144 767.034 109.288C767.546 109.416 768.082 109.544 768.642 109.672C769.202 109.784 769.73 109.944 770.226 110.152C770.738 110.344 771.154 110.632 771.474 111.016C771.81 111.4 771.978 111.936 771.978 112.624C771.978 113.232 771.794 113.736 771.426 114.136C771.058 114.52 770.562 114.8 769.938 114.976C769.33 115.152 768.658 115.24 767.922 115.24Z" fill="black"/>
</svg>
