<svg width="936" height="150" viewBox="0 0 936 150" fill="none" xmlns="http://www.w3.org/2000/svg">
<path d="M1.972 36V16.858H6.868L12.24 34.742H12.308L17.578 16.858H22.474V36H19.584L19.754 18.184H19.686L14.314 36H10.132L4.794 18.184H4.726L4.862 36H1.972ZM24.3695 42.324V40.114H26.3755C26.8515 40.114 27.2482 40.0007 27.5655 39.774C27.8828 39.57 28.2682 39.0033 28.7215 38.074L29.9115 35.456L24.4715 22.094H27.3955L31.3055 32.532L35.4875 22.094H38.4455L31.3055 38.38C30.8068 39.536 30.3535 40.3973 29.9455 40.964C29.5375 41.5307 29.0842 41.8933 28.5855 42.052C28.0868 42.2333 27.4635 42.324 26.7155 42.324H24.3695ZM48.114 36V22.094H50.732L50.97 25.868C51.106 25.256 51.3667 24.6667 51.752 24.1C52.16 23.5107 52.7153 23.0347 53.418 22.672C54.1433 22.2867 55.0613 22.094 56.172 22.094H56.75V25.222H56.138C54.7553 25.222 53.69 25.4033 52.942 25.766C52.194 26.106 51.6727 26.616 51.378 27.296C51.0833 27.9533 50.936 28.7693 50.936 29.744V36H48.114ZM65.0266 36.34C62.7146 36.34 60.9919 35.6713 59.8586 34.334C58.7253 32.9967 58.1586 31.2967 58.1586 29.234C58.1359 27.1487 58.7026 25.4373 59.8586 24.1C61.0146 22.7627 62.7373 22.0827 65.0266 22.06C67.2479 22.06 68.9366 22.7173 70.0926 24.032C71.2486 25.3467 71.8266 27.0807 71.8266 29.234C71.8266 30.5713 71.5773 31.784 71.0786 32.872C70.6026 33.9373 69.8546 34.7873 68.8346 35.422C67.8373 36.034 66.5679 36.34 65.0266 36.34ZM65.0266 33.926C66.1146 33.926 66.9419 33.688 67.5086 33.212C68.0979 32.736 68.5059 32.1353 68.7326 31.41C68.9593 30.662 69.0726 29.9027 69.0726 29.132C69.0726 28.3613 68.9593 27.6133 68.7326 26.888C68.5059 26.14 68.0979 25.528 67.5086 25.052C66.9419 24.5533 66.1146 24.304 65.0266 24.304C63.9159 24.304 63.0659 24.5533 62.4766 25.052C61.8873 25.528 61.4793 26.14 61.2526 26.888C61.0259 27.6133 60.9126 28.3613 60.9126 29.132C60.9126 29.9027 61.0259 30.662 61.2526 31.41C61.4793 32.1353 61.8873 32.736 62.4766 33.212C63.0659 33.688 63.9159 33.926 65.0266 33.926ZM74.8133 36V16.858H77.6013V36H74.8133ZM86.9731 36.34C85.4091 36.34 84.1284 36 83.1311 35.32C82.1337 34.6173 81.3971 33.722 80.9211 32.634C80.4451 31.546 80.2071 30.4013 80.2071 29.2C80.1844 27.8627 80.4337 26.65 80.9551 25.562C81.4991 24.474 82.2697 23.6127 83.2671 22.978C84.2871 22.3433 85.4997 22.026 86.9051 22.026C88.1064 22.026 89.1831 22.298 90.1351 22.842C91.1097 23.3633 91.8804 24.1113 92.4471 25.086C93.0137 26.038 93.3197 27.1713 93.3651 28.486C93.3651 28.554 93.3651 28.69 93.3651 28.894C93.3877 29.0753 93.3991 29.234 93.3991 29.37H82.8931C82.8931 30.8207 83.2444 31.954 83.9471 32.77C84.6724 33.5633 85.6697 33.96 86.9391 33.96C87.8911 33.96 88.6957 33.722 89.3531 33.246C90.0331 32.7473 90.4524 32.09 90.6111 31.274H93.3651C93.1611 32.7247 92.5037 33.9373 91.3931 34.912C90.2824 35.864 88.8091 36.34 86.9731 36.34ZM82.9951 27.976H90.5431C90.5204 27.7267 90.4524 27.398 90.3391 26.99C90.2257 26.582 90.0331 26.1853 89.7611 25.8C89.5117 25.392 89.1491 25.052 88.6731 24.78C88.1971 24.508 87.5851 24.372 86.8371 24.372C85.9077 24.372 85.1711 24.576 84.6271 24.984C84.1057 25.3693 83.7091 25.8453 83.4371 26.412C83.1877 26.956 83.0404 27.4773 82.9951 27.976Z" fill="#131313"/>
<path d="M6.72 77.336C4.96 77.336 3.6 76.808 2.64 75.752C1.696 74.68 1.224 73.176 1.224 71.24V63.488H2.328V71.24C2.328 72.936 2.72 74.208 3.504 75.056C4.304 75.888 5.376 76.304 6.72 76.304C8.144 76.304 9.232 75.888 9.984 75.056C10.752 74.224 11.136 72.952 11.136 71.24V63.488H12.216V71.24C12.216 73.208 11.744 74.72 10.8 75.776C9.872 76.816 8.512 77.336 6.72 77.336ZM14.2892 77L19.3292 69.824L14.7932 63.488H16.1612L20.0012 69.056L23.8652 63.488H25.2092L20.7212 69.824L25.7852 77H24.4652L20.0012 70.592L15.5612 77H14.2892ZM34.0209 77V63.488H38.2209C39.3569 63.488 40.3169 63.6 41.1009 63.824C41.8849 64.048 42.4769 64.44 42.8769 65C43.2929 65.544 43.5009 66.304 43.5009 67.28C43.5009 67.888 43.3889 68.456 43.1649 68.984C42.9409 69.512 42.5889 69.936 42.1089 70.256C41.6449 70.576 41.0369 70.736 40.2849 70.736C41.0209 70.736 41.5649 70.896 41.9169 71.216C42.2849 71.52 42.5249 71.912 42.6369 72.392C42.7649 72.856 42.8289 73.344 42.8289 73.856C42.8449 74.368 42.8609 74.84 42.8769 75.272C42.9089 75.688 43.0049 76 43.1649 76.208C43.3409 76.4 43.6529 76.416 44.1009 76.256V77.048C44.0209 77.112 43.8609 77.168 43.6209 77.216C43.3969 77.264 43.1489 77.248 42.8769 77.168C42.6049 77.088 42.3729 76.904 42.1809 76.616C41.9889 76.328 41.8929 75.888 41.8929 75.296C41.8929 74.368 41.8529 73.624 41.7729 73.064C41.7089 72.504 41.5569 72.08 41.3169 71.792C41.0929 71.488 40.7329 71.288 40.2369 71.192C39.7569 71.08 39.1009 71.024 38.2689 71.024C37.4369 71.024 36.3889 71.032 35.1249 71.048V77H34.0209ZM35.1249 70.16H38.6529C39.9489 70.16 40.9169 69.968 41.5569 69.584C42.1969 69.184 42.5169 68.432 42.5169 67.328C42.5169 66.48 42.3409 65.856 41.9889 65.456C41.6529 65.04 41.1489 64.768 40.4769 64.64C39.8209 64.512 39.0209 64.448 38.0769 64.448H35.1249V70.16ZM50.2097 77.24C49.1697 77.24 48.3057 76.992 47.6177 76.496C46.9457 76 46.4417 75.368 46.1057 74.6C45.7697 73.816 45.6097 73.008 45.6257 72.176C45.6257 71.312 45.8017 70.504 46.1537 69.752C46.5057 69 47.0177 68.4 47.6897 67.952C48.3777 67.488 49.2097 67.256 50.1857 67.256C51.4017 67.256 52.4017 67.656 53.1857 68.456C53.9857 69.24 54.4337 70.296 54.5297 71.624C54.5457 71.704 54.5537 71.8 54.5537 71.912C54.5537 72.024 54.5537 72.128 54.5537 72.224H46.6817C46.6817 73.456 46.9857 74.44 47.5937 75.176C48.2017 75.912 49.0737 76.28 50.2097 76.28C51.0257 76.28 51.7297 76.064 52.3217 75.632C52.9297 75.2 53.3057 74.616 53.4497 73.88H54.5297C54.3377 74.872 53.8497 75.68 53.0657 76.304C52.2977 76.928 51.3457 77.24 50.2097 77.24ZM46.7537 71.504H53.4257C53.4097 71.088 53.2897 70.624 53.0657 70.112C52.8577 69.6 52.5137 69.152 52.0337 68.768C51.5697 68.384 50.9537 68.192 50.1857 68.192C49.1297 68.192 48.3217 68.52 47.7617 69.176C47.2017 69.832 46.8657 70.608 46.7537 71.504ZM60.2732 77.24C59.4572 77.24 58.7932 77.104 58.2812 76.832C57.7692 76.544 57.3772 76.208 57.1052 75.824C56.8332 75.44 56.6412 75.072 56.5292 74.72C56.4332 74.368 56.3852 74.112 56.3852 73.952H57.4652C57.4652 73.968 57.4732 74.104 57.4892 74.36C57.5212 74.6 57.6172 74.88 57.7772 75.2C57.9372 75.52 58.2092 75.8 58.5932 76.04C58.9932 76.264 59.5612 76.376 60.2972 76.376C60.8092 76.376 61.2892 76.32 61.7372 76.208C62.2012 76.08 62.5692 75.888 62.8412 75.632C63.1292 75.36 63.2732 75.008 63.2732 74.576C63.2572 74.064 63.0892 73.672 62.7692 73.4C62.4492 73.112 62.0332 72.896 61.5212 72.752C61.0092 72.608 60.4732 72.48 59.9132 72.368C59.3532 72.256 58.8172 72.104 58.3052 71.912C57.8092 71.72 57.4012 71.44 57.0812 71.072C56.7772 70.704 56.6332 70.2 56.6492 69.56C56.6492 68.808 57.0012 68.192 57.7052 67.712C58.4092 67.232 59.3132 66.992 60.4172 66.992C60.8332 66.992 61.2652 67.04 61.7132 67.136C62.1772 67.232 62.6092 67.4 63.0092 67.64C63.4092 67.88 63.7292 68.216 63.9692 68.648C64.2092 69.064 64.3132 69.6 64.2812 70.256H63.2252C63.2572 69.76 63.1772 69.36 62.9852 69.056C62.7932 68.736 62.5372 68.496 62.2172 68.336C61.9132 68.176 61.5932 68.072 61.2572 68.024C60.9212 67.96 60.6172 67.928 60.3452 67.928C59.5932 67.928 58.9532 68.072 58.4252 68.36C57.9132 68.632 57.6572 69.04 57.6572 69.584C57.6572 70.08 57.8172 70.456 58.1372 70.712C58.4572 70.952 58.8732 71.144 59.3852 71.288C59.8972 71.416 60.4332 71.544 60.9932 71.672C61.5532 71.784 62.0812 71.944 62.5772 72.152C63.0892 72.344 63.5052 72.632 63.8252 73.016C64.1612 73.4 64.3292 73.936 64.3292 74.624C64.3292 75.232 64.1452 75.736 63.7772 76.136C63.4092 76.52 62.9132 76.8 62.2892 76.976C61.6812 77.152 61.0092 77.24 60.2732 77.24ZM70.4128 77.24C69.3728 77.24 68.5088 76.992 67.8208 76.496C67.1488 76 66.6448 75.368 66.3088 74.6C65.9728 73.816 65.8128 73.008 65.8288 72.176C65.8288 71.312 66.0048 70.504 66.3568 69.752C66.7088 69 67.2208 68.4 67.8928 67.952C68.5808 67.488 69.4128 67.256 70.3888 67.256C71.6048 67.256 72.6048 67.656 73.3888 68.456C74.1888 69.24 74.6368 70.296 74.7328 71.624C74.7488 71.704 74.7568 71.8 74.7568 71.912C74.7568 72.024 74.7568 72.128 74.7568 72.224H66.8848C66.8848 73.456 67.1888 74.44 67.7968 75.176C68.4048 75.912 69.2768 76.28 70.4128 76.28C71.2288 76.28 71.9328 76.064 72.5248 75.632C73.1328 75.2 73.5088 74.616 73.6528 73.88H74.7328C74.5408 74.872 74.0528 75.68 73.2688 76.304C72.5008 76.928 71.5488 77.24 70.4128 77.24ZM66.9568 71.504H73.6288C73.6128 71.088 73.4928 70.624 73.2688 70.112C73.0608 69.6 72.7168 69.152 72.2368 68.768C71.7728 68.384 71.1568 68.192 70.3888 68.192C69.3328 68.192 68.5248 68.52 67.9648 69.176C67.4048 69.832 67.0688 70.608 66.9568 71.504ZM80.2123 77.216C79.3163 77.216 78.5723 76.992 77.9803 76.544C77.3883 76.096 76.9483 75.496 76.6603 74.744C76.3723 73.976 76.2283 73.128 76.2283 72.2C76.2283 71.24 76.3723 70.384 76.6603 69.632C76.9643 68.864 77.4123 68.264 78.0043 67.832C78.5963 67.384 79.3323 67.16 80.2123 67.16C81.1563 67.16 81.9083 67.392 82.4683 67.856C83.0283 68.304 83.4283 68.824 83.6683 69.416H83.7163V67.256H84.8203V77H83.9083L83.7163 74.984H83.6683C83.4123 75.576 83.0043 76.096 82.4443 76.544C81.8843 76.992 81.1403 77.216 80.2123 77.216ZM80.6203 76.208C81.6443 76.208 82.4123 75.856 82.9243 75.152C83.4363 74.448 83.6923 73.472 83.6923 72.224C83.6923 70.896 83.4203 69.896 82.8763 69.224C82.3483 68.552 81.5963 68.216 80.6203 68.216C79.4843 68.216 78.6523 68.6 78.1243 69.368C77.5963 70.12 77.3323 71.064 77.3323 72.2C77.3323 73.384 77.6043 74.352 78.1483 75.104C78.6923 75.84 79.5163 76.208 80.6203 76.208ZM86.9824 77V67.256H87.9184L88.0624 69.752C88.2224 69.064 88.5984 68.472 89.1904 67.976C89.7824 67.48 90.6144 67.24 91.6864 67.256H92.2144V68.48H91.6864C90.5984 68.48 89.7984 68.656 89.2864 69.008C88.7744 69.344 88.4384 69.8 88.2784 70.376C88.1344 70.952 88.0624 71.592 88.0624 72.296V77H86.9824ZM97.6472 77.24C96.2712 77.24 95.1512 76.808 94.2872 75.944C93.4232 75.08 92.9912 73.888 92.9912 72.368C93.0072 71.36 93.2152 70.472 93.6152 69.704C94.0152 68.936 94.5672 68.336 95.2712 67.904C95.9752 67.472 96.7912 67.256 97.7192 67.256C98.9032 67.256 99.8792 67.584 100.647 68.24C101.431 68.88 101.911 69.688 102.087 70.664H101.055C100.895 69.912 100.511 69.328 99.9032 68.912C99.3112 68.48 98.5912 68.264 97.7432 68.264C96.6392 68.264 95.7512 68.64 95.0792 69.392C94.4072 70.144 94.0712 71.12 94.0712 72.32C94.0712 73.52 94.3912 74.472 95.0312 75.176C95.6872 75.88 96.5672 76.232 97.6712 76.232C98.5352 76.232 99.2712 76.016 99.8792 75.584C100.503 75.152 100.895 74.56 101.055 73.808H102.087C101.911 74.8 101.423 75.624 100.623 76.28C99.8232 76.92 98.8312 77.24 97.6472 77.24ZM104.015 77V63.488H105.119V69.848H105.167C105.199 69.736 105.279 69.544 105.407 69.272C105.535 69 105.735 68.712 106.007 68.408C106.279 68.088 106.631 67.816 107.063 67.592C107.511 67.368 108.063 67.256 108.719 67.256C109.551 67.256 110.215 67.408 110.711 67.712C111.223 68 111.607 68.384 111.863 68.864C112.119 69.344 112.287 69.872 112.367 70.448C112.447 71.024 112.487 71.6 112.487 72.176V77H111.431V72.152C111.431 70.968 111.223 70.024 110.807 69.32C110.391 68.616 109.631 68.264 108.527 68.264C107.759 68.264 107.119 68.456 106.607 68.84C106.095 69.208 105.719 69.712 105.479 70.352C105.239 70.976 105.119 71.656 105.119 72.392V77H104.015ZM6.72 110.336C4.96 110.336 3.6 109.808 2.64 108.752C1.696 107.68 1.224 106.176 1.224 104.24V96.488H2.328V104.24C2.328 105.936 2.72 107.208 3.504 108.056C4.304 108.888 5.376 109.304 6.72 109.304C8.144 109.304 9.232 108.888 9.984 108.056C10.752 107.224 11.136 105.952 11.136 104.24V96.488H12.216V104.24C12.216 106.208 11.744 107.72 10.8 108.776C9.872 109.816 8.512 110.336 6.72 110.336ZM14.2892 110L19.3292 102.824L14.7932 96.488H16.1612L20.0012 102.056L23.8652 96.488H25.2092L20.7212 102.824L25.7852 110H24.4652L20.0012 103.592L15.5612 110H14.2892ZM45.5889 103.232C45.5889 105.008 45.2529 106.392 44.5809 107.384C43.9249 108.36 42.9969 109.04 41.7969 109.424C40.5969 109.808 39.1969 110 37.5969 110H34.0929V96.488H37.5969C39.1969 96.488 40.5969 96.744 41.7969 97.256C42.9969 97.752 43.9249 98.496 44.5809 99.488C45.2529 100.48 45.5889 101.728 45.5889 103.232ZM35.1969 109.04H37.7889C39.1169 109.04 40.2769 108.888 41.2689 108.584C42.2769 108.28 43.0529 107.712 43.5969 106.88C44.1569 106.048 44.4369 104.832 44.4369 103.232C44.4369 101.92 44.1569 100.84 43.5969 99.992C43.0529 99.128 42.2769 98.496 41.2689 98.096C40.2769 97.68 39.1169 97.472 37.7889 97.472H35.1969V109.04ZM51.6159 110.24C50.5759 110.24 49.7119 109.992 49.0239 109.496C48.3519 109 47.8479 108.368 47.5119 107.6C47.1759 106.816 47.0159 106.008 47.0319 105.176C47.0319 104.312 47.2079 103.504 47.5599 102.752C47.9119 102 48.4239 101.4 49.0959 100.952C49.7839 100.488 50.6159 100.256 51.5919 100.256C52.8079 100.256 53.8079 100.656 54.5919 101.456C55.3919 102.24 55.8399 103.296 55.9359 104.624C55.9519 104.704 55.9599 104.8 55.9599 104.912C55.9599 105.024 55.9599 105.128 55.9599 105.224H48.0879C48.0879 106.456 48.3919 107.44 48.9999 108.176C49.6079 108.912 50.4799 109.28 51.6159 109.28C52.4319 109.28 53.1359 109.064 53.7279 108.632C54.3359 108.2 54.7119 107.616 54.8559 106.88H55.9359C55.7439 107.872 55.2559 108.68 54.4719 109.304C53.7039 109.928 52.7519 110.24 51.6159 110.24ZM48.1599 104.504H54.8319C54.8159 104.088 54.6959 103.624 54.4719 103.112C54.2639 102.6 53.9199 102.152 53.4399 101.768C52.9759 101.384 52.3599 101.192 51.5919 101.192C50.5359 101.192 49.7279 101.52 49.1679 102.176C48.6079 102.832 48.2719 103.608 48.1599 104.504ZM61.6794 110.24C60.8634 110.24 60.1994 110.104 59.6874 109.832C59.1754 109.544 58.7834 109.208 58.5114 108.824C58.2394 108.44 58.0474 108.072 57.9354 107.72C57.8394 107.368 57.7914 107.112 57.7914 106.952H58.8714C58.8714 106.968 58.8794 107.104 58.8954 107.36C58.9274 107.6 59.0234 107.88 59.1834 108.2C59.3434 108.52 59.6154 108.8 59.9994 109.04C60.3994 109.264 60.9674 109.376 61.7034 109.376C62.2154 109.376 62.6954 109.32 63.1434 109.208C63.6074 109.08 63.9754 108.888 64.2474 108.632C64.5354 108.36 64.6794 108.008 64.6794 107.576C64.6634 107.064 64.4954 106.672 64.1754 106.4C63.8554 106.112 63.4394 105.896 62.9274 105.752C62.4154 105.608 61.8794 105.48 61.3194 105.368C60.7594 105.256 60.2234 105.104 59.7114 104.912C59.2154 104.72 58.8074 104.44 58.4874 104.072C58.1834 103.704 58.0394 103.2 58.0554 102.56C58.0554 101.808 58.4074 101.192 59.1114 100.712C59.8154 100.232 60.7194 99.992 61.8234 99.992C62.2394 99.992 62.6714 100.04 63.1194 100.136C63.5834 100.232 64.0154 100.4 64.4154 100.64C64.8154 100.88 65.1354 101.216 65.3754 101.648C65.6154 102.064 65.7194 102.6 65.6874 103.256H64.6314C64.6634 102.76 64.5834 102.36 64.3914 102.056C64.1994 101.736 63.9434 101.496 63.6234 101.336C63.3194 101.176 62.9994 101.072 62.6634 101.024C62.3274 100.96 62.0234 100.928 61.7514 100.928C60.9994 100.928 60.3594 101.072 59.8314 101.36C59.3194 101.632 59.0634 102.04 59.0634 102.584C59.0634 103.08 59.2234 103.456 59.5434 103.712C59.8634 103.952 60.2794 104.144 60.7914 104.288C61.3034 104.416 61.8394 104.544 62.3994 104.672C62.9594 104.784 63.4874 104.944 63.9834 105.152C64.4954 105.344 64.9114 105.632 65.2314 106.016C65.5674 106.4 65.7354 106.936 65.7354 107.624C65.7354 108.232 65.5514 108.736 65.1834 109.136C64.8154 109.52 64.3194 109.8 63.6954 109.976C63.0874 110.152 62.4154 110.24 61.6794 110.24ZM68.5071 99.224C68.2351 99.24 68.0511 99.168 67.9551 99.008C67.8591 98.848 67.8111 98.656 67.8111 98.432C67.8111 98.224 67.8591 98.048 67.9551 97.904C68.0511 97.76 68.2351 97.688 68.5071 97.688C68.7631 97.688 68.9391 97.76 69.0351 97.904C69.1311 98.048 69.1791 98.224 69.1791 98.432C69.1791 98.672 69.1311 98.864 69.0351 99.008C68.9391 99.152 68.7631 99.224 68.5071 99.224ZM67.9311 110V100.256H69.0111V110H67.9311ZM73.5742 113.84V112.808H78.7103V107.624H78.6623C78.6303 107.736 78.5343 107.928 78.3743 108.2C78.2303 108.472 78.0143 108.768 77.7263 109.088C77.4383 109.408 77.0623 109.68 76.5983 109.904C76.1503 110.128 75.6063 110.24 74.9663 110.24C74.0383 110.24 73.2463 110.016 72.5903 109.568C71.9503 109.12 71.4623 108.52 71.1263 107.768C70.7903 107.016 70.6223 106.176 70.6223 105.248C70.6223 104.304 70.7903 103.456 71.1263 102.704C71.4783 101.952 71.9743 101.36 72.6143 100.928C73.2703 100.48 74.0623 100.256 74.9903 100.256C75.6463 100.256 76.1983 100.376 76.6463 100.616C77.1103 100.84 77.4783 101.112 77.7503 101.432C78.0383 101.736 78.2463 102.032 78.3743 102.32C78.5183 102.592 78.6063 102.784 78.6383 102.896H78.6863L78.7103 100.256H79.8383V112.088C79.8383 112.6 79.7423 113.016 79.5503 113.336C79.3743 113.672 78.9983 113.84 78.4223 113.84H73.5742ZM75.1103 109.208C76.0863 109.208 76.9183 108.864 77.6063 108.176C78.3103 107.488 78.6623 106.512 78.6623 105.248C78.6623 104.016 78.3343 103.056 77.6783 102.368C77.0223 101.664 76.2143 101.312 75.2543 101.312C74.4543 101.312 73.7903 101.504 73.2623 101.888C72.7343 102.256 72.3423 102.744 72.0863 103.352C71.8303 103.944 71.7023 104.576 71.7023 105.248C71.7023 105.92 71.8143 106.56 72.0383 107.168C72.2783 107.776 72.6463 108.272 73.1423 108.656C73.6543 109.024 74.3103 109.208 75.1103 109.208ZM82.0063 110V100.28H82.9183L83.1103 102.848H83.1583C83.1903 102.736 83.2703 102.544 83.3983 102.272C83.5263 102 83.7263 101.712 83.9983 101.408C84.2703 101.088 84.6303 100.816 85.0783 100.592C85.5263 100.368 86.0863 100.256 86.7583 100.256C87.5903 100.256 88.2543 100.408 88.7503 100.712C89.2463 101 89.6223 101.384 89.8783 101.864C90.1343 102.344 90.3023 102.872 90.3823 103.448C90.4623 104.024 90.5023 104.6 90.5023 105.176V110H89.4223V105.152C89.4223 103.968 89.2143 103.024 88.7983 102.32C88.3983 101.616 87.6463 101.264 86.5423 101.264C85.7583 101.264 85.1103 101.456 84.5983 101.84C84.1023 102.208 83.7263 102.712 83.4703 103.352C83.2303 103.976 83.1103 104.656 83.1103 105.392V110H82.0063ZM6.72 143.336C4.96 143.336 3.6 142.808 2.64 141.752C1.696 140.68 1.224 139.176 1.224 137.24V129.488H2.328V137.24C2.328 138.936 2.72 140.208 3.504 141.056C4.304 141.888 5.376 142.304 6.72 142.304C8.144 142.304 9.232 141.888 9.984 141.056C10.752 140.224 11.136 138.952 11.136 137.24V129.488H12.216V137.24C12.216 139.208 11.744 140.72 10.8 141.776C9.872 142.816 8.512 143.336 6.72 143.336ZM14.2892 143L19.3292 135.824L14.7932 129.488H16.1612L20.0012 135.056L23.8652 129.488H25.2092L20.7212 135.824L25.7852 143H24.4652L20.0012 136.592L15.5612 143H14.2892ZM41.8449 129.488H42.9969L47.0529 142.448L51.1329 129.488H52.3329L47.9649 143H46.1649L42.4209 131L38.5089 143H36.6849L32.5329 129.488H33.7089L37.6209 142.448L41.8449 129.488ZM54.0527 143V133.256H54.9887L55.1327 135.752C55.2927 135.064 55.6687 134.472 56.2607 133.976C56.8527 133.48 57.6847 133.24 58.7567 133.256H59.2847V134.48H58.7567C57.6687 134.48 56.8687 134.656 56.3567 135.008C55.8447 135.344 55.5087 135.8 55.3487 136.376C55.2047 136.952 55.1327 137.592 55.1327 138.296V143H54.0527ZM61.593 132.224C61.321 132.24 61.137 132.168 61.041 132.008C60.945 131.848 60.897 131.656 60.897 131.432C60.897 131.224 60.945 131.048 61.041 130.904C61.137 130.76 61.321 130.688 61.593 130.688C61.849 130.688 62.025 130.76 62.121 130.904C62.217 131.048 62.265 131.224 62.265 131.432C62.265 131.672 62.217 131.864 62.121 132.008C62.025 132.152 61.849 132.224 61.593 132.224ZM61.017 143V133.256H62.097V143H61.017ZM66.7969 143C66.2849 143 65.9569 142.856 65.8129 142.568C65.6689 142.28 65.5969 141.936 65.5969 141.536V134.144H63.9889V133.256C64.5649 133.256 64.9649 133.224 65.1889 133.16C65.4129 133.08 65.5489 132.864 65.5969 132.512C65.6449 132.16 65.6689 131.568 65.6689 130.736H66.6529V133.256H68.9329V134.144H66.6529V142.064H68.9329V143H66.7969ZM72.0461 132.224C71.7741 132.24 71.5901 132.168 71.4941 132.008C71.3981 131.848 71.3501 131.656 71.3501 131.432C71.3501 131.224 71.3981 131.048 71.4941 130.904C71.5901 130.76 71.7741 130.688 72.0461 130.688C72.3021 130.688 72.4781 130.76 72.5741 130.904C72.6701 131.048 72.7181 131.224 72.7181 131.432C72.7181 131.672 72.6701 131.864 72.5741 132.008C72.4781 132.152 72.3021 132.224 72.0461 132.224ZM71.4701 143V133.256H72.5501V143H71.4701ZM74.8813 143V133.28H75.7933L75.9853 135.848H76.0333C76.0653 135.736 76.1453 135.544 76.2733 135.272C76.4013 135 76.6013 134.712 76.8733 134.408C77.1453 134.088 77.5053 133.816 77.9533 133.592C78.4013 133.368 78.9613 133.256 79.6333 133.256C80.4653 133.256 81.1293 133.408 81.6253 133.712C82.1213 134 82.4973 134.384 82.7533 134.864C83.0093 135.344 83.1773 135.872 83.2573 136.448C83.3373 137.024 83.3773 137.6 83.3773 138.176V143H82.2973V138.152C82.2973 136.968 82.0893 136.024 81.6733 135.32C81.2733 134.616 80.5213 134.264 79.4173 134.264C78.6333 134.264 77.9853 134.456 77.4733 134.84C76.9773 135.208 76.6013 135.712 76.3453 136.352C76.1053 136.976 75.9853 137.656 75.9853 138.392V143H74.8813ZM87.5664 146.84V145.808H92.7024V140.624H92.6544C92.6224 140.736 92.5264 140.928 92.3664 141.2C92.2224 141.472 92.0064 141.768 91.7184 142.088C91.4304 142.408 91.0544 142.68 90.5904 142.904C90.1424 143.128 89.5984 143.24 88.9584 143.24C88.0304 143.24 87.2384 143.016 86.5824 142.568C85.9424 142.12 85.4544 141.52 85.1184 140.768C84.7824 140.016 84.6144 139.176 84.6144 138.248C84.6144 137.304 84.7824 136.456 85.1184 135.704C85.4704 134.952 85.9664 134.36 86.6064 133.928C87.2624 133.48 88.0544 133.256 88.9824 133.256C89.6384 133.256 90.1904 133.376 90.6384 133.616C91.1024 133.84 91.4704 134.112 91.7424 134.432C92.0304 134.736 92.2384 135.032 92.3664 135.32C92.5104 135.592 92.5984 135.784 92.6304 135.896H92.6784L92.7024 133.256H93.8304V145.088C93.8304 145.6 93.7344 146.016 93.5424 146.336C93.3664 146.672 92.9904 146.84 92.4144 146.84H87.5664ZM89.1024 142.208C90.0784 142.208 90.9104 141.864 91.5984 141.176C92.3024 140.488 92.6544 139.512 92.6544 138.248C92.6544 137.016 92.3264 136.056 91.6704 135.368C91.0144 134.664 90.2064 134.312 89.2464 134.312C88.4464 134.312 87.7824 134.504 87.2544 134.888C86.7264 135.256 86.3344 135.744 86.0784 136.352C85.8224 136.944 85.6944 137.576 85.6944 138.248C85.6944 138.92 85.8064 139.56 86.0304 140.168C86.2704 140.776 86.6384 141.272 87.1344 141.656C87.6464 142.024 88.3024 142.208 89.1024 142.208Z" fill="black"/>
<path d="M312.34 19.85V16.858H327.13V19.85H321.452V36H317.984V19.85H312.34ZM333.168 36.34C331.582 36.34 330.267 36.034 329.224 35.422C328.182 34.81 327.4 33.9713 326.878 32.906C326.357 31.818 326.096 30.5827 326.096 29.2C326.074 27.1147 326.652 25.4033 327.83 24.066C329.032 22.706 330.811 22.026 333.168 22.026C335.458 22.026 337.192 22.6833 338.37 23.998C339.572 25.3127 340.172 27.0467 340.172 29.2C340.172 30.5373 339.923 31.75 339.424 32.838C338.926 33.926 338.155 34.7873 337.112 35.422C336.07 36.034 334.755 36.34 333.168 36.34ZM333.168 33.416C334.166 33.416 334.925 33.2007 335.446 32.77C335.99 32.3393 336.353 31.7953 336.534 31.138C336.716 30.458 336.806 29.778 336.806 29.098C336.806 28.3953 336.716 27.704 336.534 27.024C336.353 26.344 335.99 25.7887 335.446 25.358C334.925 24.9273 334.166 24.712 333.168 24.712C332.148 24.712 331.366 24.9387 330.822 25.392C330.301 25.8227 329.938 26.378 329.734 27.058C329.553 27.7153 329.462 28.3953 329.462 29.098C329.462 29.778 329.553 30.458 329.734 31.138C329.938 31.7953 330.301 32.3393 330.822 32.77C331.366 33.2007 332.148 33.416 333.168 33.416ZM349.206 36.34C347.619 36.34 346.304 36.034 345.262 35.422C344.219 34.81 343.437 33.9713 342.916 32.906C342.394 31.818 342.134 30.5827 342.134 29.2C342.111 27.1147 342.689 25.4033 343.868 24.066C345.069 22.706 346.848 22.026 349.206 22.026C351.495 22.026 353.229 22.6833 354.408 23.998C355.609 25.3127 356.21 27.0467 356.21 29.2C356.21 30.5373 355.96 31.75 355.462 32.838C354.963 33.926 354.192 34.7873 353.15 35.422C352.107 36.034 350.792 36.34 349.206 36.34ZM349.206 33.416C350.203 33.416 350.962 33.2007 351.484 32.77C352.028 32.3393 352.39 31.7953 352.572 31.138C352.753 30.458 352.844 29.778 352.844 29.098C352.844 28.3953 352.753 27.704 352.572 27.024C352.39 26.344 352.028 25.7887 351.484 25.358C350.962 24.9273 350.203 24.712 349.206 24.712C348.186 24.712 347.404 24.9387 346.86 25.392C346.338 25.8227 345.976 26.378 345.772 27.058C345.59 27.7153 345.5 28.3953 345.5 29.098C345.5 29.778 345.59 30.458 345.772 31.138C345.976 31.7953 346.338 32.3393 346.86 32.77C347.404 33.2007 348.186 33.416 349.206 33.416ZM359.021 36V16.858H362.421V36H359.021ZM371.203 36.34C370.613 36.34 369.956 36.238 369.231 36.034C368.528 35.83 367.848 35.524 367.191 35.116C366.556 34.708 366.023 34.1867 365.593 33.552C365.185 32.8947 364.981 32.124 364.981 31.24H368.177C368.177 31.2853 368.188 31.444 368.211 31.716C368.233 31.9653 368.324 32.26 368.483 32.6C368.664 32.9173 368.959 33.2007 369.367 33.45C369.775 33.6993 370.364 33.824 371.135 33.824C372.041 33.824 372.721 33.6653 373.175 33.348C373.628 33.008 373.855 32.6227 373.855 32.192C373.855 31.6933 373.639 31.308 373.209 31.036C372.801 30.7413 372.268 30.5033 371.611 30.322C370.953 30.1407 370.251 29.9593 369.503 29.778C368.777 29.574 368.086 29.3133 367.429 28.996C366.794 28.6787 366.273 28.248 365.865 27.704C365.457 27.1373 365.253 26.412 365.253 25.528C365.253 24.236 365.774 23.2613 366.817 22.604C367.859 21.924 369.185 21.584 370.795 21.584C371.928 21.584 372.982 21.7653 373.957 22.128C374.931 22.468 375.713 23.0233 376.303 23.794C376.892 24.542 377.187 25.528 377.187 26.752H373.991C374.013 26.0493 373.855 25.528 373.515 25.188C373.197 24.8253 372.789 24.576 372.291 24.44C371.815 24.304 371.35 24.236 370.897 24.236C370.081 24.236 369.457 24.3833 369.027 24.678C368.619 24.95 368.415 25.3127 368.415 25.766C368.415 26.2873 368.619 26.6953 369.027 26.99C369.457 27.262 370.001 27.4887 370.659 27.67C371.339 27.8513 372.041 28.044 372.767 28.248C373.515 28.4293 374.217 28.6787 374.875 28.996C375.555 29.3133 376.099 29.744 376.507 30.288C376.937 30.8093 377.153 31.512 377.153 32.396C377.153 33.7333 376.597 34.7307 375.487 35.388C374.399 36.0227 372.971 36.34 371.203 36.34Z" fill="#131313"/>
<path d="M314.832 77H313.752V63.488H322.944V64.472H314.832V69.296H321.312V70.256H314.832V77ZM325.124 66.224C324.852 66.24 324.668 66.168 324.572 66.008C324.476 65.848 324.428 65.656 324.428 65.432C324.428 65.224 324.476 65.048 324.572 64.904C324.668 64.76 324.852 64.688 325.124 64.688C325.38 64.688 325.556 64.76 325.652 64.904C325.748 65.048 325.796 65.224 325.796 65.432C325.796 65.672 325.748 65.864 325.652 66.008C325.556 66.152 325.38 66.224 325.124 66.224ZM324.548 77V67.256H325.628V77H324.548ZM330.191 80.84V79.808H335.327V74.624H335.279C335.247 74.736 335.151 74.928 334.991 75.2C334.847 75.472 334.631 75.768 334.343 76.088C334.055 76.408 333.679 76.68 333.215 76.904C332.767 77.128 332.223 77.24 331.583 77.24C330.655 77.24 329.863 77.016 329.207 76.568C328.567 76.12 328.079 75.52 327.743 74.768C327.407 74.016 327.239 73.176 327.239 72.248C327.239 71.304 327.407 70.456 327.743 69.704C328.095 68.952 328.591 68.36 329.231 67.928C329.887 67.48 330.679 67.256 331.607 67.256C332.263 67.256 332.815 67.376 333.263 67.616C333.727 67.84 334.095 68.112 334.367 68.432C334.655 68.736 334.863 69.032 334.991 69.32C335.135 69.592 335.223 69.784 335.255 69.896H335.303L335.327 67.256H336.455V79.088C336.455 79.6 336.359 80.016 336.167 80.336C335.991 80.672 335.615 80.84 335.039 80.84H330.191ZM331.727 76.208C332.703 76.208 333.535 75.864 334.223 75.176C334.927 74.488 335.279 73.512 335.279 72.248C335.279 71.016 334.951 70.056 334.295 69.368C333.639 68.664 332.831 68.312 331.871 68.312C331.071 68.312 330.407 68.504 329.879 68.888C329.351 69.256 328.959 69.744 328.703 70.352C328.447 70.944 328.319 71.576 328.319 72.248C328.319 72.92 328.431 73.56 328.655 74.168C328.895 74.776 329.263 75.272 329.759 75.656C330.271 76.024 330.927 76.208 331.727 76.208ZM338.624 77V67.256H339.536L339.632 69.848H339.68C339.728 69.704 339.808 69.496 339.92 69.224C340.048 68.936 340.232 68.648 340.472 68.36C340.712 68.056 341.032 67.8 341.432 67.592C341.832 67.368 342.328 67.256 342.92 67.256C343.56 67.256 344.072 67.384 344.456 67.64C344.856 67.88 345.168 68.2 345.392 68.6C345.616 69 345.776 69.416 345.872 69.848H345.92C345.968 69.704 346.056 69.496 346.184 69.224C346.328 68.936 346.528 68.648 346.784 68.36C347.056 68.056 347.4 67.8 347.816 67.592C348.232 67.368 348.736 67.256 349.328 67.256C349.968 67.256 350.488 67.384 350.888 67.64C351.288 67.896 351.6 68.224 351.824 68.624C352.048 69.008 352.208 69.424 352.304 69.872C352.4 70.32 352.456 70.752 352.472 71.168C352.488 71.568 352.496 71.904 352.496 72.176V77H351.512V72.152C351.512 71.88 351.496 71.536 351.464 71.12C351.448 70.688 351.36 70.256 351.2 69.824C351.056 69.376 350.816 69.008 350.48 68.72C350.144 68.416 349.664 68.264 349.04 68.264C348.352 68.264 347.792 68.456 347.36 68.84C346.928 69.224 346.6 69.728 346.376 70.352C346.168 70.976 346.064 71.656 346.064 72.392V77H345.08V72.152C345.08 71.88 345.064 71.536 345.032 71.12C345.016 70.688 344.928 70.256 344.768 69.824C344.624 69.376 344.384 69.008 344.048 68.72C343.712 68.416 343.232 68.264 342.608 68.264C341.92 68.264 341.36 68.456 340.928 68.84C340.496 69.224 340.168 69.728 339.944 70.352C339.736 70.976 339.632 71.656 339.632 72.392V77H338.624ZM357.947 77.216C357.051 77.216 356.307 76.992 355.715 76.544C355.123 76.096 354.683 75.496 354.395 74.744C354.107 73.976 353.963 73.128 353.963 72.2C353.963 71.24 354.107 70.384 354.395 69.632C354.699 68.864 355.147 68.264 355.739 67.832C356.331 67.384 357.067 67.16 357.947 67.16C358.891 67.16 359.643 67.392 360.203 67.856C360.763 68.304 361.163 68.824 361.403 69.416H361.451V67.256H362.555V77H361.643L361.451 74.984H361.403C361.147 75.576 360.739 76.096 360.179 76.544C359.619 76.992 358.875 77.216 357.947 77.216ZM358.355 76.208C359.379 76.208 360.147 75.856 360.659 75.152C361.171 74.448 361.427 73.472 361.427 72.224C361.427 70.896 361.155 69.896 360.611 69.224C360.083 68.552 359.331 68.216 358.355 68.216C357.219 68.216 356.387 68.6 355.859 69.368C355.331 70.12 355.067 71.064 355.067 72.2C355.067 73.384 355.339 74.352 355.883 75.104C356.427 75.84 357.251 76.208 358.355 76.208ZM314.832 110H313.752V96.488H322.944V97.472H314.832V102.296H321.312V103.256H314.832V110ZM325.124 99.224C324.852 99.24 324.668 99.168 324.572 99.008C324.476 98.848 324.428 98.656 324.428 98.432C324.428 98.224 324.476 98.048 324.572 97.904C324.668 97.76 324.852 97.688 325.124 97.688C325.38 97.688 325.556 97.76 325.652 97.904C325.748 98.048 325.796 98.224 325.796 98.432C325.796 98.672 325.748 98.864 325.652 99.008C325.556 99.152 325.38 99.224 325.124 99.224ZM324.548 110V100.256H325.628V110H324.548ZM330.191 113.84V112.808H335.327V107.624H335.279C335.247 107.736 335.151 107.928 334.991 108.2C334.847 108.472 334.631 108.768 334.343 109.088C334.055 109.408 333.679 109.68 333.215 109.904C332.767 110.128 332.223 110.24 331.583 110.24C330.655 110.24 329.863 110.016 329.207 109.568C328.567 109.12 328.079 108.52 327.743 107.768C327.407 107.016 327.239 106.176 327.239 105.248C327.239 104.304 327.407 103.456 327.743 102.704C328.095 101.952 328.591 101.36 329.231 100.928C329.887 100.48 330.679 100.256 331.607 100.256C332.263 100.256 332.815 100.376 333.263 100.616C333.727 100.84 334.095 101.112 334.367 101.432C334.655 101.736 334.863 102.032 334.991 102.32C335.135 102.592 335.223 102.784 335.255 102.896H335.303L335.327 100.256H336.455V112.088C336.455 112.6 336.359 113.016 336.167 113.336C335.991 113.672 335.615 113.84 335.039 113.84H330.191ZM331.727 109.208C332.703 109.208 333.535 108.864 334.223 108.176C334.927 107.488 335.279 106.512 335.279 105.248C335.279 104.016 334.951 103.056 334.295 102.368C333.639 101.664 332.831 101.312 331.871 101.312C331.071 101.312 330.407 101.504 329.879 101.888C329.351 102.256 328.959 102.744 328.703 103.352C328.447 103.944 328.319 104.576 328.319 105.248C328.319 105.92 328.431 106.56 328.655 107.168C328.895 107.776 329.263 108.272 329.759 108.656C330.271 109.024 330.927 109.208 331.727 109.208ZM340.04 98.96C339.752 98.96 339.56 98.888 339.464 98.744C339.384 98.584 339.344 98.384 339.344 98.144C339.344 97.936 339.384 97.76 339.464 97.616C339.56 97.456 339.752 97.376 340.04 97.376C340.312 97.376 340.488 97.456 340.568 97.616C340.664 97.76 340.712 97.936 340.712 98.144C340.712 98.384 340.664 98.584 340.568 98.744C340.488 98.888 340.312 98.96 340.04 98.96ZM339.464 100.256H340.568V112.376C340.568 112.776 340.488 113.12 340.328 113.408C340.184 113.696 339.864 113.84 339.368 113.84H337.784V112.904H339.464V100.256ZM346.205 110.216C345.309 110.216 344.565 109.992 343.973 109.544C343.381 109.096 342.941 108.496 342.653 107.744C342.365 106.976 342.221 106.128 342.221 105.2C342.221 104.24 342.365 103.384 342.653 102.632C342.957 101.864 343.405 101.264 343.997 100.832C344.589 100.384 345.325 100.16 346.205 100.16C347.149 100.16 347.901 100.392 348.461 100.856C349.021 101.304 349.421 101.824 349.661 102.416H349.709V100.256H350.813V110H349.901L349.709 107.984H349.661C349.405 108.576 348.997 109.096 348.437 109.544C347.877 109.992 347.133 110.216 346.205 110.216ZM346.613 109.208C347.637 109.208 348.405 108.856 348.917 108.152C349.429 107.448 349.685 106.472 349.685 105.224C349.685 103.896 349.413 102.896 348.868 102.224C348.341 101.552 347.589 101.216 346.613 101.216C345.477 101.216 344.645 101.6 344.117 102.368C343.589 103.12 343.325 104.064 343.325 105.2C343.325 106.384 343.597 107.352 344.141 108.104C344.685 108.84 345.509 109.208 346.613 109.208ZM352.663 110V100.256H353.575L353.671 102.848H353.719C353.767 102.704 353.847 102.496 353.959 102.224C354.087 101.936 354.271 101.648 354.511 101.36C354.751 101.056 355.071 100.8 355.471 100.592C355.871 100.368 356.367 100.256 356.959 100.256C357.599 100.256 358.111 100.384 358.495 100.64C358.895 100.88 359.207 101.2 359.431 101.6C359.655 102 359.815 102.416 359.911 102.848H359.959C360.007 102.704 360.095 102.496 360.223 102.224C360.367 101.936 360.567 101.648 360.823 101.36C361.095 101.056 361.439 100.8 361.855 100.592C362.271 100.368 362.775 100.256 363.367 100.256C364.007 100.256 364.527 100.384 364.927 100.64C365.327 100.896 365.639 101.224 365.863 101.624C366.087 102.008 366.247 102.424 366.343 102.872C366.439 103.32 366.495 103.752 366.511 104.168C366.527 104.568 366.535 104.904 366.535 105.176V110H365.551V105.152C365.551 104.88 365.535 104.536 365.503 104.12C365.487 103.688 365.399 103.256 365.239 102.824C365.095 102.376 364.855 102.008 364.519 101.72C364.183 101.416 363.703 101.264 363.079 101.264C362.391 101.264 361.831 101.456 361.399 101.84C360.967 102.224 360.639 102.728 360.415 103.352C360.207 103.976 360.103 104.656 360.103 105.392V110H359.119V105.152C359.119 104.88 359.103 104.536 359.071 104.12C359.055 103.688 358.967 103.256 358.807 102.824C358.663 102.376 358.423 102.008 358.087 101.72C357.751 101.416 357.271 101.264 356.647 101.264C355.959 101.264 355.399 101.456 354.967 101.84C354.535 102.224 354.207 102.728 353.983 103.352C353.775 103.976 353.671 104.656 353.671 105.392V110H352.663ZM312.792 143V142.064L322.368 130.472H313.632V129.488H323.76V130.424L314.232 141.992H323.688V143H312.792ZM330.076 143.24C328.556 143.24 327.412 142.776 326.644 141.848C325.892 140.904 325.516 139.712 325.516 138.272C325.516 136.8 325.9 135.6 326.668 134.672C327.436 133.728 328.572 133.256 330.076 133.256C331.548 133.256 332.668 133.72 333.436 134.648C334.22 135.56 334.612 136.768 334.612 138.272C334.612 139.216 334.444 140.064 334.108 140.816C333.788 141.552 333.292 142.144 332.62 142.592C331.964 143.024 331.116 143.24 330.076 143.24ZM330.076 142.256C330.972 142.256 331.668 142.056 332.164 141.656C332.66 141.256 333.004 140.752 333.196 140.144C333.404 139.52 333.508 138.888 333.508 138.248C333.508 137.592 333.404 136.96 333.196 136.352C333.004 135.728 332.66 135.216 332.164 134.816C331.668 134.4 330.972 134.192 330.076 134.192C329.18 134.192 328.484 134.4 327.988 134.816C327.492 135.216 327.14 135.728 326.932 136.352C326.724 136.96 326.62 137.592 326.62 138.248C326.62 138.888 326.724 139.52 326.932 140.144C327.14 140.752 327.492 141.256 327.988 141.656C328.484 142.056 329.18 142.256 330.076 142.256ZM340.88 143.24C339.36 143.24 338.216 142.776 337.448 141.848C336.696 140.904 336.32 139.712 336.32 138.272C336.32 136.8 336.704 135.6 337.472 134.672C338.24 133.728 339.376 133.256 340.88 133.256C342.352 133.256 343.472 133.72 344.24 134.648C345.024 135.56 345.416 136.768 345.416 138.272C345.416 139.216 345.248 140.064 344.912 140.816C344.592 141.552 344.096 142.144 343.424 142.592C342.768 143.024 341.92 143.24 340.88 143.24ZM340.88 142.256C341.776 142.256 342.472 142.056 342.968 141.656C343.464 141.256 343.808 140.752 344 140.144C344.208 139.52 344.312 138.888 344.312 138.248C344.312 137.592 344.208 136.96 344 136.352C343.808 135.728 343.464 135.216 342.968 134.816C342.472 134.4 341.776 134.192 340.88 134.192C339.984 134.192 339.288 134.4 338.792 134.816C338.296 135.216 337.944 135.728 337.736 136.352C337.528 136.96 337.424 137.592 337.424 138.248C337.424 138.888 337.528 139.52 337.736 140.144C337.944 140.752 338.296 141.256 338.792 141.656C339.288 142.056 339.984 142.256 340.88 142.256ZM347.389 143V133.256H348.301L348.397 135.848H348.445C348.493 135.704 348.573 135.496 348.685 135.224C348.813 134.936 348.997 134.648 349.237 134.36C349.477 134.056 349.797 133.8 350.197 133.592C350.597 133.368 351.093 133.256 351.685 133.256C352.325 133.256 352.837 133.384 353.221 133.64C353.621 133.88 353.933 134.2 354.157 134.6C354.381 135 354.541 135.416 354.637 135.848H354.685C354.733 135.704 354.821 135.496 354.949 135.224C355.093 134.936 355.293 134.648 355.549 134.36C355.821 134.056 356.165 133.8 356.581 133.592C356.997 133.368 357.501 133.256 358.093 133.256C358.733 133.256 359.253 133.384 359.653 133.64C360.053 133.896 360.365 134.224 360.589 134.624C360.813 135.008 360.973 135.424 361.069 135.872C361.165 136.32 361.221 136.752 361.237 137.168C361.253 137.568 361.261 137.904 361.261 138.176V143H360.277V138.152C360.277 137.88 360.261 137.536 360.229 137.12C360.213 136.688 360.125 136.256 359.965 135.824C359.821 135.376 359.581 135.008 359.245 134.72C358.909 134.416 358.429 134.264 357.805 134.264C357.117 134.264 356.557 134.456 356.125 134.84C355.693 135.224 355.365 135.728 355.141 136.352C354.933 136.976 354.829 137.656 354.829 138.392V143H353.845V138.152C353.845 137.88 353.829 137.536 353.797 137.12C353.781 136.688 353.693 136.256 353.533 135.824C353.389 135.376 353.149 135.008 352.813 134.72C352.477 134.416 351.997 134.264 351.373 134.264C350.685 134.264 350.125 134.456 349.693 134.84C349.261 135.224 348.933 135.728 348.709 136.352C348.501 136.976 348.397 137.656 348.397 138.392V143H347.389Z" fill="black"/>
<path d="M624.34 19.306V16.858H638.96V19.306H633.078V36H630.256V19.306H624.34ZM641.974 20.564C641.362 20.5867 640.954 20.4393 640.75 20.122C640.546 19.8047 640.444 19.408 640.444 18.932C640.444 18.524 640.546 18.1613 640.75 17.844C640.954 17.5267 641.362 17.368 641.974 17.368C642.563 17.368 642.96 17.5267 643.164 17.844C643.39 18.1613 643.504 18.524 643.504 18.932C643.504 19.408 643.39 19.8047 643.164 20.122C642.96 20.4167 642.563 20.564 641.974 20.564ZM640.546 36V22.094H643.368V36H640.546ZM646.509 36V22.094H648.957L649.025 25.324H649.093C649.138 25.2107 649.229 24.984 649.365 24.644C649.523 24.304 649.761 23.9413 650.079 23.556C650.419 23.148 650.861 22.808 651.405 22.536C651.949 22.2413 652.617 22.094 653.411 22.094C654.612 22.094 655.496 22.4227 656.063 23.08C656.652 23.7147 657.071 24.4627 657.321 25.324H657.389C657.411 25.2107 657.513 24.984 657.695 24.644C657.876 24.304 658.137 23.9413 658.477 23.556C658.839 23.148 659.304 22.808 659.871 22.536C660.437 22.2413 661.129 22.094 661.945 22.094C662.829 22.094 663.543 22.2753 664.087 22.638C664.653 23.0007 665.084 23.4767 665.379 24.066C665.696 24.6327 665.911 25.2447 666.025 25.902C666.161 26.5367 666.24 27.1487 666.263 27.738C666.285 28.3273 666.297 28.8147 666.297 29.2V36H663.883V29.166C663.883 28.826 663.86 28.4067 663.815 27.908C663.792 27.3867 663.69 26.8767 663.509 26.378C663.35 25.8567 663.067 25.4373 662.659 25.12C662.273 24.78 661.718 24.61 660.993 24.61C660.131 24.61 659.463 24.8367 658.987 25.29C658.511 25.7433 658.171 26.344 657.967 27.092C657.763 27.8173 657.661 28.5767 657.661 29.37V36H655.247V29.166C655.247 28.826 655.224 28.4067 655.179 27.908C655.156 27.3867 655.054 26.8767 654.873 26.378C654.714 25.8567 654.431 25.4373 654.023 25.12C653.637 24.78 653.082 24.61 652.357 24.61C651.495 24.61 650.827 24.8367 650.351 25.29C649.875 25.7433 649.535 26.344 649.331 27.092C649.127 27.8173 649.025 28.5767 649.025 29.37V36H646.509ZM675.346 36.34C673.782 36.34 672.501 36 671.504 35.32C670.507 34.6173 669.77 33.722 669.294 32.634C668.818 31.546 668.58 30.4013 668.58 29.2C668.557 27.8627 668.807 26.65 669.328 25.562C669.872 24.474 670.643 23.6127 671.64 22.978C672.66 22.3433 673.873 22.026 675.278 22.026C676.479 22.026 677.556 22.298 678.508 22.842C679.483 23.3633 680.253 24.1113 680.82 25.086C681.387 26.038 681.693 27.1713 681.738 28.486C681.738 28.554 681.738 28.69 681.738 28.894C681.761 29.0753 681.772 29.234 681.772 29.37H671.266C671.266 30.8207 671.617 31.954 672.32 32.77C673.045 33.5633 674.043 33.96 675.312 33.96C676.264 33.96 677.069 33.722 677.726 33.246C678.406 32.7473 678.825 32.09 678.984 31.274H681.738C681.534 32.7247 680.877 33.9373 679.766 34.912C678.655 35.864 677.182 36.34 675.346 36.34ZM671.368 27.976H678.916C678.893 27.7267 678.825 27.398 678.712 26.99C678.599 26.582 678.406 26.1853 678.134 25.8C677.885 25.392 677.522 25.052 677.046 24.78C676.57 24.508 675.958 24.372 675.21 24.372C674.281 24.372 673.544 24.576 673 24.984C672.479 25.3693 672.082 25.8453 671.81 26.412C671.561 26.956 671.413 27.4773 671.368 27.976ZM684.901 36V16.858H687.689V36H684.901ZM692.675 20.564C692.063 20.5867 691.655 20.4393 691.451 20.122C691.247 19.8047 691.145 19.408 691.145 18.932C691.145 18.524 691.247 18.1613 691.451 17.844C691.655 17.5267 692.063 17.368 692.675 17.368C693.264 17.368 693.661 17.5267 693.865 17.844C694.092 18.1613 694.205 18.524 694.205 18.932C694.205 19.408 694.092 19.8047 693.865 20.122C693.661 20.4167 693.264 20.564 692.675 20.564ZM691.247 36V22.094H694.069V36H691.247ZM697.21 36V22.128H699.624L700.1 25.324H700.168C700.191 25.2333 700.281 25.018 700.44 24.678C700.599 24.338 700.859 23.9753 701.222 23.59C701.585 23.182 702.072 22.8307 702.684 22.536C703.296 22.2413 704.067 22.094 704.996 22.094C706.22 22.094 707.172 22.332 707.852 22.808C708.532 23.2613 709.031 23.862 709.348 24.61C709.665 25.3353 709.858 26.106 709.926 26.922C710.017 27.738 710.062 28.4973 710.062 29.2V36H707.308V29.166C707.308 28.3047 707.217 27.534 707.036 26.854C706.855 26.1513 706.515 25.6073 706.016 25.222C705.54 24.814 704.837 24.61 703.908 24.61C702.956 24.61 702.197 24.8367 701.63 25.29C701.063 25.7433 700.667 26.3327 700.44 27.058C700.213 27.7833 700.1 28.554 700.1 29.37V36H697.21ZM719.108 36.34C717.544 36.34 716.263 36 715.266 35.32C714.268 34.6173 713.532 33.722 713.056 32.634C712.58 31.546 712.342 30.4013 712.342 29.2C712.319 27.8627 712.568 26.65 713.09 25.562C713.634 24.474 714.404 23.6127 715.402 22.978C716.422 22.3433 717.634 22.026 719.04 22.026C720.241 22.026 721.318 22.298 722.27 22.842C723.244 23.3633 724.015 24.1113 724.582 25.086C725.148 26.038 725.454 27.1713 725.5 28.486C725.5 28.554 725.5 28.69 725.5 28.894C725.522 29.0753 725.534 29.234 725.534 29.37H715.028C715.028 30.8207 715.379 31.954 716.082 32.77C716.807 33.5633 717.804 33.96 719.074 33.96C720.026 33.96 720.83 33.722 721.488 33.246C722.168 32.7473 722.587 32.09 722.746 31.274H725.5C725.296 32.7247 724.638 33.9373 723.528 34.912C722.417 35.864 720.944 36.34 719.108 36.34ZM715.13 27.976H722.678C722.655 27.7267 722.587 27.398 722.474 26.99C722.36 26.582 722.168 26.1853 721.896 25.8C721.646 25.392 721.284 25.052 720.808 24.78C720.332 24.508 719.72 24.372 718.972 24.372C718.042 24.372 717.306 24.576 716.762 24.984C716.24 25.3693 715.844 25.8453 715.572 26.412C715.322 26.956 715.175 27.4773 715.13 27.976ZM754.861 36.068C754.023 35.728 753.229 35.3653 752.481 34.98C751.756 34.572 750.985 34.096 750.169 33.552C749.24 34.4587 748.175 35.1387 746.973 35.592C745.772 36.0453 744.548 36.2833 743.301 36.306C742.077 36.3287 740.944 36.136 739.901 35.728C738.859 35.2973 738.009 34.6627 737.351 33.824C736.717 32.9627 736.399 31.8973 736.399 30.628C736.399 29.744 736.569 28.996 736.909 28.384C737.249 27.772 737.669 27.2733 738.167 26.888C738.666 26.48 739.165 26.1513 739.663 25.902C740.162 25.63 740.559 25.4147 740.853 25.256C740.672 25.0067 740.411 24.6667 740.071 24.236C739.754 23.8053 739.459 23.3067 739.187 22.74C738.938 22.1507 738.813 21.4933 738.813 20.768C738.813 19.8613 739.051 19.102 739.527 18.49C740.003 17.8553 740.627 17.3793 741.397 17.062C742.168 16.7447 742.984 16.586 743.845 16.586C744.707 16.5633 745.523 16.6993 746.293 16.994C747.064 17.2887 747.687 17.742 748.163 18.354C748.662 18.9433 748.911 19.6913 748.911 20.598C748.911 21.3687 748.707 22.06 748.299 22.672C747.914 23.2613 747.438 23.7713 746.871 24.202C746.327 24.6327 745.817 24.9727 745.341 25.222C744.888 25.4713 744.593 25.63 744.457 25.698C744.707 26.0153 745.069 26.4347 745.545 26.956C746.044 27.4547 746.611 27.9873 747.245 28.554C747.903 29.098 748.571 29.6193 749.251 30.118C749.501 29.7327 749.739 29.2227 749.965 28.588C750.192 27.9533 750.294 27.3073 750.271 26.65C750.271 25.9927 750.045 25.426 749.591 24.95L751.971 23.352C752.153 23.624 752.345 24.0547 752.549 24.644C752.776 25.2333 752.923 25.9247 752.991 26.718C753.082 27.5113 753.037 28.3387 752.855 29.2C752.674 30.0613 752.3 30.8887 751.733 31.682C752.391 32.1353 753.025 32.5433 753.637 32.906C754.272 33.246 755.031 33.586 755.915 33.926L754.861 36.068ZM742.893 24.372C743.052 24.304 743.324 24.168 743.709 23.964C744.095 23.76 744.491 23.5107 744.899 23.216C745.307 22.9213 745.659 22.5927 745.953 22.23C746.271 21.8447 746.441 21.4367 746.463 21.006C746.509 20.4167 746.361 19.952 746.021 19.612C745.681 19.2493 745.251 19.0113 744.729 18.898C744.231 18.762 743.721 18.762 743.199 18.898C742.678 19.0113 742.236 19.2493 741.873 19.612C741.533 19.952 741.363 20.428 741.363 21.04C741.386 22.0147 741.896 23.1253 742.893 24.372ZM747.959 31.954C746.939 31.1833 745.931 30.322 744.933 29.37C743.936 28.418 743.086 27.5 742.383 26.616C741.545 27.024 740.808 27.5 740.173 28.044C739.539 28.588 739.221 29.336 739.221 30.288C739.221 31.2853 739.527 32.0787 740.139 32.668C740.774 33.2347 741.567 33.5973 742.519 33.756C743.471 33.9147 744.435 33.8467 745.409 33.552C746.407 33.2573 747.257 32.7247 747.959 31.954ZM764.557 19.306V16.858H779.177V19.306H773.295V36H770.473V19.306H764.557ZM784.883 36.34C783.319 36.34 782.039 36 781.041 35.32C780.044 34.6173 779.307 33.722 778.831 32.634C778.355 31.546 778.117 30.4013 778.117 29.2C778.095 27.8627 778.344 26.65 778.865 25.562C779.409 24.474 780.18 23.6127 781.177 22.978C782.197 22.3433 783.41 22.026 784.815 22.026C786.017 22.026 787.093 22.298 788.045 22.842C789.02 23.3633 789.791 24.1113 790.357 25.086C790.924 26.038 791.23 27.1713 791.275 28.486C791.275 28.554 791.275 28.69 791.275 28.894C791.298 29.0753 791.309 29.234 791.309 29.37H780.803C780.803 30.8207 781.155 31.954 781.857 32.77C782.583 33.5633 783.58 33.96 784.849 33.96C785.801 33.96 786.606 33.722 787.263 33.246C787.943 32.7473 788.363 32.09 788.521 31.274H791.275C791.071 32.7247 790.414 33.9373 789.303 34.912C788.193 35.864 786.719 36.34 784.883 36.34ZM780.905 27.976H788.453C788.431 27.7267 788.363 27.398 788.249 26.99C788.136 26.582 787.943 26.1853 787.671 25.8C787.422 25.392 787.059 25.052 786.583 24.78C786.107 24.508 785.495 24.372 784.747 24.372C783.818 24.372 783.081 24.576 782.537 24.984C782.016 25.3693 781.619 25.8453 781.347 26.412C781.098 26.956 780.951 27.4773 780.905 27.976ZM798.858 36.306C797.566 36.306 796.524 36.0113 795.73 35.422C794.937 34.81 794.348 33.9713 793.962 32.906C793.6 31.818 793.418 30.5827 793.418 29.2C793.418 27.092 793.849 25.3693 794.71 24.032C795.572 22.672 796.954 21.992 798.858 21.992C799.878 21.992 800.706 22.1733 801.34 22.536C801.975 22.8987 802.462 23.3067 802.802 23.76C803.165 24.2133 803.414 24.61 803.55 24.95H803.618V22.094H806.508V36H804.094L803.618 33.518H803.55C803.414 33.858 803.165 34.2547 802.802 34.708C802.44 35.1387 801.941 35.5127 801.306 35.83C800.672 36.1473 799.856 36.306 798.858 36.306ZM799.98 33.892C801.318 33.892 802.247 33.4613 802.768 32.6C803.312 31.7387 803.584 30.6167 803.584 29.234C803.584 27.7833 803.301 26.6387 802.734 25.8C802.19 24.9613 801.272 24.542 799.98 24.542C799.028 24.542 798.28 24.7573 797.736 25.188C797.192 25.596 796.796 26.1513 796.546 26.854C796.32 27.5567 796.206 28.3387 796.206 29.2C796.206 30.5373 796.49 31.6593 797.056 32.566C797.623 33.45 798.598 33.892 799.98 33.892ZM809.005 36V22.094H811.453L811.521 25.324H811.589C811.634 25.2107 811.725 24.984 811.861 24.644C812.02 24.304 812.258 23.9413 812.575 23.556C812.915 23.148 813.357 22.808 813.901 22.536C814.445 22.2413 815.114 22.094 815.907 22.094C817.108 22.094 817.992 22.4227 818.559 23.08C819.148 23.7147 819.568 24.4627 819.817 25.324H819.885C819.908 25.2107 820.01 24.984 820.191 24.644C820.372 24.304 820.633 23.9413 820.973 23.556C821.336 23.148 821.8 22.808 822.367 22.536C822.934 22.2413 823.625 22.094 824.441 22.094C825.325 22.094 826.039 22.2753 826.583 22.638C827.15 23.0007 827.58 23.4767 827.875 24.066C828.192 24.6327 828.408 25.2447 828.521 25.902C828.657 26.5367 828.736 27.1487 828.759 27.738C828.782 28.3273 828.793 28.8147 828.793 29.2V36H826.379V29.166C826.379 28.826 826.356 28.4067 826.311 27.908C826.288 27.3867 826.186 26.8767 826.005 26.378C825.846 25.8567 825.563 25.4373 825.155 25.12C824.77 24.78 824.214 24.61 823.489 24.61C822.628 24.61 821.959 24.8367 821.483 25.29C821.007 25.7433 820.667 26.344 820.463 27.092C820.259 27.8173 820.157 28.5767 820.157 29.37V36H817.743V29.166C817.743 28.826 817.72 28.4067 817.675 27.908C817.652 27.3867 817.55 26.8767 817.369 26.378C817.21 25.8567 816.927 25.4373 816.519 25.12C816.134 24.78 815.578 24.61 814.853 24.61C813.992 24.61 813.323 24.8367 812.847 25.29C812.371 25.7433 812.031 26.344 811.827 27.092C811.623 27.8173 811.521 28.5767 811.521 29.37V36H809.005Z" fill="#131313"/>
<path d="M630.48 76.016V77H625.392V76.016H627.48V65.48C627.256 66.088 626.928 66.536 626.496 66.824C626.08 67.096 625.68 67.28 625.296 67.376C624.928 67.456 624.688 67.496 624.576 67.496V66.392C624.672 66.392 624.872 66.36 625.176 66.296C625.48 66.216 625.816 66.072 626.184 65.864C626.552 65.656 626.864 65.36 627.12 64.976C627.392 64.592 627.536 64.096 627.552 63.488H628.512V76.016H630.48ZM638.202 77V67.256H639.114L639.21 69.848H639.258C639.306 69.704 639.386 69.496 639.498 69.224C639.626 68.936 639.81 68.648 640.05 68.36C640.29 68.056 640.61 67.8 641.01 67.592C641.41 67.368 641.906 67.256 642.498 67.256C643.138 67.256 643.65 67.384 644.034 67.64C644.434 67.88 644.746 68.2 644.97 68.6C645.194 69 645.354 69.416 645.45 69.848H645.498C645.546 69.704 645.634 69.496 645.762 69.224C645.906 68.936 646.106 68.648 646.362 68.36C646.634 68.056 646.978 67.8 647.394 67.592C647.81 67.368 648.314 67.256 648.906 67.256C649.546 67.256 650.066 67.384 650.466 67.64C650.866 67.896 651.178 68.224 651.402 68.624C651.626 69.008 651.786 69.424 651.882 69.872C651.978 70.32 652.034 70.752 652.05 71.168C652.066 71.568 652.074 71.904 652.074 72.176V77H651.09V72.152C651.09 71.88 651.074 71.536 651.042 71.12C651.026 70.688 650.938 70.256 650.778 69.824C650.634 69.376 650.394 69.008 650.058 68.72C649.722 68.416 649.242 68.264 648.618 68.264C647.93 68.264 647.37 68.456 646.938 68.84C646.506 69.224 646.178 69.728 645.954 70.352C645.746 70.976 645.642 71.656 645.642 72.392V77H644.658V72.152C644.658 71.88 644.642 71.536 644.61 71.12C644.594 70.688 644.506 70.256 644.346 69.824C644.202 69.376 643.962 69.008 643.626 68.72C643.29 68.416 642.81 68.264 642.186 68.264C641.498 68.264 640.938 68.456 640.506 68.84C640.074 69.224 639.746 69.728 639.522 70.352C639.314 70.976 639.21 71.656 639.21 72.392V77H638.202ZM658.365 77.24C656.845 77.24 655.701 76.776 654.933 75.848C654.181 74.904 653.805 73.712 653.805 72.272C653.805 70.8 654.189 69.6 654.957 68.672C655.725 67.728 656.861 67.256 658.365 67.256C659.837 67.256 660.957 67.72 661.725 68.648C662.509 69.56 662.901 70.768 662.901 72.272C662.901 73.216 662.733 74.064 662.397 74.816C662.077 75.552 661.581 76.144 660.909 76.592C660.253 77.024 659.405 77.24 658.365 77.24ZM658.365 76.256C659.261 76.256 659.957 76.056 660.453 75.656C660.949 75.256 661.293 74.752 661.485 74.144C661.693 73.52 661.797 72.888 661.797 72.248C661.797 71.592 661.693 70.96 661.485 70.352C661.293 69.728 660.949 69.216 660.453 68.816C659.957 68.4 659.261 68.192 658.365 68.192C657.469 68.192 656.773 68.4 656.277 68.816C655.781 69.216 655.429 69.728 655.221 70.352C655.013 70.96 654.909 71.592 654.909 72.248C654.909 72.888 655.013 73.52 655.221 74.144C655.429 74.752 655.781 75.256 656.277 75.656C656.773 76.056 657.469 76.256 658.365 76.256ZM664.874 77V67.28H665.786L665.978 69.848H666.026C666.058 69.736 666.138 69.544 666.266 69.272C666.394 69 666.594 68.712 666.866 68.408C667.138 68.088 667.498 67.816 667.946 67.592C668.394 67.368 668.954 67.256 669.626 67.256C670.458 67.256 671.122 67.408 671.618 67.712C672.114 68 672.49 68.384 672.746 68.864C673.002 69.344 673.17 69.872 673.25 70.448C673.33 71.024 673.37 71.6 673.37 72.176V77H672.29V72.152C672.29 70.968 672.082 70.024 671.666 69.32C671.266 68.616 670.514 68.264 669.41 68.264C668.626 68.264 667.978 68.456 667.465 68.84C666.97 69.208 666.594 69.712 666.338 70.352C666.098 70.976 665.978 71.656 665.978 72.392V77H664.874ZM677.391 77C676.879 77 676.551 76.856 676.407 76.568C676.263 76.28 676.191 75.936 676.191 75.536V68.144H674.583V67.256C675.159 67.256 675.559 67.224 675.783 67.16C676.007 67.08 676.143 66.864 676.191 66.512C676.239 66.16 676.263 65.568 676.263 64.736H677.247V67.256H679.527V68.144H677.247V76.064H679.527V77H677.391ZM681.656 77V63.488H682.76V69.848H682.808C682.84 69.736 682.92 69.544 683.048 69.272C683.176 69 683.376 68.712 683.648 68.408C683.92 68.088 684.272 67.816 684.704 67.592C685.152 67.368 685.704 67.256 686.36 67.256C687.192 67.256 687.856 67.408 688.352 67.712C688.864 68 689.248 68.384 689.504 68.864C689.76 69.344 689.928 69.872 690.008 70.448C690.088 71.024 690.128 71.6 690.128 72.176V77H689.072V72.152C689.072 70.968 688.864 70.024 688.448 69.32C688.032 68.616 687.272 68.264 686.168 68.264C685.4 68.264 684.76 68.456 684.248 68.84C683.736 69.208 683.36 69.712 683.12 70.352C682.88 70.976 682.76 71.656 682.76 72.392V77H681.656ZM700.125 77C699.613 77 699.285 76.856 699.141 76.568C698.997 76.28 698.925 75.936 698.925 75.536V68.144H697.317V67.256C697.893 67.256 698.293 67.224 698.517 67.16C698.741 67.08 698.877 66.864 698.925 66.512C698.973 66.16 698.997 65.568 698.997 64.736H699.981V67.256H702.261V68.144H699.981V76.064H702.261V77H700.125ZM708.24 77.24C706.72 77.24 705.576 76.776 704.808 75.848C704.056 74.904 703.68 73.712 703.68 72.272C703.68 70.8 704.064 69.6 704.832 68.672C705.6 67.728 706.736 67.256 708.24 67.256C709.712 67.256 710.832 67.72 711.6 68.648C712.384 69.56 712.776 70.768 712.776 72.272C712.776 73.216 712.608 74.064 712.272 74.816C711.952 75.552 711.456 76.144 710.784 76.592C710.128 77.024 709.28 77.24 708.24 77.24ZM708.24 76.256C709.136 76.256 709.832 76.056 710.328 75.656C710.824 75.256 711.168 74.752 711.36 74.144C711.568 73.52 711.672 72.888 711.672 72.248C711.672 71.592 711.568 70.96 711.36 70.352C711.168 69.728 710.824 69.216 710.328 68.816C709.832 68.4 709.136 68.192 708.24 68.192C707.344 68.192 706.648 68.4 706.152 68.816C705.656 69.216 705.304 69.728 705.096 70.352C704.888 70.96 704.784 71.592 704.784 72.248C704.784 72.888 704.888 73.52 705.096 74.144C705.304 74.752 705.656 75.256 706.152 75.656C706.648 76.056 707.344 76.256 708.24 76.256ZM725.215 77.24C724.287 77.24 723.495 77.024 722.839 76.592C722.199 76.144 721.711 75.544 721.375 74.792C721.039 74.024 720.871 73.176 720.871 72.248C720.871 71.304 721.039 70.456 721.375 69.704C721.727 68.952 722.223 68.36 722.863 67.928C723.519 67.48 724.311 67.256 725.239 67.256C725.911 67.256 726.471 67.376 726.919 67.616C727.367 67.84 727.727 68.112 727.999 68.432C728.287 68.736 728.503 69.032 728.647 69.32C728.791 69.592 728.879 69.784 728.911 69.896H728.959L728.983 63.488H730.087V77H729.175L728.983 74.624H728.935C728.887 74.736 728.783 74.928 728.623 75.2C728.479 75.472 728.263 75.768 727.975 76.088C727.687 76.408 727.311 76.68 726.847 76.904C726.399 77.128 725.855 77.24 725.215 77.24ZM725.359 76.208C726.351 76.208 727.191 75.864 727.879 75.176C728.567 74.488 728.911 73.512 728.911 72.248C728.911 71.016 728.583 70.056 727.927 69.368C727.287 68.664 726.487 68.312 725.527 68.312C724.727 68.312 724.063 68.504 723.535 68.888C723.007 69.256 722.607 69.744 722.335 70.352C722.079 70.944 721.951 71.576 721.951 72.248C721.951 72.92 722.071 73.56 722.311 74.168C722.551 74.776 722.919 75.272 723.415 75.656C723.911 76.024 724.559 76.208 725.359 76.208ZM736.46 77.24C735.42 77.24 734.556 76.992 733.868 76.496C733.196 76 732.692 75.368 732.356 74.6C732.02 73.816 731.86 73.008 731.876 72.176C731.876 71.312 732.052 70.504 732.404 69.752C732.756 69 733.268 68.4 733.94 67.952C734.628 67.488 735.46 67.256 736.436 67.256C737.652 67.256 738.652 67.656 739.436 68.456C740.236 69.24 740.684 70.296 740.78 71.624C740.796 71.704 740.804 71.8 740.804 71.912C740.804 72.024 740.804 72.128 740.804 72.224H732.932C732.932 73.456 733.236 74.44 733.844 75.176C734.452 75.912 735.324 76.28 736.46 76.28C737.276 76.28 737.98 76.064 738.572 75.632C739.18 75.2 739.556 74.616 739.7 73.88H740.78C740.588 74.872 740.1 75.68 739.316 76.304C738.548 76.928 737.596 77.24 736.46 77.24ZM733.004 71.504H739.676C739.66 71.088 739.54 70.624 739.316 70.112C739.108 69.6 738.764 69.152 738.284 68.768C737.82 68.384 737.204 68.192 736.436 68.192C735.38 68.192 734.572 68.52 734.012 69.176C733.452 69.832 733.116 70.608 733.004 71.504ZM746.523 77.24C745.707 77.24 745.043 77.104 744.531 76.832C744.019 76.544 743.627 76.208 743.355 75.824C743.083 75.44 742.891 75.072 742.779 74.72C742.683 74.368 742.635 74.112 742.635 73.952H743.715C743.715 73.968 743.723 74.104 743.739 74.36C743.771 74.6 743.867 74.88 744.027 75.2C744.187 75.52 744.459 75.8 744.843 76.04C745.243 76.264 745.811 76.376 746.547 76.376C747.059 76.376 747.539 76.32 747.987 76.208C748.451 76.08 748.819 75.888 749.091 75.632C749.379 75.36 749.523 75.008 749.523 74.576C749.507 74.064 749.339 73.672 749.019 73.4C748.699 73.112 748.283 72.896 747.771 72.752C747.259 72.608 746.723 72.48 746.163 72.368C745.603 72.256 745.067 72.104 744.555 71.912C744.059 71.72 743.651 71.44 743.331 71.072C743.027 70.704 742.883 70.2 742.899 69.56C742.899 68.808 743.251 68.192 743.955 67.712C744.659 67.232 745.563 66.992 746.667 66.992C747.083 66.992 747.515 67.04 747.963 67.136C748.427 67.232 748.859 67.4 749.259 67.64C749.659 67.88 749.979 68.216 750.219 68.648C750.459 69.064 750.563 69.6 750.531 70.256H749.475C749.507 69.76 749.427 69.36 749.235 69.056C749.043 68.736 748.787 68.496 748.467 68.336C748.163 68.176 747.843 68.072 747.507 68.024C747.171 67.96 746.867 67.928 746.595 67.928C745.843 67.928 745.203 68.072 744.675 68.36C744.163 68.632 743.907 69.04 743.907 69.584C743.907 70.08 744.067 70.456 744.387 70.712C744.707 70.952 745.123 71.144 745.635 71.288C746.147 71.416 746.683 71.544 747.243 71.672C747.803 71.784 748.331 71.944 748.827 72.152C749.339 72.344 749.755 72.632 750.075 73.016C750.411 73.4 750.579 73.936 750.579 74.624C750.579 75.232 750.395 75.736 750.027 76.136C749.659 76.52 749.163 76.8 748.539 76.976C747.931 77.152 747.259 77.24 746.523 77.24ZM753.351 66.224C753.079 66.24 752.895 66.168 752.799 66.008C752.703 65.848 752.655 65.656 752.655 65.432C752.655 65.224 752.703 65.048 752.799 64.904C752.895 64.76 753.079 64.688 753.351 64.688C753.607 64.688 753.783 64.76 753.879 64.904C753.975 65.048 754.023 65.224 754.023 65.432C754.023 65.672 753.975 65.864 753.879 66.008C753.783 66.152 753.607 66.224 753.351 66.224ZM752.775 77V67.256H753.855V77H752.775ZM758.418 80.84V79.808H763.554V74.624H763.506C763.474 74.736 763.378 74.928 763.218 75.2C763.074 75.472 762.858 75.768 762.57 76.088C762.282 76.408 761.906 76.68 761.442 76.904C760.994 77.128 760.45 77.24 759.81 77.24C758.882 77.24 758.09 77.016 757.434 76.568C756.794 76.12 756.306 75.52 755.97 74.768C755.634 74.016 755.466 73.176 755.466 72.248C755.466 71.304 755.634 70.456 755.97 69.704C756.322 68.952 756.818 68.36 757.458 67.928C758.114 67.48 758.906 67.256 759.834 67.256C760.49 67.256 761.042 67.376 761.49 67.616C761.954 67.84 762.322 68.112 762.594 68.432C762.882 68.736 763.09 69.032 763.218 69.32C763.362 69.592 763.45 69.784 763.482 69.896H763.53L763.554 67.256H764.682V79.088C764.682 79.6 764.586 80.016 764.394 80.336C764.218 80.672 763.842 80.84 763.266 80.84H758.418ZM759.954 76.208C760.93 76.208 761.762 75.864 762.45 75.176C763.154 74.488 763.506 73.512 763.506 72.248C763.506 71.016 763.178 70.056 762.522 69.368C761.866 68.664 761.058 68.312 760.098 68.312C759.298 68.312 758.634 68.504 758.106 68.888C757.578 69.256 757.186 69.744 756.93 70.352C756.674 70.944 756.546 71.576 756.546 72.248C756.546 72.92 756.658 73.56 756.882 74.168C757.122 74.776 757.49 75.272 757.986 75.656C758.498 76.024 759.154 76.208 759.954 76.208ZM766.85 77V67.28H767.762L767.954 69.848H768.002C768.034 69.736 768.114 69.544 768.242 69.272C768.37 69 768.57 68.712 768.842 68.408C769.114 68.088 769.474 67.816 769.922 67.592C770.37 67.368 770.93 67.256 771.602 67.256C772.434 67.256 773.098 67.408 773.594 67.712C774.09 68 774.466 68.384 774.722 68.864C774.978 69.344 775.146 69.872 775.226 70.448C775.306 71.024 775.346 71.6 775.346 72.176V77H774.266V72.152C774.266 70.968 774.058 70.024 773.642 69.32C773.242 68.616 772.49 68.264 771.386 68.264C770.602 68.264 769.954 68.456 769.442 68.84C768.946 69.208 768.57 69.712 768.314 70.352C768.074 70.976 767.954 71.656 767.954 72.392V77H766.85ZM630.48 109.016V110H625.392V109.016H627.48V98.48C627.256 99.088 626.928 99.536 626.496 99.824C626.08 100.096 625.68 100.28 625.296 100.376C624.928 100.456 624.688 100.496 624.576 100.496V99.392C624.672 99.392 624.872 99.36 625.176 99.296C625.48 99.216 625.816 99.072 626.184 98.864C626.552 98.656 626.864 98.36 627.12 97.976C627.392 97.592 627.536 97.096 627.552 96.488H628.512V109.016H630.48ZM643.986 110.336C642.226 110.336 640.866 109.808 639.906 108.752C638.962 107.68 638.49 106.176 638.49 104.24V96.488H639.594V104.24C639.594 105.936 639.986 107.208 640.77 108.056C641.57 108.888 642.642 109.304 643.986 109.304C645.41 109.304 646.498 108.888 647.25 108.056C648.018 107.224 648.402 105.952 648.402 104.24V96.488H649.482V104.24C649.482 106.208 649.01 107.72 648.066 108.776C647.138 109.816 645.778 110.336 643.986 110.336ZM651.555 110L656.595 102.824L652.059 96.488H653.427L657.267 102.056L661.131 96.488H662.475L657.987 102.824L663.051 110H661.731L657.267 103.592L652.827 110H651.555ZM676.207 109.016V110H671.119V109.016H673.207V98.48C672.983 99.088 672.655 99.536 672.223 99.824C671.807 100.096 671.407 100.28 671.023 100.376C670.655 100.456 670.415 100.496 670.303 100.496V99.392C670.399 99.392 670.599 99.36 670.903 99.296C671.207 99.216 671.543 99.072 671.911 98.864C672.279 98.656 672.591 98.36 672.847 97.976C673.119 97.592 673.263 97.096 673.279 96.488H674.239V109.016H676.207ZM689.712 110.336C687.952 110.336 686.592 109.808 685.632 108.752C684.688 107.68 684.216 106.176 684.216 104.24V96.488H685.32V104.24C685.32 105.936 685.712 107.208 686.496 108.056C687.296 108.888 688.368 109.304 689.712 109.304C691.136 109.304 692.224 108.888 692.976 108.056C693.744 107.224 694.128 105.952 694.128 104.24V96.488H695.208V104.24C695.208 106.208 694.736 107.72 693.792 108.776C692.864 109.816 691.504 110.336 689.712 110.336ZM702.801 109.04V110H697.953V109.04H699.849V97.472H697.953V96.488H702.801V97.472H700.929V109.04H702.801ZM705.519 111.944V111.008H705.855C706.239 111.008 706.471 110.904 706.551 110.696C706.631 110.504 706.671 110.28 706.671 110.024C705.983 110.12 705.639 109.824 705.639 109.136C705.639 108.912 705.695 108.72 705.807 108.56C705.919 108.384 706.135 108.296 706.455 108.296C706.743 108.296 706.943 108.384 707.055 108.56C707.183 108.736 707.247 109.032 707.247 109.448C707.247 110.248 707.151 110.864 706.959 111.296C706.767 111.728 706.415 111.944 705.903 111.944H705.519ZM715.169 110V109.088C715.169 109.088 715.321 108.976 715.625 108.752C715.945 108.528 716.353 108.232 716.849 107.864C717.345 107.48 717.889 107.048 718.481 106.568C719.073 106.072 719.657 105.552 720.233 105.008C720.825 104.464 721.353 103.92 721.817 103.376C722.297 102.832 722.657 102.312 722.897 101.816C723.297 100.984 723.417 100.232 723.257 99.56C723.113 98.888 722.745 98.352 722.153 97.952C721.561 97.552 720.809 97.352 719.897 97.352C718.905 97.368 718.097 97.664 717.473 98.24C716.865 98.8 716.561 99.624 716.561 100.712L715.553 100.616C715.553 99.32 715.961 98.304 716.777 97.568C717.609 96.816 718.689 96.44 720.017 96.44C721.169 96.44 722.121 96.704 722.873 97.232C723.625 97.76 724.097 98.456 724.289 99.32C724.497 100.168 724.361 101.088 723.881 102.08C723.609 102.608 723.193 103.176 722.633 103.784C722.073 104.392 721.457 105 720.785 105.608C720.113 106.2 719.457 106.752 718.817 107.264C718.193 107.76 717.657 108.168 717.209 108.488C716.761 108.792 716.489 108.968 716.393 109.016H724.673V110H715.169ZM737.144 110.24C736.216 110.24 735.424 110.024 734.768 109.592C734.128 109.144 733.64 108.544 733.304 107.792C732.968 107.024 732.8 106.176 732.8 105.248C732.8 104.304 732.968 103.456 733.304 102.704C733.656 101.952 734.152 101.36 734.792 100.928C735.448 100.48 736.24 100.256 737.168 100.256C737.84 100.256 738.4 100.376 738.848 100.616C739.296 100.84 739.656 101.112 739.928 101.432C740.216 101.736 740.432 102.032 740.576 102.32C740.72 102.592 740.808 102.784 740.84 102.896H740.888L740.912 96.488H742.016V110H741.104L740.912 107.624H740.864C740.816 107.736 740.712 107.928 740.552 108.2C740.408 108.472 740.192 108.768 739.904 109.088C739.616 109.408 739.24 109.68 738.776 109.904C738.328 110.128 737.784 110.24 737.144 110.24ZM737.288 109.208C738.28 109.208 739.12 108.864 739.808 108.176C740.496 107.488 740.84 106.512 740.84 105.248C740.84 104.016 740.512 103.056 739.856 102.368C739.216 101.664 738.416 101.312 737.456 101.312C736.656 101.312 735.992 101.504 735.464 101.888C734.936 102.256 734.536 102.744 734.264 103.352C734.008 103.944 733.88 104.576 733.88 105.248C733.88 105.92 734 106.56 734.24 107.168C734.48 107.776 734.848 108.272 735.344 108.656C735.84 109.024 736.488 109.208 737.288 109.208ZM748.389 110.24C747.349 110.24 746.485 109.992 745.797 109.496C745.125 109 744.621 108.368 744.285 107.6C743.949 106.816 743.789 106.008 743.805 105.176C743.805 104.312 743.981 103.504 744.333 102.752C744.685 102 745.197 101.4 745.869 100.952C746.557 100.488 747.389 100.256 748.365 100.256C749.581 100.256 750.581 100.656 751.365 101.456C752.165 102.24 752.613 103.296 752.709 104.624C752.725 104.704 752.733 104.8 752.733 104.912C752.733 105.024 752.733 105.128 752.733 105.224H744.861C744.861 106.456 745.165 107.44 745.773 108.176C746.381 108.912 747.253 109.28 748.389 109.28C749.205 109.28 749.909 109.064 750.501 108.632C751.109 108.2 751.485 107.616 751.629 106.88H752.709C752.517 107.872 752.029 108.68 751.245 109.304C750.477 109.928 749.525 110.24 748.389 110.24ZM744.933 104.504H751.605C751.589 104.088 751.469 103.624 751.245 103.112C751.037 102.6 750.693 102.152 750.213 101.768C749.749 101.384 749.133 101.192 748.365 101.192C747.309 101.192 746.501 101.52 745.941 102.176C745.381 102.832 745.045 103.608 744.933 104.504ZM761.765 100.256H762.869V100.568L759.029 110H757.445L753.605 100.592V100.256H754.685L758.237 109.112H758.285L761.765 100.256ZM767.922 110.24C767.106 110.24 766.442 110.104 765.93 109.832C765.418 109.544 765.026 109.208 764.754 108.824C764.482 108.44 764.29 108.072 764.178 107.72C764.082 107.368 764.034 107.112 764.034 106.952H765.114C765.114 106.968 765.122 107.104 765.138 107.36C765.17 107.6 765.266 107.88 765.426 108.2C765.586 108.52 765.858 108.8 766.242 109.04C766.642 109.264 767.21 109.376 767.946 109.376C768.458 109.376 768.938 109.32 769.386 109.208C769.85 109.08 770.218 108.888 770.49 108.632C770.778 108.36 770.922 108.008 770.922 107.576C770.906 107.064 770.738 106.672 770.418 106.4C770.098 106.112 769.682 105.896 769.17 105.752C768.658 105.608 768.122 105.48 767.562 105.368C767.002 105.256 766.466 105.104 765.954 104.912C765.458 104.72 765.05 104.44 764.73 104.072C764.426 103.704 764.282 103.2 764.298 102.56C764.298 101.808 764.65 101.192 765.354 100.712C766.058 100.232 766.962 99.992 768.066 99.992C768.482 99.992 768.914 100.04 769.362 100.136C769.826 100.232 770.258 100.4 770.658 100.64C771.058 100.88 771.378 101.216 771.618 101.648C771.858 102.064 771.962 102.6 771.93 103.256H770.874C770.906 102.76 770.826 102.36 770.634 102.056C770.442 101.736 770.186 101.496 769.866 101.336C769.562 101.176 769.242 101.072 768.906 101.024C768.57 100.96 768.266 100.928 767.994 100.928C767.242 100.928 766.602 101.072 766.074 101.36C765.562 101.632 765.306 102.04 765.306 102.584C765.306 103.08 765.466 103.456 765.786 103.712C766.106 103.952 766.522 104.144 767.034 104.288C767.546 104.416 768.082 104.544 768.642 104.672C769.202 104.784 769.73 104.944 770.226 105.152C770.738 105.344 771.154 105.632 771.474 106.016C771.81 106.4 771.978 106.936 771.978 107.624C771.978 108.232 771.794 108.736 771.426 109.136C771.058 109.52 770.562 109.8 769.938 109.976C769.33 110.152 768.658 110.24 767.922 110.24Z" fill="black"/>
</svg>
