<svg width="326" height="131" viewBox="0 0 326 131" fill="none" xmlns="http://www.w3.org/2000/svg">
<path d="M1.276 23V10.614H4.444L7.92 22.186H7.964L11.374 10.614H14.542V23H12.672L12.782 11.472H12.738L9.262 23H6.556L3.102 11.472H3.058L3.146 23H1.276ZM15.7685 27.092V25.662H17.0665C17.3745 25.662 17.6312 25.5887 17.8365 25.442C18.0418 25.31 18.2912 24.9433 18.5845 24.342L19.3545 22.648L15.8345 14.002H17.7265L20.2565 20.756L22.9625 14.002H24.8765L20.2565 24.54C19.9338 25.288 19.6405 25.8453 19.3765 26.212C19.1125 26.5787 18.8192 26.8133 18.4965 26.916C18.1738 27.0333 17.7705 27.092 17.2865 27.092H15.7685ZM31.1326 23V14.002H32.8266L32.9806 16.444C33.0686 16.048 33.2372 15.6667 33.4866 15.3C33.7506 14.9187 34.1099 14.6107 34.5646 14.376C35.0339 14.1267 35.6279 14.002 36.3466 14.002H36.7206V16.026H36.3246C35.4299 16.026 34.7406 16.1433 34.2566 16.378C33.7726 16.598 33.4352 16.928 33.2446 17.368C33.0539 17.7933 32.9586 18.3213 32.9586 18.952V23H31.1326ZM42.076 23.22C40.58 23.22 39.4654 22.7873 38.732 21.922C37.9987 21.0567 37.632 19.9567 37.632 18.622C37.6174 17.2727 37.984 16.1653 38.732 15.3C39.48 14.4347 40.5947 13.9947 42.076 13.98C43.5134 13.98 44.606 14.4053 45.354 15.256C46.102 16.1067 46.476 17.2287 46.476 18.622C46.476 19.4873 46.3147 20.272 45.992 20.976C45.684 21.6653 45.2 22.2153 44.54 22.626C43.8947 23.022 43.0734 23.22 42.076 23.22ZM42.076 21.658C42.78 21.658 43.3154 21.504 43.682 21.196C44.0634 20.888 44.3274 20.4993 44.474 20.03C44.6207 19.546 44.694 19.0547 44.694 18.556C44.694 18.0573 44.6207 17.5733 44.474 17.104C44.3274 16.62 44.0634 16.224 43.682 15.916C43.3154 15.5933 42.78 15.432 42.076 15.432C41.3574 15.432 40.8074 15.5933 40.426 15.916C40.0447 16.224 39.7807 16.62 39.634 17.104C39.4874 17.5733 39.414 18.0573 39.414 18.556C39.414 19.0547 39.4874 19.546 39.634 20.03C39.7807 20.4993 40.0447 20.888 40.426 21.196C40.8074 21.504 41.3574 21.658 42.076 21.658ZM48.4086 23V10.614H50.2126V23H48.4086ZM56.2767 23.22C55.2647 23.22 54.436 23 53.7907 22.56C53.1454 22.1053 52.6687 21.526 52.3607 20.822C52.0527 20.118 51.8987 19.3773 51.8987 18.6C51.884 17.7347 52.0454 16.95 52.3827 16.246C52.7347 15.542 53.2334 14.9847 53.8787 14.574C54.5387 14.1633 55.3234 13.958 56.2327 13.958C57.01 13.958 57.7067 14.134 58.3227 14.486C58.9534 14.8233 59.452 15.3073 59.8187 15.938C60.1854 16.554 60.3834 17.2873 60.4127 18.138C60.4127 18.182 60.4127 18.27 60.4127 18.402C60.4274 18.5193 60.4347 18.622 60.4347 18.71H53.6367C53.6367 19.6487 53.864 20.382 54.3187 20.91C54.788 21.4233 55.4334 21.68 56.2547 21.68C56.8707 21.68 57.3914 21.526 57.8167 21.218C58.2567 20.8953 58.528 20.47 58.6307 19.942H60.4127C60.2807 20.8807 59.8554 21.6653 59.1367 22.296C58.418 22.912 57.4647 23.22 56.2767 23.22ZM53.7027 17.808H58.5867C58.572 17.6467 58.528 17.434 58.4547 17.17C58.3814 16.906 58.2567 16.6493 58.0807 16.4C57.9194 16.136 57.6847 15.916 57.3767 15.74C57.0687 15.564 56.6727 15.476 56.1887 15.476C55.5874 15.476 55.1107 15.608 54.7587 15.872C54.4214 16.1213 54.1647 16.4293 53.9887 16.796C53.8274 17.148 53.732 17.4853 53.7027 17.808Z" fill="#131313"/>
<path d="M5.04 54.252C3.72 54.252 2.7 53.856 1.98 53.064C1.272 52.26 0.918 51.132 0.918 49.68V43.866H1.746V49.68C1.746 50.952 2.04 51.906 2.628 52.542C3.228 53.166 4.032 53.478 5.04 53.478C6.108 53.478 6.924 53.166 7.488 52.542C8.064 51.918 8.352 50.964 8.352 49.68V43.866H9.162V49.68C9.162 51.156 8.808 52.29 8.1 53.082C7.404 53.862 6.384 54.252 5.04 54.252ZM10.7169 54L14.4969 48.618L11.0949 43.866H12.1209L15.0009 48.042L17.8989 43.866H18.9069L15.5409 48.618L19.3389 54H18.3489L15.0009 49.194L11.6709 54H10.7169ZM34.1917 48.924C34.1917 50.256 33.9397 51.294 33.4357 52.038C32.9437 52.77 32.2477 53.28 31.3477 53.568C30.4477 53.856 29.3977 54 28.1977 54H25.5697V43.866H28.1977C29.3977 43.866 30.4477 44.058 31.3477 44.442C32.2477 44.814 32.9437 45.372 33.4357 46.116C33.9397 46.86 34.1917 47.796 34.1917 48.924ZM26.3977 53.28H28.3417C29.3377 53.28 30.2077 53.166 30.9517 52.938C31.7077 52.71 32.2897 52.284 32.6977 51.66C33.1177 51.036 33.3277 50.124 33.3277 48.924C33.3277 47.94 33.1177 47.13 32.6977 46.494C32.2897 45.846 31.7077 45.372 30.9517 45.072C30.2077 44.76 29.3377 44.604 28.3417 44.604H26.3977V53.28ZM38.712 54.18C37.932 54.18 37.284 53.994 36.768 53.622C36.264 53.25 35.886 52.776 35.634 52.2C35.382 51.612 35.262 51.006 35.274 50.382C35.274 49.734 35.406 49.128 35.67 48.564C35.934 48 36.318 47.55 36.822 47.214C37.338 46.866 37.962 46.692 38.694 46.692C39.606 46.692 40.356 46.992 40.944 47.592C41.544 48.18 41.88 48.972 41.952 49.968C41.964 50.028 41.97 50.1 41.97 50.184C41.97 50.268 41.97 50.346 41.97 50.418H36.066C36.066 51.342 36.294 52.08 36.75 52.632C37.206 53.184 37.86 53.46 38.712 53.46C39.324 53.46 39.852 53.298 40.296 52.974C40.752 52.65 41.034 52.212 41.142 51.66H41.952C41.808 52.404 41.442 53.01 40.854 53.478C40.278 53.946 39.564 54.18 38.712 54.18ZM36.12 49.878H41.124C41.112 49.566 41.022 49.218 40.854 48.834C40.698 48.45 40.44 48.114 40.08 47.826C39.732 47.538 39.27 47.394 38.694 47.394C37.902 47.394 37.296 47.64 36.876 48.132C36.456 48.624 36.204 49.206 36.12 49.878ZM46.2596 54.18C45.6476 54.18 45.1496 54.078 44.7656 53.874C44.3816 53.658 44.0876 53.406 43.8836 53.118C43.6796 52.83 43.5356 52.554 43.4516 52.29C43.3796 52.026 43.3436 51.834 43.3436 51.714H44.1536C44.1536 51.726 44.1596 51.828 44.1716 52.02C44.1956 52.2 44.2676 52.41 44.3876 52.65C44.5076 52.89 44.7116 53.1 44.9996 53.28C45.2996 53.448 45.7256 53.532 46.2776 53.532C46.6616 53.532 47.0216 53.49 47.3576 53.406C47.7056 53.31 47.9816 53.166 48.1856 52.974C48.4016 52.77 48.5096 52.506 48.5096 52.182C48.4976 51.798 48.3716 51.504 48.1316 51.3C47.8916 51.084 47.5796 50.922 47.1956 50.814C46.8116 50.706 46.4096 50.61 45.9896 50.526C45.5696 50.442 45.1676 50.328 44.7836 50.184C44.4116 50.04 44.1056 49.83 43.8656 49.554C43.6376 49.278 43.5296 48.9 43.5416 48.42C43.5416 47.856 43.8056 47.394 44.3336 47.034C44.8616 46.674 45.5396 46.494 46.3676 46.494C46.6796 46.494 47.0036 46.53 47.3396 46.602C47.6876 46.674 48.0116 46.8 48.3116 46.98C48.6116 47.16 48.8516 47.412 49.0316 47.736C49.2116 48.048 49.2896 48.45 49.2656 48.942H48.4736C48.4976 48.57 48.4376 48.27 48.2936 48.042C48.1496 47.802 47.9576 47.622 47.7176 47.502C47.4896 47.382 47.2496 47.304 46.9976 47.268C46.7456 47.22 46.5176 47.196 46.3136 47.196C45.7496 47.196 45.2696 47.304 44.8736 47.52C44.4896 47.724 44.2976 48.03 44.2976 48.438C44.2976 48.81 44.4176 49.092 44.6576 49.284C44.8976 49.464 45.2096 49.608 45.5936 49.716C45.9776 49.812 46.3796 49.908 46.7996 50.004C47.2196 50.088 47.6156 50.208 47.9876 50.364C48.3716 50.508 48.6836 50.724 48.9236 51.012C49.1756 51.3 49.3016 51.702 49.3016 52.218C49.3016 52.674 49.1636 53.052 48.8876 53.352C48.6116 53.64 48.2396 53.85 47.7716 53.982C47.3156 54.114 46.8116 54.18 46.2596 54.18ZM51.3803 45.918C51.1763 45.93 51.0383 45.876 50.9663 45.756C50.8943 45.636 50.8583 45.492 50.8583 45.324C50.8583 45.168 50.8943 45.036 50.9663 44.928C51.0383 44.82 51.1763 44.766 51.3803 44.766C51.5723 44.766 51.7043 44.82 51.7763 44.928C51.8483 45.036 51.8843 45.168 51.8843 45.324C51.8843 45.504 51.8483 45.648 51.7763 45.756C51.7043 45.864 51.5723 45.918 51.3803 45.918ZM50.9483 54V46.692H51.7583V54H50.9483ZM55.1807 56.88V56.106H59.0327V52.218H58.9967C58.9727 52.302 58.9007 52.446 58.7807 52.65C58.6727 52.854 58.5107 53.076 58.2947 53.316C58.0787 53.556 57.7967 53.76 57.4487 53.928C57.1127 54.096 56.7047 54.18 56.2247 54.18C55.5287 54.18 54.9347 54.012 54.4427 53.676C53.9627 53.34 53.5967 52.89 53.3447 52.326C53.0927 51.762 52.9667 51.132 52.9667 50.436C52.9667 49.728 53.0927 49.092 53.3447 48.528C53.6087 47.964 53.9807 47.52 54.4607 47.196C54.9527 46.86 55.5467 46.692 56.2427 46.692C56.7347 46.692 57.1487 46.782 57.4847 46.962C57.8327 47.13 58.1087 47.334 58.3127 47.574C58.5287 47.802 58.6847 48.024 58.7807 48.24C58.8887 48.444 58.9547 48.588 58.9787 48.672H59.0147L59.0327 46.692H59.8787V55.566C59.8787 55.95 59.8067 56.262 59.6627 56.502C59.5307 56.754 59.2487 56.88 58.8167 56.88H55.1807ZM56.3327 53.406C57.0647 53.406 57.6887 53.148 58.2047 52.632C58.7327 52.116 58.9967 51.384 58.9967 50.436C58.9967 49.512 58.7507 48.792 58.2587 48.276C57.7667 47.748 57.1607 47.484 56.4407 47.484C55.8407 47.484 55.3427 47.628 54.9467 47.916C54.5507 48.192 54.2567 48.558 54.0647 49.014C53.8727 49.458 53.7767 49.932 53.7767 50.436C53.7767 50.94 53.8607 51.42 54.0287 51.876C54.2087 52.332 54.4847 52.704 54.8567 52.992C55.2407 53.268 55.7327 53.406 56.3327 53.406ZM61.5047 54V46.71H62.1887L62.3327 48.636H62.3687C62.3927 48.552 62.4527 48.408 62.5487 48.204C62.6447 48 62.7947 47.784 62.9987 47.556C63.2027 47.316 63.4727 47.112 63.8087 46.944C64.1447 46.776 64.5647 46.692 65.0687 46.692C65.6927 46.692 66.1907 46.806 66.5627 47.034C66.9347 47.25 67.2167 47.538 67.4087 47.898C67.6007 48.258 67.7267 48.654 67.7867 49.086C67.8467 49.518 67.8767 49.95 67.8767 50.382V54H67.0667V50.364C67.0667 49.476 66.9107 48.768 66.5987 48.24C66.2987 47.712 65.7347 47.448 64.9067 47.448C64.3187 47.448 63.8327 47.592 63.4487 47.88C63.0767 48.156 62.7947 48.534 62.6027 49.014C62.4227 49.482 62.3327 49.992 62.3327 50.544V54H61.5047ZM5.04 78.252C3.72 78.252 2.7 77.856 1.98 77.064C1.272 76.26 0.918 75.132 0.918 73.68V67.866H1.746V73.68C1.746 74.952 2.04 75.906 2.628 76.542C3.228 77.166 4.032 77.478 5.04 77.478C6.108 77.478 6.924 77.166 7.488 76.542C8.064 75.918 8.352 74.964 8.352 73.68V67.866H9.162V73.68C9.162 75.156 8.808 76.29 8.1 77.082C7.404 77.862 6.384 78.252 5.04 78.252ZM10.7169 78L14.4969 72.618L11.0949 67.866H12.1209L15.0009 72.042L17.8989 67.866H18.9069L15.5409 72.618L19.3389 78H18.3489L15.0009 73.194L11.6709 78H10.7169ZM25.5157 78V67.866H28.6657C29.5177 67.866 30.2377 67.95 30.8257 68.118C31.4137 68.286 31.8577 68.58 32.1577 69C32.4697 69.408 32.6257 69.978 32.6257 70.71C32.6257 71.166 32.5417 71.592 32.3737 71.988C32.2057 72.384 31.9417 72.702 31.5817 72.942C31.2337 73.182 30.7777 73.302 30.2137 73.302C30.7657 73.302 31.1737 73.422 31.4377 73.662C31.7137 73.89 31.8937 74.184 31.9777 74.544C32.0737 74.892 32.1217 75.258 32.1217 75.642C32.1337 76.026 32.1457 76.38 32.1577 76.704C32.1817 77.016 32.2537 77.25 32.3737 77.406C32.5057 77.55 32.7397 77.562 33.0757 77.442V78.036C33.0157 78.084 32.8957 78.126 32.7157 78.162C32.5477 78.198 32.3617 78.186 32.1577 78.126C31.9537 78.066 31.7797 77.928 31.6357 77.712C31.4917 77.496 31.4197 77.166 31.4197 76.722C31.4197 76.026 31.3897 75.468 31.3297 75.048C31.2817 74.628 31.1677 74.31 30.9877 74.094C30.8197 73.866 30.5497 73.716 30.1777 73.644C29.8177 73.56 29.3257 73.518 28.7017 73.518C28.0777 73.518 27.2917 73.524 26.3437 73.536V78H25.5157ZM26.3437 72.87H28.9897C29.9617 72.87 30.6877 72.726 31.1677 72.438C31.6477 72.138 31.8877 71.574 31.8877 70.746C31.8877 70.11 31.7557 69.642 31.4917 69.342C31.2397 69.03 30.8617 68.826 30.3577 68.73C29.8657 68.634 29.2657 68.586 28.5577 68.586H26.3437V72.87ZM37.6573 78.18C36.8773 78.18 36.2293 77.994 35.7133 77.622C35.2093 77.25 34.8313 76.776 34.5793 76.2C34.3273 75.612 34.2073 75.006 34.2193 74.382C34.2193 73.734 34.3513 73.128 34.6153 72.564C34.8793 72 35.2633 71.55 35.7673 71.214C36.2833 70.866 36.9073 70.692 37.6393 70.692C38.5513 70.692 39.3013 70.992 39.8893 71.592C40.4893 72.18 40.8253 72.972 40.8973 73.968C40.9093 74.028 40.9153 74.1 40.9153 74.184C40.9153 74.268 40.9153 74.346 40.9153 74.418H35.0113C35.0113 75.342 35.2393 76.08 35.6953 76.632C36.1513 77.184 36.8053 77.46 37.6573 77.46C38.2693 77.46 38.7973 77.298 39.2413 76.974C39.6973 76.65 39.9793 76.212 40.0873 75.66H40.8973C40.7533 76.404 40.3873 77.01 39.7993 77.478C39.2233 77.946 38.5093 78.18 37.6573 78.18ZM35.0653 73.878H40.0693C40.0573 73.566 39.9673 73.218 39.7993 72.834C39.6433 72.45 39.3853 72.114 39.0253 71.826C38.6773 71.538 38.2153 71.394 37.6393 71.394C36.8473 71.394 36.2413 71.64 35.8213 72.132C35.4013 72.624 35.1493 73.206 35.0653 73.878ZM45.2049 78.18C44.5929 78.18 44.0949 78.078 43.7109 77.874C43.3269 77.658 43.0329 77.406 42.8289 77.118C42.6249 76.83 42.4809 76.554 42.3969 76.29C42.3249 76.026 42.2889 75.834 42.2889 75.714H43.0989C43.0989 75.726 43.1049 75.828 43.1169 76.02C43.1409 76.2 43.2129 76.41 43.3329 76.65C43.4529 76.89 43.6569 77.1 43.9449 77.28C44.2449 77.448 44.6709 77.532 45.2229 77.532C45.6069 77.532 45.9669 77.49 46.3029 77.406C46.6509 77.31 46.9269 77.166 47.1309 76.974C47.3469 76.77 47.4549 76.506 47.4549 76.182C47.4429 75.798 47.3169 75.504 47.0769 75.3C46.8369 75.084 46.5249 74.922 46.1409 74.814C45.7569 74.706 45.3549 74.61 44.9349 74.526C44.5149 74.442 44.1129 74.328 43.7289 74.184C43.3569 74.04 43.0509 73.83 42.8109 73.554C42.5829 73.278 42.4749 72.9 42.4869 72.42C42.4869 71.856 42.7509 71.394 43.2789 71.034C43.8069 70.674 44.4849 70.494 45.3129 70.494C45.6249 70.494 45.9489 70.53 46.2849 70.602C46.6329 70.674 46.9569 70.8 47.2569 70.98C47.5569 71.16 47.7969 71.412 47.9769 71.736C48.1569 72.048 48.2349 72.45 48.2109 72.942H47.4189C47.4429 72.57 47.3829 72.27 47.2389 72.042C47.0949 71.802 46.9029 71.622 46.6629 71.502C46.4349 71.382 46.1949 71.304 45.9429 71.268C45.6909 71.22 45.4629 71.196 45.2589 71.196C44.6949 71.196 44.2149 71.304 43.8189 71.52C43.4349 71.724 43.2429 72.03 43.2429 72.438C43.2429 72.81 43.3629 73.092 43.6029 73.284C43.8429 73.464 44.1549 73.608 44.5389 73.716C44.9229 73.812 45.3249 73.908 45.7449 74.004C46.1649 74.088 46.5609 74.208 46.9329 74.364C47.3169 74.508 47.6289 74.724 47.8689 75.012C48.1209 75.3 48.2469 75.702 48.2469 76.218C48.2469 76.674 48.1089 77.052 47.8329 77.352C47.5569 77.64 47.1849 77.85 46.7169 77.982C46.2609 78.114 45.7569 78.18 45.2049 78.18ZM52.8096 78.18C52.0296 78.18 51.3816 77.994 50.8656 77.622C50.3616 77.25 49.9836 76.776 49.7316 76.2C49.4796 75.612 49.3596 75.006 49.3716 74.382C49.3716 73.734 49.5036 73.128 49.7676 72.564C50.0316 72 50.4156 71.55 50.9196 71.214C51.4356 70.866 52.0596 70.692 52.7916 70.692C53.7036 70.692 54.4536 70.992 55.0416 71.592C55.6416 72.18 55.9776 72.972 56.0496 73.968C56.0616 74.028 56.0676 74.1 56.0676 74.184C56.0676 74.268 56.0676 74.346 56.0676 74.418H50.1636C50.1636 75.342 50.3916 76.08 50.8476 76.632C51.3036 77.184 51.9576 77.46 52.8096 77.46C53.4216 77.46 53.9496 77.298 54.3936 76.974C54.8496 76.65 55.1316 76.212 55.2396 75.66H56.0496C55.9056 76.404 55.5396 77.01 54.9516 77.478C54.3756 77.946 53.6616 78.18 52.8096 78.18ZM50.2176 73.878H55.2216C55.2096 73.566 55.1196 73.218 54.9516 72.834C54.7956 72.45 54.5376 72.114 54.1776 71.826C53.8296 71.538 53.3676 71.394 52.7916 71.394C51.9996 71.394 51.3936 71.64 50.9736 72.132C50.5536 72.624 50.3016 73.206 50.2176 73.878ZM60.1592 78.162C59.4872 78.162 58.9292 77.994 58.4852 77.658C58.0412 77.322 57.7112 76.872 57.4952 76.308C57.2792 75.732 57.1712 75.096 57.1712 74.4C57.1712 73.68 57.2792 73.038 57.4952 72.474C57.7232 71.898 58.0592 71.448 58.5032 71.124C58.9472 70.788 59.4992 70.62 60.1592 70.62C60.8672 70.62 61.4312 70.794 61.8512 71.142C62.2712 71.478 62.5712 71.868 62.7512 72.312H62.7872V70.692H63.6152V78H62.9312L62.7872 76.488H62.7512C62.5592 76.932 62.2532 77.322 61.8332 77.658C61.4132 77.994 60.8552 78.162 60.1592 78.162ZM60.4652 77.406C61.2332 77.406 61.8092 77.142 62.1932 76.614C62.5772 76.086 62.7692 75.354 62.7692 74.418C62.7692 73.422 62.5652 72.672 62.1572 72.168C61.7612 71.664 61.1972 71.412 60.4652 71.412C59.6132 71.412 58.9892 71.7 58.5932 72.276C58.1972 72.84 57.9992 73.548 57.9992 74.4C57.9992 75.288 58.2032 76.014 58.6112 76.578C59.0192 77.13 59.6372 77.406 60.4652 77.406ZM65.2368 78V70.692H65.9388L66.0468 72.564C66.1668 72.048 66.4488 71.604 66.8928 71.232C67.3368 70.86 67.9608 70.68 68.7648 70.692H69.1608V71.61H68.7648C67.9488 71.61 67.3488 71.742 66.9648 72.006C66.5808 72.258 66.3288 72.6 66.2088 73.032C66.1008 73.464 66.0468 73.944 66.0468 74.472V78H65.2368ZM73.2354 78.18C72.2034 78.18 71.3634 77.856 70.7154 77.208C70.0674 76.56 69.7434 75.666 69.7434 74.526C69.7554 73.77 69.9114 73.104 70.2114 72.528C70.5114 71.952 70.9254 71.502 71.4534 71.178C71.9814 70.854 72.5934 70.692 73.2894 70.692C74.1774 70.692 74.9094 70.938 75.4854 71.43C76.0734 71.91 76.4334 72.516 76.5654 73.248H75.7914C75.6714 72.684 75.3834 72.246 74.9274 71.934C74.4834 71.61 73.9434 71.448 73.3074 71.448C72.4794 71.448 71.8134 71.73 71.3094 72.294C70.8054 72.858 70.5534 73.59 70.5534 74.49C70.5534 75.39 70.7934 76.104 71.2734 76.632C71.7654 77.16 72.4254 77.424 73.2534 77.424C73.9014 77.424 74.4534 77.262 74.9094 76.938C75.3774 76.614 75.6714 76.17 75.7914 75.606H76.5654C76.4334 76.35 76.0674 76.968 75.4674 77.46C74.8674 77.94 74.1234 78.18 73.2354 78.18ZM78.0114 78V67.866H78.8394V72.636H78.8754C78.8994 72.552 78.9594 72.408 79.0554 72.204C79.1514 72 79.3014 71.784 79.5054 71.556C79.7094 71.316 79.9734 71.112 80.2974 70.944C80.6334 70.776 81.0474 70.692 81.5394 70.692C82.1634 70.692 82.6614 70.806 83.0334 71.034C83.4174 71.25 83.7054 71.538 83.8974 71.898C84.0894 72.258 84.2154 72.654 84.2754 73.086C84.3354 73.518 84.3654 73.95 84.3654 74.382V78H83.5734V74.364C83.5734 73.476 83.4174 72.768 83.1054 72.24C82.7934 71.712 82.2234 71.448 81.3954 71.448C80.8194 71.448 80.3394 71.592 79.9554 71.88C79.5714 72.156 79.2894 72.534 79.1094 73.014C78.9294 73.482 78.8394 73.992 78.8394 74.544V78H78.0114Z" fill="black"/>
<path d="M115.22 12.55V10.614H124.79V12.55H121.116V23H118.872V12.55H115.22ZM128.697 23.22C127.671 23.22 126.82 23.022 126.145 22.626C125.471 22.23 124.965 21.6873 124.627 20.998C124.29 20.294 124.121 19.4947 124.121 18.6C124.107 17.2507 124.481 16.1433 125.243 15.278C126.021 14.398 127.172 13.958 128.697 13.958C130.179 13.958 131.301 14.3833 132.063 15.234C132.841 16.0847 133.229 17.2067 133.229 18.6C133.229 19.4653 133.068 20.25 132.745 20.954C132.423 21.658 131.924 22.2153 131.249 22.626C130.575 23.022 129.724 23.22 128.697 23.22ZM128.697 21.328C129.343 21.328 129.834 21.1887 130.171 20.91C130.523 20.6313 130.758 20.2793 130.875 19.854C130.993 19.414 131.051 18.974 131.051 18.534C131.051 18.0793 130.993 17.632 130.875 17.192C130.758 16.752 130.523 16.3927 130.171 16.114C129.834 15.8353 129.343 15.696 128.697 15.696C128.037 15.696 127.531 15.8427 127.179 16.136C126.842 16.4147 126.607 16.774 126.475 17.214C126.358 17.6393 126.299 18.0793 126.299 18.534C126.299 18.974 126.358 19.414 126.475 19.854C126.607 20.2793 126.842 20.6313 127.179 20.91C127.531 21.1887 128.037 21.328 128.697 21.328ZM139.074 23.22C138.048 23.22 137.197 23.022 136.522 22.626C135.848 22.23 135.342 21.6873 135.004 20.998C134.667 20.294 134.498 19.4947 134.498 18.6C134.484 17.2507 134.858 16.1433 135.62 15.278C136.398 14.398 137.549 13.958 139.074 13.958C140.556 13.958 141.678 14.3833 142.44 15.234C143.218 16.0847 143.606 17.2067 143.606 18.6C143.606 19.4653 143.445 20.25 143.122 20.954C142.8 21.658 142.301 22.2153 141.626 22.626C140.952 23.022 140.101 23.22 139.074 23.22ZM139.074 21.328C139.72 21.328 140.211 21.1887 140.548 20.91C140.9 20.6313 141.135 20.2793 141.252 19.854C141.37 19.414 141.428 18.974 141.428 18.534C141.428 18.0793 141.37 17.632 141.252 17.192C141.135 16.752 140.9 16.3927 140.548 16.114C140.211 15.8353 139.72 15.696 139.074 15.696C138.414 15.696 137.908 15.8427 137.556 16.136C137.219 16.4147 136.984 16.774 136.852 17.214C136.735 17.6393 136.676 18.0793 136.676 18.534C136.676 18.974 136.735 19.414 136.852 19.854C136.984 20.2793 137.219 20.6313 137.556 20.91C137.908 21.1887 138.414 21.328 139.074 21.328ZM145.425 23V10.614H147.625V23H145.425ZM153.308 23.22C152.926 23.22 152.501 23.154 152.032 23.022C151.577 22.89 151.137 22.692 150.712 22.428C150.301 22.164 149.956 21.8267 149.678 21.416C149.414 20.9907 149.282 20.492 149.282 19.92H151.35C151.35 19.9493 151.357 20.052 151.372 20.228C151.386 20.3893 151.445 20.58 151.548 20.8C151.665 21.0053 151.856 21.1887 152.12 21.35C152.384 21.5113 152.765 21.592 153.264 21.592C153.85 21.592 154.29 21.4893 154.584 21.284C154.877 21.064 155.024 20.8147 155.024 20.536C155.024 20.2133 154.884 19.964 154.606 19.788C154.342 19.5973 153.997 19.4433 153.572 19.326C153.146 19.2087 152.692 19.0913 152.208 18.974C151.738 18.842 151.291 18.6733 150.866 18.468C150.455 18.2627 150.118 17.984 149.854 17.632C149.59 17.2653 149.458 16.796 149.458 16.224C149.458 15.388 149.795 14.7573 150.47 14.332C151.144 13.892 152.002 13.672 153.044 13.672C153.777 13.672 154.459 13.7893 155.09 14.024C155.72 14.244 156.226 14.6033 156.608 15.102C156.989 15.586 157.18 16.224 157.18 17.016H155.112C155.126 16.5613 155.024 16.224 154.804 16.004C154.598 15.7693 154.334 15.608 154.012 15.52C153.704 15.432 153.403 15.388 153.11 15.388C152.582 15.388 152.178 15.4833 151.9 15.674C151.636 15.85 151.504 16.0847 151.504 16.378C151.504 16.7153 151.636 16.9793 151.9 17.17C152.178 17.346 152.53 17.4927 152.956 17.61C153.396 17.7273 153.85 17.852 154.32 17.984C154.804 18.1013 155.258 18.2627 155.684 18.468C156.124 18.6733 156.476 18.952 156.74 19.304C157.018 19.6413 157.158 20.096 157.158 20.668C157.158 21.5333 156.798 22.1787 156.08 22.604C155.376 23.0147 154.452 23.22 153.308 23.22Z" fill="#131313"/>
<path d="M117.124 54H116.314V43.866H123.208V44.604H117.124V48.222H121.984V48.942H117.124V54ZM124.843 45.918C124.639 45.93 124.501 45.876 124.429 45.756C124.357 45.636 124.321 45.492 124.321 45.324C124.321 45.168 124.357 45.036 124.429 44.928C124.501 44.82 124.639 44.766 124.843 44.766C125.035 44.766 125.167 44.82 125.239 44.928C125.311 45.036 125.347 45.168 125.347 45.324C125.347 45.504 125.311 45.648 125.239 45.756C125.167 45.864 125.035 45.918 124.843 45.918ZM124.411 54V46.692H125.221V54H124.411ZM128.644 56.88V56.106H132.496V52.218H132.46C132.436 52.302 132.364 52.446 132.244 52.65C132.136 52.854 131.974 53.076 131.758 53.316C131.542 53.556 131.26 53.76 130.912 53.928C130.576 54.096 130.168 54.18 129.688 54.18C128.992 54.18 128.398 54.012 127.906 53.676C127.426 53.34 127.06 52.89 126.808 52.326C126.556 51.762 126.43 51.132 126.43 50.436C126.43 49.728 126.556 49.092 126.808 48.528C127.072 47.964 127.444 47.52 127.924 47.196C128.416 46.86 129.01 46.692 129.706 46.692C130.198 46.692 130.612 46.782 130.948 46.962C131.296 47.13 131.572 47.334 131.776 47.574C131.992 47.802 132.148 48.024 132.244 48.24C132.352 48.444 132.418 48.588 132.442 48.672H132.478L132.496 46.692H133.342V55.566C133.342 55.95 133.27 56.262 133.126 56.502C132.994 56.754 132.712 56.88 132.28 56.88H128.644ZM129.796 53.406C130.528 53.406 131.152 53.148 131.668 52.632C132.196 52.116 132.46 51.384 132.46 50.436C132.46 49.512 132.214 48.792 131.722 48.276C131.23 47.748 130.624 47.484 129.904 47.484C129.304 47.484 128.806 47.628 128.41 47.916C128.014 48.192 127.72 48.558 127.528 49.014C127.336 49.458 127.24 49.932 127.24 50.436C127.24 50.94 127.324 51.42 127.492 51.876C127.672 52.332 127.948 52.704 128.32 52.992C128.704 53.268 129.196 53.406 129.796 53.406ZM134.968 54V46.692H135.652L135.724 48.636H135.76C135.796 48.528 135.856 48.372 135.94 48.168C136.036 47.952 136.174 47.736 136.354 47.52C136.534 47.292 136.774 47.1 137.074 46.944C137.374 46.776 137.746 46.692 138.19 46.692C138.67 46.692 139.054 46.788 139.342 46.98C139.642 47.16 139.876 47.4 140.044 47.7C140.212 48 140.332 48.312 140.404 48.636H140.44C140.476 48.528 140.542 48.372 140.638 48.168C140.746 47.952 140.896 47.736 141.088 47.52C141.292 47.292 141.55 47.1 141.862 46.944C142.174 46.776 142.552 46.692 142.996 46.692C143.476 46.692 143.866 46.788 144.166 46.98C144.466 47.172 144.7 47.418 144.868 47.718C145.036 48.006 145.156 48.318 145.228 48.654C145.3 48.99 145.342 49.314 145.354 49.626C145.366 49.926 145.372 50.178 145.372 50.382V54H144.634V50.364C144.634 50.16 144.622 49.902 144.598 49.59C144.586 49.266 144.52 48.942 144.4 48.618C144.292 48.282 144.112 48.006 143.86 47.79C143.608 47.562 143.248 47.448 142.78 47.448C142.264 47.448 141.844 47.592 141.52 47.88C141.196 48.168 140.95 48.546 140.782 49.014C140.626 49.482 140.548 49.992 140.548 50.544V54H139.81V50.364C139.81 50.16 139.798 49.902 139.774 49.59C139.762 49.266 139.696 48.942 139.576 48.618C139.468 48.282 139.288 48.006 139.036 47.79C138.784 47.562 138.424 47.448 137.956 47.448C137.44 47.448 137.02 47.592 136.696 47.88C136.372 48.168 136.126 48.546 135.958 49.014C135.802 49.482 135.724 49.992 135.724 50.544V54H134.968ZM149.46 54.162C148.788 54.162 148.23 53.994 147.786 53.658C147.342 53.322 147.012 52.872 146.796 52.308C146.58 51.732 146.472 51.096 146.472 50.4C146.472 49.68 146.58 49.038 146.796 48.474C147.024 47.898 147.36 47.448 147.804 47.124C148.248 46.788 148.8 46.62 149.46 46.62C150.168 46.62 150.732 46.794 151.152 47.142C151.572 47.478 151.872 47.868 152.052 48.312H152.088V46.692H152.916V54H152.232L152.088 52.488H152.052C151.86 52.932 151.554 53.322 151.134 53.658C150.714 53.994 150.156 54.162 149.46 54.162ZM149.766 53.406C150.534 53.406 151.11 53.142 151.494 52.614C151.878 52.086 152.07 51.354 152.07 50.418C152.07 49.422 151.866 48.672 151.458 48.168C151.062 47.664 150.498 47.412 149.766 47.412C148.914 47.412 148.29 47.7 147.894 48.276C147.498 48.84 147.3 49.548 147.3 50.4C147.3 51.288 147.504 52.014 147.912 52.578C148.32 53.13 148.938 53.406 149.766 53.406Z" fill="black"/>
<path d="M183.22 12.198V10.614H192.68V12.198H188.874V23H187.048V12.198H183.22ZM194.63 13.012C194.234 13.0267 193.97 12.9313 193.838 12.726C193.706 12.5207 193.64 12.264 193.64 11.956C193.64 11.692 193.706 11.4573 193.838 11.252C193.97 11.0467 194.234 10.944 194.63 10.944C195.011 10.944 195.268 11.0467 195.4 11.252C195.547 11.4573 195.62 11.692 195.62 11.956C195.62 12.264 195.547 12.5207 195.4 12.726C195.268 12.9167 195.011 13.012 194.63 13.012ZM193.706 23V14.002H195.532V23H193.706ZM197.565 23V14.002H199.149L199.193 16.092H199.237C199.266 16.0187 199.325 15.872 199.413 15.652C199.515 15.432 199.669 15.1973 199.875 14.948C200.095 14.684 200.381 14.464 200.733 14.288C201.085 14.0973 201.517 14.002 202.031 14.002C202.808 14.002 203.38 14.2147 203.747 14.64C204.128 15.0507 204.399 15.5347 204.561 16.092H204.605C204.619 16.0187 204.685 15.872 204.803 15.652C204.92 15.432 205.089 15.1973 205.309 14.948C205.543 14.684 205.844 14.464 206.211 14.288C206.577 14.0973 207.025 14.002 207.553 14.002C208.125 14.002 208.587 14.1193 208.939 14.354C209.305 14.5887 209.584 14.8967 209.775 15.278C209.98 15.6447 210.119 16.0407 210.193 16.466C210.281 16.8767 210.332 17.2727 210.347 17.654C210.361 18.0353 210.369 18.3507 210.369 18.6V23H208.807V18.578C208.807 18.358 208.792 18.0867 208.763 17.764C208.748 17.4267 208.682 17.0967 208.565 16.774C208.462 16.4367 208.279 16.1653 208.015 15.96C207.765 15.74 207.406 15.63 206.937 15.63C206.379 15.63 205.947 15.7767 205.639 16.07C205.331 16.3633 205.111 16.752 204.979 17.236C204.847 17.7053 204.781 18.1967 204.781 18.71V23H203.219V18.578C203.219 18.358 203.204 18.0867 203.175 17.764C203.16 17.4267 203.094 17.0967 202.977 16.774C202.874 16.4367 202.691 16.1653 202.427 15.96C202.177 15.74 201.818 15.63 201.349 15.63C200.791 15.63 200.359 15.7767 200.051 16.07C199.743 16.3633 199.523 16.752 199.391 17.236C199.259 17.7053 199.193 18.1967 199.193 18.71V23H197.565ZM216.224 23.22C215.212 23.22 214.383 23 213.738 22.56C213.093 22.1053 212.616 21.526 212.308 20.822C212 20.118 211.846 19.3773 211.846 18.6C211.831 17.7347 211.993 16.95 212.33 16.246C212.682 15.542 213.181 14.9847 213.826 14.574C214.486 14.1633 215.271 13.958 216.18 13.958C216.957 13.958 217.654 14.134 218.27 14.486C218.901 14.8233 219.399 15.3073 219.766 15.938C220.133 16.554 220.331 17.2873 220.36 18.138C220.36 18.182 220.36 18.27 220.36 18.402C220.375 18.5193 220.382 18.622 220.382 18.71H213.584C213.584 19.6487 213.811 20.382 214.266 20.91C214.735 21.4233 215.381 21.68 216.202 21.68C216.818 21.68 217.339 21.526 217.764 21.218C218.204 20.8953 218.475 20.47 218.578 19.942H220.36C220.228 20.8807 219.803 21.6653 219.084 22.296C218.365 22.912 217.412 23.22 216.224 23.22ZM213.65 17.808H218.534C218.519 17.6467 218.475 17.434 218.402 17.17C218.329 16.906 218.204 16.6493 218.028 16.4C217.867 16.136 217.632 15.916 217.324 15.74C217.016 15.564 216.62 15.476 216.136 15.476C215.535 15.476 215.058 15.608 214.706 15.872C214.369 16.1213 214.112 16.4293 213.936 16.796C213.775 17.148 213.679 17.4853 213.65 17.808ZM222.407 23V10.614H224.211V23H222.407ZM227.437 13.012C227.041 13.0267 226.777 12.9313 226.645 12.726C226.513 12.5207 226.447 12.264 226.447 11.956C226.447 11.692 226.513 11.4573 226.645 11.252C226.777 11.0467 227.041 10.944 227.437 10.944C227.818 10.944 228.075 11.0467 228.207 11.252C228.353 11.4573 228.427 11.692 228.427 11.956C228.427 12.264 228.353 12.5207 228.207 12.726C228.075 12.9167 227.818 13.012 227.437 13.012ZM226.513 23V14.002H228.339V23H226.513ZM230.371 23V14.024H231.933L232.241 16.092H232.285C232.3 16.0333 232.358 15.894 232.461 15.674C232.564 15.454 232.732 15.2193 232.967 14.97C233.202 14.706 233.517 14.4787 233.913 14.288C234.309 14.0973 234.808 14.002 235.409 14.002C236.201 14.002 236.817 14.156 237.257 14.464C237.697 14.7573 238.02 15.146 238.225 15.63C238.43 16.0993 238.555 16.598 238.599 17.126C238.658 17.654 238.687 18.1453 238.687 18.6V23H236.905V18.578C236.905 18.0207 236.846 17.522 236.729 17.082C236.612 16.6273 236.392 16.2753 236.069 16.026C235.761 15.762 235.306 15.63 234.705 15.63C234.089 15.63 233.598 15.7767 233.231 16.07C232.864 16.3633 232.608 16.7447 232.461 17.214C232.314 17.6833 232.241 18.182 232.241 18.71V23H230.371ZM244.54 23.22C243.528 23.22 242.7 23 242.054 22.56C241.409 22.1053 240.932 21.526 240.624 20.822C240.316 20.118 240.162 19.3773 240.162 18.6C240.148 17.7347 240.309 16.95 240.646 16.246C240.998 15.542 241.497 14.9847 242.142 14.574C242.802 14.1633 243.587 13.958 244.496 13.958C245.274 13.958 245.97 14.134 246.586 14.486C247.217 14.8233 247.716 15.3073 248.082 15.938C248.449 16.554 248.647 17.2873 248.676 18.138C248.676 18.182 248.676 18.27 248.676 18.402C248.691 18.5193 248.698 18.622 248.698 18.71H241.9C241.9 19.6487 242.128 20.382 242.582 20.91C243.052 21.4233 243.697 21.68 244.518 21.68C245.134 21.68 245.655 21.526 246.08 21.218C246.52 20.8953 246.792 20.47 246.894 19.942H248.676C248.544 20.8807 248.119 21.6653 247.4 22.296C246.682 22.912 245.728 23.22 244.54 23.22ZM241.966 17.808H246.85C246.836 17.6467 246.792 17.434 246.718 17.17C246.645 16.906 246.52 16.6493 246.344 16.4C246.183 16.136 245.948 15.916 245.64 15.74C245.332 15.564 244.936 15.476 244.452 15.476C243.851 15.476 243.374 15.608 243.022 15.872C242.685 16.1213 242.428 16.4293 242.252 16.796C242.091 17.148 241.996 17.4853 241.966 17.808ZM267.675 23.044C267.132 22.824 266.619 22.5893 266.135 22.34C265.666 22.076 265.167 21.768 264.639 21.416C264.038 22.0027 263.348 22.4427 262.571 22.736C261.794 23.0293 261.002 23.1833 260.195 23.198C259.403 23.2127 258.67 23.088 257.995 22.824C257.32 22.5453 256.77 22.1347 256.345 21.592C255.934 21.0347 255.729 20.3453 255.729 19.524C255.729 18.952 255.839 18.468 256.059 18.072C256.279 17.676 256.55 17.3533 256.873 17.104C257.196 16.84 257.518 16.6273 257.841 16.466C258.164 16.29 258.42 16.1507 258.611 16.048C258.494 15.8867 258.325 15.6667 258.105 15.388C257.9 15.1093 257.709 14.7867 257.533 14.42C257.372 14.0387 257.291 13.6133 257.291 13.144C257.291 12.5573 257.445 12.066 257.753 11.67C258.061 11.2593 258.464 10.9513 258.963 10.746C259.462 10.5407 259.99 10.438 260.547 10.438C261.104 10.4233 261.632 10.5113 262.131 10.702C262.63 10.8927 263.033 11.186 263.341 11.582C263.664 11.9633 263.825 12.4473 263.825 13.034C263.825 13.5327 263.693 13.98 263.429 14.376C263.18 14.7573 262.872 15.0873 262.505 15.366C262.153 15.6447 261.823 15.8647 261.515 16.026C261.222 16.1873 261.031 16.29 260.943 16.334C261.104 16.5393 261.339 16.8107 261.647 17.148C261.97 17.4707 262.336 17.8153 262.747 18.182C263.172 18.534 263.605 18.8713 264.045 19.194C264.206 18.9447 264.36 18.6147 264.507 18.204C264.654 17.7933 264.72 17.3753 264.705 16.95C264.705 16.5247 264.558 16.158 264.265 15.85L265.805 14.816C265.922 14.992 266.047 15.2707 266.179 15.652C266.326 16.0333 266.421 16.4807 266.465 16.994C266.524 17.5073 266.494 18.0427 266.377 18.6C266.26 19.1573 266.018 19.6927 265.651 20.206C266.076 20.4993 266.487 20.7633 266.883 20.998C267.294 21.218 267.785 21.438 268.357 21.658L267.675 23.044ZM259.931 15.476C260.034 15.432 260.21 15.344 260.459 15.212C260.708 15.08 260.965 14.9187 261.229 14.728C261.493 14.5373 261.72 14.3247 261.911 14.09C262.116 13.8407 262.226 13.5767 262.241 13.298C262.27 12.9167 262.175 12.616 261.955 12.396C261.735 12.1613 261.456 12.0073 261.119 11.934C260.796 11.846 260.466 11.846 260.129 11.934C259.792 12.0073 259.506 12.1613 259.271 12.396C259.051 12.616 258.941 12.924 258.941 13.32C258.956 13.9507 259.286 14.6693 259.931 15.476ZM263.209 20.382C262.549 19.8833 261.896 19.326 261.251 18.71C260.606 18.094 260.056 17.5 259.601 16.928C259.058 17.192 258.582 17.5 258.171 17.852C257.76 18.204 257.555 18.688 257.555 19.304C257.555 19.9493 257.753 20.4627 258.149 20.844C258.56 21.2107 259.073 21.4453 259.689 21.548C260.305 21.6507 260.928 21.6067 261.559 21.416C262.204 21.2253 262.754 20.8807 263.209 20.382ZM273.949 12.198V10.614H283.409V12.198H279.603V23H277.777V12.198H273.949ZM287.101 23.22C286.089 23.22 285.26 23 284.615 22.56C283.97 22.1053 283.493 21.526 283.185 20.822C282.877 20.118 282.723 19.3773 282.723 18.6C282.708 17.7347 282.87 16.95 283.207 16.246C283.559 15.542 284.058 14.9847 284.703 14.574C285.363 14.1633 286.148 13.958 287.057 13.958C287.834 13.958 288.531 14.134 289.147 14.486C289.778 14.8233 290.276 15.3073 290.643 15.938C291.01 16.554 291.208 17.2873 291.237 18.138C291.237 18.182 291.237 18.27 291.237 18.402C291.252 18.5193 291.259 18.622 291.259 18.71H284.461C284.461 19.6487 284.688 20.382 285.143 20.91C285.612 21.4233 286.258 21.68 287.079 21.68C287.695 21.68 288.216 21.526 288.641 21.218C289.081 20.8953 289.352 20.47 289.455 19.942H291.237C291.105 20.8807 290.68 21.6653 289.961 22.296C289.242 22.912 288.289 23.22 287.101 23.22ZM284.527 17.808H289.411C289.396 17.6467 289.352 17.434 289.279 17.17C289.206 16.906 289.081 16.6493 288.905 16.4C288.744 16.136 288.509 15.916 288.201 15.74C287.893 15.564 287.497 15.476 287.013 15.476C286.412 15.476 285.935 15.608 285.583 15.872C285.246 16.1213 284.989 16.4293 284.813 16.796C284.652 17.148 284.556 17.4853 284.527 17.808ZM296.144 23.198C295.308 23.198 294.633 23.0073 294.12 22.626C293.606 22.23 293.225 21.6873 292.976 20.998C292.741 20.294 292.624 19.4947 292.624 18.6C292.624 17.236 292.902 16.1213 293.46 15.256C294.017 14.376 294.912 13.936 296.144 13.936C296.804 13.936 297.339 14.0533 297.75 14.288C298.16 14.5227 298.476 14.7867 298.696 15.08C298.93 15.3733 299.092 15.63 299.18 15.85H299.224V14.002H301.094V23H299.532L299.224 21.394H299.18C299.092 21.614 298.93 21.8707 298.696 22.164C298.461 22.4427 298.138 22.6847 297.728 22.89C297.317 23.0953 296.789 23.198 296.144 23.198ZM296.87 21.636C297.735 21.636 298.336 21.3573 298.674 20.8C299.026 20.2427 299.202 19.5167 299.202 18.622C299.202 17.6833 299.018 16.9427 298.652 16.4C298.3 15.8573 297.706 15.586 296.87 15.586C296.254 15.586 295.77 15.7253 295.418 16.004C295.066 16.268 294.809 16.6273 294.648 17.082C294.501 17.5367 294.428 18.0427 294.428 18.6C294.428 19.4653 294.611 20.1913 294.978 20.778C295.344 21.35 295.975 21.636 296.87 21.636ZM302.709 23V14.002H304.293L304.337 16.092H304.381C304.41 16.0187 304.469 15.872 304.557 15.652C304.66 15.432 304.814 15.1973 305.019 14.948C305.239 14.684 305.525 14.464 305.877 14.288C306.229 14.0973 306.662 14.002 307.175 14.002C307.952 14.002 308.524 14.2147 308.891 14.64C309.272 15.0507 309.544 15.5347 309.705 16.092H309.749C309.764 16.0187 309.83 15.872 309.947 15.652C310.064 15.432 310.233 15.1973 310.453 14.948C310.688 14.684 310.988 14.464 311.355 14.288C311.722 14.0973 312.169 14.002 312.697 14.002C313.269 14.002 313.731 14.1193 314.083 14.354C314.45 14.5887 314.728 14.8967 314.919 15.278C315.124 15.6447 315.264 16.0407 315.337 16.466C315.425 16.8767 315.476 17.2727 315.491 17.654C315.506 18.0353 315.513 18.3507 315.513 18.6V23H313.951V18.578C313.951 18.358 313.936 18.0867 313.907 17.764C313.892 17.4267 313.826 17.0967 313.709 16.774C313.606 16.4367 313.423 16.1653 313.159 15.96C312.91 15.74 312.55 15.63 312.081 15.63C311.524 15.63 311.091 15.7767 310.783 16.07C310.475 16.3633 310.255 16.752 310.123 17.236C309.991 17.7053 309.925 18.1967 309.925 18.71V23H308.363V18.578C308.363 18.358 308.348 18.0867 308.319 17.764C308.304 17.4267 308.238 17.0967 308.121 16.774C308.018 16.4367 307.835 16.1653 307.571 15.96C307.322 15.74 306.962 15.63 306.493 15.63C305.936 15.63 305.503 15.7767 305.195 16.07C304.887 16.3633 304.667 16.752 304.535 17.236C304.403 17.7053 304.337 18.1967 304.337 18.71V23H302.709Z" fill="#131313"/>
<path d="M187.356 54.18C186.744 54.18 186.15 54.06 185.574 53.82C184.998 53.568 184.518 53.19 184.134 52.686C183.762 52.182 183.57 51.552 183.558 50.796L184.332 50.742C184.368 51.366 184.536 51.882 184.836 52.29C185.136 52.686 185.514 52.98 185.97 53.172C186.426 53.352 186.894 53.442 187.374 53.442C187.89 53.442 188.37 53.352 188.814 53.172C189.258 52.992 189.612 52.734 189.876 52.398C190.14 52.05 190.272 51.642 190.272 51.174C190.272 50.742 190.188 50.388 190.02 50.112C189.852 49.836 189.642 49.62 189.39 49.464C189.138 49.308 188.886 49.2 188.634 49.14C188.382 49.068 188.166 49.032 187.986 49.032H186.42V48.528H188.004C188.652 48.528 189.144 48.36 189.48 48.024C189.828 47.688 190.002 47.256 190.002 46.728C190.002 45.996 189.756 45.426 189.264 45.018C188.772 44.598 188.118 44.388 187.302 44.388C186.798 44.388 186.372 44.472 186.024 44.64C185.676 44.808 185.394 45.018 185.178 45.27C184.962 45.522 184.8 45.78 184.692 46.044C184.596 46.308 184.536 46.542 184.512 46.746L183.774 46.674C183.786 46.482 183.852 46.224 183.972 45.9C184.092 45.564 184.284 45.228 184.548 44.892C184.812 44.556 185.166 44.274 185.61 44.046C186.066 43.806 186.63 43.686 187.302 43.686C188.346 43.686 189.186 43.95 189.822 44.478C190.458 44.994 190.776 45.708 190.776 46.62C190.776 47.22 190.62 47.694 190.308 48.042C189.996 48.378 189.588 48.624 189.084 48.78C189.612 48.936 190.068 49.23 190.452 49.662C190.848 50.082 191.046 50.616 191.046 51.264C191.046 51.852 190.884 52.368 190.56 52.812C190.236 53.244 189.798 53.58 189.246 53.82C188.694 54.06 188.064 54.18 187.356 54.18ZM198.167 54L196.079 46.926V46.692H196.853L198.725 53.298H198.761L200.795 46.692H201.551L203.621 53.298H203.657L205.493 46.692H206.267V46.926L204.215 54H203.027L201.191 48.132H201.155L199.337 54H198.167ZM210.532 54.18C209.752 54.18 209.104 53.994 208.588 53.622C208.084 53.25 207.706 52.776 207.454 52.2C207.202 51.612 207.082 51.006 207.094 50.382C207.094 49.734 207.226 49.128 207.49 48.564C207.754 48 208.138 47.55 208.642 47.214C209.158 46.866 209.782 46.692 210.514 46.692C211.426 46.692 212.176 46.992 212.764 47.592C213.364 48.18 213.7 48.972 213.772 49.968C213.784 50.028 213.79 50.1 213.79 50.184C213.79 50.268 213.79 50.346 213.79 50.418H207.886C207.886 51.342 208.114 52.08 208.57 52.632C209.026 53.184 209.68 53.46 210.532 53.46C211.144 53.46 211.672 53.298 212.116 52.974C212.572 52.65 212.854 52.212 212.962 51.66H213.772C213.628 52.404 213.262 53.01 212.674 53.478C212.098 53.946 211.384 54.18 210.532 54.18ZM207.94 49.878H212.944C212.932 49.566 212.842 49.218 212.674 48.834C212.518 48.45 212.26 48.114 211.9 47.826C211.552 47.538 211.09 47.394 210.514 47.394C209.722 47.394 209.116 47.64 208.696 48.132C208.276 48.624 208.024 49.206 207.94 49.878ZM218.548 54.18C217.768 54.18 217.12 53.994 216.604 53.622C216.1 53.25 215.722 52.776 215.47 52.2C215.218 51.612 215.098 51.006 215.11 50.382C215.11 49.734 215.242 49.128 215.506 48.564C215.77 48 216.154 47.55 216.658 47.214C217.174 46.866 217.798 46.692 218.53 46.692C219.442 46.692 220.192 46.992 220.78 47.592C221.38 48.18 221.716 48.972 221.788 49.968C221.8 50.028 221.806 50.1 221.806 50.184C221.806 50.268 221.806 50.346 221.806 50.418H215.902C215.902 51.342 216.13 52.08 216.586 52.632C217.042 53.184 217.696 53.46 218.548 53.46C219.16 53.46 219.688 53.298 220.132 52.974C220.588 52.65 220.87 52.212 220.978 51.66H221.788C221.644 52.404 221.278 53.01 220.69 53.478C220.114 53.946 219.4 54.18 218.548 54.18ZM215.956 49.878H220.96C220.948 49.566 220.858 49.218 220.69 48.834C220.534 48.45 220.276 48.114 219.916 47.826C219.568 47.538 219.106 47.394 218.53 47.394C217.738 47.394 217.132 47.64 216.712 48.132C216.292 48.624 216.04 49.206 215.956 49.878ZM224.368 54.018H223.54V43.866H224.368V50.994L228.778 46.692H229.876L226.564 49.878L229.93 54.018H228.904L225.97 50.454L224.368 52.02V54.018ZM233.637 54.18C233.025 54.18 232.527 54.078 232.143 53.874C231.759 53.658 231.465 53.406 231.261 53.118C231.057 52.83 230.913 52.554 230.829 52.29C230.757 52.026 230.721 51.834 230.721 51.714H231.531C231.531 51.726 231.537 51.828 231.549 52.02C231.573 52.2 231.645 52.41 231.765 52.65C231.885 52.89 232.089 53.1 232.377 53.28C232.677 53.448 233.103 53.532 233.655 53.532C234.039 53.532 234.399 53.49 234.735 53.406C235.083 53.31 235.359 53.166 235.563 52.974C235.779 52.77 235.887 52.506 235.887 52.182C235.875 51.798 235.749 51.504 235.509 51.3C235.269 51.084 234.957 50.922 234.573 50.814C234.189 50.706 233.787 50.61 233.367 50.526C232.947 50.442 232.545 50.328 232.161 50.184C231.789 50.04 231.483 49.83 231.243 49.554C231.015 49.278 230.907 48.9 230.919 48.42C230.919 47.856 231.183 47.394 231.711 47.034C232.239 46.674 232.917 46.494 233.745 46.494C234.057 46.494 234.381 46.53 234.717 46.602C235.065 46.674 235.389 46.8 235.689 46.98C235.989 47.16 236.229 47.412 236.409 47.736C236.589 48.048 236.667 48.45 236.643 48.942H235.851C235.875 48.57 235.815 48.27 235.671 48.042C235.527 47.802 235.335 47.622 235.095 47.502C234.867 47.382 234.627 47.304 234.375 47.268C234.123 47.22 233.895 47.196 233.691 47.196C233.127 47.196 232.647 47.304 232.251 47.52C231.867 47.724 231.675 48.03 231.675 48.438C231.675 48.81 231.795 49.092 232.035 49.284C232.275 49.464 232.587 49.608 232.971 49.716C233.355 49.812 233.757 49.908 234.177 50.004C234.597 50.088 234.993 50.208 235.365 50.364C235.749 50.508 236.061 50.724 236.301 51.012C236.553 51.3 236.679 51.702 236.679 52.218C236.679 52.674 236.541 53.052 236.265 53.352C235.989 53.64 235.617 53.85 235.149 53.982C234.693 54.114 234.189 54.18 233.637 54.18ZM243.961 54C243.577 54 243.331 53.892 243.223 53.676C243.115 53.46 243.061 53.202 243.061 52.902V47.358H241.855V46.692C242.287 46.692 242.587 46.668 242.755 46.62C242.923 46.56 243.025 46.398 243.061 46.134C243.097 45.87 243.115 45.426 243.115 44.802H243.853V46.692H245.563V47.358H243.853V53.298H245.563V54H243.961ZM250.047 54.18C248.907 54.18 248.049 53.832 247.473 53.136C246.909 52.428 246.627 51.534 246.627 50.454C246.627 49.35 246.915 48.45 247.491 47.754C248.067 47.046 248.919 46.692 250.047 46.692C251.151 46.692 251.991 47.04 252.567 47.736C253.155 48.42 253.449 49.326 253.449 50.454C253.449 51.162 253.323 51.798 253.071 52.362C252.831 52.914 252.459 53.358 251.955 53.694C251.463 54.018 250.827 54.18 250.047 54.18ZM250.047 53.442C250.719 53.442 251.241 53.292 251.613 52.992C251.985 52.692 252.243 52.314 252.387 51.858C252.543 51.39 252.621 50.916 252.621 50.436C252.621 49.944 252.543 49.47 252.387 49.014C252.243 48.546 251.985 48.162 251.613 47.862C251.241 47.55 250.719 47.394 250.047 47.394C249.375 47.394 248.853 47.55 248.481 47.862C248.109 48.162 247.845 48.546 247.689 49.014C247.533 49.47 247.455 49.944 247.455 50.436C247.455 50.916 247.533 51.39 247.689 51.858C247.845 52.314 248.109 52.692 248.481 52.992C248.853 53.292 249.375 53.442 250.047 53.442ZM262.778 54.18C262.082 54.18 261.488 54.018 260.996 53.694C260.516 53.358 260.15 52.908 259.898 52.344C259.646 51.768 259.52 51.132 259.52 50.436C259.52 49.728 259.646 49.092 259.898 48.528C260.162 47.964 260.534 47.52 261.014 47.196C261.506 46.86 262.1 46.692 262.796 46.692C263.3 46.692 263.72 46.782 264.056 46.962C264.392 47.13 264.662 47.334 264.866 47.574C265.082 47.802 265.244 48.024 265.352 48.24C265.46 48.444 265.526 48.588 265.55 48.672H265.586L265.604 43.866H266.432V54H265.748L265.604 52.218H265.568C265.532 52.302 265.454 52.446 265.334 52.65C265.226 52.854 265.064 53.076 264.848 53.316C264.632 53.556 264.35 53.76 264.002 53.928C263.666 54.096 263.258 54.18 262.778 54.18ZM262.886 53.406C263.63 53.406 264.26 53.148 264.776 52.632C265.292 52.116 265.55 51.384 265.55 50.436C265.55 49.512 265.304 48.792 264.812 48.276C264.332 47.748 263.732 47.484 263.012 47.484C262.412 47.484 261.914 47.628 261.518 47.916C261.122 48.192 260.822 48.558 260.618 49.014C260.426 49.458 260.33 49.932 260.33 50.436C260.33 50.94 260.42 51.42 260.6 51.876C260.78 52.332 261.056 52.704 261.428 52.992C261.8 53.268 262.286 53.406 262.886 53.406ZM271.176 54.18C270.036 54.18 269.178 53.832 268.602 53.136C268.038 52.428 267.756 51.534 267.756 50.454C267.756 49.35 268.044 48.45 268.62 47.754C269.196 47.046 270.048 46.692 271.176 46.692C272.28 46.692 273.12 47.04 273.696 47.736C274.284 48.42 274.578 49.326 274.578 50.454C274.578 51.162 274.452 51.798 274.2 52.362C273.96 52.914 273.588 53.358 273.084 53.694C272.592 54.018 271.956 54.18 271.176 54.18ZM271.176 53.442C271.848 53.442 272.37 53.292 272.742 52.992C273.114 52.692 273.372 52.314 273.516 51.858C273.672 51.39 273.75 50.916 273.75 50.436C273.75 49.944 273.672 49.47 273.516 49.014C273.372 48.546 273.114 48.162 272.742 47.862C272.37 47.55 271.848 47.394 271.176 47.394C270.504 47.394 269.982 47.55 269.61 47.862C269.238 48.162 268.974 48.546 268.818 49.014C268.662 49.47 268.584 49.944 268.584 50.436C268.584 50.916 268.662 51.39 268.818 51.858C268.974 52.314 269.238 52.692 269.61 52.992C269.982 53.292 270.504 53.442 271.176 53.442ZM183.936 78V70.692H184.638L184.746 72.564C184.866 72.048 185.148 71.604 185.592 71.232C186.036 70.86 186.66 70.68 187.464 70.692H187.86V71.61H187.464C186.648 71.61 186.048 71.742 185.664 72.006C185.28 72.258 185.028 72.6 184.908 73.032C184.8 73.464 184.746 73.944 184.746 74.472V78H183.936ZM191.935 78.18C191.155 78.18 190.507 77.994 189.991 77.622C189.487 77.25 189.109 76.776 188.857 76.2C188.605 75.612 188.485 75.006 188.497 74.382C188.497 73.734 188.629 73.128 188.893 72.564C189.157 72 189.541 71.55 190.045 71.214C190.561 70.866 191.185 70.692 191.917 70.692C192.829 70.692 193.579 70.992 194.167 71.592C194.767 72.18 195.103 72.972 195.175 73.968C195.187 74.028 195.193 74.1 195.193 74.184C195.193 74.268 195.193 74.346 195.193 74.418H189.289C189.289 75.342 189.517 76.08 189.973 76.632C190.429 77.184 191.083 77.46 191.935 77.46C192.547 77.46 193.075 77.298 193.519 76.974C193.975 76.65 194.257 76.212 194.365 75.66H195.175C195.031 76.404 194.665 77.01 194.077 77.478C193.501 77.946 192.787 78.18 191.935 78.18ZM189.343 73.878H194.347C194.335 73.566 194.245 73.218 194.077 72.834C193.921 72.45 193.663 72.114 193.303 71.826C192.955 71.538 192.493 71.394 191.917 71.394C191.125 71.394 190.519 71.64 190.099 72.132C189.679 72.624 189.427 73.206 189.343 73.878ZM199.482 78.18C198.87 78.18 198.372 78.078 197.988 77.874C197.604 77.658 197.31 77.406 197.106 77.118C196.902 76.83 196.758 76.554 196.674 76.29C196.602 76.026 196.566 75.834 196.566 75.714H197.376C197.376 75.726 197.382 75.828 197.394 76.02C197.418 76.2 197.49 76.41 197.61 76.65C197.73 76.89 197.934 77.1 198.222 77.28C198.522 77.448 198.948 77.532 199.5 77.532C199.884 77.532 200.244 77.49 200.58 77.406C200.928 77.31 201.204 77.166 201.408 76.974C201.624 76.77 201.732 76.506 201.732 76.182C201.72 75.798 201.594 75.504 201.354 75.3C201.114 75.084 200.802 74.922 200.418 74.814C200.034 74.706 199.632 74.61 199.212 74.526C198.792 74.442 198.39 74.328 198.006 74.184C197.634 74.04 197.328 73.83 197.088 73.554C196.86 73.278 196.752 72.9 196.764 72.42C196.764 71.856 197.028 71.394 197.556 71.034C198.084 70.674 198.762 70.494 199.59 70.494C199.902 70.494 200.226 70.53 200.562 70.602C200.91 70.674 201.234 70.8 201.534 70.98C201.834 71.16 202.074 71.412 202.254 71.736C202.434 72.048 202.512 72.45 202.488 72.942H201.696C201.72 72.57 201.66 72.27 201.516 72.042C201.372 71.802 201.18 71.622 200.94 71.502C200.712 71.382 200.472 71.304 200.22 71.268C199.968 71.22 199.74 71.196 199.536 71.196C198.972 71.196 198.492 71.304 198.096 71.52C197.712 71.724 197.52 72.03 197.52 72.438C197.52 72.81 197.64 73.092 197.88 73.284C198.12 73.464 198.432 73.608 198.816 73.716C199.2 73.812 199.602 73.908 200.022 74.004C200.442 74.088 200.838 74.208 201.21 74.364C201.594 74.508 201.906 74.724 202.146 75.012C202.398 75.3 202.524 75.702 202.524 76.218C202.524 76.674 202.386 77.052 202.11 77.352C201.834 77.64 201.462 77.85 200.994 77.982C200.538 78.114 200.034 78.18 199.482 78.18ZM207.087 78.18C206.307 78.18 205.659 77.994 205.143 77.622C204.639 77.25 204.261 76.776 204.009 76.2C203.757 75.612 203.637 75.006 203.649 74.382C203.649 73.734 203.781 73.128 204.045 72.564C204.309 72 204.693 71.55 205.197 71.214C205.713 70.866 206.337 70.692 207.069 70.692C207.981 70.692 208.731 70.992 209.319 71.592C209.919 72.18 210.255 72.972 210.327 73.968C210.339 74.028 210.345 74.1 210.345 74.184C210.345 74.268 210.345 74.346 210.345 74.418H204.441C204.441 75.342 204.669 76.08 205.125 76.632C205.581 77.184 206.235 77.46 207.087 77.46C207.699 77.46 208.227 77.298 208.671 76.974C209.127 76.65 209.409 76.212 209.517 75.66H210.327C210.183 76.404 209.817 77.01 209.229 77.478C208.653 77.946 207.939 78.18 207.087 78.18ZM204.495 73.878H209.499C209.487 73.566 209.397 73.218 209.229 72.834C209.073 72.45 208.815 72.114 208.455 71.826C208.107 71.538 207.645 71.394 207.069 71.394C206.277 71.394 205.671 71.64 205.251 72.132C204.831 72.624 204.579 73.206 204.495 73.878ZM214.437 78.162C213.765 78.162 213.207 77.994 212.763 77.658C212.319 77.322 211.989 76.872 211.773 76.308C211.557 75.732 211.449 75.096 211.449 74.4C211.449 73.68 211.557 73.038 211.773 72.474C212.001 71.898 212.337 71.448 212.781 71.124C213.225 70.788 213.777 70.62 214.437 70.62C215.145 70.62 215.709 70.794 216.129 71.142C216.549 71.478 216.849 71.868 217.029 72.312H217.065V70.692H217.893V78H217.209L217.065 76.488H217.029C216.837 76.932 216.531 77.322 216.111 77.658C215.691 77.994 215.133 78.162 214.437 78.162ZM214.743 77.406C215.511 77.406 216.087 77.142 216.471 76.614C216.855 76.086 217.047 75.354 217.047 74.418C217.047 73.422 216.843 72.672 216.435 72.168C216.039 71.664 215.475 71.412 214.743 71.412C213.891 71.412 213.267 71.7 212.871 72.276C212.475 72.84 212.277 73.548 212.277 74.4C212.277 75.288 212.481 76.014 212.889 76.578C213.297 77.13 213.915 77.406 214.743 77.406ZM219.514 78V70.692H220.216L220.324 72.564C220.444 72.048 220.726 71.604 221.17 71.232C221.614 70.86 222.238 70.68 223.042 70.692H223.438V71.61H223.042C222.226 71.61 221.626 71.742 221.242 72.006C220.858 72.258 220.606 72.6 220.486 73.032C220.378 73.464 220.324 73.944 220.324 74.472V78H219.514ZM224.431 78V67.866H225.259V72.636H225.295C225.319 72.552 225.379 72.408 225.475 72.204C225.571 72 225.721 71.784 225.925 71.556C226.129 71.316 226.393 71.112 226.717 70.944C227.053 70.776 227.467 70.692 227.959 70.692C228.583 70.692 229.081 70.806 229.453 71.034C229.837 71.25 230.125 71.538 230.317 71.898C230.509 72.258 230.635 72.654 230.695 73.086C230.755 73.518 230.785 73.95 230.785 74.382V78H229.993V74.364C229.993 73.476 229.837 72.768 229.525 72.24C229.213 71.712 228.643 71.448 227.815 71.448C227.239 71.448 226.759 71.592 226.375 71.88C225.991 72.156 225.709 72.534 225.529 73.014C225.349 73.482 225.259 73.992 225.259 74.544V78H224.431ZM187.86 101.262V102H184.044V101.262H185.61V93.36C185.442 93.816 185.196 94.152 184.872 94.368C184.56 94.572 184.26 94.71 183.972 94.782C183.696 94.842 183.516 94.872 183.432 94.872V94.044C183.504 94.044 183.654 94.02 183.882 93.972C184.11 93.912 184.362 93.804 184.638 93.648C184.914 93.492 185.148 93.27 185.34 92.982C185.544 92.694 185.652 92.322 185.664 91.866H186.384V101.262H187.86ZM197.989 102.252C196.669 102.252 195.649 101.856 194.929 101.064C194.221 100.26 193.867 99.132 193.867 97.68V91.866H194.695V97.68C194.695 98.952 194.989 99.906 195.577 100.542C196.177 101.166 196.981 101.478 197.989 101.478C199.057 101.478 199.873 101.166 200.437 100.542C201.013 99.918 201.301 98.964 201.301 97.68V91.866H202.111V97.68C202.111 99.156 201.757 100.29 201.049 101.082C200.353 101.862 199.333 102.252 197.989 102.252ZM203.666 102L207.446 96.618L204.044 91.866H205.07L207.95 96.042L210.848 91.866H211.856L208.49 96.618L212.288 102H211.298L207.95 97.194L204.62 102H203.666ZM227.141 96.924C227.141 98.256 226.889 99.294 226.385 100.038C225.893 100.77 225.197 101.28 224.297 101.568C223.397 101.856 222.347 102 221.147 102H218.519V91.866H221.147C222.347 91.866 223.397 92.058 224.297 92.442C225.197 92.814 225.893 93.372 226.385 94.116C226.889 94.86 227.141 95.796 227.141 96.924ZM219.347 101.28H221.291C222.287 101.28 223.157 101.166 223.901 100.938C224.657 100.71 225.239 100.284 225.647 99.66C226.067 99.036 226.277 98.124 226.277 96.924C226.277 95.94 226.067 95.13 225.647 94.494C225.239 93.846 224.657 93.372 223.901 93.072C223.157 92.76 222.287 92.604 221.291 92.604H219.347V101.28ZM231.661 102.18C230.881 102.18 230.233 101.994 229.717 101.622C229.213 101.25 228.835 100.776 228.583 100.2C228.331 99.612 228.211 99.006 228.223 98.382C228.223 97.734 228.355 97.128 228.619 96.564C228.883 96 229.267 95.55 229.771 95.214C230.287 94.866 230.911 94.692 231.643 94.692C232.555 94.692 233.305 94.992 233.893 95.592C234.493 96.18 234.829 96.972 234.901 97.968C234.913 98.028 234.919 98.1 234.919 98.184C234.919 98.268 234.919 98.346 234.919 98.418H229.015C229.015 99.342 229.243 100.08 229.699 100.632C230.155 101.184 230.809 101.46 231.661 101.46C232.273 101.46 232.801 101.298 233.245 100.974C233.701 100.65 233.983 100.212 234.091 99.66H234.901C234.757 100.404 234.391 101.01 233.803 101.478C233.227 101.946 232.513 102.18 231.661 102.18ZM229.069 97.878H234.073C234.061 97.566 233.971 97.218 233.803 96.834C233.647 96.45 233.389 96.114 233.029 95.826C232.681 95.538 232.219 95.394 231.643 95.394C230.851 95.394 230.245 95.64 229.825 96.132C229.405 96.624 229.153 97.206 229.069 97.878ZM239.209 102.18C238.597 102.18 238.099 102.078 237.715 101.874C237.331 101.658 237.037 101.406 236.833 101.118C236.629 100.83 236.485 100.554 236.401 100.29C236.329 100.026 236.293 99.834 236.293 99.714H237.103C237.103 99.726 237.109 99.828 237.121 100.02C237.145 100.2 237.217 100.41 237.337 100.65C237.457 100.89 237.661 101.1 237.949 101.28C238.249 101.448 238.675 101.532 239.227 101.532C239.611 101.532 239.971 101.49 240.307 101.406C240.655 101.31 240.931 101.166 241.135 100.974C241.351 100.77 241.459 100.506 241.459 100.182C241.447 99.798 241.321 99.504 241.081 99.3C240.841 99.084 240.529 98.922 240.145 98.814C239.761 98.706 239.359 98.61 238.939 98.526C238.519 98.442 238.117 98.328 237.733 98.184C237.361 98.04 237.055 97.83 236.815 97.554C236.587 97.278 236.479 96.9 236.491 96.42C236.491 95.856 236.755 95.394 237.283 95.034C237.811 94.674 238.489 94.494 239.317 94.494C239.629 94.494 239.953 94.53 240.289 94.602C240.637 94.674 240.961 94.8 241.261 94.98C241.561 95.16 241.801 95.412 241.981 95.736C242.161 96.048 242.239 96.45 242.215 96.942H241.423C241.447 96.57 241.387 96.27 241.243 96.042C241.099 95.802 240.907 95.622 240.667 95.502C240.439 95.382 240.199 95.304 239.947 95.268C239.695 95.22 239.467 95.196 239.263 95.196C238.699 95.196 238.219 95.304 237.823 95.52C237.439 95.724 237.247 96.03 237.247 96.438C237.247 96.81 237.367 97.092 237.607 97.284C237.847 97.464 238.159 97.608 238.543 97.716C238.927 97.812 239.329 97.908 239.749 98.004C240.169 98.088 240.565 98.208 240.937 98.364C241.321 98.508 241.633 98.724 241.873 99.012C242.125 99.3 242.251 99.702 242.251 100.218C242.251 100.674 242.113 101.052 241.837 101.352C241.561 101.64 241.189 101.85 240.721 101.982C240.265 102.114 239.761 102.18 239.209 102.18ZM244.33 93.918C244.126 93.93 243.988 93.876 243.916 93.756C243.844 93.636 243.808 93.492 243.808 93.324C243.808 93.168 243.844 93.036 243.916 92.928C243.988 92.82 244.126 92.766 244.33 92.766C244.522 92.766 244.654 92.82 244.726 92.928C244.798 93.036 244.834 93.168 244.834 93.324C244.834 93.504 244.798 93.648 244.726 93.756C244.654 93.864 244.522 93.918 244.33 93.918ZM243.898 102V94.692H244.708V102H243.898ZM248.13 104.88V104.106H251.982V100.218H251.946C251.922 100.302 251.85 100.446 251.73 100.65C251.622 100.854 251.46 101.076 251.244 101.316C251.028 101.556 250.746 101.76 250.398 101.928C250.062 102.096 249.654 102.18 249.174 102.18C248.478 102.18 247.884 102.012 247.392 101.676C246.912 101.34 246.546 100.89 246.294 100.326C246.042 99.762 245.916 99.132 245.916 98.436C245.916 97.728 246.042 97.092 246.294 96.528C246.558 95.964 246.93 95.52 247.41 95.196C247.902 94.86 248.496 94.692 249.192 94.692C249.684 94.692 250.098 94.782 250.434 94.962C250.782 95.13 251.058 95.334 251.262 95.574C251.478 95.802 251.634 96.024 251.73 96.24C251.838 96.444 251.904 96.588 251.928 96.672H251.964L251.982 94.692H252.828V103.566C252.828 103.95 252.756 104.262 252.612 104.502C252.48 104.754 252.198 104.88 251.766 104.88H248.13ZM249.282 101.406C250.014 101.406 250.638 101.148 251.154 100.632C251.682 100.116 251.946 99.384 251.946 98.436C251.946 97.512 251.7 96.792 251.208 96.276C250.716 95.748 250.11 95.484 249.39 95.484C248.79 95.484 248.292 95.628 247.896 95.916C247.5 96.192 247.206 96.558 247.014 97.014C246.822 97.458 246.726 97.932 246.726 98.436C246.726 98.94 246.81 99.42 246.978 99.876C247.158 100.332 247.434 100.704 247.806 100.992C248.19 101.268 248.682 101.406 249.282 101.406ZM254.454 102V94.71H255.138L255.282 96.636H255.318C255.342 96.552 255.402 96.408 255.498 96.204C255.594 96 255.744 95.784 255.948 95.556C256.152 95.316 256.422 95.112 256.758 94.944C257.094 94.776 257.514 94.692 258.018 94.692C258.642 94.692 259.14 94.806 259.512 95.034C259.884 95.25 260.166 95.538 260.358 95.898C260.55 96.258 260.676 96.654 260.736 97.086C260.796 97.518 260.826 97.95 260.826 98.382V102H260.016V98.364C260.016 97.476 259.86 96.768 259.548 96.24C259.248 95.712 258.684 95.448 257.856 95.448C257.268 95.448 256.782 95.592 256.398 95.88C256.026 96.156 255.744 96.534 255.552 97.014C255.372 97.482 255.282 97.992 255.282 98.544V102H254.454ZM265.552 102.18C264.772 102.18 264.124 101.994 263.608 101.622C263.104 101.25 262.726 100.776 262.474 100.2C262.222 99.612 262.102 99.006 262.114 98.382C262.114 97.734 262.246 97.128 262.51 96.564C262.774 96 263.158 95.55 263.662 95.214C264.178 94.866 264.802 94.692 265.534 94.692C266.446 94.692 267.196 94.992 267.784 95.592C268.384 96.18 268.72 96.972 268.792 97.968C268.804 98.028 268.81 98.1 268.81 98.184C268.81 98.268 268.81 98.346 268.81 98.418H262.906C262.906 99.342 263.134 100.08 263.59 100.632C264.046 101.184 264.7 101.46 265.552 101.46C266.164 101.46 266.692 101.298 267.136 100.974C267.592 100.65 267.874 100.212 267.982 99.66H268.792C268.648 100.404 268.282 101.01 267.694 101.478C267.118 101.946 266.404 102.18 265.552 102.18ZM262.96 97.878H267.964C267.952 97.566 267.862 97.218 267.694 96.834C267.538 96.45 267.28 96.114 266.92 95.826C266.572 95.538 266.11 95.394 265.534 95.394C264.742 95.394 264.136 95.64 263.716 96.132C263.296 96.624 263.044 97.206 262.96 97.878ZM270.543 102V94.692H271.245L271.353 96.564C271.473 96.048 271.755 95.604 272.199 95.232C272.643 94.86 273.267 94.68 274.071 94.692H274.467V95.61H274.071C273.255 95.61 272.655 95.742 272.271 96.006C271.887 96.258 271.635 96.6 271.515 97.032C271.407 97.464 271.353 97.944 271.353 98.472V102H270.543ZM275.587 103.458V102.756H275.839C276.127 102.756 276.301 102.678 276.361 102.522C276.421 102.378 276.451 102.21 276.451 102.018C275.935 102.09 275.677 101.868 275.677 101.352C275.677 101.184 275.719 101.04 275.803 100.92C275.887 100.788 276.049 100.722 276.289 100.722C276.505 100.722 276.655 100.788 276.739 100.92C276.835 101.052 276.883 101.274 276.883 101.586C276.883 102.186 276.811 102.648 276.667 102.972C276.523 103.296 276.259 103.458 275.875 103.458H275.587ZM287.018 101.262V102H283.202V101.262H284.768V93.36C284.6 93.816 284.354 94.152 284.03 94.368C283.718 94.572 283.418 94.71 283.13 94.782C282.854 94.842 282.674 94.872 282.59 94.872V94.044C282.662 94.044 282.812 94.02 283.04 93.972C283.268 93.912 283.52 93.804 283.796 93.648C284.072 93.492 284.306 93.27 284.498 92.982C284.702 92.694 284.81 92.322 284.822 91.866H285.542V101.262H287.018ZM297.147 102.252C295.827 102.252 294.807 101.856 294.087 101.064C293.379 100.26 293.025 99.132 293.025 97.68V91.866H293.853V97.68C293.853 98.952 294.147 99.906 294.735 100.542C295.335 101.166 296.139 101.478 297.147 101.478C298.215 101.478 299.031 101.166 299.595 100.542C300.171 99.918 300.459 98.964 300.459 97.68V91.866H301.269V97.68C301.269 99.156 300.915 100.29 300.207 101.082C299.511 101.862 298.491 102.252 297.147 102.252ZM302.824 102L306.604 96.618L303.202 91.866H304.228L307.108 96.042L310.006 91.866H311.014L307.648 96.618L311.446 102H310.456L307.108 97.194L303.778 102H302.824ZM184.17 126V115.866H187.32C188.172 115.866 188.892 115.95 189.48 116.118C190.068 116.286 190.512 116.58 190.812 117C191.124 117.408 191.28 117.978 191.28 118.71C191.28 119.166 191.196 119.592 191.028 119.988C190.86 120.384 190.596 120.702 190.236 120.942C189.888 121.182 189.432 121.302 188.868 121.302C189.42 121.302 189.828 121.422 190.092 121.662C190.368 121.89 190.548 122.184 190.632 122.544C190.728 122.892 190.776 123.258 190.776 123.642C190.788 124.026 190.8 124.38 190.812 124.704C190.836 125.016 190.908 125.25 191.028 125.406C191.16 125.55 191.394 125.562 191.73 125.442V126.036C191.67 126.084 191.55 126.126 191.37 126.162C191.202 126.198 191.016 126.186 190.812 126.126C190.608 126.066 190.434 125.928 190.29 125.712C190.146 125.496 190.074 125.166 190.074 124.722C190.074 124.026 190.044 123.468 189.984 123.048C189.936 122.628 189.822 122.31 189.642 122.094C189.474 121.866 189.204 121.716 188.832 121.644C188.472 121.56 187.98 121.518 187.356 121.518C186.732 121.518 185.946 121.524 184.998 121.536V126H184.17ZM184.998 120.87H187.644C188.616 120.87 189.342 120.726 189.822 120.438C190.302 120.138 190.542 119.574 190.542 118.746C190.542 118.11 190.41 117.642 190.146 117.342C189.894 117.03 189.516 116.826 189.012 116.73C188.52 116.634 187.92 116.586 187.212 116.586H184.998V120.87ZM196.312 126.18C195.532 126.18 194.884 125.994 194.368 125.622C193.864 125.25 193.486 124.776 193.234 124.2C192.982 123.612 192.862 123.006 192.874 122.382C192.874 121.734 193.006 121.128 193.27 120.564C193.534 120 193.918 119.55 194.422 119.214C194.938 118.866 195.562 118.692 196.294 118.692C197.206 118.692 197.956 118.992 198.544 119.592C199.144 120.18 199.48 120.972 199.552 121.968C199.564 122.028 199.57 122.1 199.57 122.184C199.57 122.268 199.57 122.346 199.57 122.418H193.666C193.666 123.342 193.894 124.08 194.35 124.632C194.806 125.184 195.46 125.46 196.312 125.46C196.924 125.46 197.452 125.298 197.896 124.974C198.352 124.65 198.634 124.212 198.742 123.66H199.552C199.408 124.404 199.042 125.01 198.454 125.478C197.878 125.946 197.164 126.18 196.312 126.18ZM193.72 121.878H198.724C198.712 121.566 198.622 121.218 198.454 120.834C198.298 120.45 198.04 120.114 197.68 119.826C197.332 119.538 196.87 119.394 196.294 119.394C195.502 119.394 194.896 119.64 194.476 120.132C194.056 120.624 193.804 121.206 193.72 121.878ZM203.859 126.18C203.247 126.18 202.749 126.078 202.365 125.874C201.981 125.658 201.687 125.406 201.483 125.118C201.279 124.83 201.135 124.554 201.051 124.29C200.979 124.026 200.943 123.834 200.943 123.714H201.753C201.753 123.726 201.759 123.828 201.771 124.02C201.795 124.2 201.867 124.41 201.987 124.65C202.107 124.89 202.311 125.1 202.599 125.28C202.899 125.448 203.325 125.532 203.877 125.532C204.261 125.532 204.621 125.49 204.957 125.406C205.305 125.31 205.581 125.166 205.785 124.974C206.001 124.77 206.109 124.506 206.109 124.182C206.097 123.798 205.971 123.504 205.731 123.3C205.491 123.084 205.179 122.922 204.795 122.814C204.411 122.706 204.009 122.61 203.589 122.526C203.169 122.442 202.767 122.328 202.383 122.184C202.011 122.04 201.705 121.83 201.465 121.554C201.237 121.278 201.129 120.9 201.141 120.42C201.141 119.856 201.405 119.394 201.933 119.034C202.461 118.674 203.139 118.494 203.967 118.494C204.279 118.494 204.603 118.53 204.939 118.602C205.287 118.674 205.611 118.8 205.911 118.98C206.211 119.16 206.451 119.412 206.631 119.736C206.811 120.048 206.889 120.45 206.865 120.942H206.073C206.097 120.57 206.037 120.27 205.893 120.042C205.749 119.802 205.557 119.622 205.317 119.502C205.089 119.382 204.849 119.304 204.597 119.268C204.345 119.22 204.117 119.196 203.913 119.196C203.349 119.196 202.869 119.304 202.473 119.52C202.089 119.724 201.897 120.03 201.897 120.438C201.897 120.81 202.017 121.092 202.257 121.284C202.497 121.464 202.809 121.608 203.193 121.716C203.577 121.812 203.979 121.908 204.399 122.004C204.819 122.088 205.215 122.208 205.587 122.364C205.971 122.508 206.283 122.724 206.523 123.012C206.775 123.3 206.901 123.702 206.901 124.218C206.901 124.674 206.763 125.052 206.487 125.352C206.211 125.64 205.839 125.85 205.371 125.982C204.915 126.114 204.411 126.18 203.859 126.18ZM211.464 126.18C210.684 126.18 210.036 125.994 209.52 125.622C209.016 125.25 208.638 124.776 208.386 124.2C208.134 123.612 208.014 123.006 208.026 122.382C208.026 121.734 208.158 121.128 208.422 120.564C208.686 120 209.07 119.55 209.574 119.214C210.09 118.866 210.714 118.692 211.446 118.692C212.358 118.692 213.108 118.992 213.696 119.592C214.296 120.18 214.632 120.972 214.704 121.968C214.716 122.028 214.722 122.1 214.722 122.184C214.722 122.268 214.722 122.346 214.722 122.418H208.818C208.818 123.342 209.046 124.08 209.502 124.632C209.958 125.184 210.612 125.46 211.464 125.46C212.076 125.46 212.604 125.298 213.048 124.974C213.504 124.65 213.786 124.212 213.894 123.66H214.704C214.56 124.404 214.194 125.01 213.606 125.478C213.03 125.946 212.316 126.18 211.464 126.18ZM208.872 121.878H213.876C213.864 121.566 213.774 121.218 213.606 120.834C213.45 120.45 213.192 120.114 212.832 119.826C212.484 119.538 212.022 119.394 211.446 119.394C210.654 119.394 210.048 119.64 209.628 120.132C209.208 120.624 208.956 121.206 208.872 121.878ZM218.814 126.162C218.142 126.162 217.584 125.994 217.14 125.658C216.696 125.322 216.366 124.872 216.15 124.308C215.934 123.732 215.826 123.096 215.826 122.4C215.826 121.68 215.934 121.038 216.15 120.474C216.378 119.898 216.714 119.448 217.158 119.124C217.602 118.788 218.154 118.62 218.814 118.62C219.522 118.62 220.086 118.794 220.506 119.142C220.926 119.478 221.226 119.868 221.406 120.312H221.442V118.692H222.27V126H221.586L221.442 124.488H221.406C221.214 124.932 220.908 125.322 220.488 125.658C220.068 125.994 219.51 126.162 218.814 126.162ZM219.12 125.406C219.888 125.406 220.464 125.142 220.848 124.614C221.232 124.086 221.424 123.354 221.424 122.418C221.424 121.422 221.22 120.672 220.812 120.168C220.416 119.664 219.852 119.412 219.12 119.412C218.268 119.412 217.644 119.7 217.248 120.276C216.852 120.84 216.654 121.548 216.654 122.4C216.654 123.288 216.858 124.014 217.266 124.578C217.674 125.13 218.292 125.406 219.12 125.406ZM223.891 126V118.692H224.593L224.701 120.564C224.821 120.048 225.103 119.604 225.547 119.232C225.991 118.86 226.615 118.68 227.419 118.692H227.815V119.61H227.419C226.603 119.61 226.003 119.742 225.619 120.006C225.235 120.258 224.983 120.6 224.863 121.032C224.755 121.464 224.701 121.944 224.701 122.472V126H223.891ZM231.89 126.18C230.858 126.18 230.018 125.856 229.37 125.208C228.722 124.56 228.398 123.666 228.398 122.526C228.41 121.77 228.566 121.104 228.866 120.528C229.166 119.952 229.58 119.502 230.108 119.178C230.636 118.854 231.248 118.692 231.944 118.692C232.832 118.692 233.564 118.938 234.14 119.43C234.728 119.91 235.088 120.516 235.22 121.248H234.446C234.326 120.684 234.038 120.246 233.582 119.934C233.138 119.61 232.598 119.448 231.962 119.448C231.134 119.448 230.468 119.73 229.964 120.294C229.46 120.858 229.208 121.59 229.208 122.49C229.208 123.39 229.448 124.104 229.928 124.632C230.42 125.16 231.08 125.424 231.908 125.424C232.556 125.424 233.108 125.262 233.564 124.938C234.032 124.614 234.326 124.17 234.446 123.606H235.22C235.088 124.35 234.722 124.968 234.122 125.46C233.522 125.94 232.778 126.18 231.89 126.18ZM236.666 126V115.866H237.494V120.636H237.53C237.554 120.552 237.614 120.408 237.71 120.204C237.806 120 237.956 119.784 238.16 119.556C238.364 119.316 238.628 119.112 238.952 118.944C239.288 118.776 239.702 118.692 240.194 118.692C240.818 118.692 241.316 118.806 241.688 119.034C242.072 119.25 242.36 119.538 242.552 119.898C242.744 120.258 242.87 120.654 242.93 121.086C242.99 121.518 243.02 121.95 243.02 122.382V126H242.228V122.364C242.228 121.476 242.072 120.768 241.76 120.24C241.448 119.712 240.878 119.448 240.05 119.448C239.474 119.448 238.994 119.592 238.61 119.88C238.226 120.156 237.944 120.534 237.764 121.014C237.584 121.482 237.494 121.992 237.494 122.544V126H236.666ZM247.798 126.18C247.018 126.18 246.37 125.994 245.854 125.622C245.35 125.25 244.972 124.776 244.72 124.2C244.468 123.612 244.348 123.006 244.36 122.382C244.36 121.734 244.492 121.128 244.756 120.564C245.02 120 245.404 119.55 245.908 119.214C246.424 118.866 247.048 118.692 247.78 118.692C248.692 118.692 249.442 118.992 250.03 119.592C250.63 120.18 250.966 120.972 251.038 121.968C251.05 122.028 251.056 122.1 251.056 122.184C251.056 122.268 251.056 122.346 251.056 122.418H245.152C245.152 123.342 245.38 124.08 245.836 124.632C246.292 125.184 246.946 125.46 247.798 125.46C248.41 125.46 248.938 125.298 249.382 124.974C249.838 124.65 250.12 124.212 250.228 123.66H251.038C250.894 124.404 250.528 125.01 249.94 125.478C249.364 125.946 248.65 126.18 247.798 126.18ZM245.206 121.878H250.21C250.198 121.566 250.108 121.218 249.94 120.834C249.784 120.45 249.526 120.114 249.166 119.826C248.818 119.538 248.356 119.394 247.78 119.394C246.988 119.394 246.382 119.64 245.962 120.132C245.542 120.624 245.29 121.206 245.206 121.878ZM252.79 126V118.692H253.492L253.6 120.564C253.72 120.048 254.002 119.604 254.446 119.232C254.89 118.86 255.514 118.68 256.318 118.692H256.714V119.61H256.318C255.502 119.61 254.902 119.742 254.518 120.006C254.134 120.258 253.882 120.6 253.762 121.032C253.654 121.464 253.6 121.944 253.6 122.472V126H252.79Z" fill="black"/>
</svg>
